;TYPE=PLATED
;Layer: PTH_Through
;EasyEDA Pro v2.2.43.4, 2025-10-30 23:12:03
;Gerber Generator version 0.3
M48
METRIC,LZ,0000.00000
;Hole size 1 = 0.30480 METRIC
T01C0.30480
;Hole size 2 = 0.30500 METRIC
T02C0.30500
;Hole size 3 = 0.60000 METRIC
T03C0.60000
;Hole size 4 = 4.00000 METRIC
T04C4.00000
%
G05
G90
T01
X21.20087Y28.96413
X20.20087Y28.96413
X20.20087Y29.96413
X21.20087Y29.96413
T02
X26.18979Y35.22895
X26.65216Y35.22895
X25.72351Y35.22895
X6.61052Y20.00684
X6.61052Y20.45353
X6.61052Y19.56602
X15.86664Y16.17102
X15.34354Y16.17102
X16.38974Y16.17102
X20.13428Y6.22938
X19.6915Y6.22546
X9.82954Y6.12173
X10.80814Y6.11863
X15.98165Y6.21172
X17.94274Y6.2172
X25.90295Y1.77616
X3.74546Y20.06067
X29.59884Y29.03282
X10.12828Y36.20215
X15.8683Y35.23795
X27.2834Y26.29503
X18.06544Y3.08539
X18.06152Y2.59951
X16.14769Y26.23503
X14.47456Y25.56842
X11.44934Y24.53928
X2.76006Y16.12444
X4.71687Y12.16633
X4.62078Y9.9075
X10.24611Y11.28749
X14.87031Y24.5519
X9.9077Y9.4388
X35.50935Y10.07011
X26.33724Y23.49227
X29.66906Y16.22965
X29.6909Y10.75657
X14.05201Y14.74745
X19.05782Y3.22972
X23.39227Y5.00343
X26.53854Y17.23122
X34.86961Y12.19876
X16.94945Y6.18613
X18.61132Y6.18812
X19.21755Y11.19581
X11.64906Y16.9336
X12.14536Y14.06986
X7.03333Y36.70404
X12.0733Y34.69687
X17.51736Y34.58176
X18.90152Y34.19262
X20.65743Y34.89499
X22.63619Y35.34168
X24.26231Y35.13009
X24.97557Y35.27639
X16.69262Y26.61043
X10.7453Y25.86909
X6.41089Y27.55564
X20.25496Y10.87872
X30.2541Y17.07093
X19.74013Y11.66429
X26.3543Y19.21624
X31.01407Y32.06689
X21.63208Y32.06585
X29.62049Y21.33993
X30.97728Y5.31162
X19.10001Y22.24276
X25.14541Y24.77035
X19.52284Y22.62415
X25.02371Y25.77597
X3.98603Y23.11761
X24.47404Y13.35118
X25.17692Y13.6322
X25.78562Y13.62073
X26.58851Y13.55778
X21.73288Y26.87159
X23.34862Y25.3295
X20.60236Y23.01018
X26.30999Y21.26999
X10.98Y20.75006
X10.47Y20.22809
X7.86Y7.77
X7.86Y4.89
X10.6175Y21.93391
X11.43241Y25.8129
X11.13Y34.13999
X21.05287Y7.75698
X13.89276Y26.15516
X14.94Y19.72962
X11.99612Y10.21502
X10.31146Y19.07836
X5.2809Y13.84052
X16.2094Y16.9475
X4.49929Y29.36916
X18.92334Y20.70452
X20.61298Y3.72968
X17.19805Y15.08645
X7.32Y26.56872
X20.55722Y20.50065
X10.83Y2.01
X19.80184Y20.58092
X11.82Y2.55
X1.09991Y7.25733
X29.45999Y19.93739
X1.11Y6.56104
X29.42938Y20.53762
X11.61Y31.64999
X9.72Y31.07999
X5.73Y24.50999
X3.84Y20.78999
X5.82747Y13.13167
X33.16306Y7.95933
X33.77999Y11.49
X13.11Y3.21
X28.89067Y7.94748
X27.92614Y15.11582
X10.35487Y13.20558
X7.41925Y11.59116
X11.50447Y19.70925
X24.26152Y24.31845
X32.09999Y26.69999
X29.40677Y3.65781
X28.09791Y1.72869
X8.82049Y34.80415
X12.53481Y24.60463
X5.61861Y17.95293
X0.7063Y13.82021
X35.53818Y18.34256
X34.28748Y18.6699
X7.00889Y14.82485
X7.02Y13.4126
X32.81999Y11.76
X34.40773Y16.69011
X8.80385Y8.42382
X15.86885Y32.40214
X5.68979Y15.40578
X9.94767Y22.1104
X6.6722Y6.06387
X15.15366Y31.26466
X10.76575Y17.5139
X11.61737Y17.73687
X11.50766Y15.39517
X5.30834Y18.5105
X13.2Y13.62
X29.681Y17.04866
X31.54789Y8.91803
X32.12781Y8.91803
X32.70772Y8.91803
X6.847Y25.34942
X9.85439Y19.66691
X7.62449Y12.58384
X8.30945Y13.82479
T03
X30.74496Y20.56707G85X31.64496Y20.56707
X30.74497Y29.21709G85X31.645Y29.21709
X35.09503Y20.56701G85X35.69503Y20.56701
X35.09503Y29.21699G85X35.69503Y29.21699
T04
X3.77Y34.25
X34.27Y34.25
X34.27Y3.75
X3.77Y3.75
M30