G04 Layer: InnerLayer2*
G04 EasyEDA Pro v2.2.43.4, 2025-10-30 23:12:03*
G04 Gerber Generator version 0.3*
G04 Scale: 100 percent, Rotated: No, Reflected: No*
G04 Dimensions in millimeters*
G04 Leading zeros omitted, absolute positions, 4 integers and 5 decimals*
G04 Generated by one-click*
%FSLAX45Y45*%
%MOMM*%
%ADD10C,0.2032*%
%ADD11C,5.5*%
%ADD12O,2.0X1.1*%
%ADD13O,1.8X1.2*%
%ADD14C,0.4002*%
%ADD15C,0.6096*%
%ADD16C,0.1396*%
%ADD17C,0.127*%
G75*


G04 Copper Start*
G36*
G01X697154Y2059277D02*
G01X697154Y1585172D01*
G01X625601Y1585172D01*
G01X625601Y2059277D01*
G01X697154Y2059277D01*
G37*
G36*
G01X1661333Y1585399D02*
G01X626046Y1585399D01*
G01X626046Y1643435D01*
G01X1661333Y1643435D01*
G01X1661333Y1585399D01*
G37*
G36*
G01X967326Y733195D02*
G01X2088702Y733195D01*
G01X2099644Y730424D01*
G01X2110931Y730424D01*
G01X2121873Y733195D01*
G01X2605892Y733195D01*
G01X2605892Y668019D01*
G01X967326Y668019D01*
G01X967326Y733195D01*
G37*
G36*
G01X1551435Y1887463D02*
G01X1551435Y667465D01*
G01X1487652Y667465D01*
G01X1487652Y1887463D01*
G01X1551435Y1887463D01*
G37*
G36*
G01X355252Y2021516D02*
G01X688797Y2021516D01*
G01X688797Y1992068D01*
G01X355252Y1992068D01*
G01X355252Y2021516D01*
G37*
G36*
G01X1001149Y702718D02*
G01X1001149Y588705D01*
G01X966623Y588705D01*
G01X966623Y702718D01*
G01X1001149Y702718D01*
G37*
G36*
G01X1094775Y700656D02*
G01X1094775Y586642D01*
G01X1065203Y586642D01*
G01X1065203Y700656D01*
G01X1094775Y700656D01*
G37*
G36*
G01X1617907Y676021D02*
G01X1617907Y592142D01*
G01X1588335Y592142D01*
G01X1588335Y676021D01*
G01X1617907Y676021D01*
G37*
G36*
G01X1807686Y669554D02*
G01X1807686Y591454D01*
G01X1778114Y591454D01*
G01X1778114Y669554D01*
G01X1807686Y669554D01*
G37*
G36*
G01X2575178Y162325D02*
G01X2575178Y702468D01*
G01X2605575Y702468D01*
G01X2605575Y162325D01*
G01X2575178Y162325D01*
G37*
G36*
G01X2926729Y2890023D02*
G01X2926729Y3659325D01*
G01X2990511Y3659325D01*
G01X2990511Y2890023D01*
G01X2926729Y2890023D01*
G37*
G36*
G01X2989952Y3589323D02*
G01X985145Y3589323D01*
G01X985145Y3658678D01*
G01X2989952Y3658678D01*
G01X2989952Y3589323D01*
G37*
G36*
G01X2446075Y2472889D02*
G01X2433478Y2476877D01*
G01X2420268Y2477088D01*
G01X2407550Y2473505D01*
G01X2396393Y2466428D01*
G01X2387731Y2456451D01*
G01X2382292Y2444410D01*
G01X2382292Y2898819D01*
G01X2446075Y2898819D01*
G01X2446075Y2472889D01*
G37*
G36*
G01X2382292Y1823856D02*
G01X2382292Y2419280D01*
G01X2387731Y2407239D01*
G01X2396393Y2397262D01*
G01X2407550Y2390185D01*
G01X2420268Y2386602D01*
G01X2433478Y2386813D01*
G01X2446075Y2390801D01*
G01X2446075Y1823856D01*
G01X2382292Y1823856D01*
G37*
G36*
G01X2991049Y2886865D02*
G01X2381418Y2886865D01*
G01X2381418Y2915818D01*
G01X2991049Y2915818D01*
G01X2991049Y2886865D01*
G37*
G36*
G01X1499359Y1885649D02*
G01X2447595Y1885649D01*
G01X2447595Y1821866D01*
G01X1499359Y1821866D01*
G01X1499359Y1885649D01*
G37*
G36*
G01X2762460Y2645591D02*
G01X2762460Y1545822D01*
G01X2754101Y1536043D01*
G01X2748803Y1524319D01*
G01X2746990Y1511582D01*
G01X2748803Y1498846D01*
G01X2754101Y1487122D01*
G01X2762460Y1477343D01*
G01X2762460Y67150D01*
G01X2704628Y67150D01*
G01X2704628Y2645591D01*
G01X2762460Y2645591D01*
G37*
G36*
G01X1819346Y323214D02*
G01X1819346Y40101D01*
G01X1788844Y40101D01*
G01X1788844Y323214D01*
G01X1819346Y323214D01*
G37*
G36*
G01X2762435Y39428D02*
G01X1788762Y39428D01*
G01X1788762Y118419D01*
G01X2762435Y118419D01*
G01X2762435Y39428D01*
G37*
G36*
G01X290364Y2235054D02*
G01X290364Y1187646D01*
G01X261129Y1187646D01*
G01X261129Y2235054D01*
G01X290364Y2235054D01*
G37*
G36*
G01X908350Y2472178D02*
G01X1163625Y2472178D01*
G01X1163625Y2436331D01*
G01X908350Y2436331D01*
G01X908350Y2472178D01*
G37*
G36*
G01X294367Y1187865D02*
G01X294367Y1249050D01*
G01X506991Y1249050D01*
G01X506991Y1187865D01*
G01X294367Y1187865D01*
G37*
G36*
G01X506461Y978998D02*
G01X443382Y978998D01*
G01X443382Y1196171D01*
G01X506461Y1196171D01*
G01X506461Y978998D01*
G37*
G36*
G01X951909Y1011183D02*
G01X951909Y981998D01*
G01X506655Y981998D01*
G01X506655Y1011183D01*
G01X951909Y1011183D01*
G37*
G36*
G01X958021Y934777D02*
G01X958021Y1143162D01*
G01X1038868Y1143162D01*
G01X1038868Y934777D01*
G01X958021Y934777D01*
G37*
G36*
G01X2838238Y1511582D02*
G01X2836585Y1523750D01*
G01X2831748Y1535036D01*
G01X2824076Y1544623D01*
G01X2824076Y2741640D01*
G01X2877777Y2741640D01*
G01X2877777Y987241D01*
G01X2824076Y987241D01*
G01X2824076Y1478542D01*
G01X2831748Y1488129D01*
G01X2836585Y1499415D01*
G01X2838238Y1511582D01*
G37*
G36*
G01X3567615Y987281D02*
G01X2865916Y987281D01*
G01X2865916Y1023129D01*
G01X3567615Y1023129D01*
G01X3567615Y987281D01*
G37*
G36*
G01X2649950Y2728687D02*
G01X2649950Y2331234D01*
G01X2618217Y2331234D01*
G01X2618217Y2728687D01*
G01X2649950Y2728687D01*
G37*
G36*
G01X2618474Y2741647D02*
G01X2863471Y2741647D01*
G01X2863471Y2709914D01*
G01X2618474Y2709914D01*
G01X2618474Y2741647D01*
G37*
G36*
G01X2986585Y1636466D02*
G01X2986585Y1062210D01*
G01X2950542Y1062210D01*
G01X2950542Y1636466D01*
G01X2986585Y1636466D01*
G37*
G36*
G01X1418371Y1472409D02*
G01X688225Y1472409D01*
G01X688225Y1493677D01*
G01X1418371Y1493677D01*
G01X1418371Y1472409D01*
G37*
G36*
G01X1417723Y1493142D02*
G01X1417723Y851134D01*
G01X1391752Y851134D01*
G01X1391752Y1493142D01*
G01X1417723Y1493142D01*
G37*
G36*
G01X865343Y852627D02*
G01X1417522Y852627D01*
G01X1417522Y839587D01*
G01X865343Y839587D01*
G01X865343Y852627D01*
G37*
G36*
G01X865624Y487258D02*
G01X865624Y827586D01*
G01X891594Y827586D01*
G01X891594Y487258D01*
G01X865624Y487258D01*
G37*
G36*
G01X2352461Y487777D02*
G01X865094Y487777D01*
G01X865094Y513747D01*
G01X2352461Y513747D01*
G01X2352461Y487777D01*
G37*
G36*
G01X2028309Y605830D02*
G01X1954664Y605830D01*
G01X1954664Y656290D01*
G01X2028309Y656290D01*
G01X2028309Y605830D01*
G37*
G36*
G01X1572351Y3506462D02*
G01X1572351Y3634118D01*
G01X1602078Y3634118D01*
G01X1602078Y3506462D01*
G01X1572351Y3506462D01*
G37*
G36*
G01X295777Y2236096D02*
G01X941087Y2236096D01*
G01X941087Y2200248D01*
G01X295777Y2200248D01*
G01X295777Y2236096D01*
G37*
G36*
G01X904851Y2200173D02*
G01X904851Y2470825D01*
G01X940699Y2470825D01*
G01X940699Y2200173D01*
G01X904851Y2200173D01*
G37*
G36*
G01X1127779Y2363725D02*
G01X1127779Y2456045D01*
G01X1163626Y2456045D01*
G01X1163626Y2363725D01*
G01X1127779Y2363725D01*
G37*
G36*
G01X1309903Y2364557D02*
G01X1147444Y2364557D01*
G01X1147444Y2400405D01*
G01X1309903Y2400405D01*
G01X1309903Y2364557D01*
G37*
G36*
G01X1320757Y2365317D02*
G01X1320757Y2471743D01*
G01X1356605Y2471743D01*
G01X1356605Y2365317D01*
G01X1320757Y2365317D01*
G37*
G36*
G01X1320366Y2472110D02*
G01X1503934Y2472110D01*
G01X1503934Y2436263D01*
G01X1320366Y2436263D01*
G01X1320366Y2472110D01*
G37*
G36*
G01X1752988Y29268D02*
G01X1753250Y25614D01*
G01X376999Y25614D01*
G01X340479Y27528D01*
G01X304358Y33249D01*
G01X269034Y42715D01*
G01X234892Y55820D01*
G01X202307Y72423D01*
G01X171636Y92341D01*
G01X143215Y115356D01*
G01X117356Y141215D01*
G01X94341Y169636D01*
G01X74423Y200307D01*
G01X57820Y232892D01*
G01X44715Y267034D01*
G01X35249Y302358D01*
G01X29528Y338479D01*
G01X27614Y374999D01*
G01X27614Y375000D01*
G01X76386Y375000D01*
G01X76386Y375000D01*
G01X78276Y341342D01*
G01X83923Y308107D01*
G01X93255Y275713D01*
G01X106156Y244568D01*
G01X122463Y215064D01*
G01X141970Y187570D01*
G01X164434Y162434D01*
G01X189570Y139970D01*
G01X217064Y120463D01*
G01X246568Y104156D01*
G01X277713Y91255D01*
G01X310107Y81923D01*
G01X343342Y76276D01*
G01X377000Y74386D01*
G01X410658Y76276D01*
G01X443893Y81923D01*
G01X476287Y91255D01*
G01X507432Y104156D01*
G01X536936Y120463D01*
G01X564430Y139970D01*
G01X589566Y162434D01*
G01X612030Y187570D01*
G01X621558Y201000D01*
G01X1037375Y201000D01*
G01X1039224Y188146D01*
G01X1044618Y176334D01*
G01X1053122Y166519D01*
G01X1064047Y159499D01*
G01X1076507Y155840D01*
G01X1089493Y155840D01*
G01X1101953Y159499D01*
G01X1112877Y166519D01*
G01X1121381Y176334D01*
G01X1126776Y188146D01*
G01X1128624Y201000D01*
G01X1126776Y213854D01*
G01X1121381Y225666D01*
G01X1112877Y235480D01*
G01X1101953Y242501D01*
G01X1089493Y246160D01*
G01X1076507Y246160D01*
G01X1064047Y242501D01*
G01X1053122Y235480D01*
G01X1044618Y225666D01*
G01X1039224Y213854D01*
G01X1037375Y201000D01*
G01X1037375Y201000D01*
G01X621558Y201000D01*
G01X631537Y215064D01*
G01X647844Y244568D01*
G01X652165Y255000D01*
G01X1136376Y255000D01*
G01X1138224Y242146D01*
G01X1143618Y230334D01*
G01X1152122Y220520D01*
G01X1163047Y213499D01*
G01X1175507Y209840D01*
G01X1188493Y209840D01*
G01X1200953Y213499D01*
G01X1211877Y220520D01*
G01X1220381Y230334D01*
G01X1225776Y242146D01*
G01X1227624Y255000D01*
G01X1225776Y267854D01*
G01X1220381Y279666D01*
G01X1211877Y289480D01*
G01X1200953Y296501D01*
G01X1188493Y300160D01*
G01X1175507Y300160D01*
G01X1163047Y296501D01*
G01X1152122Y289480D01*
G01X1143618Y279666D01*
G01X1138224Y267854D01*
G01X1136376Y255000D01*
G01X1136376Y255000D01*
G01X652165Y255000D01*
G01X660745Y275713D01*
G01X670077Y308107D01*
G01X675724Y341342D01*
G01X677500Y372968D01*
G01X2015674Y372968D01*
G01X2017522Y360114D01*
G01X2022917Y348301D01*
G01X2031421Y338487D01*
G01X2042345Y331467D01*
G01X2054805Y327808D01*
G01X2067791Y327808D01*
G01X2080251Y331467D01*
G01X2091176Y338487D01*
G01X2099680Y348301D01*
G01X2105074Y360114D01*
G01X2106922Y372968D01*
G01X2105074Y385822D01*
G01X2099680Y397634D01*
G01X2091176Y407448D01*
G01X2080251Y414469D01*
G01X2067791Y418127D01*
G01X2054805Y418127D01*
G01X2042345Y414469D01*
G01X2031421Y407448D01*
G01X2022917Y397634D01*
G01X2017522Y385822D01*
G01X2015674Y372968D01*
G01X2015674Y372968D01*
G01X677500Y372968D01*
G01X677614Y375000D01*
G01X675724Y408658D01*
G01X670077Y441893D01*
G01X660745Y474287D01*
G01X647844Y505432D01*
G01X631537Y534936D01*
G01X612030Y562430D01*
G01X589566Y587566D01*
G01X564430Y610030D01*
G01X536936Y629537D01*
G01X507432Y645844D01*
G01X476287Y658745D01*
G01X443893Y668077D01*
G01X410658Y673724D01*
G01X377000Y675614D01*
G01X343342Y673724D01*
G01X310107Y668077D01*
G01X277713Y658745D01*
G01X246568Y645844D01*
G01X217064Y629537D01*
G01X189570Y610030D01*
G01X164434Y587566D01*
G01X141970Y562430D01*
G01X122463Y534936D01*
G01X106156Y505432D01*
G01X93255Y474287D01*
G01X83923Y441893D01*
G01X78276Y408658D01*
G01X76386Y375000D01*
G01X27614Y375000D01*
G01X27614Y722556D01*
G01X64477Y722556D01*
G01X66989Y710489D01*
G01X72639Y699534D01*
G01X81015Y690491D01*
G01X72904Y681209D01*
G01X67574Y670095D01*
G01X65414Y657960D01*
G01X66581Y645689D01*
G01X70990Y634178D01*
G01X78319Y624268D01*
G01X88034Y616681D01*
G01X99425Y611972D01*
G01X111661Y610485D01*
G01X111661Y610485D01*
G01X123849Y612326D01*
G01X135099Y617364D01*
G01X144590Y625229D01*
G01X151629Y635347D01*
G01X155703Y646981D01*
G01X156513Y659280D01*
G01X154002Y671348D01*
G01X148352Y682303D01*
G01X139975Y691346D01*
G01X148086Y700627D01*
G01X153416Y711742D01*
G01X155577Y723877D01*
G01X154410Y736148D01*
G01X150001Y747658D01*
G01X142672Y757569D01*
G01X132957Y765155D01*
G01X121565Y769864D01*
G01X109329Y771352D01*
G01X97141Y769510D01*
G01X85892Y764473D01*
G01X76401Y756608D01*
G01X69361Y746489D01*
G01X65288Y734856D01*
G01X64477Y722556D01*
G01X27614Y722556D01*
G01X27614Y1343011D01*
G01X94140Y1343011D01*
G01X95901Y1328505D01*
G01X101083Y1314842D01*
G01X109384Y1302816D01*
G01X120322Y1293126D01*
G01X133261Y1286335D01*
G01X147449Y1282838D01*
G01X162061Y1282838D01*
G01X176250Y1286335D01*
G01X189189Y1293126D01*
G01X200126Y1302816D01*
G01X208427Y1314842D01*
G01X213609Y1328505D01*
G01X215370Y1343011D01*
G01X213609Y1357517D01*
G01X208427Y1371181D01*
G01X200126Y1383207D01*
G01X189189Y1392897D01*
G01X176250Y1399688D01*
G01X162061Y1403185D01*
G01X147449Y1403185D01*
G01X133261Y1399688D01*
G01X120322Y1392897D01*
G01X109384Y1383207D01*
G01X101083Y1371181D01*
G01X95901Y1357517D01*
G01X94140Y1343011D01*
G01X94140Y1343011D01*
G01X27614Y1343011D01*
G01X27614Y1513013D01*
G01X94140Y1513013D01*
G01X95901Y1498507D01*
G01X101083Y1484844D01*
G01X109384Y1472818D01*
G01X120322Y1463128D01*
G01X133261Y1456337D01*
G01X147449Y1452840D01*
G01X162061Y1452840D01*
G01X176250Y1456337D01*
G01X189189Y1463128D01*
G01X200126Y1472818D01*
G01X208427Y1484844D01*
G01X213609Y1498507D01*
G01X215370Y1513013D01*
G01X213609Y1527520D01*
G01X208427Y1541183D01*
G01X200126Y1553209D01*
G01X189189Y1562899D01*
G01X176250Y1569690D01*
G01X162061Y1573187D01*
G01X147449Y1573187D01*
G01X133261Y1569690D01*
G01X120322Y1562899D01*
G01X109384Y1553209D01*
G01X101083Y1541183D01*
G01X95901Y1527520D01*
G01X94140Y1513013D01*
G01X94140Y1513013D01*
G01X27614Y1513013D01*
G01X27614Y2656872D01*
G01X686376Y2656872D01*
G01X688224Y2644018D01*
G01X693618Y2632206D01*
G01X702122Y2622392D01*
G01X713047Y2615371D01*
G01X725507Y2611713D01*
G01X738493Y2611713D01*
G01X750953Y2615371D01*
G01X761877Y2622392D01*
G01X770381Y2632206D01*
G01X775776Y2644018D01*
G01X777624Y2656872D01*
G01X775776Y2669726D01*
G01X770381Y2681539D01*
G01X761877Y2691353D01*
G01X750953Y2698373D01*
G01X738493Y2702032D01*
G01X725507Y2702032D01*
G01X713047Y2698373D01*
G01X702122Y2691353D01*
G01X693618Y2681539D01*
G01X688224Y2669726D01*
G01X686376Y2656872D01*
G01X686376Y2656872D01*
G01X27614Y2656872D01*
G01X27614Y2755564D01*
G01X595465Y2755564D01*
G01X597313Y2742710D01*
G01X602707Y2730897D01*
G01X611211Y2721083D01*
G01X622136Y2714063D01*
G01X634596Y2710404D01*
G01X647582Y2710404D01*
G01X660042Y2714063D01*
G01X670966Y2721083D01*
G01X679470Y2730897D01*
G01X684865Y2742710D01*
G01X686713Y2755564D01*
G01X684865Y2768418D01*
G01X679470Y2780230D01*
G01X670966Y2790044D01*
G01X660042Y2797065D01*
G01X647582Y2800723D01*
G01X634596Y2800723D01*
G01X622136Y2797065D01*
G01X611211Y2790044D01*
G01X602707Y2780230D01*
G01X597313Y2768418D01*
G01X595465Y2755564D01*
G01X595465Y2755564D01*
G01X27614Y2755564D01*
G01X27614Y2936916D01*
G01X404305Y2936916D01*
G01X406153Y2924062D01*
G01X411548Y2912250D01*
G01X420052Y2902435D01*
G01X430976Y2895415D01*
G01X443436Y2891756D01*
G01X456422Y2891756D01*
G01X468882Y2895415D01*
G01X479807Y2902435D01*
G01X488311Y2912250D01*
G01X493705Y2924062D01*
G01X495553Y2936916D01*
G01X493705Y2949770D01*
G01X488311Y2961582D01*
G01X479807Y2971396D01*
G01X468882Y2978417D01*
G01X456422Y2982076D01*
G01X443436Y2982076D01*
G01X430976Y2978417D01*
G01X420052Y2971396D01*
G01X411548Y2961582D01*
G01X406153Y2949770D01*
G01X404305Y2936916D01*
G01X404305Y2936916D01*
G01X27614Y2936916D01*
G01X27614Y3424993D01*
G01X27614Y3425000D01*
G01X76386Y3425000D01*
G01X76386Y3425000D01*
G01X78276Y3391342D01*
G01X83923Y3358107D01*
G01X93255Y3325713D01*
G01X106156Y3294568D01*
G01X122463Y3265064D01*
G01X141970Y3237570D01*
G01X164434Y3212434D01*
G01X189570Y3189970D01*
G01X217064Y3170463D01*
G01X246568Y3154156D01*
G01X277713Y3141255D01*
G01X310107Y3131923D01*
G01X343342Y3126276D01*
G01X377000Y3124386D01*
G01X410658Y3126276D01*
G01X443893Y3131923D01*
G01X476287Y3141255D01*
G01X507432Y3154156D01*
G01X536936Y3170463D01*
G01X564430Y3189970D01*
G01X576626Y3200870D01*
G01X842446Y3200870D01*
G01X842446Y2540380D01*
G01X843841Y2535173D01*
G01X847653Y2531361D01*
G01X852860Y2529966D01*
G01X1410588Y2529966D01*
G01X1417866Y2522114D01*
G01X1426775Y2516174D01*
G01X1436822Y2512474D01*
G01X1447456Y2511218D01*
G01X1447456Y2511218D01*
G01X1458089Y2512474D01*
G01X1468136Y2516174D01*
G01X1477045Y2522114D01*
G01X1484324Y2529966D01*
G01X1555260Y2529966D01*
G01X1560467Y2531361D01*
G01X1564279Y2535173D01*
G01X1565674Y2540380D01*
G01X1565674Y2623151D01*
G01X1569146Y2623151D01*
G01X1571257Y2609782D01*
G01X1577197Y2597620D01*
G01X1577197Y2597620D01*
G01X1586444Y2587736D01*
G01X1598184Y2581000D01*
G01X1611383Y2578004D01*
G01X1624881Y2579013D01*
G01X1637488Y2583938D01*
G01X1648096Y2592344D01*
G01X1655771Y2603493D01*
G01X1659837Y2616403D01*
G01X1673349Y2615602D01*
G01X1686500Y2618801D01*
G01X1698135Y2625717D01*
G01X1707228Y2635742D01*
G01X1712980Y2647994D01*
G01X1714885Y2661395D01*
G01X1712774Y2674764D01*
G01X1706834Y2686926D01*
G01X1706616Y2687159D01*
G01X2127664Y2687159D01*
G01X2129512Y2674305D01*
G01X2134907Y2662493D01*
G01X2143411Y2652679D01*
G01X2154335Y2645658D01*
G01X2166795Y2641999D01*
G01X2179781Y2641999D01*
G01X2192241Y2645658D01*
G01X2203165Y2652679D01*
G01X2211669Y2662493D01*
G01X2217064Y2674305D01*
G01X2218912Y2687159D01*
G01X2217064Y2700013D01*
G01X2211669Y2711825D01*
G01X2203165Y2721639D01*
G01X2192241Y2728660D01*
G01X2179781Y2732319D01*
G01X2166795Y2732319D01*
G01X2154335Y2728660D01*
G01X2143411Y2721639D01*
G01X2134907Y2711825D01*
G01X2129512Y2700013D01*
G01X2127664Y2687159D01*
G01X2127664Y2687159D01*
G01X1706616Y2687159D01*
G01X1697587Y2696810D01*
G01X1685847Y2703546D01*
G01X1672648Y2706541D01*
G01X1659150Y2705532D01*
G01X1646543Y2700608D01*
G01X1635935Y2692201D01*
G01X1628260Y2681053D01*
G01X1624194Y2668143D01*
G01X1610683Y2668943D01*
G01X1597531Y2665745D01*
G01X1585896Y2658829D01*
G01X1576803Y2648803D01*
G01X1571051Y2636552D01*
G01X1569146Y2623151D01*
G01X1565674Y2623151D01*
G01X1565674Y3199820D01*
G01X1578296Y3195405D01*
G01X1591655Y3194840D01*
G01X1604605Y3198171D01*
G01X1616033Y3205114D01*
G01X1617350Y3206585D01*
G01X2117583Y3206585D01*
G01X2119431Y3193731D01*
G01X2124826Y3181918D01*
G01X2133330Y3172104D01*
G01X2144255Y3165083D01*
G01X2156715Y3161425D01*
G01X2169700Y3161425D01*
G01X2182160Y3165083D01*
G01X2193085Y3172104D01*
G01X2201589Y3181918D01*
G01X2206984Y3193731D01*
G01X2208832Y3206585D01*
G01X2206984Y3219438D01*
G01X2201589Y3231251D01*
G01X2193085Y3241065D01*
G01X2182160Y3248086D01*
G01X2169700Y3251744D01*
G01X2156715Y3251744D01*
G01X2144255Y3248086D01*
G01X2133330Y3241065D01*
G01X2124826Y3231251D01*
G01X2119431Y3219438D01*
G01X2117583Y3206585D01*
G01X2117583Y3206585D01*
G01X1617350Y3206585D01*
G01X1624957Y3215072D01*
G01X1630611Y3227189D01*
G01X1632509Y3240425D01*
G01X1630488Y3253643D01*
G01X1624722Y3265707D01*
G01X1615706Y3275582D01*
G01X1604214Y3282419D01*
G01X1591234Y3285630D01*
G01X1577881Y3284940D01*
G01X1565300Y3280409D01*
G01X1554574Y3272425D01*
G01X1546623Y3261674D01*
G01X1542131Y3249080D01*
G01X1541482Y3235724D01*
G01X1544734Y3222754D01*
G01X1551606Y3211284D01*
G01X852860Y3211284D01*
G01X847653Y3209889D01*
G01X843841Y3206077D01*
G01X842446Y3200870D01*
G01X576626Y3200870D01*
G01X589566Y3212434D01*
G01X612030Y3237570D01*
G01X631537Y3265064D01*
G01X647844Y3294568D01*
G01X660745Y3325713D01*
G01X670077Y3358107D01*
G01X675724Y3391342D01*
G01X676996Y3413999D01*
G01X1067375Y3413999D01*
G01X1069224Y3401145D01*
G01X1074618Y3389333D01*
G01X1083122Y3379519D01*
G01X1094047Y3372498D01*
G01X1106507Y3368839D01*
G01X1119493Y3368839D01*
G01X1131952Y3372498D01*
G01X1142877Y3379519D01*
G01X1151381Y3389333D01*
G01X1156776Y3401145D01*
G01X1158624Y3413999D01*
G01X1156776Y3426853D01*
G01X1151381Y3438665D01*
G01X1142877Y3448479D01*
G01X1131952Y3455500D01*
G01X1119493Y3459159D01*
G01X1106507Y3459159D01*
G01X1094047Y3455500D01*
G01X1083122Y3448479D01*
G01X1074618Y3438665D01*
G01X1069224Y3426853D01*
G01X1067375Y3413999D01*
G01X1067375Y3413999D01*
G01X676996Y3413999D01*
G01X677614Y3425000D01*
G01X675724Y3458658D01*
G01X673850Y3469687D01*
G01X1161706Y3469687D01*
G01X1163554Y3456833D01*
G01X1168949Y3445020D01*
G01X1177453Y3435206D01*
G01X1188377Y3428186D01*
G01X1200837Y3424527D01*
G01X1213823Y3424527D01*
G01X1226283Y3428186D01*
G01X1237208Y3435206D01*
G01X1245712Y3445020D01*
G01X1251106Y3456833D01*
G01X1251300Y3458176D01*
G01X1706112Y3458176D01*
G01X1707960Y3445323D01*
G01X1713355Y3433510D01*
G01X1721859Y3423696D01*
G01X1732783Y3416675D01*
G01X1745243Y3413017D01*
G01X1758229Y3413017D01*
G01X1770689Y3416675D01*
G01X1774715Y3419262D01*
G01X1844528Y3419262D01*
G01X1846376Y3406409D01*
G01X1851770Y3394596D01*
G01X1860274Y3384782D01*
G01X1871199Y3377761D01*
G01X1883659Y3374103D01*
G01X1896645Y3374103D01*
G01X1909105Y3377761D01*
G01X1920029Y3384782D01*
G01X1928533Y3394596D01*
G01X1933928Y3406409D01*
G01X1935776Y3419262D01*
G01X1933928Y3432116D01*
G01X1928533Y3443929D01*
G01X1920029Y3453743D01*
G01X1909105Y3460764D01*
G01X1896645Y3464422D01*
G01X1883659Y3464422D01*
G01X1871199Y3460764D01*
G01X1860274Y3453743D01*
G01X1851770Y3443929D01*
G01X1846376Y3432116D01*
G01X1844528Y3419262D01*
G01X1844528Y3419262D01*
G01X1774715Y3419262D01*
G01X1781614Y3423696D01*
G01X1790118Y3433510D01*
G01X1795512Y3445323D01*
G01X1797360Y3458176D01*
G01X1795512Y3471030D01*
G01X1790118Y3482843D01*
G01X1784350Y3489499D01*
G01X2020119Y3489499D01*
G01X2021967Y3476645D01*
G01X2027361Y3464832D01*
G01X2035865Y3455018D01*
G01X2046790Y3447998D01*
G01X2059250Y3444339D01*
G01X2072236Y3444339D01*
G01X2084696Y3447998D01*
G01X2095620Y3455018D01*
G01X2104124Y3464832D01*
G01X2109519Y3476645D01*
G01X2111367Y3489499D01*
G01X2109519Y3502353D01*
G01X2104124Y3514165D01*
G01X2095620Y3523979D01*
G01X2084696Y3531000D01*
G01X2072236Y3534658D01*
G01X2059250Y3534658D01*
G01X2046790Y3531000D01*
G01X2035865Y3523979D01*
G01X2027361Y3514165D01*
G01X2021967Y3502353D01*
G01X2020119Y3489499D01*
G01X2020119Y3489499D01*
G01X1784350Y3489499D01*
G01X1781614Y3492657D01*
G01X1770689Y3499678D01*
G01X1758229Y3503336D01*
G01X1745243Y3503336D01*
G01X1732783Y3499678D01*
G01X1721859Y3492657D01*
G01X1713355Y3482843D01*
G01X1707960Y3471030D01*
G01X1706112Y3458176D01*
G01X1706112Y3458176D01*
G01X1251300Y3458176D01*
G01X1252954Y3469687D01*
G01X1251106Y3482541D01*
G01X1245712Y3494353D01*
G01X1237208Y3504167D01*
G01X1226283Y3511188D01*
G01X1213823Y3514846D01*
G01X1200837Y3514846D01*
G01X1188377Y3511188D01*
G01X1177453Y3504167D01*
G01X1168949Y3494353D01*
G01X1163554Y3482541D01*
G01X1161706Y3469687D01*
G01X1161706Y3469687D01*
G01X673850Y3469687D01*
G01X670077Y3491893D01*
G01X660745Y3524287D01*
G01X647844Y3555432D01*
G01X631537Y3584936D01*
G01X612030Y3612430D01*
G01X589566Y3637566D01*
G01X564430Y3660030D01*
G01X549808Y3670404D01*
G01X657709Y3670404D01*
G01X659557Y3657550D01*
G01X664951Y3645738D01*
G01X673455Y3635924D01*
G01X684380Y3628903D01*
G01X696840Y3625244D01*
G01X709826Y3625244D01*
G01X722286Y3628903D01*
G01X733210Y3635924D01*
G01X741714Y3645738D01*
G01X747109Y3657550D01*
G01X748957Y3670404D01*
G01X747109Y3683258D01*
G01X741714Y3695070D01*
G01X733210Y3704885D01*
G01X722286Y3711905D01*
G01X709826Y3715564D01*
G01X696840Y3715564D01*
G01X684380Y3711905D01*
G01X673455Y3704885D01*
G01X664951Y3695070D01*
G01X659557Y3683258D01*
G01X657709Y3670404D01*
G01X657709Y3670404D01*
G01X549808Y3670404D01*
G01X536936Y3679537D01*
G01X507432Y3695844D01*
G01X476287Y3708745D01*
G01X443893Y3718077D01*
G01X410658Y3723724D01*
G01X377000Y3725614D01*
G01X343342Y3723724D01*
G01X310107Y3718077D01*
G01X277713Y3708745D01*
G01X246568Y3695844D01*
G01X217064Y3679537D01*
G01X189570Y3660030D01*
G01X164434Y3637566D01*
G01X141970Y3612430D01*
G01X122463Y3584936D01*
G01X106156Y3555432D01*
G01X93255Y3524287D01*
G01X83923Y3491893D01*
G01X78276Y3458658D01*
G01X76386Y3425000D01*
G01X27614Y3425000D01*
G01X29528Y3461514D01*
G01X35249Y3497634D01*
G01X44715Y3532959D01*
G01X57820Y3567101D01*
G01X74423Y3599685D01*
G01X94341Y3630356D01*
G01X117356Y3658777D01*
G01X143215Y3684637D01*
G01X171636Y3707651D01*
G01X202307Y3727569D01*
G01X234892Y3744172D01*
G01X269034Y3757278D01*
G01X304358Y3766743D01*
G01X340479Y3772464D01*
G01X376999Y3774378D01*
G01X3426994Y3774378D01*
G01X3463515Y3772464D01*
G01X3499635Y3766743D01*
G01X3534960Y3757278D01*
G01X3569101Y3744172D01*
G01X3601686Y3727569D01*
G01X3632357Y3707651D01*
G01X3660778Y3684636D01*
G01X3686637Y3658777D01*
G01X3709652Y3630356D01*
G01X3729569Y3599685D01*
G01X3746172Y3567100D01*
G01X3759278Y3532959D01*
G01X3768743Y3497634D01*
G01X3774464Y3461514D01*
G01X3776378Y3424993D01*
G01X3776378Y374999D01*
G01X3774464Y338479D01*
G01X3768743Y302358D01*
G01X3759278Y267034D01*
G01X3746172Y232892D01*
G01X3729569Y200307D01*
G01X3709652Y169637D01*
G01X3686637Y141216D01*
G01X3660778Y115356D01*
G01X3632357Y92342D01*
G01X3601686Y72424D01*
G01X3569101Y55821D01*
G01X3534960Y42715D01*
G01X3499635Y33249D01*
G01X3463515Y27528D01*
G01X3426994Y25614D01*
G01X2797947Y25614D01*
G01X2798209Y29268D01*
G01X2798209Y55861D01*
G01X2798234Y56990D01*
G01X2798234Y128826D01*
G01X2810390Y127337D01*
G01X2822503Y129139D01*
G01X2833699Y134100D01*
G01X2843170Y141864D01*
G01X2850233Y151868D01*
G01X2854377Y163392D01*
G01X2855304Y175603D01*
G01X2852946Y187620D01*
G01X2847474Y198576D01*
G01X2839283Y207680D01*
G01X2830174Y213687D01*
G01X2819898Y217359D01*
G01X2809045Y218487D01*
G01X2798234Y217005D01*
G01X2798234Y375000D01*
G01X3126386Y375000D01*
G01X3128276Y341342D01*
G01X3133923Y308107D01*
G01X3143255Y275713D01*
G01X3156156Y244568D01*
G01X3172463Y215064D01*
G01X3191970Y187570D01*
G01X3214434Y162434D01*
G01X3239570Y139970D01*
G01X3267064Y120463D01*
G01X3296568Y104156D01*
G01X3327713Y91255D01*
G01X3360107Y81923D01*
G01X3393342Y76276D01*
G01X3427000Y74386D01*
G01X3460658Y76276D01*
G01X3493893Y81923D01*
G01X3526287Y91255D01*
G01X3557432Y104156D01*
G01X3586936Y120463D01*
G01X3614430Y139970D01*
G01X3639566Y162434D01*
G01X3662030Y187570D01*
G01X3681537Y215064D01*
G01X3697844Y244568D01*
G01X3710745Y275713D01*
G01X3720077Y308107D01*
G01X3725724Y341342D01*
G01X3727614Y375000D01*
G01X3725724Y408658D01*
G01X3720077Y441893D01*
G01X3710745Y474287D01*
G01X3697844Y505432D01*
G01X3681537Y534936D01*
G01X3662030Y562430D01*
G01X3639566Y587566D01*
G01X3614430Y610030D01*
G01X3586936Y629537D01*
G01X3557432Y645844D01*
G01X3526287Y658745D01*
G01X3493893Y668077D01*
G01X3460658Y673724D01*
G01X3427000Y675614D01*
G01X3393342Y673724D01*
G01X3360107Y668077D01*
G01X3327713Y658745D01*
G01X3296568Y645844D01*
G01X3267064Y629537D01*
G01X3239570Y610030D01*
G01X3214434Y587566D01*
G01X3191970Y562430D01*
G01X3172463Y534936D01*
G01X3156156Y505432D01*
G01X3143255Y474287D01*
G01X3133923Y441893D01*
G01X3128276Y408658D01*
G01X3126386Y375000D01*
G01X3126386Y375000D01*
G01X2798234Y375000D01*
G01X2798234Y531162D01*
G01X3052103Y531162D01*
G01X3053952Y518308D01*
G01X3059346Y506495D01*
G01X3067850Y496681D01*
G01X3078775Y489661D01*
G01X3091235Y486002D01*
G01X3104221Y486002D01*
G01X3116681Y489661D01*
G01X3127605Y496681D01*
G01X3136109Y506495D01*
G01X3141504Y518308D01*
G01X3143352Y531162D01*
G01X3141504Y544016D01*
G01X3136109Y555828D01*
G01X3127605Y565642D01*
G01X3116681Y572663D01*
G01X3104221Y576321D01*
G01X3091235Y576321D01*
G01X3078775Y572663D01*
G01X3067850Y565642D01*
G01X3059346Y555828D01*
G01X3053952Y544016D01*
G01X3052103Y531162D01*
G01X3052103Y531162D01*
G01X2798234Y531162D01*
G01X2798234Y956829D01*
G01X2805629Y952844D01*
G01X2813916Y951467D01*
G01X2887937Y951467D01*
G01X2889370Y951507D01*
G01X3577775Y951507D01*
G01X3587577Y953457D01*
G01X3595887Y959009D01*
G01X3601440Y967319D01*
G01X3603389Y977121D01*
G01X3603389Y1033289D01*
G01X3601440Y1043091D01*
G01X3595887Y1051401D01*
G01X3587577Y1056953D01*
G01X3577775Y1058903D01*
G01X3022359Y1058903D01*
G01X3022359Y1176000D01*
G01X3236375Y1176000D01*
G01X3236375Y1176000D01*
G01X3238223Y1163146D01*
G01X3243618Y1151333D01*
G01X3252122Y1141519D01*
G01X3263046Y1134499D01*
G01X3275506Y1130840D01*
G01X3288492Y1130840D01*
G01X3300952Y1134499D01*
G01X3311876Y1141519D01*
G01X3320380Y1151333D01*
G01X3325775Y1163146D01*
G01X3327623Y1176000D01*
G01X3325775Y1188853D01*
G01X3320380Y1200666D01*
G01X3311876Y1210480D01*
G01X3300952Y1217501D01*
G01X3292864Y1219876D01*
G01X3441337Y1219876D01*
G01X3443185Y1207022D01*
G01X3448579Y1195209D01*
G01X3457083Y1185395D01*
G01X3468008Y1178374D01*
G01X3480468Y1174716D01*
G01X3493454Y1174716D01*
G01X3505914Y1178374D01*
G01X3516838Y1185395D01*
G01X3525342Y1195209D01*
G01X3530737Y1207022D01*
G01X3532585Y1219876D01*
G01X3530737Y1232729D01*
G01X3525342Y1244542D01*
G01X3516838Y1254356D01*
G01X3505914Y1261377D01*
G01X3493454Y1265035D01*
G01X3480468Y1265035D01*
G01X3468008Y1261377D01*
G01X3457083Y1254356D01*
G01X3448579Y1244542D01*
G01X3443185Y1232729D01*
G01X3441337Y1219876D01*
G01X3441337Y1219876D01*
G01X3292864Y1219876D01*
G01X3288492Y1221159D01*
G01X3275506Y1221159D01*
G01X3263046Y1217501D01*
G01X3252122Y1210480D01*
G01X3243618Y1200666D01*
G01X3238223Y1188853D01*
G01X3236375Y1176000D01*
G01X3022359Y1176000D01*
G01X3022359Y1646626D01*
G01X3020995Y1654873D01*
G01X3017048Y1662242D01*
G01X3026969Y1661496D01*
G01X3036815Y1662918D01*
G01X3046118Y1666440D01*
G01X3046118Y1295140D01*
G01X3047514Y1289933D01*
G01X3051325Y1286121D01*
G01X3056532Y1284726D01*
G01X3470034Y1284726D01*
G01X3475241Y1286121D01*
G01X3479053Y1289933D01*
G01X3480448Y1295140D01*
G01X3480448Y1646484D01*
G01X3484885Y1657361D01*
G01X3486398Y1669011D01*
G01X3484885Y1680661D01*
G01X3480448Y1691539D01*
G01X3480448Y1707687D01*
G01X3479053Y1712894D01*
G01X3475241Y1716706D01*
G01X3470034Y1718101D01*
G01X3069686Y1718101D01*
G01X3064632Y1730399D01*
G01X3056247Y1740718D01*
G01X3045243Y1748181D01*
G01X3032555Y1752154D01*
G01X3019260Y1752301D01*
G01X3006487Y1748608D01*
G01X2995321Y1741390D01*
G01X2984453Y1747378D01*
G01X2972373Y1750221D01*
G01X2959974Y1749707D01*
G01X2948172Y1745875D01*
G01X2937836Y1739007D01*
G01X2936411Y1737688D01*
G01X2935489Y1736830D01*
G01X2913551Y1736830D01*
G01X2913551Y1834256D01*
G01X3508194Y1834256D01*
G01X3510042Y1821403D01*
G01X3515437Y1809590D01*
G01X3523941Y1799776D01*
G01X3534865Y1792755D01*
G01X3547325Y1789097D01*
G01X3560311Y1789097D01*
G01X3572771Y1792755D01*
G01X3583696Y1799776D01*
G01X3592200Y1809590D01*
G01X3597594Y1821403D01*
G01X3599442Y1834256D01*
G01X3597594Y1847110D01*
G01X3592200Y1858923D01*
G01X3583696Y1868737D01*
G01X3572771Y1875758D01*
G01X3560311Y1879416D01*
G01X3547325Y1879416D01*
G01X3534865Y1875758D01*
G01X3523941Y1868737D01*
G01X3515437Y1858923D01*
G01X3510042Y1847110D01*
G01X3508194Y1834256D01*
G01X3508194Y1834256D01*
G01X2913551Y1834256D01*
G01X2913551Y1961667D01*
G01X2922926Y1954380D01*
G01X2933864Y1949759D01*
G01X2945624Y1948117D01*
G01X2957410Y1949565D01*
G01X2968422Y1954005D01*
G01X2977916Y1961137D01*
G01X2985248Y1970478D01*
G01X2989921Y1981393D01*
G01X2991619Y1993145D01*
G01X2990228Y2004938D01*
G01X2985840Y2015972D01*
G01X2978754Y2025499D01*
G01X2984825Y2035677D01*
G01X2988069Y2047075D01*
G01X2988232Y2056702D01*
G01X2993874Y2056702D01*
G01X2995896Y2038763D01*
G01X3001858Y2021724D01*
G01X3011462Y2006439D01*
G01X3024226Y1993675D01*
G01X3039511Y1984071D01*
G01X3056550Y1978109D01*
G01X3074488Y1976087D01*
G01X3074488Y1976087D01*
G01X3164488Y1976087D01*
G01X3182427Y1978109D01*
G01X3199465Y1984071D01*
G01X3214750Y1993675D01*
G01X3227515Y2006439D01*
G01X3237119Y2021724D01*
G01X3243081Y2038763D01*
G01X3245102Y2056702D01*
G01X3244094Y2065651D01*
G01X3424358Y2065651D01*
G01X3424358Y2047752D01*
G01X3428079Y2030245D01*
G01X3435359Y2013894D01*
G01X3445879Y1999415D01*
G01X3459180Y1987438D01*
G01X3474680Y1978489D01*
G01X3491703Y1972958D01*
G01X3509503Y1971087D01*
G01X3509503Y1971087D01*
G01X3569503Y1971087D01*
G01X3587303Y1972958D01*
G01X3604325Y1978489D01*
G01X3619825Y1987438D01*
G01X3633126Y1999415D01*
G01X3643647Y2013894D01*
G01X3650926Y2030245D01*
G01X3654648Y2047752D01*
G01X3654648Y2065651D01*
G01X3650926Y2083158D01*
G01X3643647Y2099509D01*
G01X3633126Y2113988D01*
G01X3619825Y2125965D01*
G01X3604325Y2134914D01*
G01X3587303Y2140445D01*
G01X3569503Y2142316D01*
G01X3509503Y2142316D01*
G01X3491703Y2140445D01*
G01X3474680Y2134914D01*
G01X3459180Y2125965D01*
G01X3445879Y2113988D01*
G01X3435359Y2099509D01*
G01X3428079Y2083158D01*
G01X3424358Y2065651D01*
G01X3244094Y2065651D01*
G01X3243081Y2074640D01*
G01X3237119Y2091679D01*
G01X3227515Y2106964D01*
G01X3214750Y2119728D01*
G01X3199465Y2129332D01*
G01X3182427Y2135294D01*
G01X3164488Y2137316D01*
G01X3074488Y2137316D01*
G01X3056550Y2135294D01*
G01X3039511Y2129332D01*
G01X3024226Y2119728D01*
G01X3011462Y2106964D01*
G01X3001858Y2091679D01*
G01X2995896Y2074640D01*
G01X2993874Y2056702D01*
G01X2988232Y2056702D01*
G01X2988269Y2058925D01*
G01X2985410Y2070426D01*
G01X2979686Y2080803D01*
G01X2971482Y2089355D01*
G01X2983044Y2093487D01*
G01X2993086Y2100553D01*
G01X3000880Y2110041D01*
G01X3005861Y2121265D01*
G01X3007669Y2133410D01*
G01X3006173Y2145597D01*
G01X3001480Y2156944D01*
G01X2993931Y2166628D01*
G01X2984074Y2173949D01*
G01X2972620Y2178376D01*
G01X2960402Y2179588D01*
G01X2948302Y2177497D01*
G01X2937198Y2172256D01*
G01X2927894Y2164243D01*
G01X2921064Y2154039D01*
G01X2917203Y2142383D01*
G01X2916589Y2130119D01*
G01X2919269Y2118136D01*
G01X2925047Y2107302D01*
G01X2933505Y2098401D01*
G01X2922926Y2094764D01*
G01X2913551Y2088662D01*
G01X2913551Y2200212D01*
G01X3110892Y2200212D01*
G01X3112654Y2185705D01*
G01X3117835Y2172042D01*
G01X3126136Y2160016D01*
G01X3137074Y2150326D01*
G01X3150013Y2143535D01*
G01X3164201Y2140038D01*
G01X3178814Y2140038D01*
G01X3193002Y2143535D01*
G01X3205941Y2150326D01*
G01X3216879Y2160016D01*
G01X3225180Y2172042D01*
G01X3230361Y2185705D01*
G01X3232123Y2200212D01*
G01X3230361Y2214718D01*
G01X3225180Y2228381D01*
G01X3216879Y2240407D01*
G01X3205941Y2250097D01*
G01X3193002Y2256888D01*
G01X3178814Y2260385D01*
G01X3164201Y2260385D01*
G01X3150013Y2256888D01*
G01X3137074Y2250097D01*
G01X3126136Y2240407D01*
G01X3117835Y2228381D01*
G01X3112654Y2214718D01*
G01X3110892Y2200212D01*
G01X3110892Y2200212D01*
G01X2913551Y2200212D01*
G01X2913551Y2751800D01*
G01X2911601Y2761602D01*
G01X2906048Y2769912D01*
G01X2897739Y2775465D01*
G01X2887937Y2777414D01*
G01X2874212Y2777414D01*
G01X2873631Y2777421D01*
G01X2608314Y2777421D01*
G01X2598512Y2775471D01*
G01X2590202Y2769919D01*
G01X2584650Y2761609D01*
G01X2582700Y2751807D01*
G01X2582700Y2742468D01*
G01X2582443Y2738847D01*
G01X2582443Y2321074D01*
G01X2584392Y2311272D01*
G01X2589945Y2302962D01*
G01X2598255Y2297409D01*
G01X2608057Y2295460D01*
G01X2660110Y2295460D01*
G01X2668854Y2296999D01*
G01X2668854Y2152466D01*
G01X2660228Y2162032D01*
G01X2649272Y2168805D01*
G01X2636859Y2172246D01*
G01X2623980Y2172080D01*
G01X2611660Y2168322D01*
G01X2600881Y2161270D01*
G01X2592503Y2151486D01*
G01X2587193Y2139751D01*
G01X2585375Y2126999D01*
G01X2587193Y2114248D01*
G01X2592503Y2102512D01*
G01X2600881Y2092729D01*
G01X2611660Y2085677D01*
G01X2623980Y2081918D01*
G01X2636859Y2081753D01*
G01X2649272Y2085194D01*
G01X2660228Y2091967D01*
G01X2668854Y2101532D01*
G01X2668854Y1952678D01*
G01X2659520Y1960369D01*
G01X2648493Y1965338D01*
G01X2636547Y1967234D01*
G01X2624523Y1965925D01*
G01X2613266Y1961502D01*
G01X2603566Y1954277D01*
G01X2596106Y1944757D01*
G01X2591409Y1933612D01*
G01X2589806Y1921624D01*
G01X2591409Y1909635D01*
G01X2596106Y1898490D01*
G01X2603566Y1888970D01*
G01X2613266Y1881745D01*
G01X2624523Y1877322D01*
G01X2636547Y1876013D01*
G01X2648493Y1877909D01*
G01X2659520Y1882878D01*
G01X2668854Y1890569D01*
G01X2668854Y1766210D01*
G01X2657531Y1768598D01*
G01X2645971Y1768060D01*
G01X2634919Y1764631D01*
G01X2625084Y1758532D01*
G01X2617101Y1750154D01*
G01X2611482Y1740038D01*
G01X2608589Y1728833D01*
G01X2608608Y1717261D01*
G01X2611539Y1706065D01*
G01X2617191Y1695968D01*
G01X2136940Y1695968D01*
G01X2131733Y1694572D01*
G01X2127921Y1690761D01*
G01X2126526Y1685554D01*
G01X2126526Y1444316D01*
G01X2127921Y1439109D01*
G01X2131733Y1435298D01*
G01X2136940Y1433902D01*
G01X2668854Y1433902D01*
G01X2668854Y1400292D01*
G01X2657766Y1401389D01*
G01X2646742Y1399766D01*
G01X2636441Y1395519D01*
G01X2627477Y1388902D01*
G01X2620383Y1380309D01*
G01X2614081Y1390708D01*
G01X2605256Y1399073D01*
G01X2594534Y1404810D01*
G01X2582679Y1407511D01*
G01X2570530Y1406985D01*
G01X2558952Y1403268D01*
G01X2548768Y1396625D01*
G01X2538994Y1403566D01*
G01X2527751Y1407722D01*
G01X2515813Y1408806D01*
G01X2504004Y1406743D01*
G01X2493141Y1401675D01*
G01X2483972Y1393953D01*
G01X2477132Y1384110D01*
G01X2473091Y1372825D01*
G01X2461530Y1378501D01*
G01X2448843Y1380720D01*
G01X2436041Y1379305D01*
G01X2424145Y1374369D01*
G01X2414103Y1366305D01*
G01X2406714Y1355756D01*
G01X2402568Y1343562D01*
G01X2401995Y1330695D01*
G01X2405040Y1318181D01*
G01X2411461Y1307017D01*
G01X2420747Y1298092D01*
G01X2432157Y1292117D01*
G01X2444782Y1289570D01*
G01X2457616Y1290652D01*
G01X2469636Y1295278D01*
G01X2479884Y1303078D01*
G01X2487544Y1313432D01*
G01X2492006Y1325514D01*
G01X2502645Y1320149D01*
G01X2514311Y1317722D01*
G01X2526208Y1318398D01*
G01X2537524Y1322132D01*
G01X2547487Y1328668D01*
G01X2558421Y1321135D01*
G01X2571062Y1317070D01*
G01X2584337Y1316816D01*
G01X2597123Y1320395D01*
G01X2608338Y1327505D01*
G01X2617030Y1337542D01*
G01X2623586Y1326831D01*
G01X2632814Y1318313D01*
G01X2644015Y1312634D01*
G01X2656339Y1310223D01*
G01X2668854Y1311264D01*
G01X2668854Y154193D01*
G01X2641350Y154193D01*
G01X2641350Y653845D01*
G01X2641666Y657859D01*
G01X2641666Y743355D01*
G01X2639716Y753157D01*
G01X2634164Y761467D01*
G01X2625854Y767020D01*
G01X2616052Y768970D01*
G01X2150413Y768970D01*
G01X2150475Y781995D01*
G01X2146854Y794506D01*
G01X2139846Y805485D01*
G01X2130020Y814036D01*
G01X2118179Y819463D01*
G01X2105287Y821322D01*
G01X2092396Y819463D01*
G01X2080554Y814036D01*
G01X2070729Y805485D01*
G01X2063721Y794506D01*
G01X2060100Y781995D01*
G01X2060162Y768970D01*
G01X1587209Y768970D01*
G01X1587209Y832039D01*
G01X1590934Y828759D01*
G01X1595755Y827576D01*
G01X1906731Y827576D01*
G01X1911938Y828971D01*
G01X1915749Y832783D01*
G01X1917145Y837990D01*
G01X1917145Y983509D01*
G01X1915749Y988716D01*
G01X1911938Y992528D01*
G01X1906731Y993923D01*
G01X1595755Y993923D01*
G01X1590934Y992740D01*
G01X1587209Y989460D01*
G01X1587209Y1123465D01*
G01X1876296Y1123465D01*
G01X1876924Y1111108D01*
G01X1880850Y1099374D01*
G01X1887783Y1089126D01*
G01X1897215Y1081118D01*
G01X1908452Y1075939D01*
G01X1920668Y1073970D01*
G01X1932963Y1075355D01*
G01X1944434Y1079993D01*
G01X1954237Y1087542D01*
G01X1954483Y1087872D01*
G01X1979872Y1087872D01*
G01X1981720Y1075018D01*
G01X1987114Y1063205D01*
G01X1995618Y1053391D01*
G01X2006543Y1046370D01*
G01X2019003Y1042712D01*
G01X2031989Y1042712D01*
G01X2044449Y1046370D01*
G01X2055373Y1053391D01*
G01X2063877Y1063205D01*
G01X2069272Y1075018D01*
G01X2071120Y1087872D01*
G01X2069272Y1100725D01*
G01X2063877Y1112538D01*
G01X2055373Y1122352D01*
G01X2044449Y1129373D01*
G01X2031989Y1133031D01*
G01X2019003Y1133031D01*
G01X2006543Y1129373D01*
G01X1995618Y1122352D01*
G01X1987114Y1112538D01*
G01X1981720Y1100725D01*
G01X1979872Y1087872D01*
G01X1979872Y1087872D01*
G01X1954483Y1087872D01*
G01X1961651Y1097448D01*
G01X1966131Y1108981D01*
G01X1967347Y1121294D01*
G01X1979719Y1121163D01*
G01X1991672Y1124361D01*
G01X2002326Y1130653D01*
G01X2010897Y1139576D01*
G01X2016756Y1150474D01*
G01X2019471Y1162545D01*
G01X2018843Y1174902D01*
G01X2014918Y1186636D01*
G01X2007984Y1196884D01*
G01X2007984Y1196884D01*
G01X1998552Y1204892D01*
G01X1987315Y1210071D01*
G01X1975100Y1212040D01*
G01X1962805Y1210655D01*
G01X1951334Y1206017D01*
G01X1941531Y1198468D01*
G01X1934117Y1188562D01*
G01X1929637Y1177029D01*
G01X1928421Y1164715D01*
G01X1916048Y1164847D01*
G01X1904096Y1161649D01*
G01X1893442Y1155357D01*
G01X1884870Y1146434D01*
G01X1879012Y1135536D01*
G01X1876296Y1123465D01*
G01X1587209Y1123465D01*
G01X1587209Y1508645D01*
G01X1674180Y1508645D01*
G01X1676029Y1495791D01*
G01X1681423Y1483978D01*
G01X1689927Y1474164D01*
G01X1700852Y1467144D01*
G01X1713312Y1463485D01*
G01X1726298Y1463485D01*
G01X1738757Y1467144D01*
G01X1749682Y1474164D01*
G01X1758186Y1483978D01*
G01X1763581Y1495791D01*
G01X1765429Y1508645D01*
G01X1763581Y1521498D01*
G01X1758186Y1533311D01*
G01X1749682Y1543125D01*
G01X1738757Y1550146D01*
G01X1726298Y1553804D01*
G01X1713312Y1553804D01*
G01X1700852Y1550146D01*
G01X1689927Y1543125D01*
G01X1681423Y1533311D01*
G01X1676029Y1521498D01*
G01X1674180Y1508645D01*
G01X1674180Y1508645D01*
G01X1587209Y1508645D01*
G01X1587209Y1549625D01*
G01X1671493Y1549625D01*
G01X1681296Y1551575D01*
G01X1689605Y1557127D01*
G01X1695158Y1565437D01*
G01X1697108Y1575239D01*
G01X1697108Y1653595D01*
G01X1695158Y1663397D01*
G01X1689605Y1671707D01*
G01X1681296Y1677259D01*
G01X1671493Y1679209D01*
G01X1663836Y1679209D01*
G01X1666444Y1691443D01*
G01X1665632Y1703926D01*
G01X1661460Y1715719D01*
G01X1654242Y1725936D01*
G01X1644521Y1733808D01*
G01X1633026Y1738744D01*
G01X1620624Y1740373D01*
G01X1608245Y1738572D01*
G01X1596820Y1733477D01*
G01X1587209Y1725471D01*
G01X1587209Y1786092D01*
G01X2457755Y1786092D01*
G01X2467557Y1788042D01*
G01X2475867Y1793594D01*
G01X2481419Y1801904D01*
G01X2483369Y1811706D01*
G01X2483369Y1895809D01*
G01X2481849Y1904503D01*
G01X2481849Y2445210D01*
G01X2492562Y2437054D01*
G01X2505189Y2432379D01*
G01X2518631Y2431594D01*
G01X2531717Y2434767D01*
G01X2543306Y2441621D01*
G01X2552390Y2451560D01*
G01X2558178Y2463717D01*
G01X2560165Y2477035D01*
G01X2558178Y2490352D01*
G01X2552390Y2502509D01*
G01X2543306Y2512448D01*
G01X2531717Y2519302D01*
G01X2518631Y2522475D01*
G01X2505189Y2521690D01*
G01X2492562Y2517016D01*
G01X2481849Y2508859D01*
G01X2481849Y2536849D01*
G01X2494405Y2532674D01*
G01X2507631Y2532277D01*
G01X2520415Y2535693D01*
G01X2531681Y2542633D01*
G01X2540481Y2552514D01*
G01X2546076Y2564505D01*
G01X2547995Y2577597D01*
G01X2546076Y2590689D01*
G01X2540481Y2602680D01*
G01X2531681Y2612561D01*
G01X2520415Y2619502D01*
G01X2507631Y2622917D01*
G01X2494405Y2622520D01*
G01X2481849Y2618345D01*
G01X2481849Y2778214D01*
G01X3110892Y2778214D01*
G01X3112654Y2763708D01*
G01X3117835Y2750045D01*
G01X3126136Y2738019D01*
G01X3137074Y2728328D01*
G01X3150013Y2721538D01*
G01X3164201Y2718041D01*
G01X3178814Y2718041D01*
G01X3193002Y2721538D01*
G01X3205941Y2728328D01*
G01X3216879Y2738019D01*
G01X3225180Y2750045D01*
G01X3230361Y2763708D01*
G01X3232123Y2778214D01*
G01X3230361Y2792720D01*
G01X3225180Y2806383D01*
G01X3216879Y2818409D01*
G01X3205941Y2828099D01*
G01X3193002Y2834890D01*
G01X3178814Y2838387D01*
G01X3164201Y2838387D01*
G01X3150013Y2834890D01*
G01X3137074Y2828099D01*
G01X3126136Y2818409D01*
G01X3117835Y2806383D01*
G01X3112654Y2792720D01*
G01X3110892Y2778214D01*
G01X3110892Y2778214D01*
G01X2481849Y2778214D01*
G01X2481849Y2851091D01*
G01X3001209Y2851091D01*
G01X3008865Y2852262D01*
G01X3015821Y2855668D01*
G01X3021441Y2860998D01*
G01X3033134Y2852500D01*
G01X3046157Y2846227D01*
G01X3060091Y2842380D01*
G01X3074488Y2841084D01*
G01X3164488Y2841084D01*
G01X3182427Y2843106D01*
G01X3199465Y2849068D01*
G01X3214750Y2858672D01*
G01X3227515Y2871436D01*
G01X3237119Y2886721D01*
G01X3243081Y2903760D01*
G01X3245102Y2921699D01*
G01X3244094Y2930648D01*
G01X3424358Y2930648D01*
G01X3424358Y2912749D01*
G01X3428079Y2895242D01*
G01X3435359Y2878891D01*
G01X3445879Y2864412D01*
G01X3459180Y2852435D01*
G01X3474680Y2843486D01*
G01X3491703Y2837955D01*
G01X3509503Y2836084D01*
G01X3509503Y2836084D01*
G01X3569503Y2836084D01*
G01X3587303Y2837955D01*
G01X3604325Y2843486D01*
G01X3619825Y2852435D01*
G01X3633126Y2864412D01*
G01X3643647Y2878891D01*
G01X3650926Y2895242D01*
G01X3654648Y2912749D01*
G01X3654648Y2930648D01*
G01X3650926Y2948155D01*
G01X3643647Y2964506D01*
G01X3633126Y2978985D01*
G01X3619825Y2990962D01*
G01X3604325Y2999911D01*
G01X3587303Y3005442D01*
G01X3569503Y3007313D01*
G01X3509503Y3007313D01*
G01X3491703Y3005442D01*
G01X3474680Y2999911D01*
G01X3459180Y2990962D01*
G01X3445879Y2978985D01*
G01X3435359Y2964506D01*
G01X3428079Y2948155D01*
G01X3424358Y2930648D01*
G01X3244094Y2930648D01*
G01X3243081Y2939637D01*
G01X3237119Y2956676D01*
G01X3227515Y2971961D01*
G01X3214750Y2984725D01*
G01X3199465Y2994329D01*
G01X3182427Y3000291D01*
G01X3164488Y3002313D01*
G01X3074488Y3002313D01*
G01X3057396Y3000480D01*
G01X3041081Y2995065D01*
G01X3026286Y2986314D01*
G01X3026286Y3206689D01*
G01X3055783Y3206689D01*
G01X3057631Y3193835D01*
G01X3063026Y3182023D01*
G01X3071530Y3172209D01*
G01X3082454Y3165188D01*
G01X3094914Y3161529D01*
G01X3107900Y3161529D01*
G01X3120360Y3165188D01*
G01X3131285Y3172209D01*
G01X3139789Y3182023D01*
G01X3145183Y3193835D01*
G01X3147031Y3206689D01*
G01X3145183Y3219543D01*
G01X3139789Y3231355D01*
G01X3131285Y3241169D01*
G01X3120360Y3248190D01*
G01X3107900Y3251849D01*
G01X3094914Y3251849D01*
G01X3082454Y3248190D01*
G01X3071530Y3241169D01*
G01X3063026Y3231355D01*
G01X3057631Y3219543D01*
G01X3055783Y3206689D01*
G01X3055783Y3206689D01*
G01X3026286Y3206689D01*
G01X3026286Y3425000D01*
G01X3126386Y3425000D01*
G01X3128276Y3391342D01*
G01X3133923Y3358107D01*
G01X3143255Y3325713D01*
G01X3156156Y3294568D01*
G01X3172463Y3265064D01*
G01X3191970Y3237570D01*
G01X3214434Y3212434D01*
G01X3239570Y3189970D01*
G01X3267064Y3170463D01*
G01X3296568Y3154156D01*
G01X3327713Y3141255D01*
G01X3360107Y3131923D01*
G01X3393342Y3126276D01*
G01X3427000Y3124386D01*
G01X3460658Y3126276D01*
G01X3493893Y3131923D01*
G01X3526287Y3141255D01*
G01X3557432Y3154156D01*
G01X3586936Y3170463D01*
G01X3614430Y3189970D01*
G01X3639566Y3212434D01*
G01X3662030Y3237570D01*
G01X3681537Y3265064D01*
G01X3697844Y3294568D01*
G01X3710745Y3325713D01*
G01X3720077Y3358107D01*
G01X3725724Y3391342D01*
G01X3727614Y3425000D01*
G01X3725724Y3458658D01*
G01X3720077Y3491893D01*
G01X3710745Y3524287D01*
G01X3697844Y3555432D01*
G01X3681537Y3584936D01*
G01X3662030Y3612430D01*
G01X3639566Y3637566D01*
G01X3614430Y3660030D01*
G01X3586936Y3679537D01*
G01X3557432Y3695844D01*
G01X3526287Y3708745D01*
G01X3493893Y3718077D01*
G01X3460658Y3723724D01*
G01X3427000Y3725614D01*
G01X3393342Y3723724D01*
G01X3360107Y3718077D01*
G01X3327713Y3708745D01*
G01X3296568Y3695844D01*
G01X3267064Y3679537D01*
G01X3239570Y3660030D01*
G01X3214434Y3637566D01*
G01X3191970Y3612430D01*
G01X3172463Y3584936D01*
G01X3156156Y3555432D01*
G01X3143255Y3524287D01*
G01X3133923Y3491893D01*
G01X3128276Y3458658D01*
G01X3126386Y3425000D01*
G01X3126386Y3425000D01*
G01X3026286Y3425000D01*
G01X3026286Y3669485D01*
G01X3024336Y3679287D01*
G01X3018783Y3687597D01*
G01X3010474Y3693150D01*
G01X3000671Y3695099D01*
G01X2916569Y3695099D01*
G01X2910847Y3694452D01*
G01X974985Y3694452D01*
G01X965182Y3692502D01*
G01X956873Y3686950D01*
G01X951320Y3678640D01*
G01X949370Y3668838D01*
G01X949370Y3579163D01*
G01X951320Y3569360D01*
G01X956873Y3561051D01*
G01X965182Y3555498D01*
G01X974985Y3553548D01*
G01X1536577Y3553548D01*
G01X1536577Y3496302D01*
G01X1538527Y3486500D01*
G01X1544079Y3478190D01*
G01X1552389Y3472638D01*
G01X1562191Y3470688D01*
G01X1612238Y3470688D01*
G01X1622040Y3472638D01*
G01X1630349Y3478190D01*
G01X1635902Y3486500D01*
G01X1637852Y3496302D01*
G01X1637852Y3553548D01*
G01X2222316Y3553548D01*
G01X2218519Y3541060D01*
G01X2218413Y3528008D01*
G01X2222007Y3515460D01*
G01X2229007Y3504443D01*
G01X2238840Y3495859D01*
G01X2250701Y3490411D01*
G01X2263619Y3488544D01*
G01X2276538Y3490411D01*
G01X2288399Y3495859D01*
G01X2298232Y3504443D01*
G01X2305232Y3515460D01*
G01X2308826Y3528008D01*
G01X2308720Y3541060D01*
G01X2304923Y3553548D01*
G01X2405300Y3553548D01*
G01X2395218Y3546472D01*
G01X2387397Y3536957D01*
G01X2382406Y3525696D01*
G01X2380610Y3513510D01*
G01X2382138Y3501288D01*
G01X2386880Y3489921D01*
G01X2394490Y3480236D01*
G01X2404414Y3472939D01*
G01X2415927Y3468564D01*
G01X2428192Y3467427D01*
G01X2440314Y3469613D01*
G01X2451409Y3474961D01*
G01X2460669Y3483083D01*
G01X2467419Y3493386D01*
G01X2477661Y3486582D01*
G01X2489348Y3482760D01*
G01X2501630Y3482198D01*
G01X2513617Y3484936D01*
G01X2524438Y3490775D01*
G01X2533306Y3499293D01*
G01X2540705Y3490030D01*
G01X2550240Y3482986D01*
G01X2561268Y3478637D01*
G01X2573045Y3477276D01*
G01X2584774Y3478995D01*
G01X2595665Y3483677D01*
G01X2606835Y3478917D01*
G01X2618865Y3477271D01*
G01X2630904Y3478857D01*
G01X2642097Y3483562D01*
G01X2654040Y3478661D01*
G01X2666877Y3477301D01*
G01X2679581Y3479591D01*
G01X2691135Y3485348D01*
G01X2700614Y3494111D01*
G01X2707259Y3505177D01*
G01X2710539Y3517663D01*
G01X2710190Y3530567D01*
G01X2706241Y3542856D01*
G01X2699008Y3553548D01*
G01X2890955Y3553548D01*
G01X2890955Y2951592D01*
G01X2371258Y2951592D01*
G01X2361456Y2949642D01*
G01X2353146Y2944090D01*
G01X2347593Y2935780D01*
G01X2345644Y2925978D01*
G01X2345644Y2876705D01*
G01X2346518Y2870070D01*
G01X2346518Y2577060D01*
G01X2334727Y2578574D01*
G01X2322945Y2576990D01*
G01X2311972Y2572417D01*
G01X2302553Y2565163D01*
G01X2295328Y2555723D01*
G01X2290787Y2544737D01*
G01X2289238Y2532950D01*
G01X2290787Y2521164D01*
G01X2295328Y2510177D01*
G01X2302553Y2500737D01*
G01X2311972Y2493484D01*
G01X2322945Y2488910D01*
G01X2334727Y2487326D01*
G01X2346518Y2488840D01*
G01X2346518Y2482002D01*
G01X2345575Y2474298D01*
G01X2345575Y2364976D01*
G01X2346518Y2357272D01*
G01X2346518Y1921423D01*
G01X1571062Y1921423D01*
G01X1561595Y1923237D01*
G01X1477492Y1923237D01*
G01X1467690Y1921287D01*
G01X1459380Y1915735D01*
G01X1453827Y1907425D01*
G01X1451878Y1897623D01*
G01X1451878Y1679209D01*
G01X1208280Y1679209D01*
G01X1210512Y1692045D01*
G01X1209024Y1704989D01*
G01X1203938Y1716985D01*
G01X1195668Y1727054D01*
G01X1184891Y1734375D01*
G01X1195408Y1742900D01*
G01X1202960Y1754137D01*
G01X1206882Y1767096D01*
G01X1206829Y1780635D01*
G01X1202804Y1793562D01*
G01X1195164Y1804739D01*
G01X1184579Y1813181D01*
G01X1171983Y1818146D01*
G01X1158485Y1819195D01*
G01X1145273Y1816237D01*
G01X1133511Y1809532D01*
G01X1124234Y1799670D01*
G01X1118260Y1787521D01*
G01X1116115Y1774153D01*
G01X1108037Y1784431D01*
G01X1097375Y1791997D01*
G01X1085006Y1796229D01*
G01X1071944Y1796779D01*
G01X1059263Y1793602D01*
G01X1048003Y1786960D01*
G01X1039089Y1777397D01*
G01X1033252Y1765699D01*
G01X1030973Y1752826D01*
G01X1032438Y1739835D01*
G01X1037527Y1727793D01*
G01X1045822Y1717688D01*
G01X1056642Y1710351D01*
G01X1069099Y1706383D01*
G01X1082169Y1706111D01*
G01X1094780Y1709556D01*
G01X1105897Y1716436D01*
G01X1114605Y1726187D01*
G01X1120191Y1738006D01*
G01X1122196Y1750925D01*
G01X1130607Y1740333D01*
G01X1141753Y1732672D01*
G01X1132081Y1725047D01*
G01X1124801Y1715112D01*
G01X1120444Y1703592D01*
G01X1119328Y1691326D01*
G01X1121533Y1679209D01*
G01X732928Y1679209D01*
G01X732928Y1907836D01*
G01X985522Y1907836D01*
G01X987370Y1894982D01*
G01X992765Y1883170D01*
G01X1001269Y1873356D01*
G01X1012193Y1866335D01*
G01X1024653Y1862676D01*
G01X1037639Y1862676D01*
G01X1050099Y1866335D01*
G01X1061023Y1873356D01*
G01X1069527Y1883170D01*
G01X1074922Y1894982D01*
G01X1076770Y1907836D01*
G01X1074922Y1920690D01*
G01X1069527Y1932502D01*
G01X1061023Y1942316D01*
G01X1050099Y1949337D01*
G01X1037639Y1952996D01*
G01X1024653Y1952996D01*
G01X1012193Y1949337D01*
G01X1001269Y1942316D01*
G01X992765Y1932502D01*
G01X987370Y1920690D01*
G01X985522Y1907836D01*
G01X985522Y1907836D01*
G01X732928Y1907836D01*
G01X732928Y1972962D01*
G01X1448375Y1972962D01*
G01X1450224Y1960108D01*
G01X1455618Y1948296D01*
G01X1464122Y1938482D01*
G01X1475047Y1931461D01*
G01X1487507Y1927802D01*
G01X1500493Y1927802D01*
G01X1512952Y1931461D01*
G01X1523877Y1938482D01*
G01X1532381Y1948296D01*
G01X1537776Y1960108D01*
G01X1539624Y1972962D01*
G01X1537776Y1985816D01*
G01X1532381Y1997628D01*
G01X1523877Y2007442D01*
G01X1512952Y2014463D01*
G01X1500493Y2018122D01*
G01X1487507Y2018122D01*
G01X1475047Y2014463D01*
G01X1464122Y2007442D01*
G01X1455618Y1997628D01*
G01X1450224Y1985816D01*
G01X1448375Y1972962D01*
G01X1448375Y1972962D01*
G01X732928Y1972962D01*
G01X732928Y2024431D01*
G01X1001404Y2024431D01*
G01X1002705Y2011877D01*
G01X1007394Y2000159D01*
G01X1015115Y1990175D01*
G01X1015115Y1990175D01*
G01X1025276Y1982688D01*
G01X1037099Y1978272D01*
G01X1049679Y1977263D01*
G01X1062055Y1979740D01*
G01X1073279Y1985513D01*
G01X1082491Y1994139D01*
G01X1088988Y2004960D01*
G01X1092271Y2017146D01*
G01X1092090Y2029766D01*
G01X1104711Y2029878D01*
G01X1116818Y2033444D01*
G01X1127485Y2040189D01*
G01X1135895Y2049600D01*
G01X1141406Y2060954D01*
G01X1143595Y2073384D01*
G01X1143240Y2076808D01*
G01X1847155Y2076808D01*
G01X1847227Y2063599D01*
G01X1851081Y2050964D01*
G01X1858392Y2039963D01*
G01X1868549Y2031518D01*
G01X1880699Y2026336D01*
G01X1893825Y2024852D01*
G01X1906826Y2027190D01*
G01X1918612Y2033155D01*
G01X1928195Y2042246D01*
G01X1934772Y2053702D01*
G01X1937993Y2040730D01*
G01X1944835Y2029248D01*
G01X1954711Y2020241D01*
G01X1966773Y2014483D01*
G01X1979986Y2012468D01*
G01X1993217Y2014369D01*
G01X2005328Y2020022D01*
G01X2015282Y2028942D01*
G01X2022815Y2018463D01*
G01X2032981Y2010513D01*
G01X2044966Y2005727D01*
G01X2057812Y2004489D01*
G01X2070491Y2006897D01*
G01X2081988Y2012760D01*
G01X2091383Y2021608D01*
G01X2097925Y2032732D01*
G01X2101091Y2045244D01*
G01X2100625Y2058141D01*
G01X2096567Y2070392D01*
G01X2089241Y2081017D01*
G01X2079233Y2089165D01*
G01X2067344Y2094184D01*
G01X2054524Y2095673D01*
G01X2041801Y2093513D01*
G01X2030191Y2087877D01*
G01X2020624Y2079215D01*
G01X2013037Y2089750D01*
G01X2002789Y2097722D01*
G01X1990711Y2102485D01*
G01X1977780Y2103653D01*
G01X1965044Y2101131D01*
G01X1953534Y2095124D01*
G01X1944183Y2086118D01*
G01X1937746Y2074842D01*
G01X1934585Y2087668D01*
G01X1927882Y2099050D01*
G01X1918200Y2108035D01*
G01X1906349Y2113870D01*
G01X1893324Y2116065D01*
G01X1880215Y2114437D01*
G01X1868123Y2109122D01*
G01X1858059Y2100565D01*
G01X1850869Y2089484D01*
G01X1847155Y2076808D01*
G01X1847155Y2076808D01*
G01X1143240Y2076808D01*
G01X1142295Y2085938D01*
G01X1137605Y2097655D01*
G01X1129884Y2107639D01*
G01X1119724Y2115126D01*
G01X1107901Y2119543D01*
G01X1095320Y2120551D01*
G01X1082944Y2118075D01*
G01X1071721Y2112302D01*
G01X1062508Y2103675D01*
G01X1056012Y2092855D01*
G01X1052728Y2080668D01*
G01X1052909Y2068048D01*
G01X1040289Y2067936D01*
G01X1028182Y2064371D01*
G01X1017515Y2057625D01*
G01X1009104Y2048215D01*
G01X1003593Y2036860D01*
G01X1001404Y2024431D01*
G01X732928Y2024431D01*
G01X732928Y2069437D01*
G01X730979Y2079239D01*
G01X725426Y2087549D01*
G01X717116Y2093101D01*
G01X707314Y2095051D01*
G01X615441Y2095051D01*
G01X605639Y2093101D01*
G01X597329Y2087549D01*
G01X591776Y2079239D01*
G01X589827Y2069437D01*
G01X589827Y2057290D01*
G01X345092Y2057290D01*
G01X338071Y2056309D01*
G01X331587Y2053441D01*
G01X326139Y2048906D01*
G01X326139Y2164474D01*
G01X892734Y2164474D01*
G01X894691Y2164399D01*
G01X950859Y2164399D01*
G01X955914Y2164903D01*
G01X964198Y2167990D01*
G01X970940Y2173709D01*
G01X975335Y2181380D01*
G01X976861Y2190088D01*
G01X976861Y2193391D01*
G01X1016126Y2193391D01*
G01X1017974Y2180538D01*
G01X1023369Y2168725D01*
G01X1031873Y2158911D01*
G01X1042797Y2151890D01*
G01X1055257Y2148232D01*
G01X1068243Y2148232D01*
G01X1080703Y2151890D01*
G01X1091627Y2158911D01*
G01X1100131Y2168725D01*
G01X1105526Y2180538D01*
G01X1107374Y2193391D01*
G01X1105526Y2206245D01*
G01X1100131Y2218058D01*
G01X1091627Y2227872D01*
G01X1089580Y2229188D01*
G01X1864642Y2229188D01*
G01X1865056Y2216435D01*
G01X1868985Y2204295D01*
G01X1876122Y2193719D01*
G01X1876122Y2193719D01*
G01X1885909Y2185532D01*
G01X1897580Y2180376D01*
G01X1910223Y2178653D01*
G01X1922848Y2180499D01*
G01X1934469Y2185768D01*
G01X1944175Y2194050D01*
G01X1951209Y2204695D01*
G01X1955020Y2216873D01*
G01X1967525Y2219411D01*
G01X1978837Y2225314D01*
G01X1988072Y2234118D01*
G01X1994509Y2245135D01*
G01X1997643Y2257503D01*
G01X1997229Y2270256D01*
G01X1993300Y2282396D01*
G01X1986162Y2292972D01*
G01X1976544Y2301018D01*
G01X2014612Y2301018D01*
G01X2016460Y2288164D01*
G01X2021855Y2276352D01*
G01X2030359Y2266538D01*
G01X2041283Y2259517D01*
G01X2053743Y2255858D01*
G01X2066729Y2255858D01*
G01X2079189Y2259517D01*
G01X2090114Y2266538D01*
G01X2098618Y2276352D01*
G01X2104012Y2288164D01*
G01X2105860Y2301018D01*
G01X2104012Y2313872D01*
G01X2098618Y2325684D01*
G01X2090114Y2335498D01*
G01X2079189Y2342519D01*
G01X2066729Y2346178D01*
G01X2053743Y2346178D01*
G01X2041283Y2342519D01*
G01X2030359Y2335498D01*
G01X2021855Y2325684D01*
G01X2016460Y2313872D01*
G01X2014612Y2301018D01*
G01X2014612Y2301018D01*
G01X1976544Y2301018D01*
G01X1976376Y2301159D01*
G01X1964704Y2306315D01*
G01X1952062Y2308038D01*
G01X1939436Y2306192D01*
G01X1927816Y2300923D01*
G01X1918109Y2292641D01*
G01X1911075Y2281996D01*
G01X1907264Y2269818D01*
G01X1894760Y2267280D01*
G01X1883447Y2261377D01*
G01X1874212Y2252573D01*
G01X1867776Y2241556D01*
G01X1864642Y2229188D01*
G01X1089580Y2229188D01*
G01X1080703Y2234893D01*
G01X1068243Y2238551D01*
G01X1055257Y2238551D01*
G01X1042797Y2234893D01*
G01X1031873Y2227872D01*
G01X1023369Y2218058D01*
G01X1017974Y2206245D01*
G01X1016126Y2193391D01*
G01X1016126Y2193391D01*
G01X976861Y2193391D01*
G01X976861Y2246256D01*
G01X976473Y2250695D01*
G01X976473Y2400557D01*
G01X1092005Y2400557D01*
G01X1092005Y2353565D01*
G01X1093954Y2343763D01*
G01X1099507Y2335453D01*
G01X1107817Y2329901D01*
G01X1117619Y2327951D01*
G01X1173786Y2327951D01*
G01X1180262Y2328783D01*
G01X1320063Y2328783D01*
G01X1326255Y2329543D01*
G01X1366765Y2329543D01*
G01X1376567Y2331492D01*
G01X1384877Y2337045D01*
G01X1390429Y2345355D01*
G01X1392379Y2355157D01*
G01X1392379Y2400489D01*
G01X1514094Y2400489D01*
G01X1523896Y2402438D01*
G01X1532206Y2407991D01*
G01X1537759Y2416301D01*
G01X1539708Y2426103D01*
G01X1539708Y2482270D01*
G01X1537759Y2492072D01*
G01X1532206Y2500382D01*
G01X1523896Y2505935D01*
G01X1514094Y2507884D01*
G01X1310206Y2507884D01*
G01X1300404Y2505935D01*
G01X1292094Y2500382D01*
G01X1286542Y2492072D01*
G01X1284592Y2482270D01*
G01X1284592Y2436179D01*
G01X1199400Y2436179D01*
G01X1199400Y2466205D01*
G01X1199399Y2466506D01*
G01X1199399Y2482338D01*
G01X1197449Y2492141D01*
G01X1191896Y2500450D01*
G01X1183587Y2506003D01*
G01X1173785Y2507953D01*
G01X898190Y2507953D01*
G01X892572Y2507329D01*
G01X887228Y2505488D01*
G01X879924Y2501914D01*
G01X874109Y2496232D01*
G01X870368Y2489013D01*
G01X869077Y2480985D01*
G01X869077Y2271870D01*
G01X420744Y2271870D01*
G01X431315Y2279957D01*
G01X439102Y2290751D01*
G01X443442Y2303333D01*
G01X443967Y2316632D01*
G01X440631Y2329517D01*
G01X433718Y2340891D01*
G01X423817Y2349785D01*
G01X411770Y2355444D01*
G01X398603Y2357386D01*
G01X385436Y2355444D01*
G01X373389Y2349785D01*
G01X363488Y2340891D01*
G01X356576Y2329517D01*
G01X353240Y2316632D01*
G01X353764Y2303333D01*
G01X358105Y2290751D01*
G01X365892Y2279957D01*
G01X376463Y2271870D01*
G01X285617Y2271870D01*
G01X278387Y2270828D01*
G01X250969Y2270828D01*
G01X241167Y2268878D01*
G01X232857Y2263326D01*
G01X227305Y2255016D01*
G01X225355Y2245214D01*
G01X225355Y1177486D01*
G01X227305Y1167684D01*
G01X232857Y1159374D01*
G01X241167Y1153821D01*
G01X250969Y1151872D01*
G01X300524Y1151872D01*
G01X303870Y1152091D01*
G01X407608Y1152091D01*
G01X407608Y968838D01*
G01X409558Y959035D01*
G01X415110Y950726D01*
G01X423420Y945173D01*
G01X433222Y943223D01*
G01X516621Y943223D01*
G01X522820Y943985D01*
G01X528650Y946224D01*
G01X922246Y946224D01*
G01X922246Y924617D01*
G01X924196Y914815D01*
G01X929749Y906505D01*
G01X938058Y900953D01*
G01X947860Y899003D01*
G01X982546Y899003D01*
G01X990770Y898256D01*
G01X998994Y899003D01*
G01X1049028Y899003D01*
G01X1058830Y900953D01*
G01X1067140Y906505D01*
G01X1072692Y914815D01*
G01X1074642Y924617D01*
G01X1074642Y1021502D01*
G01X1153988Y1021502D01*
G01X1155836Y1008648D01*
G01X1161230Y996835D01*
G01X1169734Y987021D01*
G01X1180659Y980000D01*
G01X1193119Y976342D01*
G01X1206105Y976342D01*
G01X1218565Y980000D01*
G01X1229489Y987021D01*
G01X1237993Y996835D01*
G01X1243388Y1008648D01*
G01X1245236Y1021502D01*
G01X1243388Y1034355D01*
G01X1237993Y1046168D01*
G01X1229489Y1055982D01*
G01X1218565Y1063003D01*
G01X1206105Y1066661D01*
G01X1193119Y1066661D01*
G01X1180659Y1063003D01*
G01X1169734Y1055982D01*
G01X1161230Y1046168D01*
G01X1155836Y1034355D01*
G01X1153988Y1021502D01*
G01X1153988Y1021502D01*
G01X1074642Y1021502D01*
G01X1074642Y1153322D01*
G01X1072692Y1163124D01*
G01X1067140Y1171434D01*
G01X1058830Y1176986D01*
G01X1049028Y1178936D01*
G01X947860Y1178936D01*
G01X938058Y1176986D01*
G01X929749Y1171434D01*
G01X924196Y1163124D01*
G01X922246Y1153322D01*
G01X922246Y1128149D01*
G01X922246Y1120134D01*
G01X922246Y1046957D01*
G01X542235Y1046957D01*
G01X542235Y1172524D01*
G01X542765Y1177705D01*
G01X542765Y1259210D01*
G01X540815Y1269012D01*
G01X535263Y1277322D01*
G01X526953Y1282874D01*
G01X517151Y1284824D01*
G01X326139Y1284824D01*
G01X326139Y1384052D01*
G01X482466Y1384052D01*
G01X484314Y1371198D01*
G01X489708Y1359385D01*
G01X498212Y1349571D01*
G01X509137Y1342550D01*
G01X521597Y1338892D01*
G01X534583Y1338892D01*
G01X542649Y1341260D01*
G01X656376Y1341260D01*
G01X658224Y1328407D01*
G01X663618Y1316594D01*
G01X672122Y1306780D01*
G01X683047Y1299759D01*
G01X695507Y1296101D01*
G01X708493Y1296101D01*
G01X720953Y1299759D01*
G01X731877Y1306780D01*
G01X740381Y1316594D01*
G01X745776Y1328407D01*
G01X747624Y1341260D01*
G01X745776Y1354114D01*
G01X740381Y1365927D01*
G01X731877Y1375741D01*
G01X720953Y1382762D01*
G01X708493Y1386420D01*
G01X695507Y1386420D01*
G01X683047Y1382762D01*
G01X672122Y1375741D01*
G01X663618Y1365927D01*
G01X658224Y1354114D01*
G01X656376Y1341260D01*
G01X656376Y1341260D01*
G01X542649Y1341260D01*
G01X547043Y1342550D01*
G01X557967Y1349571D01*
G01X566471Y1359385D01*
G01X571866Y1371198D01*
G01X573714Y1384052D01*
G01X571866Y1396905D01*
G01X566471Y1408718D01*
G01X557967Y1418532D01*
G01X547043Y1425553D01*
G01X534583Y1429211D01*
G01X521597Y1429211D01*
G01X509137Y1425553D01*
G01X498212Y1418532D01*
G01X489708Y1408718D01*
G01X484314Y1396905D01*
G01X482466Y1384052D01*
G01X482466Y1384052D01*
G01X326139Y1384052D01*
G01X326139Y1851050D01*
G01X485209Y1851050D01*
G01X487058Y1838196D01*
G01X492452Y1826384D01*
G01X500956Y1816569D01*
G01X511881Y1809549D01*
G01X524341Y1805890D01*
G01X537327Y1805890D01*
G01X549787Y1809549D01*
G01X560711Y1816569D01*
G01X569215Y1826384D01*
G01X574610Y1838196D01*
G01X576458Y1851050D01*
G01X574610Y1863904D01*
G01X569215Y1875716D01*
G01X560711Y1885530D01*
G01X549787Y1892551D01*
G01X537327Y1896210D01*
G01X524341Y1896210D01*
G01X511881Y1892551D01*
G01X500956Y1885530D01*
G01X492452Y1875716D01*
G01X487058Y1863904D01*
G01X485209Y1851050D01*
G01X485209Y1851050D01*
G01X326139Y1851050D01*
G01X326139Y1964679D01*
G01X331587Y1960143D01*
G01X338071Y1957275D01*
G01X345092Y1956294D01*
G01X589827Y1956294D01*
G01X589827Y1575012D01*
G01X591776Y1565210D01*
G01X597329Y1556900D01*
G01X605639Y1551348D01*
G01X615441Y1549398D01*
G01X707314Y1549398D01*
G01X710716Y1549625D01*
G01X1106275Y1549625D01*
G01X1105141Y1539539D01*
G01X1106265Y1529452D01*
G01X678065Y1529452D01*
G01X668263Y1527502D01*
G01X659953Y1521949D01*
G01X654401Y1513640D01*
G01X652451Y1503837D01*
G01X652451Y1462249D01*
G01X654401Y1452447D01*
G01X659953Y1444137D01*
G01X668263Y1438585D01*
G01X678065Y1436635D01*
G01X1179859Y1436635D01*
G01X1172926Y1425699D01*
G01X1169344Y1413255D01*
G01X1169403Y1400307D01*
G01X1173097Y1387896D01*
G01X1180129Y1377023D01*
G01X1189933Y1368564D01*
G01X1201718Y1363199D01*
G01X1214536Y1361362D01*
G01X1227353Y1363199D01*
G01X1239139Y1368564D01*
G01X1248942Y1377023D01*
G01X1255974Y1387896D01*
G01X1259668Y1400307D01*
G01X1259727Y1413255D01*
G01X1256146Y1425699D01*
G01X1249213Y1436635D01*
G01X1355978Y1436635D01*
G01X1355978Y1390055D01*
G01X1346990Y1398783D01*
G01X1335967Y1404738D01*
G01X1323740Y1407470D01*
G01X1311231Y1406773D01*
G01X1299383Y1402700D01*
G01X1289089Y1395557D01*
G01X1281127Y1385884D01*
G01X1276096Y1374410D01*
G01X1274376Y1362000D01*
G01X1276096Y1349589D01*
G01X1281127Y1338115D01*
G01X1289089Y1328442D01*
G01X1299383Y1321299D01*
G01X1311231Y1317226D01*
G01X1323740Y1316529D01*
G01X1335967Y1319261D01*
G01X1346990Y1325216D01*
G01X1355978Y1333944D01*
G01X1355978Y888401D01*
G01X855183Y888401D01*
G01X845381Y886451D01*
G01X837071Y880899D01*
G01X831518Y872589D01*
G01X829569Y862787D01*
G01X829569Y829427D01*
G01X829850Y825641D01*
G01X829850Y789598D01*
G01X824510Y801464D01*
G01X816038Y811340D01*
G01X805122Y818423D01*
G01X792651Y822136D01*
G01X779639Y822178D01*
G01X767144Y818545D01*
G01X756183Y811532D01*
G01X747647Y801711D01*
G01X742231Y789879D01*
G01X740376Y777000D01*
G01X742231Y764120D01*
G01X747647Y752289D01*
G01X756183Y742467D01*
G01X767144Y735454D01*
G01X779639Y731821D01*
G01X792651Y731863D01*
G01X805122Y735576D01*
G01X816038Y742659D01*
G01X824510Y752535D01*
G01X829850Y764402D01*
G01X829850Y529092D01*
G01X829320Y523907D01*
G01X829320Y503316D01*
G01X823607Y514831D01*
G01X814909Y524296D01*
G01X803916Y530959D01*
G01X791501Y534291D01*
G01X778649Y534028D01*
G01X766380Y530190D01*
G01X755669Y523083D01*
G01X747366Y513269D01*
G01X742130Y501530D01*
G01X740376Y488795D01*
G01X742244Y476077D01*
G01X747585Y464385D01*
G01X755976Y454646D01*
G01X766750Y447635D01*
G01X779053Y443908D01*
G01X791906Y443760D01*
G01X804291Y447203D01*
G01X815224Y453964D01*
G01X823837Y463507D01*
G01X829446Y475073D01*
G01X831931Y466349D01*
G01X837301Y459038D01*
G01X845628Y453448D01*
G01X855464Y451484D01*
G01X901754Y451484D01*
G01X906880Y452002D01*
G01X2362621Y452002D01*
G01X2372423Y453952D01*
G01X2380733Y459505D01*
G01X2386285Y467814D01*
G01X2388235Y477617D01*
G01X2388235Y523907D01*
G01X2386285Y533709D01*
G01X2380733Y542019D01*
G01X2372423Y547571D01*
G01X2362621Y549521D01*
G01X927368Y549521D01*
G01X927368Y803813D01*
G01X1427682Y803813D01*
G01X1435474Y805027D01*
G01X1442528Y808554D01*
G01X1448174Y814059D01*
G01X1451878Y821021D01*
G01X1451878Y768970D01*
G01X957166Y768970D01*
G01X947364Y767020D01*
G01X939055Y761467D01*
G01X933502Y753157D01*
G01X931552Y743355D01*
G01X931552Y718839D01*
G01X930849Y712878D01*
G01X930849Y578545D01*
G01X932799Y568743D01*
G01X938351Y560433D01*
G01X946661Y554881D01*
G01X956463Y552931D01*
G01X1011309Y552931D01*
G01X1019510Y554279D01*
G01X1026848Y558183D01*
G01X1032549Y564230D01*
G01X1038256Y557136D01*
G01X1046083Y552486D01*
G01X1055043Y550868D01*
G01X1104935Y550868D01*
G01X1114737Y552818D01*
G01X1123046Y558370D01*
G01X1128599Y566680D01*
G01X1130549Y576482D01*
G01X1130549Y632245D01*
G01X1472190Y632245D01*
G01X1477492Y631691D01*
G01X1552561Y631691D01*
G01X1552561Y622538D01*
G01X1552541Y621172D01*
G01X1552561Y619806D01*
G01X1552561Y581982D01*
G01X1554511Y572180D01*
G01X1560063Y563870D01*
G01X1568373Y558318D01*
G01X1578175Y556368D01*
G01X1628067Y556368D01*
G01X1637869Y558318D01*
G01X1646179Y563870D01*
G01X1651731Y572180D01*
G01X1653681Y581982D01*
G01X1653681Y599148D01*
G01X1659790Y589532D01*
G01X1668090Y581729D01*
G01X1678066Y576226D01*
G01X1689093Y573366D01*
G01X1700485Y573327D01*
G01X1711532Y576111D01*
G01X1721545Y581546D01*
G01X1729899Y589291D01*
G01X1736074Y598865D01*
G01X1739684Y609671D01*
G01X1740504Y621033D01*
G01X1738484Y632245D01*
G01X1742340Y632245D01*
G01X1742340Y581294D01*
G01X1744290Y571492D01*
G01X1749842Y563182D01*
G01X1758152Y557630D01*
G01X1767954Y555680D01*
G01X1817846Y555680D01*
G01X1826622Y557230D01*
G01X1834335Y561693D01*
G01X1840053Y568529D01*
G01X1843082Y576910D01*
G01X1855571Y573528D01*
G01X1868507Y573787D01*
G01X1880850Y577668D01*
G01X1891607Y584858D01*
G01X1899914Y594779D01*
G01X1905101Y606632D01*
G01X1906752Y619465D01*
G01X1904734Y632245D01*
G01X1918889Y632245D01*
G01X1918889Y595670D01*
G01X1920839Y585868D01*
G01X1926392Y577558D01*
G01X1934702Y572006D01*
G01X1944504Y570056D01*
G01X2038469Y570056D01*
G01X2048271Y572006D01*
G01X2056581Y577558D01*
G01X2062133Y585868D01*
G01X2064083Y595670D01*
G01X2064083Y632245D01*
G01X2539404Y632245D01*
G01X2539404Y154193D01*
G01X1855120Y154193D01*
G01X1855120Y322972D01*
G01X1860158Y322972D01*
G01X1862006Y310118D01*
G01X1867401Y298306D01*
G01X1875905Y288492D01*
G01X1886829Y281471D01*
G01X1899289Y277812D01*
G01X1912275Y277812D01*
G01X1924735Y281471D01*
G01X1935660Y288492D01*
G01X1944164Y298306D01*
G01X1949558Y310118D01*
G01X1951406Y322972D01*
G01X1949558Y335826D01*
G01X1944164Y347638D01*
G01X1935660Y357452D01*
G01X1924735Y364473D01*
G01X1912275Y368132D01*
G01X1899289Y368132D01*
G01X1886829Y364473D01*
G01X1875905Y357452D01*
G01X1867401Y347638D01*
G01X1862006Y335826D01*
G01X1860158Y322972D01*
G01X1860158Y322972D01*
G01X1855120Y322972D01*
G01X1855120Y333374D01*
G01X1853170Y343176D01*
G01X1847618Y351486D01*
G01X1839308Y357039D01*
G01X1829506Y358988D01*
G01X1778684Y358988D01*
G01X1768882Y357039D01*
G01X1760572Y351486D01*
G01X1755020Y343176D01*
G01X1753070Y333374D01*
G01X1753070Y130627D01*
G01X1752988Y128579D01*
G01X1752988Y29268D01*
G37*
G54D10*
G01X697154Y2059277D02*
G01X697154Y1585172D01*
G01X625601Y1585172D01*
G01X625601Y2059277D01*
G01X697154Y2059277D01*
G01X1661333Y1585399D02*
G01X626046Y1585399D01*
G01X626046Y1643435D01*
G01X1661333Y1643435D01*
G01X1661333Y1585399D01*
G01X967326Y733195D02*
G01X2088702Y733195D01*
G03X2121873Y733195I16586J42503D01*
G01X2605892Y733195D01*
G01X2605892Y668019D01*
G01X967326Y668019D01*
G01X967326Y733195D01*
G01X1551435Y1887463D02*
G01X1551435Y667465D01*
G01X1487652Y667465D01*
G01X1487652Y1887463D01*
G01X1551435Y1887463D01*
G01X355252Y2021516D02*
G01X688797Y2021516D01*
G01X688797Y1992068D01*
G01X355252Y1992068D01*
G01X355252Y2021516D01*
G01X1001149Y702718D02*
G01X1001149Y588705D01*
G01X966623Y588705D01*
G01X966623Y702718D01*
G01X1001149Y702718D01*
G01X1094775Y700656D02*
G01X1094775Y586642D01*
G01X1065203Y586642D01*
G01X1065203Y700656D01*
G01X1094775Y700656D01*
G01X1617907Y676021D02*
G01X1617907Y592142D01*
G01X1588335Y592142D01*
G01X1588335Y676021D01*
G01X1617907Y676021D01*
G01X1807686Y669554D02*
G01X1807686Y591454D01*
G01X1778114Y591454D01*
G01X1778114Y669554D01*
G01X1807686Y669554D01*
G01X2575178Y162325D02*
G01X2575178Y702468D01*
G01X2605575Y702468D01*
G01X2605575Y162325D01*
G01X2575178Y162325D01*
G01X2926729Y2890023D02*
G01X2926729Y3659325D01*
G01X2990511Y3659325D01*
G01X2990511Y2890023D01*
G01X2926729Y2890023D01*
G01X2989952Y3589323D02*
G01X985145Y3589323D01*
G01X985145Y3658678D01*
G01X2989952Y3658678D01*
G01X2989952Y3589323D01*
G01X2446075Y2472889D02*
G03X2382292Y2444410I-19923J-41044D01*
G01X2382292Y2898819D01*
G01X2446075Y2898819D01*
G01X2446075Y2472889D01*
G01X2382292Y1823856D02*
G01X2382292Y2419280D01*
G03X2446075Y2390801I43860J12565D01*
G01X2446075Y1823856D01*
G01X2382292Y1823856D01*
G01X2991049Y2886865D02*
G01X2381418Y2886865D01*
G01X2381418Y2915818D01*
G01X2991049Y2915818D01*
G01X2991049Y2886865D01*
G01X1499359Y1885649D02*
G01X2447595Y1885649D01*
G01X2447595Y1821866D01*
G01X1499359Y1821866D01*
G01X1499359Y1885649D01*
G01X2762460Y2645591D02*
G01X2762460Y1545822D01*
G03X2746990Y1511582I30154J-34239D01*
G03X2762460Y1477343I45624J0D01*
G01X2762460Y67150D01*
G01X2704628Y67150D01*
G01X2704628Y2645591D01*
G01X2762460Y2645591D01*
G01X1819346Y323214D02*
G01X1819346Y40101D01*
G01X1788844Y40101D01*
G01X1788844Y323214D01*
G01X1819346Y323214D01*
G01X2762435Y39428D02*
G01X1788762Y39428D01*
G01X1788762Y118419D01*
G01X2762435Y118419D01*
G01X2762435Y39428D01*
G01X290364Y2235054D02*
G01X290364Y1187646D01*
G01X261129Y1187646D01*
G01X261129Y2235054D01*
G01X290364Y2235054D01*
G01X908350Y2472178D02*
G01X1163625Y2472178D01*
G01X1163625Y2436331D01*
G01X908350Y2436331D01*
G01X908350Y2472178D01*
G01X294367Y1187865D02*
G01X294367Y1249050D01*
G01X506991Y1249050D01*
G01X506991Y1187865D01*
G01X294367Y1187865D01*
G01X506461Y978998D02*
G01X443382Y978998D01*
G01X443382Y1196171D01*
G01X506461Y1196171D01*
G01X506461Y978998D01*
G01X951909Y1011183D02*
G01X951909Y981998D01*
G01X506655Y981998D01*
G01X506655Y1011183D01*
G01X951909Y1011183D01*
G01X958021Y934777D02*
G01X958021Y1143162D01*
G01X1038868Y1143162D01*
G01X1038868Y934777D01*
G01X958021Y934777D01*
G01X2838238Y1511582D02*
G03X2824076Y1544623I-45624J0D01*
G01X2824076Y2741640D01*
G01X2877777Y2741640D01*
G01X2877777Y987241D01*
G01X2824076Y987241D01*
G01X2824076Y1478542D01*
G03X2838238Y1511582I-31462J33041D01*
G01X3567615Y987281D02*
G01X2865916Y987281D01*
G01X2865916Y1023129D01*
G01X3567615Y1023129D01*
G01X3567615Y987281D01*
G01X2649950Y2728687D02*
G01X2649950Y2331234D01*
G01X2618217Y2331234D01*
G01X2618217Y2728687D01*
G01X2649950Y2728687D01*
G01X2618474Y2741647D02*
G01X2863471Y2741647D01*
G01X2863471Y2709914D01*
G01X2618474Y2709914D01*
G01X2618474Y2741647D01*
G01X2986585Y1636466D02*
G01X2986585Y1062210D01*
G01X2950542Y1062210D01*
G01X2950542Y1636466D01*
G01X2986585Y1636466D01*
G01X1418371Y1472409D02*
G01X688225Y1472409D01*
G01X688225Y1493677D01*
G01X1418371Y1493677D01*
G01X1418371Y1472409D01*
G01X1417723Y1493142D02*
G01X1417723Y851134D01*
G01X1391752Y851134D01*
G01X1391752Y1493142D01*
G01X1417723Y1493142D01*
G01X865343Y852627D02*
G01X1417522Y852627D01*
G01X1417522Y839587D01*
G01X865343Y839587D01*
G01X865343Y852627D01*
G01X865624Y487258D02*
G01X865624Y827586D01*
G01X891594Y827586D01*
G01X891594Y487258D01*
G01X865624Y487258D01*
G01X2352461Y487777D02*
G01X865094Y487777D01*
G01X865094Y513747D01*
G01X2352461Y513747D01*
G01X2352461Y487777D01*
G01X2028309Y605830D02*
G01X1954664Y605830D01*
G01X1954664Y656290D01*
G01X2028309Y656290D01*
G01X2028309Y605830D01*
G01X1572351Y3506462D02*
G01X1572351Y3634118D01*
G01X1602078Y3634118D01*
G01X1602078Y3506462D01*
G01X1572351Y3506462D01*
G01X295777Y2236096D02*
G01X941087Y2236096D01*
G01X941087Y2200248D01*
G01X295777Y2200248D01*
G01X295777Y2236096D01*
G01X904851Y2200173D02*
G01X904851Y2470825D01*
G01X940699Y2470825D01*
G01X940699Y2200173D01*
G01X904851Y2200173D01*
G01X1127779Y2363725D02*
G01X1127779Y2456045D01*
G01X1163626Y2456045D01*
G01X1163626Y2363725D01*
G01X1127779Y2363725D01*
G01X1309903Y2364557D02*
G01X1147444Y2364557D01*
G01X1147444Y2400405D01*
G01X1309903Y2400405D01*
G01X1309903Y2364557D01*
G01X1320757Y2365317D02*
G01X1320757Y2471743D01*
G01X1356605Y2471743D01*
G01X1356605Y2365317D01*
G01X1320757Y2365317D01*
G01X1320366Y2472110D02*
G01X1503934Y2472110D01*
G01X1503934Y2436263D01*
G01X1320366Y2436263D01*
G01X1320366Y2472110D01*
G01X1752988Y29268D02*
G03X1753250Y25614I25614J0D01*
G01X376999Y25614D01*
G02X27614Y374999I1J349386D01*
G01X27614Y3424993D01*
G02X376999Y3774378I349386J-1D01*
G01X3426994Y3774378D01*
G02X3776378Y3424993I-2J-349386D01*
G01X3776378Y374999D01*
G02X3426994Y25614I-349386J1D01*
G01X2797947Y25614D01*
G03X2798209Y29268I-25352J3654D01*
G01X2798209Y55861D01*
G01X2798234Y56990D01*
G01X2798234Y128826D01*
G03X2839283Y207680I11567J44090D01*
G03X2798234Y217005I-29492J-34811D01*
G01X2798234Y956829D01*
G03X2813916Y951467I15682J20253D01*
G01X2887937Y951467D01*
G01X2889370Y951507D01*
G01X3577775Y951507D01*
G03X3603389Y977121I0J25614D01*
G01X3603389Y1033289D01*
G03X3577775Y1058903I-25614J0D01*
G01X3022359Y1058903D01*
G01X3022359Y1646626D01*
G03X3017048Y1662242I-25614J0D01*
G03X3046118Y1666440I8361J44851D01*
G01X3046118Y1295140D01*
G03X3056532Y1284726I10414J0D01*
G01X3470034Y1284726D01*
G03X3480448Y1295140I0J10414D01*
G01X3480448Y1646484D01*
G03X3486398Y1669011I-39675J22528D01*
G03X3480448Y1691539I-45624J0D01*
G01X3480448Y1707687D01*
G03X3470034Y1718101I-10414J0D01*
G01X3069686Y1718101D01*
G03X2995321Y1741390I-44276J-11008D01*
G03X2937836Y1739007I-27273J-36640D01*
G01X2936411Y1737688D01*
G01X2935489Y1736830D01*
G01X2913551Y1736830D01*
G01X2913551Y1961667D01*
G03X2977916Y1961137I32449J32073D01*
G03X2978754Y2025499I-31917J32602D01*
G03X2971482Y2089355I-35816J28263D01*
G03X2972620Y2178376I-9433J44638D01*
G03X2933505Y2098401I-10572J-44382D01*
G03X2913551Y2088662I9433J-44638D01*
G01X2913551Y2751800D01*
G03X2887937Y2777414I-25614J0D01*
G01X2874212Y2777414D01*
G01X2873631Y2777421D01*
G01X2608314Y2777421D01*
G03X2582700Y2751807I0J-25614D01*
G01X2582700Y2742468D01*
G03X2582443Y2738847I25357J-3621D01*
G01X2582443Y2321074D01*
G03X2608057Y2295460I25614J0D01*
G01X2660110Y2295460D01*
G03X2668854Y2296999I0J25614D01*
G01X2668854Y2152466D01*
G03X2585375Y2126999I-37855J-25467D01*
G03X2668854Y2101532I45624J0D01*
G01X2668854Y1952678D01*
G03X2589806Y1921624I-33424J-31054D01*
G03X2668854Y1890569I45624J0D01*
G01X2668854Y1766210D01*
G03X2617101Y1750154I-15000J-43088D01*
G03X2617191Y1695968I36754J-27032D01*
G01X2136940Y1695968D01*
G03X2126526Y1685554I0J-10414D01*
G01X2126526Y1444316D01*
G03X2136940Y1433902I10414J0D01*
G01X2668854Y1433902D01*
G01X2668854Y1400292D01*
G03X2620383Y1380309I-10003J-44514D01*
G03X2548768Y1396625I-41821J-18236D01*
G03X2473091Y1372825I-31075J-33405D01*
G03X2405040Y1318181I-25687J-37706D01*
G03X2492006Y1325514I42364J16937D01*
G03X2547487Y1328668I25687J37706D01*
G03X2617030Y1337542I31075J33405D01*
G03X2668854Y1311264I41821J18236D01*
G01X2668854Y154193D01*
G01X2641350Y154193D01*
G01X2641350Y653845D01*
G03X2641666Y657859I-25298J4014D01*
G01X2641666Y743355D01*
G03X2616052Y768970I-25614J0D01*
G01X2150413Y768970D01*
G03X2105287Y821322I-45125J6728D01*
G03X2060162Y768970I0J-45624D01*
G01X1587209Y768970D01*
G01X1587209Y832039D01*
G03X1595755Y827576I8546J5951D01*
G01X1906731Y827576D01*
G03X1917145Y837990I0J10414D01*
G01X1917145Y983509D01*
G03X1906731Y993923I-10414J0D01*
G01X1595755Y993923D01*
G03X1587209Y989460I0J-10414D01*
G01X1587209Y1549625D01*
G01X1671493Y1549625D01*
G03X1697108Y1575239I0J25614D01*
G01X1697108Y1653595D01*
G03X1671493Y1679209I-25614J0D01*
G01X1663836Y1679209D01*
G03X1644521Y1733808I-42895J15541D01*
G03X1587209Y1725471I-23580J-39058D01*
G01X1587209Y1786092D01*
G01X2457755Y1786092D01*
G03X2483369Y1811706I0J25614D01*
G01X2483369Y1895809D01*
G03X2481849Y1904503I-25614J0D01*
G01X2481849Y2445210D01*
G03X2560165Y2477035I32692J31824D01*
G03X2481849Y2508859I-45624J0D01*
G01X2481849Y2536849D01*
G03X2547995Y2577597I20522J40748D01*
G03X2481849Y2618345I-45624J0D01*
G01X2481849Y2851091D01*
G01X3001209Y2851091D01*
G03X3021441Y2860998I0J25614D01*
G03X3074488Y2841084I53047J60701D01*
G01X3164488Y2841084D01*
G03X3164488Y3002313I0J80614D01*
G01X3074488Y3002313D01*
G03X3026286Y2986314I0J-80614D01*
G01X3026286Y3669485D01*
G03X3000671Y3695099I-25614J0D01*
G01X2916569Y3695099D01*
G03X2910847Y3694452I0J-25614D01*
G01X974985Y3694452D01*
G03X949370Y3668838I0J-25614D01*
G01X949370Y3579163D01*
G03X974985Y3553548I25614J0D01*
G01X1536577Y3553548D01*
G01X1536577Y3496302D01*
G03X1562191Y3470688I25614J0D01*
G01X1612238Y3470688D01*
G03X1637852Y3496302I0J25614D01*
G01X1637852Y3553548D01*
G01X2222316Y3553548D01*
G03X2263619Y3488544I41303J-19380D01*
G03X2304923Y3553548I0J45624D01*
G01X2405300Y3553548D01*
G03X2394490Y3480236I20931J-40539D01*
G03X2467419Y3493386I31741J32773D01*
G03X2533306Y3499293I30137J34254D01*
G03X2595665Y3483677I39045J23602D01*
G03X2642097Y3483562I23314J39217D01*
G03X2700614Y3494111I23118J39333D01*
G03X2699008Y3553548I-35398J28784D01*
G01X2890955Y3553548D01*
G01X2890955Y2951592D01*
G01X2371258Y2951592D01*
G03X2345644Y2925978I0J-25614D01*
G01X2345644Y2876705D01*
G03X2346518Y2870070I25614J0D01*
G01X2346518Y2577060D01*
G03X2289238Y2532950I-11656J-44110D01*
G03X2346518Y2488840I45624J0D01*
G01X2346518Y2482002D01*
G03X2345575Y2474298I31022J-7704D01*
G01X2345575Y2364976D01*
G03X2346518Y2357272I31964J0D01*
G01X2346518Y1921423D01*
G01X1571062Y1921423D01*
G03X1561595Y1923237I-9468J-23800D01*
G01X1477492Y1923237D01*
G03X1451878Y1897623I0J-25614D01*
G01X1451878Y1679209D01*
G01X1208280Y1679209D01*
G03X1184891Y1734375I-43374J14151D01*
G03X1184579Y1813181I-23154J39312D01*
G03X1116115Y1774153I-22842J-39494D01*
G03X1032438Y1739835I-39540J-22762D01*
G03X1122196Y1750925I44136J11556D01*
G03X1141753Y1732672I39540J22762D01*
G03X1121533Y1679209I23154J-39312D01*
G01X732928Y1679209D01*
G01X732928Y2069437D01*
G03X707314Y2095051I-25614J0D01*
G01X615441Y2095051D01*
G03X589827Y2069437I0J-25614D01*
G01X589827Y2057290D01*
G01X345092Y2057290D01*
G03X326139Y2048906I0J-25614D01*
G01X326139Y2164474D01*
G01X892734Y2164474D01*
G01X894691Y2164399D01*
G01X950859Y2164399D01*
G03X955914Y2164903I0J25614D01*
G03X976861Y2190088I-4668J25185D01*
G01X976861Y2246256D01*
G03X976473Y2250695I-25614J0D01*
G01X976473Y2400557D01*
G01X1092005Y2400557D01*
G01X1092005Y2353565D01*
G03X1117619Y2327951I25614J0D01*
G01X1173786Y2327951D01*
G03X1180262Y2328783I0J25614D01*
G01X1320063Y2328783D01*
G03X1326255Y2329543I0J25614D01*
G01X1366765Y2329543D01*
G03X1392379Y2355157I0J25614D01*
G01X1392379Y2400489D01*
G01X1514094Y2400489D01*
G03X1539708Y2426103I0J25614D01*
G01X1539708Y2482270D01*
G03X1514094Y2507884I-25614J0D01*
G01X1310206Y2507884D01*
G03X1284592Y2482270I0J-25614D01*
G01X1284592Y2436179D01*
G01X1199400Y2436179D01*
G01X1199400Y2466205D01*
G01X1199399Y2466506D01*
G01X1199399Y2482338D01*
G03X1173785Y2507953I-25614J0D01*
G01X898190Y2507953D01*
G03X887228Y2505488I0J-25614D01*
G03X869077Y2480985I7464J-24503D01*
G01X869077Y2271870D01*
G01X420744Y2271870D01*
G03X398603Y2357386I-22141J39892D01*
G03X376463Y2271870I0J-45624D01*
G01X285617Y2271870D01*
G03X278387Y2270828I0J-25614D01*
G01X250969Y2270828D01*
G03X225355Y2245214I0J-25614D01*
G01X225355Y1177486D01*
G03X250969Y1151872I25614J0D01*
G01X300524Y1151872D01*
G03X303870Y1152091I0J25614D01*
G01X407608Y1152091D01*
G01X407608Y968838D01*
G03X433222Y943223I25614J0D01*
G01X516621Y943223D01*
G03X528650Y946224I0J25614D01*
G01X922246Y946224D01*
G01X922246Y924617D01*
G03X947860Y899003I25614J0D01*
G01X982546Y899003D01*
G03X998994Y899003I8224J44877D01*
G01X1049028Y899003D01*
G03X1074642Y924617I0J25614D01*
G01X1074642Y1153322D01*
G03X1049028Y1178936I-25614J0D01*
G01X947860Y1178936D01*
G03X922246Y1153322I0J-25614D01*
G01X922246Y1128149D01*
G03X922246Y1120134I31712J-4008D01*
G01X922246Y1046957D01*
G01X542235Y1046957D01*
G01X542235Y1172524D01*
G03X542765Y1177705I-25085J5182D01*
G01X542765Y1259210D01*
G03X517151Y1284824I-25614J0D01*
G01X326139Y1284824D01*
G01X326139Y1964679D01*
G03X345092Y1956294I18953J17230D01*
G01X589827Y1956294D01*
G01X589827Y1575012D01*
G03X615441Y1549398I25614J0D01*
G01X707314Y1549398D01*
G03X710716Y1549625I0J25614D01*
G01X1106275Y1549625D01*
G03X1106265Y1529452I44490J-10108D01*
G01X678065Y1529452D01*
G03X652451Y1503837I0J-25614D01*
G01X652451Y1462249D01*
G03X678065Y1436635I25614J0D01*
G01X1179859Y1436635D01*
G03X1214536Y1361362I34677J-29649D01*
G03X1249213Y1436635I0J45624D01*
G01X1355978Y1436635D01*
G01X1355978Y1390055D01*
G03X1274376Y1362000I-35979J-28055D01*
G03X1355978Y1333944I45624J0D01*
G01X1355978Y888401D01*
G01X855183Y888401D01*
G03X829569Y862787I0J-25614D01*
G01X829569Y829427D01*
G03X829850Y825641I25614J0D01*
G01X829850Y789598D01*
G03X740376Y777000I-43850J-12598D01*
G03X829850Y764402I45624J0D01*
G01X829850Y529092D01*
G03X829320Y523907I25084J-5185D01*
G01X829320Y503316D01*
G03X740376Y488795I-43320J-14316D01*
G03X829446Y475073I45624J205D01*
G03X837301Y459038I25488J2544D01*
G03X855464Y451484I18163J18060D01*
G01X901754Y451484D01*
G03X906880Y452002I0J25614D01*
G01X2362621Y452002D01*
G03X2388235Y477617I0J25614D01*
G01X2388235Y523907D01*
G03X2362621Y549521I-25614J0D01*
G01X927368Y549521D01*
G01X927368Y803813D01*
G01X1427682Y803813D01*
G03X1451878Y821021I0J25614D01*
G01X1451878Y768970D01*
G01X957166Y768970D01*
G03X931552Y743355I0J-25614D01*
G01X931552Y718839D01*
G03X930849Y712878I24911J-5960D01*
G01X930849Y578545D01*
G03X956463Y552931I25614J0D01*
G01X1011309Y552931D01*
G03X1032549Y564230I0J25614D01*
G03X1055043Y550868I22494J12252D01*
G01X1104935Y550868D01*
G03X1130549Y576482I0J25614D01*
G01X1130549Y632245D01*
G01X1472190Y632245D01*
G03X1477492Y631691I5302J25059D01*
G01X1552561Y631691D01*
G01X1552561Y622538D01*
G01X1552541Y621172D01*
G01X1552561Y619806D01*
G01X1552561Y581982D01*
G03X1578175Y556368I25614J0D01*
G01X1628067Y556368D01*
G03X1653681Y581982I0J25614D01*
G01X1653681Y599148D01*
G03X1711532Y576111I41264J19465D01*
G03X1738484Y632245I-16588J42502D01*
G01X1742340Y632245D01*
G01X1742340Y581294D01*
G03X1767954Y555680I25614J0D01*
G01X1817846Y555680D01*
G03X1843082Y576910I0J25614D01*
G03X1891607Y584858I18050J41902D01*
G03X1904734Y632245I-30475J33954D01*
G01X1918889Y632245D01*
G01X1918889Y595670D01*
G03X1944504Y570056I25614J0D01*
G01X2038469Y570056D01*
G03X2064083Y595670I0J25614D01*
G01X2064083Y632245D01*
G01X2539404Y632245D01*
G01X2539404Y154193D01*
G01X1855120Y154193D01*
G01X1855120Y333374D01*
G03X1829506Y358988I-25614J0D01*
G01X1778684Y358988D01*
G03X1753070Y333374I0J-25614D01*
G01X1753070Y130627D01*
G01X1752988Y128579D01*
G01X1752988Y29268D01*
G01X111661Y610485D02*
G03X139975Y691346I-661J45619D01*
G03X109329Y771352I-29985J34387D01*
G03X81015Y690491I661J-45619D01*
G03X111661Y610485I29985J-34387D01*
G01X76386Y3425000D02*
G03X677614Y3425000I300614J0D01*
G03X76386Y3425000I-300614J0D01*
G01X76386Y375000D02*
G03X677614Y375000I300614J0D01*
G03X76386Y375000I-300614J0D01*
G01X94140Y1343011D02*
G03X215370Y1343011I60615J0D01*
G03X94140Y1343011I-60615J0D01*
G01X94140Y1513013D02*
G03X215370Y1513013I60615J0D01*
G03X94140Y1513013I-60615J0D01*
G01X404305Y2936916D02*
G03X495553Y2936916I45624J0D01*
G03X404305Y2936916I-45624J0D01*
G01X482466Y1384052D02*
G03X573714Y1384052I45624J0D01*
G03X482466Y1384052I-45624J0D01*
G01X485209Y1851050D02*
G03X576458Y1851050I45624J0D01*
G03X485209Y1851050I-45624J0D01*
G01X595465Y2755564D02*
G03X686713Y2755564I45624J0D01*
G03X595465Y2755564I-45624J0D01*
G01X656376Y1341260D02*
G03X747624Y1341260I45624J0D01*
G03X656376Y1341260I-45624J0D01*
G01X657709Y3670404D02*
G03X748957Y3670404I45624J0D01*
G03X657709Y3670404I-45624J0D01*
G01X686376Y2656872D02*
G03X777624Y2656872I45624J0D01*
G03X686376Y2656872I-45624J0D01*
G01X1447456Y2511218D02*
G03X1484324Y2529966I0J45624D01*
G01X1555260Y2529966D01*
G03X1565674Y2540380I0J10414D01*
G01X1565674Y3199820D01*
G03X1615706Y3275582I21211J40394D01*
G03X1551606Y3211284I-28821J-35368D01*
G01X852860Y3211284D01*
G03X842446Y3200870I0J-10414D01*
G01X842446Y2540380D01*
G03X852860Y2529966I10414J0D01*
G01X1410588Y2529966D01*
G03X1447456Y2511218I36868J26876D01*
G01X985522Y1907836D02*
G03X1076770Y1907836I45624J0D01*
G03X985522Y1907836I-45624J0D01*
G01X1015115Y1990175D02*
G03X1092090Y2029766I31885J32633D01*
G03X1129884Y2107639I5909J45240D01*
G03X1052909Y2068048I-31885J-32633D01*
G03X1015115Y1990175I-5909J-45240D01*
G01X1016126Y2193391D02*
G03X1107374Y2193391I45624J0D01*
G03X1016126Y2193391I-45624J0D01*
G01X1037375Y201000D02*
G03X1128624Y201000I45624J0D01*
G03X1037375Y201000I-45624J0D01*
G01X1067375Y3413999D02*
G03X1158624Y3413999I45624J0D01*
G03X1067375Y3413999I-45624J0D01*
G01X1136376Y255000D02*
G03X1227624Y255000I45624J0D01*
G03X1136376Y255000I-45624J0D01*
G01X1153988Y1021502D02*
G03X1245236Y1021502I45624J0D01*
G03X1153988Y1021502I-45624J0D01*
G01X1161706Y3469687D02*
G03X1252954Y3469687I45624J0D01*
G03X1161706Y3469687I-45624J0D01*
G01X1448375Y1972962D02*
G03X1539624Y1972962I45624J0D01*
G03X1448375Y1972962I-45624J0D01*
G01X1577197Y2597620D02*
G03X1659837Y2616403I37572J25883D01*
G03X1706834Y2686926I9425J44640D01*
G03X1624194Y2668143I-37572J-25883D01*
G03X1577197Y2597620I-9425J-44640D01*
G01X1674180Y1508645D02*
G03X1765429Y1508645I45624J0D01*
G03X1674180Y1508645I-45624J0D01*
G01X1706112Y3458176D02*
G03X1797360Y3458176I45624J0D01*
G03X1706112Y3458176I-45624J0D01*
G01X1844528Y3419262D02*
G03X1935776Y3419262I45624J0D01*
G03X1844528Y3419262I-45624J0D01*
G01X1847155Y2076808D02*
G03X1934772Y2053702I45179J-6356D01*
G03X2015282Y2028942I45412J4390D01*
G03X2101091Y2045244I40440J21123D01*
G03X2020624Y2079215I-45369J4821D01*
G03X1937746Y2074842I-40440J-21123D01*
G03X1847155Y2076808I-45412J-4390D01*
G01X1860158Y322972D02*
G03X1951406Y322972I45624J0D01*
G03X1860158Y322972I-45624J0D01*
G01X1876122Y2193719D02*
G03X1955020Y2216873I33879J30558D01*
G03X1986162Y2292972I-2736J45542D01*
G03X1907264Y2269818I-33879J-30558D01*
G03X1876122Y2193719I2736J-45542D01*
G01X2007984Y1196884D02*
G03X1928421Y1164715I-33972J-30455D01*
G03X1887783Y1089126I-6666J-45135D01*
G03X1967347Y1121294I33972J30455D01*
G03X2007984Y1196884I6666J45135D01*
G01X1979872Y1087872D02*
G03X2071120Y1087872I45624J0D01*
G03X1979872Y1087872I-45624J0D01*
G01X2014612Y2301018D02*
G03X2105860Y2301018I45624J0D01*
G03X2014612Y2301018I-45624J0D01*
G01X2015674Y372968D02*
G03X2106922Y372968I45624J0D01*
G03X2015674Y372968I-45624J0D01*
G01X2020119Y3489499D02*
G03X2111367Y3489499I45624J0D01*
G03X2020119Y3489499I-45624J0D01*
G01X2117583Y3206585D02*
G03X2208832Y3206585I45624J0D01*
G03X2117583Y3206585I-45624J0D01*
G01X2127664Y2687159D02*
G03X2218912Y2687159I45624J0D01*
G03X2127664Y2687159I-45624J0D01*
G01X3074488Y1976087D02*
G01X3164488Y1976087D01*
G03X3164488Y2137316I0J80614D01*
G01X3074488Y2137316D01*
G03X3074488Y1976087I0J-80614D01*
G01X3052103Y531162D02*
G03X3143352Y531162I45624J0D01*
G03X3052103Y531162I-45624J0D01*
G01X3055783Y3206689D02*
G03X3147031Y3206689I45624J0D01*
G03X3055783Y3206689I-45624J0D01*
G01X3110892Y2200212D02*
G03X3232123Y2200212I60615J0D01*
G03X3110892Y2200212I-60615J0D01*
G01X3110892Y2778214D02*
G03X3232123Y2778214I60615J0D01*
G03X3110892Y2778214I-60615J0D01*
G01X3126386Y3425000D02*
G03X3727614Y3425000I300614J0D01*
G03X3126386Y3425000I-300614J0D01*
G01X3126386Y375000D02*
G03X3727614Y375000I300614J0D01*
G03X3126386Y375000I-300614J0D01*
G01X3236375Y1176000D02*
G03X3327623Y1176000I45624J0D01*
G03X3236375Y1176000I-45624J0D01*
G01X3509503Y2836084D02*
G01X3569503Y2836084D01*
G03X3569503Y3007313I0J85614D01*
G01X3509503Y3007313D01*
G03X3509503Y2836084I0J-85614D01*
G01X3509503Y1971087D02*
G01X3569503Y1971087D01*
G03X3569503Y2142316I0J85614D01*
G01X3509503Y2142316D01*
G03X3509503Y1971087I0J-85614D01*
G01X3441337Y1219876D02*
G03X3532585Y1219876I45624J0D01*
G03X3441337Y1219876I-45624J0D01*
G01X3508194Y1834256D02*
G03X3599442Y1834256I45624J0D01*
G03X3508194Y1834256I-45624J0D01*
G04 Copper End*

G04 TearDrop Start*
G36*
G01X1001180Y1117792D02*
G01X994269Y1130492D01*
G01X996454Y1130712D01*
G01X998505Y1131335D01*
G01X1002224Y1133559D01*
G01X1005468Y1136702D01*
G01X1008275Y1140306D01*
G01X1015187Y1111098D01*
G01X1011353Y1113556D01*
G01X1008497Y1115700D01*
G01X1005485Y1117216D01*
G01X1001180Y1117792D01*
G37*
G36*
G01X2940858Y1698516D02*
G01X2940858Y1711216D01*
G01X2943137Y1711410D01*
G01X2945117Y1711959D01*
G01X2948475Y1713921D01*
G01X2954865Y1719873D01*
G01X2954865Y1689858D01*
G01X2948475Y1695810D01*
G01X2945117Y1697772D01*
G01X2943137Y1698321D01*
G01X2940858Y1698516D01*
G37*
G04 TearDrop End*

G04 Pad Start*
G54D11*
G01X377000Y3425000D03*
G01X3427000Y3425000D03*
G01X3427000Y375000D03*
G01X377000Y375000D03*
G54D12*
G01X3119488Y2056702D03*
G01X3119488Y2921699D03*
G54D13*
G01X3539503Y2056702D03*
G01X3539503Y2921699D03*
G04 Pad End*

G04 Via Start*
G54D14*
G01X2618979Y3522895D03*
G01X2665216Y3522895D03*
G01X2572351Y3522895D03*
G01X661052Y2000684D03*
G01X661052Y2045353D03*
G01X661052Y1956602D03*
G01X1586664Y1617102D03*
G01X1534354Y1617102D03*
G01X1638974Y1617102D03*
G01X2013428Y622938D03*
G01X1969150Y622546D03*
G01X982954Y612173D03*
G01X1080814Y611863D03*
G01X1598165Y621172D03*
G01X1794274Y621720D03*
G01X2590295Y177616D03*
G01X374546Y2006067D03*
G01X2959884Y2903282D03*
G01X1012828Y3620215D03*
G01X1586830Y3523795D03*
G01X2728340Y2629503D03*
G01X1806544Y308539D03*
G01X1806152Y259951D03*
G01X1614769Y2623503D03*
G01X1447456Y2556842D03*
G01X1144934Y2453928D03*
G01X276006Y1612444D03*
G01X471687Y1216633D03*
G01X462078Y990750D03*
G01X1024611Y1128749D03*
G01X1487031Y2455190D03*
G01X990770Y943880D03*
G01X3550935Y1007011D03*
G01X2633724Y2349227D03*
G01X2966906Y1622965D03*
G01X2969090Y1075657D03*
G01X1405201Y1474745D03*
G01X1905782Y322972D03*
G01X2339227Y500343D03*
G01X2653854Y1723122D03*
G01X3486961Y1219876D03*
G01X1694945Y618613D03*
G01X1861132Y618812D03*
G01X1921755Y1119581D03*
G01X1164906Y1693360D03*
G01X1214536Y1406986D03*
G01X703333Y3670404D03*
G01X1207330Y3469687D03*
G01X1751736Y3458176D03*
G01X1890152Y3419262D03*
G01X2065743Y3489499D03*
G01X2263619Y3534168D03*
G01X2426231Y3513009D03*
G01X2497557Y3527639D03*
G01X1669262Y2661043D03*
G01X1074530Y2586909D03*
G01X641089Y2755564D03*
G01X2025496Y1087872D03*
G01X3025410Y1707093D03*
G01X1974013Y1166429D03*
G01X2635430Y1921624D03*
G01X3101407Y3206689D03*
G01X2163208Y3206585D03*
G01X2962049Y2133993D03*
G01X3097728Y531162D03*
G01X1910001Y2224276D03*
G01X2514541Y2477035D03*
G01X1952284Y2262415D03*
G01X2502371Y2577597D03*
G01X398603Y2311761D03*
G01X2447404Y1335118D03*
G01X2517692Y1363220D03*
G01X2578562Y1362073D03*
G01X2658851Y1355778D03*
G01X2173288Y2687159D03*
G01X2334862Y2532950D03*
G01X2060236Y2301018D03*
G01X2630999Y2126999D03*
G01X1098000Y2075006D03*
G01X1047000Y2022809D03*
G01X786000Y777000D03*
G01X786000Y489000D03*
G01X1061750Y2193391D03*
G01X1143241Y2581290D03*
G01X1113000Y3413999D03*
G01X2105287Y775698D03*
G01X1389276Y2615516D03*
G01X1494000Y1972962D03*
G01X1199612Y1021502D03*
G01X1031146Y1907836D03*
G01X528090Y1384052D03*
G01X1620940Y1694750D03*
G01X449929Y2936916D03*
G01X1892334Y2070452D03*
G01X2061298Y372968D03*
G01X1719805Y1508645D03*
G01X732000Y2656872D03*
G01X2055722Y2050065D03*
G01X1083000Y201000D03*
G01X1980184Y2058092D03*
G01X1182000Y255000D03*
G01X109991Y725733D03*
G01X2945999Y1993739D03*
G01X111000Y656104D03*
G01X2942938Y2053762D03*
G01X1161000Y3164999D03*
G01X972000Y3107999D03*
G01X573000Y2450999D03*
G01X384000Y2078999D03*
G01X582747Y1313167D03*
G01X3316306Y795933D03*
G01X3377999Y1149000D03*
G01X1311000Y321000D03*
G01X2889067Y794748D03*
G01X2792614Y1511582D03*
G01X1035487Y1320558D03*
G01X741925Y1159116D03*
G01X1150447Y1970925D03*
G01X2426152Y2431845D03*
G01X3209999Y2669999D03*
G01X2940677Y365781D03*
G01X2809791Y172869D03*
G01X882049Y3480415D03*
G01X1253481Y2460463D03*
G01X561861Y1795293D03*
G01X70630Y1382021D03*
G01X3553818Y1834256D03*
G01X3428748Y1866990D03*
G01X700889Y1482485D03*
G01X702000Y1341260D03*
G01X3281999Y1176000D03*
G01X3440773Y1669011D03*
G01X880385Y842382D03*
G01X1586885Y3240214D03*
G01X568979Y1540578D03*
G01X994767Y2211040D03*
G01X667220Y606387D03*
G01X1515366Y3126466D03*
G01X1076575Y1751390D03*
G01X1161737Y1773687D03*
G01X1150766Y1539517D03*
G01X530834Y1851050D03*
G01X1320000Y1362000D03*
G01X2968100Y1704866D03*
G01X3154789Y891803D03*
G01X3212781Y891803D03*
G01X3270772Y891803D03*
G01X684700Y2534942D03*
G01X985439Y1966691D03*
G01X762449Y1258384D03*
G01X830945Y1382479D03*
G54D15*
G01X2120087Y2896413D03*
G01X2020087Y2896413D03*
G01X2020087Y2996413D03*
G01X2120087Y2996413D03*
G04 Via End*

G04 Track Start*
G54D17*
G01X929011Y2229641D02*
G01X929011Y2451812D01*
G01X929893Y2452694D01*
G01X2393996Y2402984D02*
G01X2391254Y2400241D01*
G01X2393996Y2463718D02*
G01X2393996Y2451790D01*
G01X2389311Y2447105D01*
G01X2389311Y2416585D01*
G01X2393996Y2411900D01*
G01X2393996Y2402984D01*
G01X2386552Y2514657D02*
G01X2386552Y2483310D01*
G01X2377540Y2474298D01*
G01X2377540Y2364976D01*
G01X2391645Y2350870D01*
G01X2634418Y2717793D02*
G01X2853062Y2717793D01*
G01X1530778Y1863042D02*
G01X2387501Y1863042D01*
G01X2407558Y1842985D01*
G01X970834Y691689D02*
G01X2582304Y691689D01*
G01X2588328Y697713D01*
G01X1522255Y1055506D02*
G01X1522255Y756633D01*
G01X1514320Y748699D01*
G01X1321244Y843915D02*
G01X1392656Y843915D01*
G01X1403235Y854494D01*
G01X1403235Y1055506D01*
G01X1413815Y1066085D01*
G01X953958Y1124142D02*
G01X1028015Y1124142D01*
G01X1028407Y1124534D01*
G01X501000Y996000D02*
G01X978000Y996000D01*
G01X984000Y990000D01*
G01X2968100Y1704866D02*
G01X2876884Y1704866D01*
G01X2874027Y1707723D01*
G04 Track End*

M02*

