G04 Layer: BottomLayer*
G04 EasyEDA Pro v2.2.43.4, 2025-10-30 23:12:03*
G04 Gerber Generator version 0.3*
G04 Scale: 100 percent, Rotated: No, Reflected: No*
G04 Dimensions in millimeters*
G04 Leading zeros omitted, absolute positions, 4 integers and 5 decimals*
G04 Generated by one-click*
%FSLAX45Y45*%
%MOMM*%
%AMRoundRect*1,1,$1,$2,$3*1,1,$1,$4,$5*1,1,$1,0-$2,0-$3*1,1,$1,0-$4,0-$5*20,1,$1,$2,$3,$4,$5,0*20,1,$1,$4,$5,0-$2,0-$3,0*20,1,$1,0-$2,0-$3,0-$4,0-$5,0*20,1,$1,0-$4,0-$5,$2,$3,0*4,1,4,$2,$3,$4,$5,0-$2,0-$3,0-$4,0-$5,$2,$3,0*%
%ADD10C,0.2032*%
%ADD11C,5.5*%
%ADD12RoundRect,0.635X-0.3175X0.3175X0.3175X0.3175*%
%ADD13R,1.41X1.35001*%
%ADD14R,2.49999X3.0099*%
%ADD15R,2.424X3.62001*%
%ADD16R,0.7X1.25001*%
%ADD17O,1.8X0.6*%
%ADD18R,2.2953X2.28999*%
%ADD19R,2.28999X2.28999*%
%ADD20O,0.343X1.73149*%
%ADD21R,6.70001X2.89999*%
%ADD22O,2.0X1.1*%
%ADD23O,1.8X1.2*%
%ADD24R,1.5X1.3589*%
%ADD25R,0.5X1.7*%
%ADD26R,1.2X2.49999*%
%ADD27R,2.49999X1.2*%
%ADD28R,1.7X0.5*%
%ADD29R,1.9X2.4*%
%ADD30R,2.0X2.0*%
%ADD31O,2.25001X0.63*%
%ADD32R,0.79009X0.54*%
%ADD33R,0.54X0.79009*%
%ADD34R,0.56566X0.54*%
%ADD35R,0.54X0.56566*%
%ADD36C,0.4002*%
%ADD37C,0.6096*%
%ADD38C,0.127*%
%ADD39C,0.54*%
%ADD40C,0.3*%
G75*


G04 Copper Start*
G36*
G01X2679339Y3535839D02*
G01X2679339Y2713159D01*
G01X2558659Y2713159D01*
G01X2558659Y3535839D01*
G01X2679339Y3535839D01*
G37*
G36*
G01X2676537Y2727053D02*
G01X2676537Y2609373D01*
G01X2642858Y2609373D01*
G01X2642858Y2727053D01*
G01X2676537Y2727053D01*
G37*
G36*
G01X2593839Y2644839D02*
G01X2593839Y2512159D01*
G01X2557159Y2512159D01*
G01X2557159Y2644839D01*
G01X2593839Y2644839D01*
G37*
G36*
G01X2323339Y2901967D02*
G01X2553084Y2901967D01*
G01X2553084Y2862801D01*
G01X2323339Y2862801D01*
G01X2323339Y2901967D01*
G37*
G36*
G01X1774660Y3162864D02*
G01X1774660Y3298764D01*
G01X1810691Y3298764D01*
G01X1810691Y3162864D01*
G01X1774660Y3162864D01*
G37*
G36*
G01X1775108Y3276276D02*
G01X1683877Y3276276D01*
G01X1683877Y3309368D01*
G01X1775108Y3309368D01*
G01X1775108Y3276276D01*
G37*
G36*
G01X854449Y3310170D02*
G01X854449Y3211284D01*
G01X852860Y3211284D01*
G01X847653Y3209889D01*
G01X843841Y3206077D01*
G01X842446Y3200870D01*
G01X842446Y2540380D01*
G01X843841Y2535173D01*
G01X847653Y2531361D01*
G01X852860Y2529966D01*
G01X854449Y2529966D01*
G01X854449Y2362078D01*
G01X780936Y2362078D01*
G01X780936Y3310170D01*
G01X854449Y3310170D01*
G37*
G36*
G01X625096Y1886501D02*
G01X625096Y2129571D01*
G01X696846Y2129571D01*
G01X696846Y1886501D01*
G01X625096Y1886501D01*
G37*
G36*
G01X1603566Y3276041D02*
G01X780677Y3276041D01*
G01X780677Y3309783D01*
G01X1603566Y3309783D01*
G01X1603566Y3276041D01*
G37*
G36*
G01X1732398Y1585917D02*
G01X1456495Y1585917D01*
G01X1456495Y1643365D01*
G01X1732398Y1643365D01*
G01X1732398Y1585917D01*
G37*
G36*
G01X1095188Y632199D02*
G01X1095188Y515159D01*
G01X1065616Y515159D01*
G01X1065616Y632199D01*
G01X1095188Y632199D01*
G37*
G36*
G01X1808511Y626209D02*
G01X1808511Y541918D01*
G01X1778940Y541918D01*
G01X1778940Y626209D01*
G01X1808511Y626209D01*
G37*
G36*
G01X2644018Y2645313D02*
G01X2761698Y2645313D01*
G01X2761698Y2611633D01*
G01X2644018Y2611633D01*
G01X2644018Y2645313D01*
G37*
G36*
G01X1028528Y1837914D02*
G01X1028528Y1423984D01*
G01X1013828Y1423984D01*
G01X1013828Y1837914D01*
G01X1028528Y1837914D01*
G37*
G36*
G01X1014224Y1845608D02*
G01X3388444Y1845608D01*
G01X3394611Y1836721D01*
G01X3402697Y1829535D01*
G01X3412247Y1824454D01*
G01X1014224Y1824454D01*
G01X1014224Y1845608D01*
G37*
G36*
G01X3445248Y1824454D02*
G01X3454798Y1829535D01*
G01X3462884Y1836721D01*
G01X3469051Y1845608D01*
G01X3567115Y1845608D01*
G01X3567115Y1824454D01*
G01X3445248Y1824454D01*
G37*
G36*
G01X3534168Y990996D02*
G01X3534168Y1845915D01*
G01X3566816Y1845915D01*
G01X3566816Y990996D01*
G01X3534168Y990996D01*
G37*
G36*
G01X2841549Y3428074D02*
G01X2557846Y3428074D01*
G01X2557846Y3534457D01*
G01X2841549Y3534457D01*
G01X2841549Y3428074D01*
G37*
G36*
G01X2841935Y3504463D02*
G01X2735445Y3504463D01*
G01X2735445Y3653477D01*
G01X2841935Y3653477D01*
G01X2841935Y3504463D01*
G37*
G36*
G01X1130356Y3763786D02*
G01X1115900Y3761935D01*
G01X1102376Y3756500D01*
G01X1090659Y3747832D01*
G01X1081505Y3736492D01*
G01X1075503Y3723210D01*
G01X1073043Y3708845D01*
G01X929813Y3708845D01*
G01X929813Y3774378D01*
G01X1395027Y3774378D01*
G01X1395027Y3708845D01*
G01X1251169Y3708845D01*
G01X1248708Y3723210D01*
G01X1242707Y3736492D01*
G01X1233552Y3747832D01*
G01X1221835Y3756500D01*
G01X1208312Y3761935D01*
G01X1193856Y3763786D01*
G01X1130356Y3763786D01*
G37*
G36*
G01X1603780Y3303059D02*
G01X1603780Y3204209D01*
G01X1570039Y3204209D01*
G01X1570039Y3303059D01*
G01X1603780Y3303059D01*
G37*
G36*
G01X27614Y2629675D02*
G01X27614Y2879260D01*
G01X32191Y2878848D01*
G01X282191Y2878848D01*
G01X291993Y2880798D01*
G01X300303Y2886350D01*
G01X305855Y2894660D01*
G01X307805Y2904462D01*
G01X307805Y3024462D01*
G01X305855Y3034264D01*
G01X300303Y3042574D01*
G01X291993Y3048126D01*
G01X282191Y3050076D01*
G01X32191Y3050076D01*
G01X27614Y3049664D01*
G01X27614Y3424993D01*
G01X27614Y3425000D01*
G01X76386Y3425000D01*
G01X76386Y3425000D01*
G01X78276Y3391342D01*
G01X83923Y3358107D01*
G01X93255Y3325713D01*
G01X106156Y3294568D01*
G01X122463Y3265064D01*
G01X141970Y3237570D01*
G01X164434Y3212434D01*
G01X189570Y3189970D01*
G01X217064Y3170463D01*
G01X246568Y3154156D01*
G01X277713Y3141255D01*
G01X310107Y3131923D01*
G01X343342Y3126276D01*
G01X377000Y3124386D01*
G01X410658Y3126276D01*
G01X443893Y3131923D01*
G01X476287Y3141255D01*
G01X507432Y3154156D01*
G01X536936Y3170463D01*
G01X564430Y3189970D01*
G01X589566Y3212434D01*
G01X612030Y3237570D01*
G01X631537Y3265064D01*
G01X647844Y3294568D01*
G01X660745Y3325713D01*
G01X670077Y3358107D01*
G01X675724Y3391342D01*
G01X677614Y3425000D01*
G01X675724Y3458658D01*
G01X670077Y3491893D01*
G01X660745Y3524287D01*
G01X647844Y3555432D01*
G01X631537Y3584936D01*
G01X612030Y3612430D01*
G01X589566Y3637566D01*
G01X564430Y3660030D01*
G01X551154Y3669449D01*
G01X657719Y3669449D01*
G01X660008Y3656103D01*
G01X666114Y3644016D01*
G01X675499Y3634254D01*
G01X687336Y3627676D01*
G01X700582Y3624863D01*
G01X714070Y3626062D01*
G01X720081Y3612801D01*
G01X729237Y3601480D01*
G01X740947Y3592829D01*
G01X754459Y3587405D01*
G01X768901Y3585558D01*
G01X832401Y3585558D01*
G01X847248Y3587512D01*
G01X861083Y3593243D01*
G01X872963Y3602359D01*
G01X882079Y3614240D01*
G01X887810Y3628075D01*
G01X889765Y3642922D01*
G01X889765Y3706422D01*
G01X887810Y3721269D01*
G01X882079Y3735104D01*
G01X872963Y3746984D01*
G01X861083Y3756101D01*
G01X847248Y3761831D01*
G01X832401Y3763786D01*
G01X768901Y3763786D01*
G01X755470Y3762192D01*
G01X742786Y3757497D01*
G01X731554Y3749963D01*
G01X722398Y3740009D01*
G01X715827Y3728188D01*
G01X712206Y3715157D01*
G01X698679Y3715790D01*
G01X685562Y3712425D01*
G01X674011Y3705358D01*
G01X665043Y3695212D01*
G01X659448Y3682880D01*
G01X657719Y3669449D01*
G01X657719Y3669449D01*
G01X551154Y3669449D01*
G01X536936Y3679537D01*
G01X507432Y3695844D01*
G01X476287Y3708745D01*
G01X443893Y3718077D01*
G01X410658Y3723724D01*
G01X377000Y3725614D01*
G01X343342Y3723724D01*
G01X310107Y3718077D01*
G01X277713Y3708745D01*
G01X246568Y3695844D01*
G01X217064Y3679537D01*
G01X189570Y3660030D01*
G01X164434Y3637566D01*
G01X141970Y3612430D01*
G01X122463Y3584936D01*
G01X106156Y3555432D01*
G01X93255Y3524287D01*
G01X83923Y3491893D01*
G01X78276Y3458658D01*
G01X76386Y3425000D01*
G01X27614Y3425000D01*
G01X29528Y3461514D01*
G01X35249Y3497634D01*
G01X44715Y3532959D01*
G01X57820Y3567101D01*
G01X74423Y3599685D01*
G01X94341Y3630356D01*
G01X117356Y3658777D01*
G01X143215Y3684637D01*
G01X171636Y3707651D01*
G01X202307Y3727569D01*
G01X234892Y3744172D01*
G01X269034Y3757278D01*
G01X304358Y3766743D01*
G01X340479Y3772464D01*
G01X376999Y3774378D01*
G01X894039Y3774378D01*
G01X894039Y3720580D01*
G01X892264Y3706422D01*
G01X892264Y3642922D01*
G01X894219Y3628075D01*
G01X899949Y3614240D01*
G01X909066Y3602359D01*
G01X920946Y3593243D01*
G01X934781Y3587512D01*
G01X949628Y3585558D01*
G01X983156Y3585558D01*
G01X993678Y3578804D01*
G01X1005639Y3575161D01*
G01X1018140Y3574901D01*
G01X1030241Y3578045D01*
G01X1041035Y3584356D01*
G01X1049711Y3593360D01*
G01X1055616Y3604380D01*
G01X1063711Y3615866D01*
G01X1068771Y3628976D01*
G01X1070492Y3642922D01*
G01X1070492Y3673071D01*
G01X1072992Y3673071D01*
G01X1072992Y3642922D01*
G01X1074946Y3628075D01*
G01X1080677Y3614240D01*
G01X1089793Y3602359D01*
G01X1101674Y3593243D01*
G01X1115509Y3587512D01*
G01X1130356Y3585558D01*
G01X1175366Y3585558D01*
G01X1175366Y3502298D01*
G01X1174508Y3501376D01*
G01X1173189Y3499951D01*
G01X1166696Y3490372D01*
G01X1162818Y3479468D01*
G01X1161805Y3467940D01*
G01X1163722Y3456528D01*
G01X1168446Y3445963D01*
G01X1145611Y3445963D01*
G01X1144689Y3446822D01*
G01X1143264Y3448140D01*
G01X1132357Y3455279D01*
G01X1119877Y3459047D01*
G01X1106841Y3459135D01*
G01X1094312Y3455538D01*
G01X1083308Y3448548D01*
G01X1074728Y3438734D01*
G01X1069268Y3426897D01*
G01X1067375Y3413999D01*
G01X1069268Y3401101D01*
G01X1074728Y3389264D01*
G01X1083308Y3379450D01*
G01X1094312Y3372460D01*
G01X1106841Y3368863D01*
G01X1119877Y3368951D01*
G01X1132357Y3372719D01*
G01X1143264Y3379858D01*
G01X1144689Y3381176D01*
G01X1145611Y3382035D01*
G01X1863657Y3382035D01*
G01X1864295Y3381642D01*
G01X1865848Y3380714D01*
G01X1867863Y3379510D01*
G01X1868197Y3379311D01*
G01X1872055Y3377426D01*
G01X1880910Y3374607D01*
G01X1890152Y3373638D01*
G01X1903049Y3375531D01*
G01X1914887Y3380990D01*
G01X1924701Y3389571D01*
G01X1931691Y3400574D01*
G01X1935288Y3413104D01*
G01X1935199Y3426140D01*
G01X1931432Y3438619D01*
G01X1924293Y3449527D01*
G01X1922974Y3450952D01*
G01X1922116Y3451874D01*
G01X1922116Y3585808D01*
G01X1935876Y3588834D01*
G01X1948484Y3595124D01*
G01X1959178Y3604297D01*
G01X1967314Y3615800D01*
G01X1972400Y3628939D01*
G01X1974131Y3642922D01*
G01X1974131Y3706422D01*
G01X1976630Y3706422D01*
G01X1976630Y3642922D01*
G01X1978576Y3628110D01*
G01X1984280Y3614302D01*
G01X1993356Y3602436D01*
G01X2005188Y3593315D01*
G01X2018974Y3587559D01*
G01X2033779Y3585558D01*
G01X2033779Y3522110D01*
G01X2033779Y3522110D01*
G01X2032920Y3521188D01*
G01X2031601Y3519763D01*
G01X2024462Y3508856D01*
G01X2020695Y3496376D01*
G01X2020606Y3483340D01*
G01X2024204Y3470811D01*
G01X2031194Y3459807D01*
G01X2041007Y3451227D01*
G01X2052845Y3445768D01*
G01X2065743Y3443875D01*
G01X2078640Y3445768D01*
G01X2090478Y3451227D01*
G01X2100292Y3459807D01*
G01X2107282Y3470811D01*
G01X2110879Y3483340D01*
G01X2110790Y3496376D01*
G01X2107023Y3508856D01*
G01X2099884Y3519763D01*
G01X2098565Y3521188D01*
G01X2097707Y3522110D01*
G01X2097707Y3585558D01*
G01X2112512Y3587558D01*
G01X2126299Y3593314D01*
G01X2138132Y3602434D01*
G01X2147209Y3614301D01*
G01X2152913Y3628109D01*
G01X2154859Y3642922D01*
G01X2154859Y3706422D01*
G01X2157358Y3706422D01*
G01X2157358Y3642922D01*
G01X2159313Y3628075D01*
G01X2165043Y3614240D01*
G01X2174159Y3602359D01*
G01X2186040Y3593243D01*
G01X2199875Y3587512D01*
G01X2214722Y3585558D01*
G01X2231655Y3585558D01*
G01X2231655Y3566779D01*
G01X2230797Y3565858D01*
G01X2230797Y3565858D01*
G01X2229478Y3564432D01*
G01X2222339Y3553525D01*
G01X2218572Y3541045D01*
G01X2218483Y3528010D01*
G01X2222080Y3515480D01*
G01X2229070Y3504477D01*
G01X2238884Y3495896D01*
G01X2250722Y3490437D01*
G01X2263619Y3488544D01*
G01X2276517Y3490437D01*
G01X2288355Y3495896D01*
G01X2298168Y3504477D01*
G01X2305158Y3515480D01*
G01X2308756Y3528010D01*
G01X2308667Y3541045D01*
G01X2304900Y3553525D01*
G01X2297761Y3564432D01*
G01X2296442Y3565858D01*
G01X2295583Y3566779D01*
G01X2295583Y3588248D01*
G01X2308700Y3594324D01*
G01X2319881Y3603486D01*
G01X2328417Y3615152D01*
G01X2333765Y3628582D01*
G01X2335586Y3642922D01*
G01X2335586Y3706422D01*
G01X2333631Y3721269D01*
G01X2327901Y3735104D01*
G01X2318785Y3746984D01*
G01X2306904Y3756101D01*
G01X2293069Y3761831D01*
G01X2278222Y3763786D01*
G01X2214722Y3763786D01*
G01X2199875Y3761831D01*
G01X2186040Y3756101D01*
G01X2174159Y3746984D01*
G01X2165043Y3735104D01*
G01X2159313Y3721269D01*
G01X2157358Y3706422D01*
G01X2154859Y3706422D01*
G01X2152904Y3721269D01*
G01X2147173Y3735104D01*
G01X2138057Y3746984D01*
G01X2126176Y3756101D01*
G01X2112341Y3761831D01*
G01X2097494Y3763786D01*
G01X2033994Y3763786D01*
G01X2019147Y3761831D01*
G01X2005312Y3756101D01*
G01X1993432Y3746984D01*
G01X1984316Y3735104D01*
G01X1978585Y3721269D01*
G01X1976630Y3706422D01*
G01X1974131Y3706422D01*
G01X1972176Y3721269D01*
G01X1966445Y3735104D01*
G01X1957329Y3746984D01*
G01X1945449Y3756101D01*
G01X1931613Y3761831D01*
G01X1916767Y3763786D01*
G01X1853267Y3763786D01*
G01X1838420Y3761831D01*
G01X1824584Y3756101D01*
G01X1812704Y3746984D01*
G01X1803588Y3735104D01*
G01X1797857Y3721269D01*
G01X1795902Y3706422D01*
G01X1795902Y3642922D01*
G01X1797857Y3628075D01*
G01X1803588Y3614240D01*
G01X1812704Y3602359D01*
G01X1824584Y3593243D01*
G01X1838420Y3587512D01*
G01X1853267Y3585558D01*
G01X1858188Y3585558D01*
G01X1858188Y3451874D01*
G01X1857329Y3450952D01*
G01X1856010Y3449527D01*
G01X1853171Y3445963D01*
G01X1795665Y3445963D01*
G01X1797360Y3458176D01*
G01X1795467Y3471074D01*
G01X1790008Y3482912D01*
G01X1781427Y3492725D01*
G01X1770424Y3499716D01*
G01X1757894Y3503313D01*
G01X1744859Y3503224D01*
G01X1732379Y3499457D01*
G01X1721472Y3492318D01*
G01X1720046Y3490999D01*
G01X1719125Y3490141D01*
G01X1715521Y3490141D01*
G01X1715521Y3585558D01*
G01X1736039Y3585558D01*
G01X1750886Y3587512D01*
G01X1764721Y3593243D01*
G01X1776602Y3602359D01*
G01X1785718Y3614240D01*
G01X1791448Y3628075D01*
G01X1793403Y3642922D01*
G01X1793403Y3706422D01*
G01X1791448Y3721269D01*
G01X1785718Y3735104D01*
G01X1776602Y3746984D01*
G01X1764721Y3756101D01*
G01X1750886Y3761831D01*
G01X1736039Y3763786D01*
G01X1672539Y3763786D01*
G01X1657692Y3761831D01*
G01X1643857Y3756101D01*
G01X1631976Y3746984D01*
G01X1622860Y3735104D01*
G01X1617129Y3721269D01*
G01X1615175Y3706422D01*
G01X1615175Y3642922D01*
G01X1616811Y3629320D01*
G01X1621626Y3616493D01*
G01X1629344Y3605174D01*
G01X1639527Y3596009D01*
G01X1651593Y3589519D01*
G01X1651593Y3469809D01*
G01X1652682Y3461536D01*
G01X1655875Y3453827D01*
G01X1660955Y3447207D01*
G01X1662199Y3445963D01*
G01X1246215Y3445963D01*
G01X1250939Y3456528D01*
G01X1252855Y3467940D01*
G01X1251843Y3479468D01*
G01X1247965Y3490372D01*
G01X1241472Y3499951D01*
G01X1240153Y3501376D01*
G01X1239294Y3502298D01*
G01X1239294Y3523795D01*
G01X1541206Y3523795D01*
G01X1543054Y3510941D01*
G01X1548449Y3499128D01*
G01X1556953Y3489314D01*
G01X1567877Y3482293D01*
G01X1580337Y3478635D01*
G01X1593323Y3478635D01*
G01X1605783Y3482293D01*
G01X1616707Y3489314D01*
G01X1625211Y3499128D01*
G01X1630606Y3510941D01*
G01X1632454Y3523795D01*
G01X1630606Y3536648D01*
G01X1625211Y3548461D01*
G01X1616707Y3558275D01*
G01X1605783Y3565296D01*
G01X1593323Y3568954D01*
G01X1580337Y3568954D01*
G01X1567877Y3565296D01*
G01X1556953Y3558275D01*
G01X1548449Y3548461D01*
G01X1543054Y3536648D01*
G01X1541206Y3523795D01*
G01X1541206Y3523795D01*
G01X1239294Y3523795D01*
G01X1239294Y3605335D01*
G01X1240887Y3610079D01*
G01X1246548Y3620245D01*
G01X1250040Y3631345D01*
G01X1251220Y3642922D01*
G01X1251220Y3673071D01*
G01X1253720Y3673071D01*
G01X1253720Y3642922D01*
G01X1255674Y3628075D01*
G01X1261405Y3614240D01*
G01X1270521Y3602359D01*
G01X1282402Y3593243D01*
G01X1296237Y3587512D01*
G01X1311084Y3585558D01*
G01X1374584Y3585558D01*
G01X1389431Y3587512D01*
G01X1403266Y3593243D01*
G01X1415146Y3602359D01*
G01X1424263Y3614240D01*
G01X1429993Y3628075D01*
G01X1431948Y3642922D01*
G01X1431948Y3706422D01*
G01X1430801Y3717834D01*
G01X1430801Y3774378D01*
G01X3426994Y3774378D01*
G01X3463515Y3772464D01*
G01X3499635Y3766743D01*
G01X3534960Y3757278D01*
G01X3569101Y3744172D01*
G01X3601686Y3727569D01*
G01X3632357Y3707651D01*
G01X3660778Y3684636D01*
G01X3686637Y3658777D01*
G01X3709652Y3630356D01*
G01X3729569Y3599685D01*
G01X3746172Y3567100D01*
G01X3759278Y3532959D01*
G01X3768743Y3497634D01*
G01X3774464Y3461514D01*
G01X3776378Y3424993D01*
G01X3776378Y374999D01*
G01X3774464Y338479D01*
G01X3768743Y302358D01*
G01X3759278Y267034D01*
G01X3746172Y232892D01*
G01X3729569Y200307D01*
G01X3709652Y169637D01*
G01X3686637Y141216D01*
G01X3660778Y115356D01*
G01X3632357Y92342D01*
G01X3601686Y72424D01*
G01X3569101Y55821D01*
G01X3534960Y42715D01*
G01X3499635Y33249D01*
G01X3463515Y27528D01*
G01X3426994Y25614D01*
G01X2088860Y25614D01*
G01X2088860Y68914D01*
G01X2095196Y64552D01*
G01X2102390Y61828D01*
G01X2110026Y60903D01*
G01X2618726Y60903D01*
G01X2626998Y61992D01*
G01X2634707Y65185D01*
G01X2641327Y70265D01*
G01X2654258Y83195D01*
G01X2659338Y89815D01*
G01X2662531Y97524D01*
G01X2663620Y105797D01*
G01X2663620Y210796D01*
G01X2666581Y217366D01*
G01X2667595Y224501D01*
G01X2667595Y281067D01*
G01X2666352Y288949D01*
G01X2662744Y296065D01*
G01X2666352Y303182D01*
G01X2667595Y311064D01*
G01X2667595Y367630D01*
G01X2665645Y377432D01*
G01X2660093Y385742D01*
G01X2651783Y391294D01*
G01X2641981Y393244D01*
G01X2587981Y393244D01*
G01X2578178Y391294D01*
G01X2569869Y385742D01*
G01X2564316Y377432D01*
G01X2562366Y367630D01*
G01X2562366Y358986D01*
G01X2561642Y358284D01*
G01X2556184Y352826D01*
G01X2556184Y467377D01*
G01X2554235Y477179D01*
G01X2548682Y485488D01*
G01X2540372Y491041D01*
G01X2530570Y492991D01*
G01X2384255Y492991D01*
G01X2384740Y503522D01*
G01X2382795Y513884D01*
G01X2378524Y523523D01*
G01X2372154Y531924D01*
G01X2372709Y532738D01*
G01X2373470Y533923D01*
G01X2373895Y534627D01*
G01X2379545Y546210D01*
G01X2381487Y558951D01*
G01X2381487Y697800D01*
G01X2380486Y706999D01*
G01X2426990Y706999D01*
G01X2425981Y697800D01*
G01X2425981Y558951D01*
G01X2427945Y546139D01*
G01X2433657Y534505D01*
G01X2442592Y525116D01*
G01X2453930Y518835D01*
G01X2466629Y516239D01*
G01X2479522Y517567D01*
G01X2491425Y522696D01*
G01X2501244Y531156D01*
G01X2507260Y525374D01*
G01X2507745Y524962D01*
G01X2510585Y522864D01*
G01X2512747Y521486D01*
G01X2516801Y519386D01*
G01X2520499Y517872D01*
G01X2521232Y517564D01*
G01X2581396Y457398D01*
G01X2588016Y452318D01*
G01X2595725Y449125D01*
G01X2603998Y448036D01*
G01X2840290Y448036D01*
G01X2840290Y414436D01*
G01X2832918Y410891D01*
G01X2827040Y405202D01*
G01X2823255Y397951D01*
G01X2821948Y389876D01*
G01X2821948Y383539D01*
G01X2797386Y383539D01*
G01X2797386Y389876D01*
G01X2795436Y399678D01*
G01X2789884Y407988D01*
G01X2781574Y413540D01*
G01X2771772Y415490D01*
G01X2717772Y415490D01*
G01X2707969Y413540D01*
G01X2699660Y407988D01*
G01X2694107Y399678D01*
G01X2692157Y389876D01*
G01X2692157Y310867D01*
G01X2694107Y301064D01*
G01X2699660Y292755D01*
G01X2707969Y287202D01*
G01X2717772Y285252D01*
G01X2771772Y285252D01*
G01X2777827Y285978D01*
G01X2777827Y205480D01*
G01X2776969Y204559D01*
G01X2775650Y203133D01*
G01X2768511Y192226D01*
G01X2764744Y179746D01*
G01X2764655Y166711D01*
G01X2768252Y154181D01*
G01X2775242Y143178D01*
G01X2785056Y134597D01*
G01X2796893Y129138D01*
G01X2809791Y127245D01*
G01X2822689Y129138D01*
G01X2834527Y134597D01*
G01X2844340Y143178D01*
G01X2851330Y154181D01*
G01X2854927Y166711D01*
G01X2854839Y179746D01*
G01X2851072Y192226D01*
G01X2843933Y203133D01*
G01X2842614Y204559D01*
G01X2841755Y205480D01*
G01X2841755Y285919D01*
G01X2847563Y285252D01*
G01X2901563Y285252D01*
G01X2906511Y285735D01*
G01X2906511Y263398D01*
G01X2907600Y255125D01*
G01X2910793Y247416D01*
G01X2915872Y240796D01*
G01X2924885Y231784D01*
G01X2931503Y226705D01*
G01X2939210Y223512D01*
G01X2947480Y222421D01*
G01X2951824Y222421D01*
G01X2954330Y213275D01*
G01X2959993Y205668D01*
G01X2968034Y200642D01*
G01X2977353Y198887D01*
G01X3031354Y198887D01*
G01X3040668Y200640D01*
G01X3048707Y205661D01*
G01X3054370Y213261D01*
G01X3056882Y222400D01*
G01X3059609Y222399D01*
G01X3067884Y223487D01*
G01X3075596Y226681D01*
G01X3082217Y231761D01*
G01X3093385Y242929D01*
G01X3098464Y249549D01*
G01X3101657Y257258D01*
G01X3102746Y265531D01*
G01X3102746Y375000D01*
G01X3126386Y375000D01*
G01X3128276Y341342D01*
G01X3133923Y308107D01*
G01X3143255Y275713D01*
G01X3156156Y244568D01*
G01X3172463Y215064D01*
G01X3191970Y187570D01*
G01X3214434Y162434D01*
G01X3239570Y139970D01*
G01X3267064Y120463D01*
G01X3296568Y104156D01*
G01X3327713Y91255D01*
G01X3360107Y81923D01*
G01X3393342Y76276D01*
G01X3427000Y74386D01*
G01X3460658Y76276D01*
G01X3493893Y81923D01*
G01X3526287Y91255D01*
G01X3557432Y104156D01*
G01X3586936Y120463D01*
G01X3614430Y139970D01*
G01X3639566Y162434D01*
G01X3662030Y187570D01*
G01X3681537Y215064D01*
G01X3697844Y244568D01*
G01X3710745Y275713D01*
G01X3720077Y308107D01*
G01X3725724Y341342D01*
G01X3727614Y375000D01*
G01X3725724Y408658D01*
G01X3720077Y441893D01*
G01X3710745Y474287D01*
G01X3697844Y505432D01*
G01X3681537Y534936D01*
G01X3662030Y562430D01*
G01X3639566Y587566D01*
G01X3614430Y610030D01*
G01X3586936Y629537D01*
G01X3557432Y645844D01*
G01X3526287Y658745D01*
G01X3493893Y668077D01*
G01X3460658Y673724D01*
G01X3427000Y675614D01*
G01X3393342Y673724D01*
G01X3360107Y668077D01*
G01X3327713Y658745D01*
G01X3296568Y645844D01*
G01X3267064Y629537D01*
G01X3239570Y610030D01*
G01X3214434Y587566D01*
G01X3191970Y562430D01*
G01X3172463Y534936D01*
G01X3156156Y505432D01*
G01X3143255Y474287D01*
G01X3133923Y441893D01*
G01X3128276Y408658D01*
G01X3126386Y375000D01*
G01X3126386Y375000D01*
G01X3102746Y375000D01*
G01X3102746Y480648D01*
G01X3102333Y485771D01*
G01X3114441Y488740D01*
G01X3125294Y494872D01*
G01X3134086Y503710D01*
G01X3140162Y514595D01*
G01X3143069Y526718D01*
G01X3142590Y539175D01*
G01X3138762Y551039D01*
G01X3131869Y561426D01*
G01X3131217Y562146D01*
G01X3130550Y562851D01*
G01X3129692Y563773D01*
G01X3129692Y660648D01*
G01X3148657Y679613D01*
G01X3615464Y679613D01*
G01X3623737Y680702D01*
G01X3631446Y683896D01*
G01X3638066Y688975D01*
G01X3662770Y713679D01*
G01X3667850Y720299D01*
G01X3671043Y728008D01*
G01X3672132Y736281D01*
G01X3672132Y1948410D01*
G01X3671043Y1956683D01*
G01X3667850Y1964392D01*
G01X3662770Y1971012D01*
G01X3638525Y1995257D01*
G01X3633229Y1999529D01*
G01X3643716Y2014016D01*
G01X3650965Y2030365D01*
G01X3654659Y2047864D01*
G01X3654637Y2065748D01*
G01X3650900Y2083238D01*
G01X3643612Y2099569D01*
G01X3633089Y2114030D01*
G01X3619791Y2125989D01*
G01X3604299Y2134925D01*
G01X3587289Y2140448D01*
G01X3569503Y2142316D01*
G01X3509503Y2142316D01*
G01X3492305Y2140570D01*
G01X3475808Y2135406D01*
G01X3460685Y2127034D01*
G01X3447552Y2115794D01*
G01X3436945Y2102145D01*
G01X3429295Y2086644D01*
G01X3424916Y2069922D01*
G01X3423984Y2052661D01*
G01X3426539Y2035565D01*
G01X3432476Y2019330D01*
G01X3441553Y2004619D01*
G01X3226019Y2004619D01*
G01X3235397Y2018353D01*
G01X3241757Y2033718D01*
G01X3244828Y2050062D01*
G01X3244481Y2066688D01*
G01X3240730Y2082889D01*
G01X3233734Y2097976D01*
G01X3223792Y2111306D01*
G01X3211326Y2122313D01*
G01X3196866Y2130527D01*
G01X3181029Y2135600D01*
G01X3164488Y2137316D01*
G01X3074488Y2137316D01*
G01X3059323Y2135876D01*
G01X3044700Y2131610D01*
G01X3031140Y2124669D01*
G01X3019128Y2115301D01*
G01X3015939Y2123570D01*
G01X3010601Y2130645D01*
G01X3007710Y2133536D01*
G01X3007666Y2134791D01*
G01X3007587Y2136796D01*
G01X3004921Y2149556D01*
G01X2998758Y2161043D01*
G01X2989599Y2170319D01*
G01X2978192Y2176628D01*
G01X2965467Y2179457D01*
G01X2952462Y2178573D01*
G01X2940236Y2174049D01*
G01X2929788Y2166254D01*
G01X2922140Y2156075D01*
G01X2917602Y2144180D01*
G01X2916525Y2131494D01*
G01X2918994Y2119004D01*
G01X2924816Y2107682D01*
G01X2933539Y2098408D01*
G01X2922106Y2094353D01*
G01X2912147Y2087429D01*
G01X2904363Y2078125D01*
G01X2899307Y2067099D01*
G01X2897334Y2055131D01*
G01X2898586Y2043065D01*
G01X2902972Y2031756D01*
G01X2910184Y2022002D01*
G01X2904242Y2012121D01*
G01X2900967Y2001067D01*
G01X2900568Y1989544D01*
G01X2903071Y1978289D01*
G01X2908315Y1968021D01*
G01X2915965Y1959395D01*
G01X2925533Y1952963D01*
G01X2936409Y1949134D01*
G01X2947897Y1948155D01*
G01X2959264Y1950086D01*
G01X2969783Y1954805D01*
G01X2978784Y1962010D01*
G01X2990741Y1950053D01*
G01X2997361Y1944973D01*
G01X3005070Y1941780D01*
G01X3013343Y1940691D01*
G01X3602683Y1940691D01*
G01X3608204Y1935170D01*
G01X3608204Y749521D01*
G01X3602224Y743542D01*
G01X3135417Y743542D01*
G01X3127144Y742452D01*
G01X3119435Y739259D01*
G01X3112815Y734179D01*
G01X3075126Y696490D01*
G01X3070046Y689870D01*
G01X3066853Y682161D01*
G01X3065763Y673888D01*
G01X3065763Y563773D01*
G01X3064905Y562851D01*
G01X3063586Y561426D01*
G01X3056789Y551265D01*
G01X3052904Y539673D01*
G01X3043712Y541642D01*
G01X3034344Y540850D01*
G01X3025611Y537368D01*
G01X3018270Y531496D01*
G01X3012954Y523742D01*
G01X3003454Y533242D01*
G01X2996834Y538321D01*
G01X2989125Y541515D01*
G01X2980852Y542604D01*
G01X2963252Y542604D01*
G01X2965680Y550618D01*
G01X2966500Y558951D01*
G01X2966500Y697800D01*
G01X2964535Y710611D01*
G01X2958823Y722246D01*
G01X2949888Y731635D01*
G01X2938550Y737916D01*
G01X2925852Y740512D01*
G01X2912959Y739184D01*
G01X2901056Y734055D01*
G01X2891236Y725595D01*
G01X2882012Y733676D01*
G01X2870873Y738806D01*
G01X2858737Y740564D01*
G01X2846600Y738806D01*
G01X2835462Y733676D01*
G01X2826237Y725595D01*
G01X2817013Y733676D01*
G01X2805875Y738806D01*
G01X2793738Y740564D01*
G01X2781602Y738806D01*
G01X2770463Y733676D01*
G01X2761239Y725595D01*
G01X2752014Y733676D01*
G01X2740876Y738806D01*
G01X2728740Y740564D01*
G01X2716603Y738806D01*
G01X2705465Y733676D01*
G01X2696240Y725595D01*
G01X2686421Y734055D01*
G01X2674517Y739184D01*
G01X2661624Y740512D01*
G01X2648926Y737916D01*
G01X2637588Y731635D01*
G01X2628653Y722246D01*
G01X2622941Y710611D01*
G01X2620977Y697800D01*
G01X2620977Y558951D01*
G01X2622528Y547538D01*
G01X2627068Y536953D01*
G01X2628319Y534764D01*
G01X2630793Y530890D01*
G01X2630914Y530667D01*
G01X2630914Y520631D01*
G01X2632112Y511964D01*
G01X2617239Y511964D01*
G01X2576507Y552697D01*
G01X2576463Y553448D01*
G01X2576508Y558951D01*
G01X2576508Y697800D01*
G01X2574561Y710558D01*
G01X2568896Y722154D01*
G01X2560029Y731532D01*
G01X2548769Y737838D01*
G01X2536140Y740497D01*
G01X2523293Y739267D01*
G01X2511397Y734261D01*
G01X2501537Y725934D01*
G01X2500885Y726924D01*
G01X2500561Y727507D01*
G01X2497653Y738074D01*
G01X2491347Y747037D01*
G01X2476818Y761566D01*
G01X2470198Y766645D01*
G01X2462489Y769838D01*
G01X2454216Y770928D01*
G01X2150661Y770928D01*
G01X2150090Y784318D01*
G01X2145651Y796965D01*
G01X2137730Y807777D01*
G01X2127008Y815820D01*
G01X2114412Y820400D01*
G01X2101029Y821123D01*
G01X2088013Y817925D01*
G01X2076487Y811083D01*
G01X2067448Y801187D01*
G01X2061674Y789092D01*
G01X2059663Y775840D01*
G01X2061591Y762577D01*
G01X2067289Y750445D01*
G01X2076267Y740493D01*
G01X2063654Y737819D01*
G01X2052412Y731508D01*
G01X2043561Y722133D01*
G01X2037907Y710546D01*
G01X2035964Y697800D01*
G01X2035964Y662607D01*
G01X2025095Y667045D01*
G01X2013453Y668562D01*
G01X2001810Y667058D01*
G01X1990936Y662633D01*
G01X1978260Y667251D01*
G01X1964788Y667961D01*
G01X1951698Y664700D01*
G01X1940133Y657753D01*
G01X1931105Y647728D01*
G01X1925404Y635502D01*
G01X1923528Y622142D01*
G01X1925640Y608818D01*
G01X1931557Y596694D01*
G01X1940761Y586830D01*
G01X1952447Y580089D01*
G01X1965593Y577061D01*
G01X1979050Y578009D01*
G01X1991642Y582851D01*
G01X2002397Y578667D01*
G01X2013857Y577316D01*
G01X2025290Y578883D01*
G01X2035964Y583268D01*
G01X2035964Y558951D01*
G01X2037928Y546139D01*
G01X2043640Y534505D01*
G01X2052575Y525116D01*
G01X2063913Y518835D01*
G01X2076612Y516239D01*
G01X2089505Y517567D01*
G01X2101408Y522696D01*
G01X2111227Y531156D01*
G01X2116674Y525831D01*
G01X2107607Y519475D01*
G01X2096439Y508308D01*
G01X2091359Y501688D01*
G01X2088166Y493979D01*
G01X2087077Y485706D01*
G01X2087077Y410611D01*
G01X2076630Y415939D01*
G01X2065169Y418427D01*
G01X2053453Y417912D01*
G01X2042255Y414428D01*
G01X2032316Y408204D01*
G01X2024291Y399652D01*
G01X2018712Y389337D01*
G01X2015946Y377940D01*
G01X2016177Y366215D01*
G01X2019389Y354936D01*
G01X1938393Y354936D01*
G01X1937472Y355794D01*
G01X1936046Y357113D01*
G01X1925139Y364252D01*
G01X1912659Y368020D01*
G01X1899624Y368108D01*
G01X1887094Y364511D01*
G01X1876091Y357521D01*
G01X1867510Y347707D01*
G01X1862051Y335870D01*
G01X1860158Y322972D01*
G01X1861765Y311076D01*
G01X1866417Y300010D01*
G01X1873790Y290538D01*
G01X1883377Y283313D01*
G01X1894515Y278836D01*
G01X1906434Y277415D01*
G01X1918312Y279149D01*
G01X1917632Y273287D01*
G01X1917632Y25614D01*
G01X1568872Y25614D01*
G01X1568872Y273287D01*
G01X1566922Y283089D01*
G01X1561369Y291399D01*
G01X1553060Y296951D01*
G01X1543258Y298901D01*
G01X1423258Y298901D01*
G01X1413456Y296951D01*
G01X1405146Y291399D01*
G01X1399593Y283089D01*
G01X1397644Y273287D01*
G01X1397644Y25614D01*
G01X1375737Y25614D01*
G01X1375737Y273982D01*
G01X1373787Y283785D01*
G01X1368234Y292094D01*
G01X1359925Y297647D01*
G01X1350123Y299597D01*
G01X1230123Y299597D01*
G01X1222821Y298534D01*
G01X1216126Y295434D01*
G01X1210591Y290554D01*
G01X1200033Y296909D01*
G01X1188160Y300206D01*
G01X1175837Y300206D01*
G01X1163963Y296908D01*
G01X1153406Y290552D01*
G01X1144934Y281603D01*
G01X1139167Y270713D01*
G01X1136524Y258677D01*
G01X1137199Y246372D01*
G01X1141142Y234697D01*
G01X1148066Y224503D01*
G01X1157465Y216534D01*
G01X1168655Y211371D01*
G01X1180818Y209391D01*
G01X1193067Y210739D01*
G01X1204509Y215315D01*
G01X1204509Y25614D01*
G01X855748Y25614D01*
G01X855748Y201000D01*
G01X1037375Y201000D01*
G01X1039224Y188146D01*
G01X1044618Y176334D01*
G01X1053122Y166519D01*
G01X1064047Y159499D01*
G01X1076507Y155840D01*
G01X1089493Y155840D01*
G01X1101953Y159499D01*
G01X1112877Y166519D01*
G01X1121381Y176334D01*
G01X1126776Y188146D01*
G01X1128624Y201000D01*
G01X1126776Y213854D01*
G01X1121381Y225666D01*
G01X1112877Y235480D01*
G01X1101953Y242501D01*
G01X1089493Y246160D01*
G01X1076507Y246160D01*
G01X1064047Y242501D01*
G01X1053122Y235480D01*
G01X1044618Y225666D01*
G01X1039224Y213854D01*
G01X1037375Y201000D01*
G01X1037375Y201000D01*
G01X855748Y201000D01*
G01X855748Y273982D01*
G01X853798Y283785D01*
G01X848246Y292094D01*
G01X839936Y297647D01*
G01X830134Y299597D01*
G01X710134Y299597D01*
G01X700332Y297647D01*
G01X692022Y292094D01*
G01X686470Y283785D01*
G01X684520Y273982D01*
G01X684520Y25614D01*
G01X376999Y25614D01*
G01X340479Y27528D01*
G01X304358Y33249D01*
G01X269034Y42715D01*
G01X234892Y55820D01*
G01X202307Y72423D01*
G01X171636Y92341D01*
G01X143215Y115356D01*
G01X117356Y141215D01*
G01X94341Y169636D01*
G01X74423Y200307D01*
G01X57820Y232892D01*
G01X44715Y267034D01*
G01X35249Y302358D01*
G01X29528Y338479D01*
G01X27614Y374999D01*
G01X27614Y375000D01*
G01X76386Y375000D01*
G01X76386Y375000D01*
G01X78276Y341342D01*
G01X83923Y308107D01*
G01X93255Y275713D01*
G01X106156Y244568D01*
G01X122463Y215064D01*
G01X141970Y187570D01*
G01X164434Y162434D01*
G01X189570Y139970D01*
G01X217064Y120463D01*
G01X246568Y104156D01*
G01X277713Y91255D01*
G01X310107Y81923D01*
G01X343342Y76276D01*
G01X377000Y74386D01*
G01X410658Y76276D01*
G01X443893Y81923D01*
G01X476287Y91255D01*
G01X507432Y104156D01*
G01X536936Y120463D01*
G01X564430Y139970D01*
G01X589566Y162434D01*
G01X612030Y187570D01*
G01X631537Y215064D01*
G01X647844Y244568D01*
G01X660745Y275713D01*
G01X670077Y308107D01*
G01X675724Y341342D01*
G01X677614Y375000D01*
G01X675724Y408658D01*
G01X670077Y441893D01*
G01X660745Y474287D01*
G01X647844Y505432D01*
G01X631537Y534936D01*
G01X612030Y562430D01*
G01X589566Y587566D01*
G01X564430Y610030D01*
G01X536936Y629537D01*
G01X507432Y645844D01*
G01X476287Y658745D01*
G01X443893Y668077D01*
G01X410658Y673724D01*
G01X377000Y675614D01*
G01X343342Y673724D01*
G01X310107Y668077D01*
G01X277713Y658745D01*
G01X246568Y645844D01*
G01X217064Y629537D01*
G01X189570Y610030D01*
G01X164434Y587566D01*
G01X141970Y562430D01*
G01X122463Y534936D01*
G01X106156Y505432D01*
G01X93255Y474287D01*
G01X83923Y441893D01*
G01X78276Y408658D01*
G01X76386Y375000D01*
G01X27614Y375000D01*
G01X27614Y722556D01*
G01X64477Y722556D01*
G01X66989Y710489D01*
G01X72639Y699534D01*
G01X81015Y690491D01*
G01X72904Y681209D01*
G01X67574Y670095D01*
G01X65414Y657960D01*
G01X66581Y645689D01*
G01X70990Y634178D01*
G01X78319Y624268D01*
G01X88034Y616681D01*
G01X99425Y611972D01*
G01X111661Y610485D01*
G01X111661Y610485D01*
G01X123849Y612326D01*
G01X135099Y617364D01*
G01X144590Y625229D01*
G01X151629Y635347D01*
G01X155703Y646981D01*
G01X156513Y659280D01*
G01X154002Y671348D01*
G01X148352Y682303D01*
G01X139975Y691346D01*
G01X148086Y700627D01*
G01X153416Y711742D01*
G01X155577Y723877D01*
G01X154410Y736148D01*
G01X150001Y747658D01*
G01X142672Y757569D01*
G01X132957Y765155D01*
G01X121565Y769864D01*
G01X109329Y771352D01*
G01X97141Y769510D01*
G01X85892Y764473D01*
G01X76401Y756608D01*
G01X69361Y746489D01*
G01X65288Y734856D01*
G01X64477Y722556D01*
G01X27614Y722556D01*
G01X27614Y1343011D01*
G01X94140Y1343011D01*
G01X95901Y1328505D01*
G01X101083Y1314842D01*
G01X109384Y1302816D01*
G01X120322Y1293126D01*
G01X133261Y1286335D01*
G01X147449Y1282838D01*
G01X162061Y1282838D01*
G01X176250Y1286335D01*
G01X189189Y1293126D01*
G01X200126Y1302816D01*
G01X208427Y1314842D01*
G01X213609Y1328505D01*
G01X215370Y1343011D01*
G01X213609Y1357517D01*
G01X208427Y1371181D01*
G01X200126Y1383207D01*
G01X189189Y1392897D01*
G01X176250Y1399688D01*
G01X162061Y1403185D01*
G01X147449Y1403185D01*
G01X133261Y1399688D01*
G01X120322Y1392897D01*
G01X109384Y1383207D01*
G01X101083Y1371181D01*
G01X95901Y1357517D01*
G01X94140Y1343011D01*
G01X94140Y1343011D01*
G01X27614Y1343011D01*
G01X27614Y1513013D01*
G01X94140Y1513013D01*
G01X95901Y1498507D01*
G01X101083Y1484844D01*
G01X109384Y1472818D01*
G01X120322Y1463128D01*
G01X133261Y1456337D01*
G01X147449Y1452840D01*
G01X162061Y1452840D01*
G01X176250Y1456337D01*
G01X189189Y1463128D01*
G01X200126Y1472818D01*
G01X208427Y1484844D01*
G01X213609Y1498507D01*
G01X215370Y1513013D01*
G01X213609Y1527520D01*
G01X208427Y1541183D01*
G01X200126Y1553209D01*
G01X189189Y1562899D01*
G01X176250Y1569690D01*
G01X162061Y1573187D01*
G01X147449Y1573187D01*
G01X133261Y1569690D01*
G01X120322Y1562899D01*
G01X109384Y1553209D01*
G01X101083Y1541183D01*
G01X95901Y1527520D01*
G01X94140Y1513013D01*
G01X94140Y1513013D01*
G01X27614Y1513013D01*
G01X27614Y1610186D01*
G01X230438Y1610186D01*
G01X232916Y1597449D01*
G01X238879Y1585926D01*
G01X247846Y1576547D01*
G01X259090Y1570071D01*
G01X271702Y1567023D01*
G01X284662Y1567648D01*
G01X296922Y1571896D01*
G01X296922Y792404D01*
G01X298011Y784131D01*
G01X301204Y776422D01*
G01X306284Y769802D01*
G01X375969Y700116D01*
G01X382589Y695036D01*
G01X390299Y691843D01*
G01X398571Y690754D01*
G01X904036Y690754D01*
G01X904036Y599601D01*
G01X855116Y599601D01*
G01X845314Y597651D01*
G01X837004Y592099D01*
G01X831452Y583789D01*
G01X829502Y573987D01*
G01X829502Y520964D01*
G01X818611Y520964D01*
G01X817689Y521822D01*
G01X816264Y523141D01*
G01X805357Y530280D01*
G01X792877Y534047D01*
G01X779841Y534136D01*
G01X767312Y530539D01*
G01X756308Y523549D01*
G01X747728Y513735D01*
G01X742269Y501897D01*
G01X740376Y489000D01*
G01X742269Y476102D01*
G01X747728Y464264D01*
G01X756308Y454451D01*
G01X767312Y447461D01*
G01X779841Y443863D01*
G01X792877Y443952D01*
G01X805357Y447719D01*
G01X816264Y454858D01*
G01X817689Y456177D01*
G01X818611Y457036D01*
G01X829502Y457036D01*
G01X829502Y403987D01*
G01X831452Y394185D01*
G01X837004Y385875D01*
G01X845314Y380323D01*
G01X855116Y378373D01*
G01X905116Y378373D01*
G01X913606Y379821D01*
G01X921136Y384001D01*
G01X926855Y390441D01*
G01X930116Y398412D01*
G01X933377Y390441D01*
G01X939096Y384001D01*
G01X946626Y379821D01*
G01X955116Y378373D01*
G01X1005116Y378373D01*
G01X1013605Y379821D01*
G01X1021135Y384001D01*
G01X1026854Y390441D01*
G01X1030116Y398412D01*
G01X1033377Y390441D01*
G01X1039096Y384001D01*
G01X1046626Y379821D01*
G01X1055115Y378373D01*
G01X1105115Y378373D01*
G01X1114917Y380323D01*
G01X1123227Y385875D01*
G01X1128780Y394185D01*
G01X1130730Y403987D01*
G01X1130730Y501558D01*
G01X1130962Y504999D01*
G01X1130962Y573291D01*
G01X1542626Y573291D01*
G01X1542626Y403292D01*
G01X1543921Y395250D01*
G01X1547675Y388021D01*
G01X1553509Y382337D01*
G01X1560833Y378772D01*
G01X1560833Y376340D01*
G01X1561922Y368067D01*
G01X1565115Y360358D01*
G01X1570195Y353738D01*
G01X1580089Y343844D01*
G01X1586709Y338764D01*
G01X1594418Y335571D01*
G01X1602691Y334482D01*
G01X1769014Y334482D01*
G01X1769014Y334482D01*
G01X1763168Y322685D01*
G01X1760935Y309710D01*
G01X1762499Y296638D01*
G01X1767731Y284556D01*
G01X1762607Y273568D01*
G01X1760558Y261617D01*
G01X1761729Y249549D01*
G01X1766038Y238216D01*
G01X1773180Y228417D01*
G01X1782650Y220846D01*
G01X1793780Y216037D01*
G01X1805784Y214329D01*
G01X1817814Y215843D01*
G01X1829020Y220472D01*
G01X1838611Y227890D01*
G01X1845910Y237571D01*
G01X1850401Y248834D01*
G01X1851766Y260882D01*
G01X1849911Y272863D01*
G01X1844964Y283933D01*
G01X1849910Y294363D01*
G01X1852080Y305701D01*
G01X1851334Y317220D01*
G01X1847722Y328183D01*
G01X1841474Y337889D01*
G01X1849717Y343844D01*
G01X1866370Y360497D01*
G01X1871449Y367117D01*
G01X1874642Y374826D01*
G01X1875732Y383099D01*
G01X1875732Y575611D01*
G01X1886522Y580959D01*
G01X1895540Y588942D01*
G01X1902157Y599005D01*
G01X1905913Y610448D01*
G01X1906547Y622475D01*
G01X1904015Y634249D01*
G01X1898494Y644952D01*
G01X1890366Y653839D01*
G01X1880319Y660205D01*
G01X1868967Y663758D01*
G01X1857084Y664256D01*
G01X1845475Y661665D01*
G01X1834930Y656161D01*
G01X1827306Y660484D01*
G01X1818671Y661983D01*
G01X1815732Y661983D01*
G01X1805333Y665984D01*
G01X1794274Y667344D01*
G01X1783216Y665984D01*
G01X1772816Y661983D01*
G01X1768780Y661983D01*
G01X1758978Y660034D01*
G01X1750668Y654481D01*
G01X1745115Y646171D01*
G01X1743166Y636369D01*
G01X1743166Y579188D01*
G01X1739573Y587467D01*
G01X1733331Y593987D01*
G01X1738451Y605018D01*
G01X1740479Y617009D01*
G01X1739270Y629110D01*
G01X1734911Y640463D01*
G01X1727711Y650264D01*
G01X1718180Y657817D01*
G01X1706993Y662588D01*
G01X1694945Y664237D01*
G01X1683119Y662649D01*
G01X1672108Y658052D01*
G01X1662663Y650760D01*
G01X1655430Y641271D01*
G01X1650900Y630232D01*
G01X1649384Y618396D01*
G01X1650985Y606572D01*
G01X1655594Y595566D01*
G01X1649960Y591235D01*
G01X1645734Y585521D01*
G01X1643240Y578867D01*
G01X1639980Y586835D01*
G01X1634265Y593273D01*
G01X1640431Y603993D01*
G01X1643492Y615976D01*
G01X1643222Y628340D01*
G01X1639642Y640177D01*
G01X1633014Y650618D01*
G01X1623826Y658895D01*
G01X1612752Y664401D01*
G01X1600606Y666730D01*
G01X1588281Y665712D01*
G01X1576682Y661422D01*
G01X1566662Y654174D01*
G01X1558956Y644501D01*
G01X1554131Y633114D01*
G01X1552542Y620849D01*
G01X1554304Y608609D01*
G01X1559290Y597291D01*
G01X1552527Y593520D01*
G01X1547200Y587900D01*
G01X1543796Y580946D01*
G01X1542626Y573291D01*
G01X1130962Y573291D01*
G01X1130962Y642359D01*
G01X1129012Y652161D01*
G01X1123459Y660471D01*
G01X1115150Y666024D01*
G01X1105348Y667974D01*
G01X1055456Y667974D01*
G01X1045654Y666024D01*
G01X1037344Y660471D01*
G01X1031791Y652161D01*
G01X1029842Y642359D01*
G01X1029842Y580673D01*
G01X1027447Y586532D01*
G01X1023689Y591625D01*
G01X1027916Y604428D01*
G01X1028217Y617907D01*
G01X1024565Y630885D01*
G01X1017279Y642229D01*
G01X1006996Y650949D01*
G01X994613Y656282D01*
G01X981212Y657764D01*
G01X967964Y655264D01*
G01X967964Y710018D01*
G01X966875Y718291D01*
G01X963681Y726000D01*
G01X958602Y732620D01*
G01X945902Y745320D01*
G01X939282Y750400D01*
G01X931573Y753593D01*
G01X923300Y754682D01*
G01X825735Y754682D01*
G01X828864Y761479D01*
G01X830841Y768695D01*
G01X839490Y764483D01*
G01X849000Y763036D01*
G01X1105760Y763036D01*
G01X1165398Y703398D01*
G01X1172018Y698318D01*
G01X1179727Y695125D01*
G01X1188000Y694036D01*
G01X1518000Y694036D01*
G01X1526272Y695125D01*
G01X1533982Y698318D01*
G01X1540602Y703398D01*
G01X1579601Y742398D01*
G01X1584681Y749018D01*
G01X1587874Y756727D01*
G01X1588964Y765000D01*
G01X1588964Y830095D01*
G01X1592133Y828226D01*
G01X1595755Y827576D01*
G01X1906731Y827576D01*
G01X1911938Y828971D01*
G01X1915749Y832783D01*
G01X1917145Y837990D01*
G01X1917145Y983509D01*
G01X1915749Y988716D01*
G01X1911938Y992528D01*
G01X1906731Y993923D01*
G01X1595755Y993923D01*
G01X1592133Y993273D01*
G01X1588964Y991404D01*
G01X1588964Y1060760D01*
G01X1615821Y1087617D01*
G01X1889144Y1087617D01*
G01X1890065Y1086758D01*
G01X1891491Y1085440D01*
G01X1902398Y1078301D01*
G01X1914878Y1074533D01*
G01X1927913Y1074445D01*
G01X1940443Y1078042D01*
G01X1951446Y1085032D01*
G01X1960027Y1094845D01*
G01X1965486Y1106683D01*
G01X1967379Y1119581D01*
G01X1967342Y1121295D01*
G01X1979719Y1121163D01*
G01X1991675Y1124363D01*
G01X2002332Y1130658D01*
G01X2010904Y1139586D01*
G01X2016762Y1150489D01*
G01X2019473Y1162566D01*
G01X2018838Y1174927D01*
G01X2014905Y1186662D01*
G01X2007962Y1196909D01*
G01X1998520Y1204912D01*
G01X1987275Y1210083D01*
G01X1975054Y1212041D01*
G01X1962756Y1210643D01*
G01X1951286Y1205990D01*
G01X1941490Y1198426D01*
G01X1934086Y1188507D01*
G01X1929621Y1176963D01*
G01X1928423Y1164644D01*
G01X1915217Y1164679D01*
G01X1902554Y1160934D01*
G01X1891491Y1153722D01*
G01X1890065Y1152404D01*
G01X1889144Y1151545D01*
G01X1602581Y1151545D01*
G01X1594308Y1150456D01*
G01X1586599Y1147263D01*
G01X1579979Y1142183D01*
G01X1534397Y1096602D01*
G01X1529318Y1089982D01*
G01X1526124Y1082273D01*
G01X1525035Y1074000D01*
G01X1525035Y778240D01*
G01X1504760Y757964D01*
G01X1201240Y757964D01*
G01X1141602Y817602D01*
G01X1134982Y822681D01*
G01X1127272Y825875D01*
G01X1119000Y826964D01*
G01X923325Y826964D01*
G01X925737Y837407D01*
G01X925647Y848125D01*
G01X923058Y858526D01*
G01X918114Y868036D01*
G01X1119000Y868036D01*
G01X1127272Y869125D01*
G01X1134981Y872318D01*
G01X1141601Y877397D01*
G01X1156602Y892397D01*
G01X1161681Y899017D01*
G01X1164875Y906727D01*
G01X1165964Y915000D01*
G01X1165964Y990760D01*
G01X1173646Y984035D01*
G01X1182630Y979184D01*
G01X1192468Y976451D01*
G01X1190024Y963342D01*
G01X1190686Y950023D01*
G01X1194419Y937221D01*
G01X1201018Y925634D01*
G01X1210125Y915892D01*
G01X1221242Y908528D01*
G01X1233764Y903943D01*
G01X1247008Y902386D01*
G01X1296045Y902386D01*
G01X1296045Y889614D01*
G01X1247008Y889614D01*
G01X1232226Y887668D01*
G01X1218451Y881962D01*
G01X1206623Y872885D01*
G01X1197546Y861057D01*
G01X1191841Y847282D01*
G01X1189894Y832500D01*
G01X1191841Y817718D01*
G01X1197546Y803943D01*
G01X1206623Y792114D01*
G01X1218451Y783038D01*
G01X1232226Y777332D01*
G01X1247008Y775386D01*
G01X1409010Y775386D01*
G01X1423792Y777332D01*
G01X1437567Y783038D01*
G01X1449395Y792114D01*
G01X1458472Y803943D01*
G01X1464177Y817718D01*
G01X1466124Y832500D01*
G01X1464177Y847282D01*
G01X1458472Y861057D01*
G01X1449395Y872885D01*
G01X1437567Y881962D01*
G01X1423792Y887668D01*
G01X1409010Y889614D01*
G01X1359973Y889614D01*
G01X1359973Y902386D01*
G01X1409010Y902386D01*
G01X1422949Y904113D01*
G01X1436045Y909190D01*
G01X1447506Y917310D01*
G01X1456639Y927981D01*
G01X1457083Y928035D01*
G01X1473000Y928035D01*
G01X1481273Y929125D01*
G01X1488982Y932318D01*
G01X1495602Y937398D01*
G01X1510602Y952398D01*
G01X1515681Y959018D01*
G01X1518875Y966727D01*
G01X1519964Y975000D01*
G01X1519964Y1335000D01*
G01X1518875Y1343273D01*
G01X1515681Y1350982D01*
G01X1510602Y1357602D01*
G01X1483602Y1384602D01*
G01X1477776Y1389208D01*
G01X1553700Y1389208D01*
G01X1557248Y1381844D01*
G01X1562936Y1375973D01*
G01X1570184Y1372194D01*
G01X1578253Y1370889D01*
G01X1578752Y1370889D01*
G01X1578752Y1364424D01*
G01X1579842Y1356151D01*
G01X1583035Y1348442D01*
G01X1588115Y1341822D01*
G01X1598694Y1331243D01*
G01X1605314Y1326163D01*
G01X1613023Y1322970D01*
G01X1621296Y1321881D01*
G01X1945736Y1321881D01*
G01X1952637Y1322634D01*
G01X2176035Y1322634D01*
G01X2176035Y1299424D01*
G01X2175904Y1299182D01*
G01X2175767Y1298968D01*
G01X2166554Y1306882D01*
G01X2155485Y1311880D01*
G01X2143456Y1313558D01*
G01X2131442Y1311779D01*
G01X2120416Y1306687D01*
G01X2111270Y1298696D01*
G01X2101457Y1307175D01*
G01X2089553Y1312323D01*
G01X2076653Y1313665D01*
G01X2063944Y1311078D01*
G01X2052595Y1304801D01*
G01X2043650Y1295411D01*
G01X2037931Y1283770D01*
G01X2035964Y1270951D01*
G01X2035964Y1132279D01*
G01X2023408Y1133448D01*
G01X2011011Y1131135D01*
G01X1999721Y1125517D01*
G01X1990400Y1117024D01*
G01X1983760Y1106303D01*
G01X1980309Y1094173D01*
G01X1980310Y1081563D01*
G01X1983763Y1069434D01*
G01X1990404Y1058714D01*
G01X1999727Y1050222D01*
G01X2011018Y1044606D01*
G01X2023415Y1042295D01*
G01X2035971Y1043466D01*
G01X2047727Y1048030D01*
G01X2057784Y1055638D01*
G01X2065375Y1065708D01*
G01X2069919Y1077471D01*
G01X2071069Y1090029D01*
G01X2082178Y1089477D01*
G01X2093054Y1091808D01*
G01X2102960Y1096866D01*
G01X2111227Y1104307D01*
G01X2120452Y1096226D01*
G01X2131590Y1091096D01*
G01X2143727Y1089338D01*
G01X2155863Y1091096D01*
G01X2167002Y1096226D01*
G01X2176226Y1104307D01*
G01X2186046Y1095847D01*
G01X2197949Y1090718D01*
G01X2210842Y1089390D01*
G01X2223540Y1091986D01*
G01X2234878Y1098267D01*
G01X2243813Y1107656D01*
G01X2249525Y1119290D01*
G01X2251490Y1132102D01*
G01X2251490Y1270951D01*
G01X2250517Y1280018D01*
G01X2247645Y1288673D01*
G01X2247534Y1288913D01*
G01X2244094Y1294989D01*
G01X2243773Y1295534D01*
G01X2242927Y1296873D01*
G01X2240174Y1300947D01*
G01X2239964Y1301318D01*
G01X2239964Y1338000D01*
G01X2238874Y1346273D01*
G01X2235681Y1353982D01*
G01X2230601Y1360602D01*
G01X2214003Y1377201D01*
G01X2207383Y1382280D01*
G01X2199673Y1385473D01*
G01X2191400Y1386563D01*
G01X2074397Y1386563D01*
G01X2072813Y1392717D01*
G01X2072280Y1399049D01*
G01X2072280Y1441097D01*
G01X2075479Y1441097D01*
G01X2085281Y1443047D01*
G01X2093591Y1448599D01*
G01X2099144Y1456909D01*
G01X2101093Y1466711D01*
G01X2101093Y1545721D01*
G01X2099144Y1555523D01*
G01X2093591Y1563832D01*
G01X2085281Y1569385D01*
G01X2075479Y1571335D01*
G01X2021479Y1571335D01*
G01X2011677Y1569385D01*
G01X2003367Y1563832D01*
G01X1997814Y1555523D01*
G01X1995865Y1545721D01*
G01X1995865Y1466711D01*
G01X1997367Y1458067D01*
G01X2001699Y1450437D01*
G01X2008352Y1444717D01*
G01X2008352Y1399049D01*
G01X2007819Y1392717D01*
G01X2006235Y1386563D01*
G01X1979816Y1386563D01*
G01X1978233Y1392717D01*
G01X1977700Y1399049D01*
G01X1977700Y1448482D01*
G01X1982823Y1456576D01*
G01X1984614Y1465986D01*
G01X1984614Y1544996D01*
G01X1982664Y1554798D01*
G01X1977112Y1563108D01*
G01X1968802Y1568660D01*
G01X1959000Y1570610D01*
G01X1904999Y1570610D01*
G01X1895197Y1568660D01*
G01X1886887Y1563108D01*
G01X1881335Y1554798D01*
G01X1879385Y1544996D01*
G01X1879385Y1465986D01*
G01X1881335Y1456184D01*
G01X1886887Y1447874D01*
G01X1895197Y1442322D01*
G01X1904999Y1440372D01*
G01X1913771Y1440372D01*
G01X1913771Y1398295D01*
G01X1913238Y1391963D01*
G01X1911655Y1385809D01*
G01X1671527Y1385809D01*
G01X1673275Y1391030D01*
G01X1673867Y1396503D01*
G01X1673867Y1521504D01*
G01X1671917Y1531307D01*
G01X1666365Y1539616D01*
G01X1658055Y1545169D01*
G01X1648253Y1547119D01*
G01X1578253Y1547119D01*
G01X1568451Y1545169D01*
G01X1560141Y1539616D01*
G01X1554589Y1531307D01*
G01X1552639Y1521504D01*
G01X1552639Y1453136D01*
G01X1445355Y1453136D01*
G01X1449876Y1465741D01*
G01X1450547Y1479116D01*
G01X1447310Y1492111D01*
G01X1440443Y1503609D01*
G01X1430537Y1512620D01*
G01X1418443Y1518372D01*
G01X1405201Y1520369D01*
G01X1393235Y1518742D01*
G01X1382114Y1514036D01*
G01X1372614Y1506580D01*
G01X1372614Y1544996D01*
G01X1370664Y1554798D01*
G01X1365112Y1563108D01*
G01X1356802Y1568660D01*
G01X1347000Y1570610D01*
G01X1292999Y1570610D01*
G01X1283197Y1568660D01*
G01X1274888Y1563108D01*
G01X1269335Y1554798D01*
G01X1267385Y1544996D01*
G01X1267385Y1465986D01*
G01X1268885Y1457349D01*
G01X1273210Y1449724D01*
G01X1279853Y1444003D01*
G01X1288036Y1440858D01*
G01X1288036Y1394611D01*
G01X1286250Y1392694D01*
G01X1284130Y1390097D01*
G01X1278818Y1381533D01*
G01X1275513Y1372013D01*
G01X1274376Y1362000D01*
G01X1276268Y1349102D01*
G01X1281728Y1337264D01*
G01X1290308Y1327451D01*
G01X1301312Y1320460D01*
G01X1313841Y1316863D01*
G01X1326877Y1316952D01*
G01X1339357Y1320719D01*
G01X1350264Y1327858D01*
G01X1351689Y1329177D01*
G01X1352611Y1330035D01*
G01X1447760Y1330035D01*
G01X1456035Y1321760D01*
G01X1456035Y1245912D01*
G01X1446905Y1256231D01*
G01X1435569Y1264063D01*
G01X1422687Y1268952D01*
G01X1409010Y1270614D01*
G01X1247008Y1270614D01*
G01X1234231Y1269166D01*
G01X1222101Y1264897D01*
G01X1211234Y1258022D01*
G01X1202180Y1248890D01*
G01X1195399Y1237964D01*
G01X1158000Y1237964D01*
G01X1149727Y1236875D01*
G01X1142018Y1233681D01*
G01X1135398Y1228602D01*
G01X1111398Y1204602D01*
G01X1106318Y1197982D01*
G01X1103125Y1190273D01*
G01X1102036Y1182000D01*
G01X1102036Y931964D01*
G01X1034810Y931964D01*
G01X1036394Y943784D01*
G01X1034860Y955611D01*
G01X1030313Y966637D01*
G01X1023065Y976107D01*
G01X1013610Y983376D01*
G01X1002594Y987945D01*
G01X990770Y989504D01*
G01X978946Y987945D01*
G01X967930Y983376D01*
G01X958475Y976107D01*
G01X951226Y966637D01*
G01X946680Y955611D01*
G01X945146Y943784D01*
G01X946729Y931964D01*
G01X753029Y931964D01*
G01X758416Y945711D01*
G01X760098Y960379D01*
G01X757965Y974988D01*
G01X752158Y988563D01*
G01X743065Y1000195D01*
G01X731294Y1009108D01*
G01X717632Y1014705D01*
G01X702991Y1016614D01*
G01X540990Y1016614D01*
G01X528369Y1015202D01*
G01X516372Y1011036D01*
G01X505592Y1004321D01*
G01X501790Y1013164D01*
G01X496219Y1021014D01*
G01X494901Y1022439D01*
G01X494042Y1023361D01*
G01X494054Y1053957D01*
G01X503183Y1043690D01*
G01X514501Y1035900D01*
G01X527351Y1031038D01*
G01X540990Y1029386D01*
G01X702991Y1029386D01*
G01X717773Y1031332D01*
G01X731548Y1037038D01*
G01X743377Y1046114D01*
G01X752453Y1057943D01*
G01X758159Y1071718D01*
G01X760105Y1086500D01*
G01X758159Y1101282D01*
G01X752453Y1115057D01*
G01X743377Y1126885D01*
G01X731548Y1135962D01*
G01X717773Y1141668D01*
G01X702991Y1143614D01*
G01X540990Y1143614D01*
G01X527051Y1141887D01*
G01X513954Y1136809D01*
G01X502493Y1128690D01*
G01X493360Y1118018D01*
G01X492917Y1117964D01*
G01X477000Y1117964D01*
G01X468727Y1116875D01*
G01X461018Y1113681D01*
G01X454398Y1108602D01*
G01X454218Y1108422D01*
G01X454253Y1174471D01*
G01X466599Y1171293D01*
G01X479342Y1171656D01*
G01X491488Y1175530D01*
G01X502087Y1182613D01*
G01X510313Y1192352D01*
G01X515523Y1203987D01*
G01X517311Y1216609D01*
G01X515536Y1229233D01*
G01X510339Y1240873D01*
G01X502123Y1250621D01*
G01X491531Y1257715D01*
G01X479390Y1261602D01*
G01X466648Y1261978D01*
G01X454299Y1258814D01*
G01X454348Y1352087D01*
G01X495478Y1352087D01*
G01X496400Y1351229D01*
G01X497825Y1349910D01*
G01X508733Y1342771D01*
G01X521212Y1339004D01*
G01X534248Y1338915D01*
G01X546778Y1342513D01*
G01X557781Y1349503D01*
G01X566362Y1359316D01*
G01X571821Y1371154D01*
G01X573714Y1384052D01*
G01X571821Y1396949D01*
G01X566362Y1408787D01*
G01X557781Y1418601D01*
G01X546778Y1425591D01*
G01X534248Y1429188D01*
G01X521212Y1429099D01*
G01X508733Y1425332D01*
G01X497825Y1418193D01*
G01X496400Y1416874D01*
G01X495478Y1416016D01*
G01X439829Y1416016D01*
G01X432775Y1415228D01*
G01X426068Y1412902D01*
G01X426068Y1484867D01*
G01X655327Y1484867D01*
G01X656536Y1471791D01*
G01X661419Y1459601D01*
G01X669572Y1449307D01*
G01X670036Y1448856D01*
G01X670036Y1373872D01*
G01X670036Y1373872D01*
G01X669177Y1372950D01*
G01X667858Y1371525D01*
G01X660719Y1360617D01*
G01X656952Y1348138D01*
G01X656864Y1335102D01*
G01X660461Y1322572D01*
G01X667451Y1311569D01*
G01X677264Y1302988D01*
G01X689102Y1297529D01*
G01X702000Y1295636D01*
G01X714898Y1297529D01*
G01X726735Y1302988D01*
G01X736549Y1311569D01*
G01X743539Y1322572D01*
G01X747136Y1335102D01*
G01X747048Y1348138D01*
G01X743280Y1360617D01*
G01X736141Y1371525D01*
G01X734822Y1372950D01*
G01X733964Y1373872D01*
G01X734092Y1451194D01*
G01X736679Y1454190D01*
G01X743241Y1465577D01*
G01X746288Y1478361D01*
G01X745567Y1491483D01*
G01X741138Y1503856D01*
G01X733369Y1514456D01*
G01X722902Y1522404D01*
G01X710605Y1527041D01*
G01X697497Y1527983D01*
G01X684678Y1525132D01*
G01X673203Y1518749D01*
G01X664021Y1509361D01*
G01X657893Y1497746D01*
G01X655327Y1484867D01*
G01X426068Y1484867D01*
G01X426068Y1535340D01*
G01X479997Y1589269D01*
G01X872600Y1589269D01*
G01X880873Y1590358D01*
G01X888582Y1593551D01*
G01X895202Y1598631D01*
G01X931789Y1635219D01*
G01X936869Y1641839D01*
G01X940062Y1649548D01*
G01X941152Y1657821D01*
G01X941152Y1867559D01*
G01X949464Y1875872D01*
G01X988192Y1875872D01*
G01X982948Y1870266D01*
G01X979600Y1863358D01*
G01X978450Y1855768D01*
G01X978450Y1852532D01*
G01X978054Y1848074D01*
G01X978054Y1432238D01*
G01X960552Y1414736D01*
G01X955472Y1408116D01*
G01X952279Y1400407D01*
G01X951190Y1392134D01*
G01X951190Y1170206D01*
G01X952279Y1161934D01*
G01X955472Y1154224D01*
G01X960552Y1147604D01*
G01X978949Y1129207D01*
G01X978994Y1127952D01*
G01X979073Y1125946D01*
G01X981738Y1113187D01*
G01X987901Y1101701D01*
G01X997058Y1092425D01*
G01X1008464Y1086115D01*
G01X1021188Y1083286D01*
G01X1034192Y1084169D01*
G01X1046417Y1088690D01*
G01X1056866Y1096483D01*
G01X1064660Y1106933D01*
G01X1069183Y1119160D01*
G01X1070065Y1132167D01*
G01X1067236Y1144893D01*
G01X1060925Y1156300D01*
G01X1051648Y1165459D01*
G01X1040160Y1171622D01*
G01X1027399Y1174288D01*
G01X1025409Y1174366D01*
G01X1024153Y1174411D01*
G01X1015118Y1183446D01*
G01X1015118Y1378894D01*
G01X1024434Y1388210D01*
G01X1038689Y1388210D01*
G01X1048491Y1390160D01*
G01X1056800Y1395712D01*
G01X1062353Y1404022D01*
G01X1064303Y1413824D01*
G01X1064303Y1707472D01*
G01X1076536Y1705797D01*
G01X1088770Y1707462D01*
G01X1100110Y1712345D01*
G01X1109727Y1720088D01*
G01X1116918Y1730126D01*
G01X1121155Y1741723D01*
G01X1129126Y1741723D01*
G01X1130047Y1740865D01*
G01X1131473Y1739546D01*
G01X1141806Y1732679D01*
G01X1134642Y1727501D01*
G01X1133217Y1726183D01*
G01X1132243Y1725276D01*
G01X1124601Y1723911D01*
G01X1117513Y1720744D01*
G01X1111398Y1715962D01*
G01X1088329Y1692894D01*
G01X1083250Y1686274D01*
G01X1080057Y1678565D01*
G01X1078967Y1670292D01*
G01X1078967Y1491443D01*
G01X1080057Y1483170D01*
G01X1083250Y1475461D01*
G01X1088329Y1468841D01*
G01X1103317Y1453853D01*
G01X1109937Y1448774D01*
G01X1117646Y1445580D01*
G01X1125919Y1444491D01*
G01X1180222Y1444491D01*
G01X1182572Y1442141D01*
G01X1182572Y1439597D01*
G01X1181713Y1438676D01*
G01X1180394Y1437250D01*
G01X1173255Y1426343D01*
G01X1169488Y1413863D01*
G01X1169400Y1400828D01*
G01X1172997Y1388298D01*
G01X1179987Y1377295D01*
G01X1189800Y1368714D01*
G01X1201638Y1363255D01*
G01X1214536Y1361362D01*
G01X1227434Y1363255D01*
G01X1239271Y1368714D01*
G01X1249085Y1377295D01*
G01X1256075Y1388298D01*
G01X1259672Y1400828D01*
G01X1259583Y1413863D01*
G01X1255816Y1426343D01*
G01X1248677Y1437250D01*
G01X1247358Y1438676D01*
G01X1246500Y1439597D01*
G01X1246500Y1455381D01*
G01X1245411Y1463654D01*
G01X1242218Y1471363D01*
G01X1237138Y1477983D01*
G01X1216064Y1499057D01*
G01X1209444Y1504137D01*
G01X1201735Y1507330D01*
G01X1193462Y1508419D01*
G01X1184150Y1508419D01*
G01X1190793Y1517622D01*
G01X1194959Y1528179D01*
G01X1196390Y1539439D01*
G01X1194997Y1550702D01*
G01X1190868Y1561274D01*
G01X1184256Y1570499D01*
G01X1178009Y1575757D01*
G01X1420721Y1575757D01*
G01X1422361Y1566739D01*
G01X1427071Y1558875D01*
G01X1432622Y1553921D01*
G01X1439362Y1550770D01*
G01X1446723Y1549690D01*
G01X1500724Y1549690D01*
G01X1505520Y1550143D01*
G01X1700845Y1550143D01*
G01X1690417Y1543544D01*
G01X1682140Y1534392D01*
G01X1676617Y1523356D01*
G01X1674255Y1511245D01*
G01X1675224Y1498943D01*
G01X1679454Y1487351D01*
G01X1686637Y1477316D01*
G01X1696246Y1469574D01*
G01X1707578Y1464689D01*
G01X1719805Y1463021D01*
G01X1732031Y1464689D01*
G01X1743363Y1469574D01*
G01X1752972Y1477316D01*
G01X1760155Y1487351D01*
G01X1764385Y1498943D01*
G01X1765355Y1511245D01*
G01X1762992Y1523356D01*
G01X1757469Y1534392D01*
G01X1749192Y1543544D01*
G01X1738764Y1550143D01*
G01X1742558Y1550143D01*
G01X1752360Y1552092D01*
G01X1760670Y1557645D01*
G01X1766222Y1565955D01*
G01X1768172Y1575757D01*
G01X1768172Y1590595D01*
G01X1768863Y1596503D01*
G01X1768863Y1721504D01*
G01X1766913Y1731306D01*
G01X1761361Y1739616D01*
G01X1753051Y1745168D01*
G01X1743249Y1747118D01*
G01X1673249Y1747118D01*
G01X1665610Y1745952D01*
G01X1658666Y1742561D01*
G01X1653049Y1737254D01*
G01X1649271Y1730512D01*
G01X1639167Y1736575D01*
G01X1627847Y1739849D01*
G01X1616066Y1740113D01*
G01X1604611Y1737352D01*
G01X1594244Y1731749D01*
G01X1585659Y1723678D01*
G01X1579427Y1713677D01*
G01X1575964Y1702414D01*
G01X1575502Y1690639D01*
G01X1578070Y1679139D01*
G01X1507030Y1679139D01*
G01X1507030Y1679139D01*
G01X1500724Y1679927D01*
G01X1446723Y1679927D01*
G01X1437296Y1678129D01*
G01X1429192Y1672987D01*
G01X1423549Y1665224D01*
G01X1421438Y1659543D01*
G01X1420721Y1653525D01*
G01X1420721Y1575757D01*
G01X1178009Y1575757D01*
G01X1175572Y1577807D01*
G01X1165354Y1582746D01*
G01X1154232Y1585009D01*
G01X1142896Y1584457D01*
G01X1142896Y1653424D01*
G01X1155519Y1648764D01*
G01X1168953Y1647984D01*
G01X1182031Y1651152D01*
G01X1193619Y1657994D01*
G01X1202709Y1667916D01*
G01X1208515Y1680055D01*
G01X1210531Y1693360D01*
G01X1208726Y1705956D01*
G01X1203517Y1717566D01*
G01X1195306Y1727288D01*
G01X1184733Y1734368D01*
G01X1194091Y1741613D01*
G01X1201273Y1751020D01*
G01X1205798Y1761956D01*
G01X1207361Y1773687D01*
G01X1206704Y1781291D01*
G01X1204790Y1788680D01*
G01X2674208Y1788680D01*
G01X2654312Y1768784D01*
G01X2653057Y1768739D01*
G01X2651052Y1768660D01*
G01X2639602Y1766450D01*
G01X2629087Y1761410D01*
G01X2620191Y1753872D01*
G01X2613495Y1744325D01*
G01X2609437Y1733393D01*
G01X2608280Y1721790D01*
G01X2610101Y1710272D01*
G01X2528256Y1710272D01*
G01X2518965Y1708528D01*
G01X2510940Y1703533D01*
G01X2505273Y1695968D01*
G01X2351246Y1695968D01*
G01X2345579Y1703533D01*
G01X2337554Y1708528D01*
G01X2328264Y1710272D01*
G01X2138264Y1710272D01*
G01X2128462Y1708323D01*
G01X2120152Y1702770D01*
G01X2114600Y1694460D01*
G01X2112650Y1684658D01*
G01X2112650Y1444659D01*
G01X2114600Y1434857D01*
G01X2120152Y1426547D01*
G01X2128462Y1420994D01*
G01X2138264Y1419045D01*
G01X2306758Y1419045D01*
G01X2306758Y1300392D01*
G01X2306582Y1300075D01*
G01X2303951Y1296082D01*
G01X2302877Y1294298D01*
G01X2297734Y1283123D01*
G01X2295958Y1270951D01*
G01X2295958Y1132102D01*
G01X2297922Y1119290D01*
G01X2303635Y1107656D01*
G01X2312570Y1098267D01*
G01X2323907Y1091986D01*
G01X2336606Y1089390D01*
G01X2349499Y1090718D01*
G01X2361402Y1095847D01*
G01X2371222Y1104307D01*
G01X2380449Y1096224D01*
G01X2391591Y1091094D01*
G01X2403731Y1089338D01*
G01X2415870Y1091100D01*
G01X2427010Y1096235D01*
G01X2436233Y1104322D01*
G01X2445457Y1096235D01*
G01X2456596Y1091100D01*
G01X2468735Y1089338D01*
G01X2480875Y1091094D01*
G01X2492017Y1096224D01*
G01X2501244Y1104307D01*
G01X2510469Y1096226D01*
G01X2521607Y1091096D01*
G01X2533744Y1089338D01*
G01X2545880Y1091096D01*
G01X2557019Y1096226D01*
G01X2566243Y1104307D01*
G01X2575468Y1096226D01*
G01X2586606Y1091096D01*
G01X2598742Y1089338D01*
G01X2610879Y1091096D01*
G01X2622017Y1096226D01*
G01X2631242Y1104307D01*
G01X2640466Y1096226D01*
G01X2651605Y1091096D01*
G01X2663741Y1089338D01*
G01X2675877Y1091096D01*
G01X2687016Y1096226D01*
G01X2696240Y1104307D01*
G01X2705465Y1096226D01*
G01X2716603Y1091096D01*
G01X2728740Y1089338D01*
G01X2740876Y1091096D01*
G01X2752014Y1096226D01*
G01X2761239Y1104307D01*
G01X2770463Y1096226D01*
G01X2781602Y1091096D01*
G01X2793738Y1089338D01*
G01X2805875Y1091096D01*
G01X2817013Y1096226D01*
G01X2826237Y1104307D01*
G01X2835462Y1096226D01*
G01X2846600Y1091096D01*
G01X2858737Y1089338D01*
G01X2870873Y1091096D01*
G01X2882012Y1096226D01*
G01X2891236Y1104307D01*
G01X2900978Y1095896D01*
G01X2912782Y1090764D01*
G01X2925578Y1089377D01*
G01X2923477Y1076650D01*
G01X2925022Y1063844D01*
G01X2930090Y1051982D01*
G01X2938275Y1042012D01*
G01X2948924Y1034732D01*
G01X2961185Y1030724D01*
G01X2974077Y1030307D01*
G01X2986571Y1033515D01*
G01X2997668Y1040092D01*
G01X3006480Y1049512D01*
G01X3012303Y1061023D01*
G01X3014672Y1073702D01*
G01X3013398Y1086539D01*
G01X3008581Y1098505D01*
G01X3000608Y1108645D01*
G01X2990115Y1116148D01*
G01X2977942Y1120415D01*
G01X2965061Y1121103D01*
G01X2966500Y1132102D01*
G01X2966500Y1176000D01*
G01X3236375Y1176000D01*
G01X3236375Y1176000D01*
G01X3238223Y1163146D01*
G01X3243618Y1151333D01*
G01X3252122Y1141519D01*
G01X3263046Y1134499D01*
G01X3275506Y1130840D01*
G01X3288492Y1130840D01*
G01X3300952Y1134499D01*
G01X3311876Y1141519D01*
G01X3320380Y1151333D01*
G01X3325775Y1163146D01*
G01X3327623Y1176000D01*
G01X3325775Y1188853D01*
G01X3320380Y1200666D01*
G01X3311876Y1210480D01*
G01X3300952Y1217501D01*
G01X3288492Y1221159D01*
G01X3275506Y1221159D01*
G01X3263046Y1217501D01*
G01X3252122Y1210480D01*
G01X3243618Y1200666D01*
G01X3238223Y1188853D01*
G01X3236375Y1176000D01*
G01X2966500Y1176000D01*
G01X2966500Y1270951D01*
G01X2964535Y1283762D01*
G01X2958823Y1295397D01*
G01X2949888Y1304786D01*
G01X2938550Y1311067D01*
G01X2925852Y1313663D01*
G01X2912959Y1312335D01*
G01X2901056Y1307206D01*
G01X2891236Y1298746D01*
G01X2882012Y1306827D01*
G01X2870873Y1311957D01*
G01X2858737Y1313715D01*
G01X2846600Y1311957D01*
G01X2835462Y1306827D01*
G01X2826237Y1298746D01*
G01X2817066Y1306792D01*
G01X2805996Y1311921D01*
G01X2793929Y1313715D01*
G01X2781846Y1312028D01*
G01X2770730Y1306998D01*
G01X2761488Y1299035D01*
G01X2760248Y1300874D01*
G01X2760039Y1301241D01*
G01X2760039Y1338407D01*
G01X2758950Y1346680D01*
G01X2755757Y1354389D01*
G01X2750677Y1361009D01*
G01X2733306Y1378380D01*
G01X2726686Y1383460D01*
G01X2718977Y1386653D01*
G01X2710704Y1387742D01*
G01X2691462Y1387742D01*
G01X2690541Y1388601D01*
G01X2689115Y1389919D01*
G01X2678161Y1397081D01*
G01X2665625Y1400841D01*
G01X2652537Y1400893D01*
G01X2639972Y1397231D01*
G01X2628962Y1390156D01*
G01X2620409Y1380249D01*
G01X2614113Y1390668D01*
G01X2605286Y1399051D01*
G01X2594557Y1404802D01*
G01X2582689Y1407510D01*
G01X2570527Y1406984D01*
G01X2558937Y1403261D01*
G01X2548744Y1396605D01*
G01X2539285Y1403372D01*
G01X2528422Y1407529D01*
G01X2516861Y1408806D01*
G01X2505353Y1407120D01*
G01X2494645Y1402580D01*
G01X2485431Y1395481D01*
G01X2477634Y1385028D01*
G01X2473110Y1372795D01*
G01X2461752Y1378399D01*
G01X2449294Y1380680D01*
G01X2436687Y1379466D01*
G01X2436687Y1421756D01*
G01X2509206Y1421756D01*
G01X2521110Y1420062D01*
G01X2528256Y1419045D01*
G01X2718255Y1419045D01*
G01X2728057Y1420994D01*
G01X2736367Y1426547D01*
G01X2741920Y1434857D01*
G01X2743869Y1444659D01*
G01X2743869Y1684658D01*
G01X2741920Y1694460D01*
G01X2736367Y1702770D01*
G01X2728057Y1708323D01*
G01X2718255Y1710272D01*
G01X2697620Y1710272D01*
G01X2699392Y1720319D01*
G01X2699472Y1722325D01*
G01X2699516Y1723580D01*
G01X2713037Y1737101D01*
G01X2935813Y1737101D01*
G01X2928055Y1726728D01*
G01X2923525Y1714592D01*
G01X2922588Y1701673D01*
G01X2925319Y1689011D01*
G01X2931499Y1677627D01*
G01X2940629Y1668439D01*
G01X2936891Y1662185D01*
G01X2934665Y1655246D01*
G01X2931397Y1651612D01*
G01X2924644Y1640134D01*
G01X2921492Y1627196D01*
G01X2922209Y1613899D01*
G01X2926735Y1601375D01*
G01X2934683Y1590690D01*
G01X2945377Y1582755D01*
G01X2957907Y1578245D01*
G01X2971205Y1577544D01*
G01X2984367Y1580814D01*
G01X2995986Y1587810D01*
G01X3005036Y1597911D01*
G01X3010716Y1610227D01*
G01X3012525Y1623668D01*
G01X3010303Y1637047D01*
G01X3046118Y1637047D01*
G01X3046118Y1295140D01*
G01X3047514Y1289933D01*
G01X3051325Y1286121D01*
G01X3056532Y1284726D01*
G01X3466882Y1284726D01*
G01X3466882Y1260844D01*
G01X3455875Y1253270D01*
G01X3447533Y1242832D01*
G01X3442573Y1230425D01*
G01X3441420Y1217114D01*
G01X3444174Y1204039D01*
G01X3450597Y1192322D01*
G01X3460138Y1182969D01*
G01X3471981Y1176781D01*
G01X3485108Y1174289D01*
G01X3498394Y1175707D01*
G01X3498394Y980836D01*
G01X3500344Y971034D01*
G01X3505897Y962724D01*
G01X3514206Y957172D01*
G01X3524008Y955222D01*
G01X3576976Y955222D01*
G01X3586778Y957172D01*
G01X3595088Y962724D01*
G01X3600640Y971034D01*
G01X3602590Y980836D01*
G01X3602590Y1810394D01*
G01X3602889Y1814294D01*
G01X3602889Y1855768D01*
G01X3600966Y1865506D01*
G01X3595486Y1873781D01*
G01X3590110Y1878066D01*
G01X3583788Y1880767D01*
G01X3576976Y1881689D01*
G01X3524008Y1881689D01*
G01X3520054Y1881382D01*
G01X2656874Y1881382D01*
G01X2665694Y1887482D01*
G01X2667224Y1888902D01*
G01X2668646Y1890232D01*
G01X2677595Y1893383D01*
G01X2685225Y1899021D01*
G01X2706191Y1919987D01*
G01X2711270Y1926607D01*
G01X2714464Y1934316D01*
G01X2715553Y1942589D01*
G01X2715553Y2200212D01*
G01X3110892Y2200212D01*
G01X3112654Y2185705D01*
G01X3117835Y2172042D01*
G01X3126136Y2160016D01*
G01X3137074Y2150326D01*
G01X3150013Y2143535D01*
G01X3164201Y2140038D01*
G01X3178814Y2140038D01*
G01X3193002Y2143535D01*
G01X3205941Y2150326D01*
G01X3216879Y2160016D01*
G01X3225180Y2172042D01*
G01X3230361Y2185705D01*
G01X3232123Y2200212D01*
G01X3230361Y2214718D01*
G01X3225180Y2228381D01*
G01X3216879Y2240407D01*
G01X3205941Y2250097D01*
G01X3193002Y2256888D01*
G01X3178814Y2260385D01*
G01X3164201Y2260385D01*
G01X3150013Y2256888D01*
G01X3137074Y2250097D01*
G01X3126136Y2240407D01*
G01X3117835Y2228381D01*
G01X3112654Y2214718D01*
G01X3110892Y2200212D01*
G01X3110892Y2200212D01*
G01X2715553Y2200212D01*
G01X2715553Y2426772D01*
G01X2714464Y2435045D01*
G01X2711270Y2442754D01*
G01X2706191Y2449374D01*
G01X2693579Y2461986D01*
G01X2686959Y2467066D01*
G01X2679250Y2470259D01*
G01X2670977Y2471348D01*
G01X2607725Y2471348D01*
G01X2607725Y2475679D01*
G01X2616470Y2478474D01*
G01X2623668Y2484174D01*
G01X2628394Y2492046D01*
G01X2630039Y2501079D01*
G01X2630039Y2555080D01*
G01X2629613Y2559733D01*
G01X2629613Y2573785D01*
G01X2632698Y2573599D01*
G01X2686697Y2573599D01*
G01X2692078Y2574170D01*
G01X2697218Y2575859D01*
G01X2771858Y2575859D01*
G01X2781660Y2577808D01*
G01X2789970Y2583361D01*
G01X2795522Y2591671D01*
G01X2797472Y2601473D01*
G01X2797472Y2655473D01*
G01X2795522Y2665275D01*
G01X2789970Y2673585D01*
G01X2781660Y2679137D01*
G01X2771858Y2681087D01*
G01X2712312Y2681087D01*
G01X2712312Y2691351D01*
G01X2714403Y2697009D01*
G01X2715113Y2702999D01*
G01X2715113Y2778214D01*
G01X3110892Y2778214D01*
G01X3112654Y2763708D01*
G01X3117835Y2750045D01*
G01X3126136Y2738019D01*
G01X3137074Y2728328D01*
G01X3150013Y2721538D01*
G01X3164201Y2718041D01*
G01X3178814Y2718041D01*
G01X3193002Y2721538D01*
G01X3205941Y2728328D01*
G01X3216879Y2738019D01*
G01X3225180Y2750045D01*
G01X3230361Y2763708D01*
G01X3232123Y2778214D01*
G01X3230361Y2792720D01*
G01X3225180Y2806383D01*
G01X3216879Y2818409D01*
G01X3205941Y2828099D01*
G01X3193002Y2834890D01*
G01X3178814Y2838387D01*
G01X3164201Y2838387D01*
G01X3150013Y2834890D01*
G01X3137074Y2828099D01*
G01X3126136Y2818409D01*
G01X3117835Y2806383D01*
G01X3112654Y2792720D01*
G01X3110892Y2778214D01*
G01X3110892Y2778214D01*
G01X2715113Y2778214D01*
G01X2715113Y2909158D01*
G01X2914640Y2909158D01*
G01X2914838Y2896043D01*
G01X2914838Y2896043D01*
G01X2918759Y2883526D01*
G01X2926079Y2872642D01*
G01X2936194Y2864291D01*
G01X2948266Y2859162D01*
G01X2961298Y2857680D01*
G01X2974214Y2859966D01*
G01X2985945Y2865833D01*
G01X2995523Y2874795D01*
G01X3002154Y2886112D01*
G01X3011801Y2871014D01*
G01X3024545Y2858419D01*
G01X3039756Y2848951D01*
G01X3056682Y2843076D01*
G01X3074488Y2841084D01*
G01X3164488Y2841084D01*
G01X3182427Y2843106D01*
G01X3199465Y2849068D01*
G01X3214750Y2858672D01*
G01X3227515Y2871436D01*
G01X3237119Y2886721D01*
G01X3243081Y2903760D01*
G01X3245102Y2921699D01*
G01X3244094Y2930648D01*
G01X3424358Y2930648D01*
G01X3424358Y2912749D01*
G01X3428079Y2895242D01*
G01X3435359Y2878891D01*
G01X3445879Y2864412D01*
G01X3459180Y2852435D01*
G01X3474680Y2843486D01*
G01X3491703Y2837955D01*
G01X3509503Y2836084D01*
G01X3509503Y2836084D01*
G01X3569503Y2836084D01*
G01X3587303Y2837955D01*
G01X3604325Y2843486D01*
G01X3619825Y2852435D01*
G01X3633126Y2864412D01*
G01X3643647Y2878891D01*
G01X3650926Y2895242D01*
G01X3654648Y2912749D01*
G01X3654648Y2930648D01*
G01X3650926Y2948155D01*
G01X3643647Y2964506D01*
G01X3633126Y2978985D01*
G01X3619825Y2990962D01*
G01X3604325Y2999911D01*
G01X3587303Y3005442D01*
G01X3569503Y3007313D01*
G01X3509503Y3007313D01*
G01X3491703Y3005442D01*
G01X3474680Y2999911D01*
G01X3459180Y2990962D01*
G01X3445879Y2978985D01*
G01X3435359Y2964506D01*
G01X3428079Y2948155D01*
G01X3424358Y2930648D01*
G01X3244094Y2930648D01*
G01X3243081Y2939637D01*
G01X3237119Y2956676D01*
G01X3227515Y2971961D01*
G01X3214750Y2984725D01*
G01X3199465Y2994329D01*
G01X3182427Y3000291D01*
G01X3164488Y3002313D01*
G01X3074488Y3002313D01*
G01X3058109Y3000631D01*
G01X3042413Y2995656D01*
G01X3028055Y2987596D01*
G01X3015634Y2976787D01*
G01X3005668Y2963680D01*
G01X2998574Y2948821D01*
G01X2994647Y2932831D01*
G01X2984803Y2941500D01*
G01X2972900Y2947010D01*
G01X2959921Y2948906D01*
G01X2946940Y2947031D01*
G01X2935028Y2941540D01*
G01X2925170Y2932887D01*
G01X2918182Y2921787D01*
G01X2914640Y2909158D01*
G01X2715113Y2909158D01*
G01X2715113Y3206689D01*
G01X3055783Y3206689D01*
G01X3057631Y3193835D01*
G01X3063026Y3182023D01*
G01X3071530Y3172209D01*
G01X3082454Y3165188D01*
G01X3094914Y3161529D01*
G01X3107900Y3161529D01*
G01X3120360Y3165188D01*
G01X3131285Y3172209D01*
G01X3139789Y3182023D01*
G01X3145183Y3193835D01*
G01X3147031Y3206689D01*
G01X3145183Y3219543D01*
G01X3139789Y3231355D01*
G01X3131285Y3241169D01*
G01X3120360Y3248190D01*
G01X3107900Y3251849D01*
G01X3094914Y3251849D01*
G01X3082454Y3248190D01*
G01X3071530Y3241169D01*
G01X3063026Y3231355D01*
G01X3057631Y3219543D01*
G01X3055783Y3206689D01*
G01X3055783Y3206689D01*
G01X2715113Y3206689D01*
G01X2715113Y3392300D01*
G01X2851709Y3392300D01*
G01X2861511Y3394250D01*
G01X2869821Y3399803D01*
G01X2875374Y3408112D01*
G01X2877323Y3417914D01*
G01X2877323Y3425000D01*
G01X3126386Y3425000D01*
G01X3128276Y3391342D01*
G01X3133923Y3358107D01*
G01X3143255Y3325713D01*
G01X3156156Y3294568D01*
G01X3172463Y3265064D01*
G01X3191970Y3237570D01*
G01X3214434Y3212434D01*
G01X3239570Y3189970D01*
G01X3267064Y3170463D01*
G01X3296568Y3154156D01*
G01X3327713Y3141255D01*
G01X3360107Y3131923D01*
G01X3393342Y3126276D01*
G01X3427000Y3124386D01*
G01X3460658Y3126276D01*
G01X3493893Y3131923D01*
G01X3526287Y3141255D01*
G01X3557432Y3154156D01*
G01X3586936Y3170463D01*
G01X3614430Y3189970D01*
G01X3639566Y3212434D01*
G01X3662030Y3237570D01*
G01X3681537Y3265064D01*
G01X3697844Y3294568D01*
G01X3710745Y3325713D01*
G01X3720077Y3358107D01*
G01X3725724Y3391342D01*
G01X3727614Y3425000D01*
G01X3725724Y3458658D01*
G01X3720077Y3491893D01*
G01X3710745Y3524287D01*
G01X3697844Y3555432D01*
G01X3681537Y3584936D01*
G01X3662030Y3612430D01*
G01X3639566Y3637566D01*
G01X3614430Y3660030D01*
G01X3586936Y3679537D01*
G01X3557432Y3695844D01*
G01X3526287Y3708745D01*
G01X3493893Y3718077D01*
G01X3460658Y3723724D01*
G01X3427000Y3725614D01*
G01X3393342Y3723724D01*
G01X3360107Y3718077D01*
G01X3327713Y3708745D01*
G01X3296568Y3695844D01*
G01X3267064Y3679537D01*
G01X3239570Y3660030D01*
G01X3214434Y3637566D01*
G01X3191970Y3612430D01*
G01X3172463Y3584936D01*
G01X3156156Y3555432D01*
G01X3143255Y3524287D01*
G01X3133923Y3491893D01*
G01X3128276Y3458658D01*
G01X3126386Y3425000D01*
G01X3126386Y3425000D01*
G01X2877323Y3425000D01*
G01X2877323Y3489877D01*
G01X2877709Y3494303D01*
G01X2877709Y3640289D01*
G01X2877769Y3642922D01*
G01X2877769Y3706422D01*
G01X2875815Y3721269D01*
G01X2870084Y3735104D01*
G01X2860968Y3746984D01*
G01X2849087Y3756101D01*
G01X2835252Y3761831D01*
G01X2820405Y3763786D01*
G01X2756905Y3763786D01*
G01X2742058Y3761831D01*
G01X2728223Y3756101D01*
G01X2716343Y3746984D01*
G01X2707226Y3735104D01*
G01X2701496Y3721269D01*
G01X2699541Y3706422D01*
G01X2699541Y3642922D01*
G01X2699671Y3639058D01*
G01X2699671Y3570231D01*
G01X2697800Y3570231D01*
G01X2689499Y3571613D01*
G01X2563812Y3571613D01*
G01X2576323Y3584124D01*
G01X2578661Y3585558D01*
G01X2639677Y3585558D01*
G01X2654524Y3587512D01*
G01X2668359Y3593243D01*
G01X2680240Y3602359D01*
G01X2689356Y3614240D01*
G01X2695087Y3628075D01*
G01X2697041Y3642922D01*
G01X2697041Y3706422D01*
G01X2695087Y3721269D01*
G01X2689356Y3735104D01*
G01X2680240Y3746984D01*
G01X2668359Y3756101D01*
G01X2654524Y3761831D01*
G01X2639677Y3763786D01*
G01X2576177Y3763786D01*
G01X2561330Y3761831D01*
G01X2547495Y3756101D01*
G01X2535615Y3746984D01*
G01X2526498Y3735104D01*
G01X2520768Y3721269D01*
G01X2518813Y3706422D01*
G01X2518813Y3642922D01*
G01X2519884Y3631888D01*
G01X2523058Y3621267D01*
G01X2474955Y3573164D01*
G01X2470809Y3568061D01*
G01X2467794Y3562219D01*
G01X2463415Y3557904D01*
G01X2458195Y3550667D01*
G01X2458195Y3585558D01*
G01X2458950Y3585558D01*
G01X2473797Y3587512D01*
G01X2487632Y3593243D01*
G01X2499512Y3602359D01*
G01X2508628Y3614240D01*
G01X2514359Y3628075D01*
G01X2516314Y3642922D01*
G01X2516314Y3706422D01*
G01X2514359Y3721269D01*
G01X2508628Y3735104D01*
G01X2499512Y3746984D01*
G01X2487632Y3756101D01*
G01X2473797Y3761831D01*
G01X2458950Y3763786D01*
G01X2395450Y3763786D01*
G01X2380603Y3761831D01*
G01X2366768Y3756101D01*
G01X2354887Y3746984D01*
G01X2345771Y3735104D01*
G01X2340040Y3721269D01*
G01X2338085Y3706422D01*
G01X2338085Y3642922D01*
G01X2339989Y3628265D01*
G01X2345575Y3614582D01*
G01X2354471Y3602780D01*
G01X2366087Y3593642D01*
G01X2379653Y3587776D01*
G01X2394267Y3585570D01*
G01X2394267Y3545620D01*
G01X2393408Y3544699D01*
G01X2392089Y3543273D01*
G01X2384972Y3532416D01*
G01X2381192Y3519996D01*
G01X2381056Y3507015D01*
G01X2384573Y3494518D01*
G01X2391461Y3483513D01*
G01X2401164Y3474888D01*
G01X2412888Y3469380D01*
G01X2425688Y3467388D01*
G01X2438531Y3469074D01*
G01X2450383Y3474302D01*
G01X2460288Y3482650D01*
G01X2467448Y3493445D01*
G01X2476462Y3487238D01*
G01X2486694Y3483354D01*
G01X2497557Y3482015D01*
G01X2510329Y3483871D01*
G01X2522072Y3489226D01*
G01X2522072Y3417914D01*
G01X2522885Y3411513D01*
G01X2522885Y3222095D01*
G01X2521686Y3214349D01*
G01X2521686Y3079348D01*
G01X2522885Y3071603D01*
G01X2522885Y3032970D01*
G01X2521686Y3025225D01*
G01X2521686Y2937741D01*
G01X2416581Y2937741D01*
G01X2407341Y2938514D01*
G01X2287341Y2938514D01*
G01X2272947Y2936619D01*
G01X2259534Y2931063D01*
G01X2248016Y2922225D01*
G01X2239178Y2910707D01*
G01X2233622Y2897294D01*
G01X2231727Y2882900D01*
G01X2233622Y2868506D01*
G01X2239178Y2855093D01*
G01X2248016Y2843575D01*
G01X2259534Y2834737D01*
G01X2272947Y2829181D01*
G01X2287341Y2827286D01*
G01X2309547Y2827286D01*
G01X2313179Y2827027D01*
G01X2521686Y2827027D01*
G01X2521686Y2701100D01*
G01X2523368Y2691970D01*
G01X2528193Y2684040D01*
G01X2535528Y2678351D01*
G01X2528907Y2673131D01*
G01X2523340Y2664814D01*
G01X2521385Y2654999D01*
G01X2521385Y2619070D01*
G01X2508921Y2622749D01*
G01X2495926Y2622764D01*
G01X2483453Y2619114D01*
G01X2472515Y2612096D01*
G01X2464000Y2602280D01*
G01X2458598Y2590460D01*
G01X2456747Y2577597D01*
G01X2458598Y2564734D01*
G01X2464000Y2552915D01*
G01X2472515Y2543098D01*
G01X2483453Y2536080D01*
G01X2495926Y2532431D01*
G01X2508921Y2532446D01*
G01X2521385Y2536124D01*
G01X2521385Y2522142D01*
G01X2508280Y2522227D01*
G01X2495691Y2518583D01*
G01X2484658Y2511510D01*
G01X2476090Y2501593D01*
G01X2470695Y2489649D01*
G01X2468918Y2476664D01*
G01X2470906Y2463710D01*
G01X2476494Y2451856D01*
G01X2485221Y2442079D01*
G01X2496368Y2435186D01*
G01X2509014Y2431747D01*
G01X2522116Y2432044D01*
G01X2534594Y2436054D01*
G01X2545416Y2443445D01*
G01X2548553Y2436714D01*
G01X2553159Y2430888D01*
G01X2567265Y2416782D01*
G01X2573885Y2411703D01*
G01X2581594Y2408509D01*
G01X2589867Y2407420D01*
G01X2651625Y2407420D01*
G01X2651625Y2391192D01*
G01X2639240Y2394516D01*
G01X2626419Y2394262D01*
G01X2614175Y2390450D01*
G01X2603476Y2383382D01*
G01X2595166Y2373616D01*
G01X2589902Y2361923D01*
G01X2588100Y2349227D01*
G01X2589902Y2336531D01*
G01X2595166Y2324838D01*
G01X2603476Y2315071D01*
G01X2614175Y2308003D01*
G01X2626419Y2304191D01*
G01X2639240Y2303937D01*
G01X2651625Y2307261D01*
G01X2651625Y2167695D01*
G01X2639063Y2171905D01*
G01X2625821Y2172329D01*
G01X2613016Y2168930D01*
G01X2601728Y2161995D01*
G01X2592907Y2152110D01*
G01X2587299Y2140107D01*
G01X2585375Y2126999D01*
G01X2587299Y2113891D01*
G01X2592907Y2101889D01*
G01X2601728Y2092003D01*
G01X2613016Y2085069D01*
G01X2625821Y2081670D01*
G01X2639063Y2082093D01*
G01X2651625Y2086303D01*
G01X2651625Y1964236D01*
G01X2639386Y1967017D01*
G01X2626853Y1966361D01*
G01X2614971Y1962320D01*
G01X2604638Y1955197D01*
G01X2596633Y1945531D01*
G01X2591561Y1934051D01*
G01X2589806Y1921624D01*
G01X2591494Y1909435D01*
G01X2596375Y1898140D01*
G01X2604093Y1888557D01*
G01X2614090Y1881382D01*
G01X1068248Y1881382D01*
G01X1072898Y1889547D01*
G01X1075780Y1898491D01*
G01X1076770Y1907836D01*
G01X1074877Y1920734D01*
G01X1069418Y1932571D01*
G01X1060837Y1942385D01*
G01X1049834Y1949375D01*
G01X1037304Y1952972D01*
G01X1024269Y1952884D01*
G01X1011789Y1949116D01*
G01X1000882Y1941977D01*
G01X999456Y1940658D01*
G01X998535Y1939800D01*
G01X936224Y1939800D01*
G01X927951Y1938711D01*
G01X920242Y1935518D01*
G01X913622Y1930438D01*
G01X908833Y1925649D01*
G01X908833Y1938353D01*
G01X943443Y1972962D01*
G01X1448375Y1972962D01*
G01X1450224Y1960108D01*
G01X1455618Y1948296D01*
G01X1464122Y1938482D01*
G01X1475047Y1931461D01*
G01X1487507Y1927802D01*
G01X1500493Y1927802D01*
G01X1512952Y1931461D01*
G01X1523877Y1938482D01*
G01X1532381Y1948296D01*
G01X1537776Y1960108D01*
G01X1539624Y1972962D01*
G01X1537776Y1985816D01*
G01X1532381Y1997628D01*
G01X1523877Y2007442D01*
G01X1512952Y2014463D01*
G01X1500493Y2018122D01*
G01X1487507Y2018122D01*
G01X1475047Y2014463D01*
G01X1464122Y2007442D01*
G01X1455618Y1997628D01*
G01X1450224Y1985816D01*
G01X1448375Y1972962D01*
G01X1448375Y1972962D01*
G01X943443Y1972962D01*
G01X961325Y1990844D01*
G01X1014388Y1990844D01*
G01X1015310Y1989986D01*
G01X1016735Y1988667D01*
G01X1027643Y1981528D01*
G01X1040122Y1977761D01*
G01X1053158Y1977672D01*
G01X1065688Y1981269D01*
G01X1076691Y1988259D01*
G01X1085272Y1998073D01*
G01X1090731Y2009911D01*
G01X1092624Y2022809D01*
G01X1092063Y2029826D01*
G01X1104942Y2029984D01*
G01X1117264Y2033731D01*
G01X1128050Y2040768D01*
G01X1136443Y2050537D01*
G01X1141776Y2062260D01*
G01X1143624Y2075006D01*
G01X1141731Y2087904D01*
G01X1136272Y2099741D01*
G01X1127691Y2109555D01*
G01X1116688Y2116545D01*
G01X1104158Y2120142D01*
G01X1091122Y2120054D01*
G01X1078643Y2116286D01*
G01X1067735Y2109147D01*
G01X1066310Y2107829D01*
G01X1065388Y2106970D01*
G01X959006Y2106970D01*
G01X950734Y2105881D01*
G01X943024Y2102688D01*
G01X936404Y2097608D01*
G01X823398Y1984601D01*
G01X818318Y1977981D01*
G01X815125Y1970272D01*
G01X814036Y1961999D01*
G01X814036Y1714239D01*
G01X814036Y1714239D01*
G01X808760Y1708964D01*
G01X396208Y1708964D01*
G01X387935Y1707874D01*
G01X380226Y1704681D01*
G01X373606Y1699601D01*
G01X313063Y1639058D01*
G01X304072Y1648414D01*
G01X292811Y1654860D01*
G01X280191Y1657875D01*
G01X267233Y1657216D01*
G01X254984Y1652936D01*
G01X244435Y1645381D01*
G01X236440Y1635161D01*
G01X231645Y1623105D01*
G01X230438Y1610186D01*
G01X27614Y1610186D01*
G01X27614Y2459271D01*
G01X32191Y2458859D01*
G01X274283Y2458859D01*
G01X274283Y2330057D01*
G01X264795Y2320569D01*
G01X208313Y2320569D01*
G01X206197Y2335275D01*
G01X200380Y2348947D01*
G01X191252Y2360671D01*
G01X179423Y2369662D01*
G01X165684Y2375319D01*
G01X150954Y2377264D01*
G01X87454Y2377264D01*
G01X72607Y2375309D01*
G01X58772Y2369579D01*
G01X46891Y2360462D01*
G01X37775Y2348582D01*
G01X32044Y2334747D01*
G01X30090Y2319900D01*
G01X30090Y2256400D01*
G01X32044Y2241553D01*
G01X37775Y2227718D01*
G01X46891Y2215837D01*
G01X58772Y2206721D01*
G01X72607Y2200990D01*
G01X87454Y2199036D01*
G01X150954Y2199036D01*
G01X165801Y2200990D01*
G01X179636Y2206721D01*
G01X191516Y2215837D01*
G01X200633Y2227718D01*
G01X206363Y2241553D01*
G01X208318Y2256400D01*
G01X208318Y2256654D01*
G01X278035Y2256640D01*
G01X286308Y2257730D01*
G01X294017Y2260923D01*
G01X300637Y2266002D01*
G01X302593Y2267958D01*
G01X302593Y2140898D01*
G01X293595Y2131900D01*
G01X208318Y2131900D01*
G01X208318Y2136411D01*
G01X206363Y2151258D01*
G01X200633Y2165093D01*
G01X191516Y2176974D01*
G01X179636Y2186090D01*
G01X165801Y2191821D01*
G01X150954Y2193775D01*
G01X87454Y2193775D01*
G01X72607Y2191821D01*
G01X58772Y2186090D01*
G01X46891Y2176974D01*
G01X37775Y2165093D01*
G01X32044Y2151258D01*
G01X30090Y2136411D01*
G01X30090Y2072911D01*
G01X32044Y2058064D01*
G01X37775Y2044229D01*
G01X46891Y2032348D01*
G01X58772Y2023232D01*
G01X72607Y2017502D01*
G01X87454Y2015547D01*
G01X150954Y2015547D01*
G01X165003Y2017294D01*
G01X178197Y2022429D01*
G01X189731Y2030638D01*
G01X198903Y2041423D01*
G01X205155Y2054125D01*
G01X208105Y2067972D01*
G01X296768Y2067972D01*
G01X296768Y1957703D01*
G01X293452Y1954386D01*
G01X208299Y1954386D01*
G01X206035Y1968944D01*
G01X200137Y1982445D01*
G01X190995Y1993999D01*
G01X179212Y2002843D01*
G01X165565Y2008394D01*
G01X150954Y2010286D01*
G01X87454Y2010286D01*
G01X72607Y2008331D01*
G01X58772Y2002601D01*
G01X46891Y1993484D01*
G01X37775Y1981604D01*
G01X32044Y1967769D01*
G01X30090Y1952922D01*
G01X30090Y1889422D01*
G01X32044Y1874575D01*
G01X37775Y1860740D01*
G01X46891Y1848859D01*
G01X58772Y1839743D01*
G01X72607Y1834012D01*
G01X87454Y1832058D01*
G01X150954Y1832058D01*
G01X165801Y1834012D01*
G01X179636Y1839743D01*
G01X191516Y1848859D01*
G01X193197Y1851050D01*
G01X485209Y1851050D01*
G01X487058Y1838196D01*
G01X492452Y1826384D01*
G01X500956Y1816569D01*
G01X511881Y1809549D01*
G01X524341Y1805890D01*
G01X537327Y1805890D01*
G01X549787Y1809549D01*
G01X560711Y1816569D01*
G01X569215Y1826384D01*
G01X574610Y1838196D01*
G01X576458Y1851050D01*
G01X574610Y1863904D01*
G01X569215Y1875716D01*
G01X560711Y1885530D01*
G01X549787Y1892551D01*
G01X537327Y1896210D01*
G01X524341Y1896210D01*
G01X511881Y1892551D01*
G01X500956Y1885530D01*
G01X492452Y1875716D01*
G01X487058Y1863904D01*
G01X485209Y1851050D01*
G01X485209Y1851050D01*
G01X193197Y1851050D01*
G01X200633Y1860740D01*
G01X206363Y1874575D01*
G01X208318Y1889422D01*
G01X208318Y1890458D01*
G01X306692Y1890458D01*
G01X314965Y1891547D01*
G01X322674Y1894741D01*
G01X329294Y1899820D01*
G01X351335Y1921861D01*
G01X356414Y1928481D01*
G01X359607Y1936190D01*
G01X360697Y1944463D01*
G01X360697Y1962596D01*
G01X372723Y1960479D01*
G01X384881Y1961629D01*
G01X396298Y1965962D01*
G01X406156Y1973168D01*
G01X413751Y1982731D01*
G01X418536Y1993965D01*
G01X420170Y2006067D01*
G01X418536Y2018169D01*
G01X413751Y2029404D01*
G01X406156Y2038966D01*
G01X396298Y2046173D01*
G01X384881Y2050505D01*
G01X372723Y2051655D01*
G01X360697Y2049538D01*
G01X360697Y2066112D01*
G01X364801Y2070217D01*
G01X588906Y2070217D01*
G01X589322Y2065619D01*
G01X589322Y1876341D01*
G01X591272Y1866539D01*
G01X596824Y1858229D01*
G01X605134Y1852677D01*
G01X614936Y1850727D01*
G01X707006Y1850727D01*
G01X716808Y1852677D01*
G01X725118Y1858229D01*
G01X730670Y1866539D01*
G01X732620Y1876341D01*
G01X732620Y2044603D01*
G01X864519Y2044603D01*
G01X874322Y2046552D01*
G01X882631Y2052105D01*
G01X888184Y2060415D01*
G01X890134Y2070217D01*
G01X890134Y2349777D01*
G01X890223Y2351918D01*
G01X890223Y2529966D01*
G01X1046713Y2529966D01*
G01X1039148Y2522401D01*
G01X1034068Y2515781D01*
G01X1030875Y2508072D01*
G01X1029786Y2499799D01*
G01X1029786Y2225947D01*
G01X1021687Y2215220D01*
G01X1017065Y2202600D01*
G01X1016321Y2189180D01*
G01X1019519Y2176125D01*
G01X1026383Y2164569D01*
G01X1036316Y2155514D01*
G01X1048456Y2149747D01*
G01X1061750Y2147767D01*
G01X1075044Y2149747D01*
G01X1087184Y2155514D01*
G01X1097117Y2164569D01*
G01X1103981Y2176125D01*
G01X1107179Y2189180D01*
G01X1106435Y2202600D01*
G01X1101813Y2215220D01*
G01X1093714Y2225947D01*
G01X1093714Y2453928D01*
G01X1099310Y2453928D01*
G01X1101158Y2441074D01*
G01X1106553Y2429262D01*
G01X1115057Y2419448D01*
G01X1125982Y2412427D01*
G01X1138441Y2408768D01*
G01X1151427Y2408768D01*
G01X1163887Y2412427D01*
G01X1174812Y2419448D01*
G01X1183316Y2429262D01*
G01X1188710Y2441074D01*
G01X1190559Y2453928D01*
G01X1190377Y2455190D01*
G01X1441407Y2455190D01*
G01X1443255Y2442336D01*
G01X1448650Y2430524D01*
G01X1457154Y2420710D01*
G01X1468078Y2413689D01*
G01X1480538Y2410030D01*
G01X1493524Y2410030D01*
G01X1505984Y2413689D01*
G01X1516909Y2420710D01*
G01X1525413Y2430524D01*
G01X1530807Y2442336D01*
G01X1532655Y2455190D01*
G01X1530807Y2468044D01*
G01X1525413Y2479856D01*
G01X1516909Y2489671D01*
G01X1505984Y2496691D01*
G01X1493524Y2500350D01*
G01X1480538Y2500350D01*
G01X1468078Y2496691D01*
G01X1457154Y2489671D01*
G01X1448650Y2479856D01*
G01X1443255Y2468044D01*
G01X1441407Y2455190D01*
G01X1441407Y2455190D01*
G01X1190377Y2455190D01*
G01X1188710Y2466782D01*
G01X1183316Y2478594D01*
G01X1174812Y2488408D01*
G01X1163887Y2495429D01*
G01X1151427Y2499088D01*
G01X1138441Y2499088D01*
G01X1125982Y2495429D01*
G01X1115057Y2488408D01*
G01X1106553Y2478594D01*
G01X1101158Y2466782D01*
G01X1099310Y2453928D01*
G01X1099310Y2453928D01*
G01X1093714Y2453928D01*
G01X1093714Y2486559D01*
G01X1137121Y2529966D01*
G01X1410677Y2529966D01*
G01X1417941Y2522132D01*
G01X1426827Y2516200D01*
G01X1436848Y2512494D01*
G01X1447456Y2511218D01*
G01X1458063Y2512494D01*
G01X1468084Y2516200D01*
G01X1476970Y2522132D01*
G01X1484234Y2529966D01*
G01X1555260Y2529966D01*
G01X1560467Y2531361D01*
G01X1564279Y2535173D01*
G01X1565674Y2540380D01*
G01X1565674Y2591539D01*
G01X1582158Y2591539D01*
G01X1583079Y2590680D01*
G01X1584505Y2589361D01*
G01X1594608Y2582607D01*
G01X1606136Y2578756D01*
G01X1618270Y2578081D01*
G01X1630154Y2580630D01*
G01X1640944Y2586223D01*
G01X1649877Y2594463D01*
G01X1656322Y2604767D01*
G01X1659820Y2616406D01*
G01X1667083Y2615471D01*
G01X1674402Y2615709D01*
G01X1674402Y2532632D01*
G01X1675786Y2522120D01*
G01X1679843Y2512325D01*
G01X1686297Y2503913D01*
G01X1708157Y2482053D01*
G01X1706083Y2473740D01*
G01X1705385Y2465201D01*
G01X1705385Y2347235D01*
G01X1659008Y2347235D01*
G01X1649206Y2345285D01*
G01X1640896Y2339732D01*
G01X1635344Y2331423D01*
G01X1633394Y2321620D01*
G01X1633394Y2121621D01*
G01X1635344Y2111819D01*
G01X1640896Y2103509D01*
G01X1649206Y2097956D01*
G01X1659008Y2096007D01*
G01X1854538Y2096007D01*
G01X1848948Y2084566D01*
G01X1846737Y2072025D01*
G01X1848078Y2059362D01*
G01X1852866Y2047563D01*
G01X1860729Y2037547D01*
G01X1871054Y2030094D01*
G01X1883037Y2025785D01*
G01X1895743Y2024955D01*
G01X1908185Y2027670D01*
G01X1919391Y2033717D01*
G01X1928490Y2042625D01*
G01X1934772Y2053702D01*
G01X1937993Y2040730D01*
G01X1944835Y2029248D01*
G01X1954711Y2020241D01*
G01X1966773Y2014483D01*
G01X1979986Y2012468D01*
G01X1993217Y2014369D01*
G01X2005328Y2020022D01*
G01X2015282Y2028942D01*
G01X2022815Y2018463D01*
G01X2032981Y2010513D01*
G01X2044966Y2005727D01*
G01X2057812Y2004489D01*
G01X2070491Y2006897D01*
G01X2081988Y2012760D01*
G01X2091383Y2021608D01*
G01X2097925Y2032732D01*
G01X2101091Y2045244D01*
G01X2100625Y2058141D01*
G01X2096567Y2070392D01*
G01X2089241Y2081017D01*
G01X2079233Y2089165D01*
G01X2067344Y2094184D01*
G01X2054524Y2095673D01*
G01X2041801Y2093513D01*
G01X2030191Y2087877D01*
G01X2020624Y2079215D01*
G01X2013037Y2089750D01*
G01X2002789Y2097722D01*
G01X1990711Y2102485D01*
G01X1977780Y2103653D01*
G01X1965044Y2101131D01*
G01X1953534Y2095124D01*
G01X1944183Y2086118D01*
G01X1937746Y2074842D01*
G01X1934814Y2087094D01*
G01X1928644Y2098077D01*
G01X1919704Y2106954D01*
G01X1908678Y2113048D01*
G01X1896406Y2115894D01*
G01X1883824Y2115275D01*
G01X1884622Y2121621D01*
G01X1884622Y2186362D01*
G01X1896322Y2180751D01*
G01X1909129Y2178661D01*
G01X1922006Y2180260D01*
G01X1933912Y2185420D01*
G01X1943884Y2193723D01*
G01X1951115Y2204498D01*
G01X1955020Y2216873D01*
G01X1967525Y2219411D01*
G01X1978837Y2225314D01*
G01X1988072Y2234118D01*
G01X1994509Y2245135D01*
G01X1997643Y2257503D01*
G01X1997229Y2270256D01*
G01X1993300Y2282396D01*
G01X1986162Y2292972D01*
G01X1976544Y2301018D01*
G01X2014612Y2301018D01*
G01X2016460Y2288164D01*
G01X2021855Y2276352D01*
G01X2030359Y2266538D01*
G01X2041283Y2259517D01*
G01X2053743Y2255858D01*
G01X2066729Y2255858D01*
G01X2079189Y2259517D01*
G01X2090114Y2266538D01*
G01X2098618Y2276352D01*
G01X2104012Y2288164D01*
G01X2105860Y2301018D01*
G01X2104012Y2313872D01*
G01X2098618Y2325684D01*
G01X2090114Y2335498D01*
G01X2079189Y2342519D01*
G01X2066729Y2346178D01*
G01X2053743Y2346178D01*
G01X2041283Y2342519D01*
G01X2030359Y2335498D01*
G01X2021855Y2325684D01*
G01X2016460Y2313872D01*
G01X2014612Y2301018D01*
G01X2014612Y2301018D01*
G01X1976544Y2301018D01*
G01X1976376Y2301159D01*
G01X1964704Y2306315D01*
G01X1952062Y2308038D01*
G01X1939436Y2306192D01*
G01X1927816Y2300923D01*
G01X1918109Y2292641D01*
G01X1911075Y2281996D01*
G01X1907264Y2269818D01*
G01X1895435Y2267513D01*
G01X1884622Y2262191D01*
G01X1884622Y2321620D01*
G01X1882672Y2331423D01*
G01X1877120Y2339732D01*
G01X1868810Y2345285D01*
G01X1859008Y2347235D01*
G01X1810614Y2347235D01*
G01X1810614Y2443407D01*
G01X1813591Y2446385D01*
G01X2105999Y2446385D01*
G01X2119617Y2448178D01*
G01X2132306Y2453434D01*
G01X2143203Y2461795D01*
G01X2174512Y2493105D01*
G01X2182874Y2504001D01*
G01X2188130Y2516691D01*
G01X2189922Y2530308D01*
G01X2189922Y2550886D01*
G01X2292911Y2550886D01*
G01X2289572Y2538464D01*
G01X2289834Y2525603D01*
G01X2293674Y2513327D01*
G01X2300788Y2502610D01*
G01X2310611Y2494305D01*
G01X2322361Y2489072D01*
G01X2335105Y2487327D01*
G01X2347830Y2489208D01*
G01X2359524Y2494566D01*
G01X2369258Y2502975D01*
G01X2376257Y2513767D01*
G01X2379967Y2526084D01*
G01X2380091Y2538946D01*
G01X2376620Y2551332D01*
G01X2369829Y2562257D01*
G01X2360260Y2570852D01*
G01X2384545Y2595137D01*
G01X2392906Y2606034D01*
G01X2398162Y2618723D01*
G01X2399955Y2632341D01*
G01X2399955Y2700286D01*
G01X2407341Y2700286D01*
G01X2421735Y2702181D01*
G01X2435148Y2707737D01*
G01X2446666Y2716575D01*
G01X2455504Y2728093D01*
G01X2461060Y2741506D01*
G01X2462955Y2755900D01*
G01X2461060Y2770294D01*
G01X2455504Y2783707D01*
G01X2446666Y2795225D01*
G01X2435148Y2804063D01*
G01X2421735Y2809619D01*
G01X2407341Y2811514D01*
G01X2287341Y2811514D01*
G01X2272947Y2809619D01*
G01X2259534Y2804063D01*
G01X2248016Y2795225D01*
G01X2239178Y2783707D01*
G01X2233622Y2770294D01*
G01X2231727Y2755900D01*
G01X2233622Y2741506D01*
G01X2239178Y2728093D01*
G01X2248016Y2716575D01*
G01X2259534Y2707737D01*
G01X2272947Y2702181D01*
G01X2287341Y2700286D01*
G01X2294727Y2700286D01*
G01X2294727Y2656114D01*
G01X2206721Y2656114D01*
G01X2214200Y2666967D01*
G01X2218265Y2679504D01*
G01X2218577Y2692680D01*
G01X2215109Y2705396D01*
G01X2208151Y2716589D01*
G01X2198283Y2725327D01*
G01X2186330Y2730879D01*
G01X2173288Y2732783D01*
G01X2160246Y2730879D01*
G01X2148293Y2725327D01*
G01X2138425Y2716590D01*
G01X2131467Y2705396D01*
G01X2127999Y2692680D01*
G01X2128311Y2679504D01*
G01X2132376Y2666967D01*
G01X2139855Y2656114D01*
G01X2097804Y2656114D01*
G01X2089919Y2654871D01*
G01X2082800Y2651260D01*
G01X2075681Y2654871D01*
G01X2067796Y2656114D01*
G01X1988673Y2656114D01*
G01X1846614Y2656114D01*
G01X1846614Y2700286D01*
G01X1852859Y2700286D01*
G01X1867253Y2702181D01*
G01X1880666Y2707737D01*
G01X1892184Y2716575D01*
G01X1901022Y2728093D01*
G01X1906578Y2741506D01*
G01X1908473Y2755900D01*
G01X1906578Y2770294D01*
G01X1901022Y2783707D01*
G01X1892184Y2795225D01*
G01X1880666Y2804063D01*
G01X1867253Y2809619D01*
G01X1852859Y2811514D01*
G01X1732859Y2811514D01*
G01X1719347Y2809848D01*
G01X1706644Y2804948D01*
G01X1695513Y2797109D01*
G01X1686619Y2786800D01*
G01X1680497Y2774639D01*
G01X1677513Y2761356D01*
G01X1677846Y2747745D01*
G01X1664065Y2747745D01*
G01X1664065Y2882900D01*
G01X1677245Y2882900D01*
G01X1679140Y2868506D01*
G01X1684696Y2855093D01*
G01X1693534Y2843575D01*
G01X1705052Y2834737D01*
G01X1718465Y2829181D01*
G01X1732859Y2827286D01*
G01X1732859Y2827286D01*
G01X1852859Y2827286D01*
G01X1867253Y2829181D01*
G01X1880666Y2834737D01*
G01X1892184Y2843575D01*
G01X1901022Y2855093D01*
G01X1906578Y2868506D01*
G01X1908473Y2882900D01*
G01X1906578Y2897294D01*
G01X1901022Y2910707D01*
G01X1892184Y2922225D01*
G01X1880666Y2931063D01*
G01X1867253Y2936619D01*
G01X1852859Y2938514D01*
G01X1732859Y2938514D01*
G01X1718465Y2936619D01*
G01X1705052Y2931063D01*
G01X1693534Y2922225D01*
G01X1684696Y2910707D01*
G01X1679140Y2897294D01*
G01X1677245Y2882900D01*
G01X1664065Y2882900D01*
G01X1664065Y3009900D01*
G01X1677245Y3009900D01*
G01X1679140Y2995506D01*
G01X1684696Y2982093D01*
G01X1693534Y2970575D01*
G01X1705052Y2961737D01*
G01X1718465Y2956181D01*
G01X1732859Y2954286D01*
G01X1732859Y2954286D01*
G01X1852859Y2954286D01*
G01X1867253Y2956181D01*
G01X1880666Y2961737D01*
G01X1892184Y2970575D01*
G01X1901022Y2982093D01*
G01X1906578Y2995506D01*
G01X1908473Y3009900D01*
G01X1906578Y3024294D01*
G01X1901022Y3037707D01*
G01X1892184Y3049225D01*
G01X1880666Y3058063D01*
G01X1867253Y3063619D01*
G01X1852859Y3065514D01*
G01X1732859Y3065514D01*
G01X1718465Y3063619D01*
G01X1705052Y3058063D01*
G01X1693534Y3049225D01*
G01X1684696Y3037707D01*
G01X1679140Y3024294D01*
G01X1677245Y3009900D01*
G01X1664065Y3009900D01*
G01X1664065Y3051200D01*
G01X1662115Y3061003D01*
G01X1656563Y3069312D01*
G01X1648253Y3074865D01*
G01X1638451Y3076815D01*
G01X1565674Y3076815D01*
G01X1565674Y3168435D01*
G01X1613940Y3168435D01*
G01X1623742Y3170384D01*
G01X1632052Y3175937D01*
G01X1637605Y3184247D01*
G01X1639555Y3194049D01*
G01X1639555Y3240706D01*
G01X1643995Y3240318D01*
G01X1700560Y3240318D01*
G01X1703620Y3240502D01*
G01X1738886Y3240502D01*
G01X1738886Y3192514D01*
G01X1732859Y3192514D01*
G01X1718465Y3190619D01*
G01X1705052Y3185063D01*
G01X1693534Y3176225D01*
G01X1684696Y3164707D01*
G01X1679140Y3151294D01*
G01X1677245Y3136900D01*
G01X1679140Y3122506D01*
G01X1684696Y3109093D01*
G01X1693534Y3097575D01*
G01X1705052Y3088737D01*
G01X1718465Y3083181D01*
G01X1732859Y3081286D01*
G01X1852859Y3081286D01*
G01X1867253Y3083181D01*
G01X1880666Y3088737D01*
G01X1892184Y3097575D01*
G01X1901022Y3109093D01*
G01X1906578Y3122506D01*
G01X1908473Y3136900D01*
G01X2231727Y3136900D01*
G01X2233622Y3122506D01*
G01X2239178Y3109093D01*
G01X2248016Y3097575D01*
G01X2259534Y3088737D01*
G01X2272947Y3083181D01*
G01X2287341Y3081286D01*
G01X2287341Y3081286D01*
G01X2407341Y3081286D01*
G01X2421735Y3083181D01*
G01X2435148Y3088737D01*
G01X2446666Y3097575D01*
G01X2455504Y3109093D01*
G01X2461060Y3122506D01*
G01X2462955Y3136900D01*
G01X2461060Y3151294D01*
G01X2455504Y3164707D01*
G01X2446666Y3176225D01*
G01X2435148Y3185063D01*
G01X2421735Y3190619D01*
G01X2407341Y3192514D01*
G01X2287341Y3192514D01*
G01X2272947Y3190619D01*
G01X2259534Y3185063D01*
G01X2248016Y3176225D01*
G01X2239178Y3164707D01*
G01X2233622Y3151294D01*
G01X2231727Y3136900D01*
G01X1908473Y3136900D01*
G01X1906578Y3151294D01*
G01X1901022Y3164707D01*
G01X1892184Y3176225D01*
G01X1880666Y3185063D01*
G01X1867253Y3190619D01*
G01X1852859Y3192514D01*
G01X1846465Y3192514D01*
G01X1846465Y3206585D01*
G01X2117583Y3206585D01*
G01X2119431Y3193731D01*
G01X2124826Y3181918D01*
G01X2133330Y3172104D01*
G01X2144255Y3165083D01*
G01X2156715Y3161425D01*
G01X2169700Y3161425D01*
G01X2182160Y3165083D01*
G01X2193085Y3172104D01*
G01X2201589Y3181918D01*
G01X2206984Y3193731D01*
G01X2208832Y3206585D01*
G01X2206984Y3219438D01*
G01X2201589Y3231251D01*
G01X2193085Y3241065D01*
G01X2182160Y3248086D01*
G01X2169700Y3251744D01*
G01X2156715Y3251744D01*
G01X2144255Y3248086D01*
G01X2133330Y3241065D01*
G01X2124826Y3231251D01*
G01X2119431Y3219438D01*
G01X2117583Y3206585D01*
G01X2117583Y3206585D01*
G01X1846465Y3206585D01*
G01X1846465Y3262277D01*
G01X1846728Y3265933D01*
G01X1846728Y3319933D01*
G01X1844778Y3329735D01*
G01X1839225Y3338045D01*
G01X1830916Y3343597D01*
G01X1821113Y3345547D01*
G01X1764548Y3345547D01*
G01X1760011Y3345142D01*
G01X1705097Y3345142D01*
G01X1700560Y3345547D01*
G01X1643995Y3345547D01*
G01X1636113Y3344304D01*
G01X1628996Y3340696D01*
G01X1622246Y3344182D01*
G01X1614770Y3345535D01*
G01X1613726Y3345557D01*
G01X869047Y3345557D01*
G01X864609Y3345944D01*
G01X770776Y3345944D01*
G01X762469Y3344560D01*
G01X755061Y3340556D01*
G01X749350Y3334366D01*
G01X746040Y3327489D01*
G01X744903Y3319943D01*
G01X744903Y3265881D01*
G01X745162Y3262249D01*
G01X745162Y3055281D01*
G01X744835Y3051200D01*
G01X744835Y2700654D01*
G01X732889Y2702488D01*
G01X720881Y2701121D01*
G01X709654Y2696649D01*
G01X699994Y2689387D01*
G01X692580Y2679842D01*
G01X687932Y2668687D01*
G01X686376Y2656702D01*
G01X686376Y2656702D01*
G01X688021Y2644729D01*
G01X692753Y2633608D01*
G01X700238Y2624119D01*
G01X709952Y2616929D01*
G01X721213Y2612542D01*
G01X733231Y2611265D01*
G01X745162Y2613188D01*
G01X745162Y2396821D01*
G01X614520Y2396821D01*
G01X604718Y2394871D01*
G01X596408Y2389319D01*
G01X590856Y2381009D01*
G01X588906Y2371207D01*
G01X588906Y2070217D01*
G01X364801Y2070217D01*
G01X382191Y2087607D01*
G01X386537Y2093019D01*
G01X389613Y2099242D01*
G01X393196Y2107335D01*
G01X394421Y2116102D01*
G01X394421Y2266329D01*
G01X407009Y2266918D01*
G01X418956Y2270929D01*
G01X429350Y2278054D01*
G01X437398Y2287751D01*
G01X442487Y2299280D01*
G01X444227Y2311761D01*
G01X442487Y2324243D01*
G01X437398Y2335772D01*
G01X429350Y2345469D01*
G01X418956Y2352594D01*
G01X407009Y2356604D01*
G01X394421Y2357193D01*
G01X394421Y2611037D01*
G01X402612Y2605727D01*
G01X412196Y2603866D01*
G01X582195Y2603866D01*
G01X591998Y2605816D01*
G01X600307Y2611368D01*
G01X605860Y2619678D01*
G01X607810Y2629480D01*
G01X607810Y2679480D01*
G01X606362Y2687970D01*
G01X602182Y2695500D01*
G01X595742Y2701219D01*
G01X587771Y2704480D01*
G01X596503Y2708234D01*
G01X603265Y2714914D01*
G01X607125Y2723600D01*
G01X608478Y2723600D01*
G01X609399Y2722741D01*
G01X610825Y2721422D01*
G01X621732Y2714283D01*
G01X634212Y2710516D01*
G01X647247Y2710427D01*
G01X659777Y2714025D01*
G01X670780Y2721015D01*
G01X679361Y2730828D01*
G01X684820Y2742666D01*
G01X686713Y2755564D01*
G01X684820Y2768461D01*
G01X679361Y2780299D01*
G01X670780Y2790113D01*
G01X659777Y2797103D01*
G01X647247Y2800700D01*
G01X634212Y2800611D01*
G01X621732Y2796844D01*
G01X610825Y2789705D01*
G01X609399Y2788386D01*
G01X608478Y2787528D01*
G01X606512Y2787528D01*
G01X602375Y2795256D01*
G01X595874Y2801136D01*
G01X587771Y2804480D01*
G01X595742Y2807741D01*
G01X602182Y2813460D01*
G01X606362Y2820990D01*
G01X607810Y2829480D01*
G01X607810Y2879480D01*
G01X605860Y2889282D01*
G01X600307Y2897592D01*
G01X591998Y2903144D01*
G01X582195Y2905094D01*
G01X482629Y2905094D01*
G01X482802Y2905280D01*
G01X484071Y2906652D01*
G01X491210Y2917559D01*
G01X494977Y2930039D01*
G01X495066Y2943074D01*
G01X491468Y2955604D01*
G01X484478Y2966607D01*
G01X474665Y2975188D01*
G01X462827Y2980647D01*
G01X449929Y2982540D01*
G01X437032Y2980647D01*
G01X425194Y2975188D01*
G01X415380Y2966607D01*
G01X408390Y2955604D01*
G01X404793Y2943074D01*
G01X404882Y2930039D01*
G01X408649Y2917559D01*
G01X415788Y2906652D01*
G01X417107Y2905226D01*
G01X417280Y2905040D01*
G01X412196Y2905094D01*
G01X403506Y2903575D01*
G01X395847Y2899198D01*
G01X390127Y2892481D01*
G01X387025Y2884223D01*
G01X328059Y2884223D01*
G01X319786Y2883134D01*
G01X312077Y2879941D01*
G01X305457Y2874861D01*
G01X283645Y2853049D01*
G01X278565Y2846429D01*
G01X275372Y2838720D01*
G01X274283Y2830447D01*
G01X274283Y2630087D01*
G01X32191Y2630087D01*
G01X27614Y2629675D01*
G37*
G36*
G01X2967612Y478675D02*
G01X2975337Y470951D01*
G01X2975337Y393165D01*
G01X2966171Y390674D01*
G01X2958542Y385014D01*
G01X2953501Y376964D01*
G01X2951739Y367630D01*
G01X2951739Y347558D01*
G01X2942369Y352736D01*
G01X2931814Y354529D01*
G01X2927177Y354529D01*
G01X2927177Y389876D01*
G01X2925474Y399060D01*
G01X2920591Y407023D01*
G01X2913177Y412706D01*
G01X2904219Y415352D01*
G01X2904219Y463744D01*
G01X2903280Y471436D01*
G01X2900517Y478675D01*
G01X2967612Y478675D01*
G37*
G54D10*
G01X2679339Y3535839D02*
G01X2679339Y2713159D01*
G01X2558659Y2713159D01*
G01X2558659Y3535839D01*
G01X2679339Y3535839D01*
G01X2676537Y2727053D02*
G01X2676537Y2609373D01*
G01X2642858Y2609373D01*
G01X2642858Y2727053D01*
G01X2676537Y2727053D01*
G01X2593839Y2644839D02*
G01X2593839Y2512159D01*
G01X2557159Y2512159D01*
G01X2557159Y2644839D01*
G01X2593839Y2644839D01*
G01X2323339Y2901967D02*
G01X2553084Y2901967D01*
G01X2553084Y2862801D01*
G01X2323339Y2862801D01*
G01X2323339Y2901967D01*
G01X1774660Y3162864D02*
G01X1774660Y3298764D01*
G01X1810691Y3298764D01*
G01X1810691Y3162864D01*
G01X1774660Y3162864D01*
G01X1775108Y3276276D02*
G01X1683877Y3276276D01*
G01X1683877Y3309368D01*
G01X1775108Y3309368D01*
G01X1775108Y3276276D01*
G01X854449Y3310170D02*
G01X854449Y3211284D01*
G01X852860Y3211284D01*
G03X842446Y3200870I0J-10414D01*
G01X842446Y2540380D01*
G03X852860Y2529966I10414J0D01*
G01X854449Y2529966D01*
G01X854449Y2362078D01*
G01X780936Y2362078D01*
G01X780936Y3310170D01*
G01X854449Y3310170D01*
G01X625096Y1886501D02*
G01X625096Y2129571D01*
G01X696846Y2129571D01*
G01X696846Y1886501D01*
G01X625096Y1886501D01*
G01X1603566Y3276041D02*
G01X780677Y3276041D01*
G01X780677Y3309783D01*
G01X1603566Y3309783D01*
G01X1603566Y3276041D01*
G01X1732398Y1585917D02*
G01X1456495Y1585917D01*
G01X1456495Y1643365D01*
G01X1732398Y1643365D01*
G01X1732398Y1585917D01*
G01X1095188Y632199D02*
G01X1095188Y515159D01*
G01X1065616Y515159D01*
G01X1065616Y632199D01*
G01X1095188Y632199D01*
G01X1808511Y626209D02*
G01X1808511Y541918D01*
G01X1778940Y541918D01*
G01X1778940Y626209D01*
G01X1808511Y626209D01*
G01X2644018Y2645313D02*
G01X2761698Y2645313D01*
G01X2761698Y2611633D01*
G01X2644018Y2611633D01*
G01X2644018Y2645313D01*
G01X1028528Y1837914D02*
G01X1028528Y1423984D01*
G01X1013828Y1423984D01*
G01X1013828Y1837914D01*
G01X1028528Y1837914D01*
G01X1014224Y1845608D02*
G01X3388444Y1845608D01*
G03X3412247Y1824454I40303J21382D01*
G01X1014224Y1824454D01*
G01X1014224Y1845608D01*
G01X3445248Y1824454D02*
G03X3469051Y1845608I-16500J42536D01*
G01X3567115Y1845608D01*
G01X3567115Y1824454D01*
G01X3445248Y1824454D01*
G01X3534168Y990996D02*
G01X3534168Y1845915D01*
G01X3566816Y1845915D01*
G01X3566816Y990996D01*
G01X3534168Y990996D01*
G01X2841549Y3428074D02*
G01X2557846Y3428074D01*
G01X2557846Y3534457D01*
G01X2841549Y3534457D01*
G01X2841549Y3428074D01*
G01X2841935Y3504463D02*
G01X2735445Y3504463D01*
G01X2735445Y3653477D01*
G01X2841935Y3653477D01*
G01X2841935Y3504463D01*
G01X1130356Y3763786D02*
G03X1073043Y3708845I0J-57364D01*
G01X929813Y3708845D01*
G01X929813Y3774378D01*
G01X1395027Y3774378D01*
G01X1395027Y3708845D01*
G01X1251169Y3708845D01*
G03X1193856Y3763786I-57313J-2423D01*
G01X1130356Y3763786D01*
G01X1603780Y3303059D02*
G01X1603780Y3204209D01*
G01X1570039Y3204209D01*
G01X1570039Y3303059D01*
G01X1603780Y3303059D01*
G01X27614Y2629675D02*
G01X27614Y2879260D01*
G03X32191Y2878848I4577J25202D01*
G01X282191Y2878848D01*
G03X307805Y2904462I0J25614D01*
G01X307805Y3024462D01*
G03X282191Y3050076I-25614J0D01*
G01X32191Y3050076D01*
G03X27614Y3049664I0J-25614D01*
G01X27614Y3424993D01*
G02X376999Y3774378I349386J-1D01*
G01X894039Y3774378D01*
G01X894039Y3720580D01*
G03X892264Y3706422I55589J-14158D01*
G01X892264Y3642922D01*
G03X949628Y3585558I57364J0D01*
G01X983156Y3585558D01*
G03X1055616Y3604380I29672J34657D01*
G03X1070492Y3642922I-42488J38541D01*
G01X1070492Y3673071D01*
G01X1072992Y3673071D01*
G01X1072992Y3642922D01*
G03X1130356Y3585558I57364J0D01*
G01X1175366Y3585558D01*
G01X1175366Y3502298D01*
G01X1174508Y3501376D01*
G01X1173189Y3499951D01*
G03X1168446Y3445963I34257J-30212D01*
G01X1145611Y3445963D01*
G01X1144689Y3446822D01*
G01X1143264Y3448140D01*
G03X1067375Y3413999I-30212J-34257D01*
G03X1143264Y3379858I45676J116D01*
G01X1144689Y3381176D01*
G01X1145611Y3382035D01*
G01X1863657Y3382035D01*
G01X1864295Y3381642D01*
G01X1865848Y3380714D01*
G01X1867863Y3379510D01*
G01X1868197Y3379311D01*
G03X1872055Y3377426I13133J21991D01*
G03X1890152Y3373638I18212J41889D01*
G03X1924293Y3449527I-116J45676D01*
G01X1922974Y3450952D01*
G01X1922116Y3451874D01*
G01X1922116Y3585808D01*
G03X1974131Y3642922I-5349J57114D01*
G01X1974131Y3706422D01*
G03X1916767Y3763786I-57364J0D01*
G01X1853267Y3763786D01*
G03X1795902Y3706422I0J-57364D01*
G01X1795902Y3642922D01*
G03X1853267Y3585558I57364J0D01*
G01X1858188Y3585558D01*
G01X1858188Y3451874D01*
G01X1857329Y3450952D01*
G01X1856010Y3449527D01*
G03X1853171Y3445963I34257J-30212D01*
G01X1795665Y3445963D01*
G03X1797360Y3458176I-43981J12329D01*
G03X1721472Y3492318I-45676J-116D01*
G01X1720046Y3490999D01*
G01X1719125Y3490141D01*
G01X1715521Y3490141D01*
G01X1715521Y3585558D01*
G01X1736039Y3585558D01*
G03X1793403Y3642922I0J57364D01*
G01X1793403Y3706422D01*
G03X1736039Y3763786I-57364J0D01*
G01X1672539Y3763786D01*
G03X1615175Y3706422I0J-57364D01*
G01X1615175Y3642922D01*
G03X1651593Y3589519I57364J0D01*
G01X1651593Y3469809D01*
G03X1660955Y3447207I31964J0D01*
G01X1662199Y3445963D01*
G01X1246215Y3445963D01*
G03X1241472Y3499951I-39001J23776D01*
G01X1240153Y3501376D01*
G01X1239294Y3502298D01*
G01X1239294Y3605335D01*
G02X1240887Y3610079I9029J-393D01*
G03X1251220Y3642922I-47031J32843D01*
G01X1251220Y3673071D01*
G01X1253720Y3673071D01*
G01X1253720Y3642922D01*
G03X1311084Y3585558I57364J0D01*
G01X1374584Y3585558D01*
G03X1431948Y3642922I0J57364D01*
G01X1431948Y3706422D01*
G03X1430801Y3717834I-57364J0D01*
G01X1430801Y3774378D01*
G01X3426994Y3774378D01*
G02X3776378Y3424993I-2J-349386D01*
G01X3776378Y374999D01*
G02X3426994Y25614I-349386J1D01*
G01X2088860Y25614D01*
G01X2088860Y68914D01*
G03X2110026Y60903I21166J23953D01*
G01X2618726Y60903D01*
G03X2641327Y70265I0J31964D01*
G01X2654258Y83195D01*
G03X2663620Y105797I-22602J22602D01*
G01X2663620Y210796D01*
G03X2667595Y224501I-21639J13705D01*
G01X2667595Y281067D01*
G03X2662744Y296065I-25614J0D01*
G03X2667595Y311064I-20763J14999D01*
G01X2667595Y367630D01*
G03X2641981Y393244I-25614J0D01*
G01X2587981Y393244D01*
G03X2562366Y367630I0J-25614D01*
G01X2562366Y358986D01*
G01X2561642Y358284D01*
G01X2556184Y352826D01*
G01X2556184Y467377D01*
G03X2530570Y492991I-25614J0D01*
G01X2384255Y492991D01*
G03X2372154Y531924I-45028J7353D01*
G01X2372709Y532738D01*
G01X2373470Y533923D01*
G01X2373895Y534627D01*
G03X2381487Y558951I-35173J24324D01*
G01X2381487Y697800D01*
G03X2380486Y706999I-42764J0D01*
G01X2426990Y706999D01*
G03X2425981Y697800I42078J-9270D01*
G01X2425981Y558951D01*
G03X2501244Y531156I42764J0D01*
G03X2507260Y525374I32499J27795D01*
G01X2507745Y524962D01*
G03X2510585Y522864I16602J19505D01*
G01X2512747Y521486D01*
G03X2516801Y519386I13762J21603D01*
G01X2520499Y517872D01*
G01X2521232Y517564D01*
G01X2581396Y457398D01*
G03X2603998Y448036I22602J22602D01*
G01X2840290Y448036D01*
G01X2840290Y414436D01*
G03X2821948Y389876I7272J-24560D01*
G01X2821948Y383539D01*
G01X2797386Y383539D01*
G01X2797386Y389876D01*
G03X2771772Y415490I-25614J0D01*
G01X2717772Y415490D01*
G03X2692157Y389876I0J-25614D01*
G01X2692157Y310867D01*
G03X2717772Y285252I25614J0D01*
G01X2771772Y285252D01*
G03X2777827Y285978I0J25614D01*
G01X2777827Y205480D01*
G01X2776969Y204559D01*
G01X2775650Y203133D01*
G03X2809791Y127245I34257J-30212D01*
G03X2843933Y203133I-116J45676D01*
G01X2842614Y204559D01*
G01X2841755Y205480D01*
G01X2841755Y285919D01*
G03X2847563Y285252I5807J24947D01*
G01X2901563Y285252D01*
G03X2906511Y285735I0J25614D01*
G01X2906511Y263398D01*
G03X2915872Y240796I31964J0D01*
G01X2924885Y231784D01*
G03X2947480Y222421I22602J22602D01*
G01X2951824Y222421D01*
G03X2977353Y198887I25529J2080D01*
G01X3031354Y198887D01*
G03X3056882Y222400I0J25614D01*
G01X3059609Y222399D01*
G03X3082217Y231761I6J31964D01*
G01X3093385Y242929D01*
G03X3102746Y265531I-22602J22602D01*
G01X3102746Y480648D01*
G03X3102333Y485771I-31964J0D01*
G03X3131869Y561426I-4727J45438D01*
G01X3131217Y562146D01*
G01X3130550Y562851D01*
G01X3129692Y563773D01*
G01X3129692Y660648D01*
G01X3148657Y679613D01*
G01X3615464Y679613D01*
G03X3638066Y688975I0J31964D01*
G01X3662770Y713679D01*
G03X3672132Y736281I-22602J22602D01*
G01X3672132Y1948410D01*
G03X3662770Y1971012I-31964J0D01*
G01X3638525Y1995257D01*
G03X3633229Y1999529I-22602J-22602D01*
G03X3569503Y2142316I-63727J57172D01*
G01X3509503Y2142316D01*
G03X3441553Y2004619I0J-85614D01*
G01X3226019Y2004619D01*
G03X3164488Y2137316I-61531J52082D01*
G01X3074488Y2137316D01*
G03X3019128Y2115301I0J-80614D01*
G03X3010601Y2130645I-31129J-7258D01*
G01X3007710Y2133536D01*
G01X3007666Y2134791D01*
G01X3007587Y2136796D01*
G03X2929788Y2166254I-45559J-2858D01*
G03X2933539Y2098408I32317J-32240D01*
G03X2899307Y2067099I9399J-44645D01*
G03X2910184Y2022002I43631J-13337D01*
G03X2915965Y1959395I35816J-28263D01*
G03X2978784Y1962010I30034J34344D01*
G01X2990741Y1950053D01*
G03X3013343Y1940691I22602J22602D01*
G01X3602683Y1940691D01*
G01X3608204Y1935170D01*
G01X3608204Y749521D01*
G01X3602224Y743542D01*
G01X3135417Y743542D01*
G03X3112815Y734179I0J-31964D01*
G01X3075126Y696490D01*
G03X3065763Y673888I22602J-22602D01*
G01X3065763Y563773D01*
G01X3064905Y562851D01*
G01X3063586Y561426D01*
G03X3052904Y539673I34537J-30458D01*
G03X3012954Y523742I-11216J-29932D01*
G01X3003454Y533242D01*
G03X2980852Y542604I-22602J-22602D01*
G01X2963252Y542604D01*
G03X2966500Y558951I-39516J16347D01*
G01X2966500Y697800D01*
G03X2891236Y725595I-42764J0D01*
G03X2826237Y725595I-32499J-27795D01*
G03X2761239Y725595I-32499J-27795D01*
G03X2696240Y725595I-32499J-27795D01*
G03X2620977Y697800I-32499J-27795D01*
G01X2620977Y558951D01*
G03X2627068Y536953I42764J0D01*
G01X2628319Y534764D01*
G01X2630793Y530890D01*
G01X2630914Y530667D01*
G01X2630914Y520631D01*
G03X2632112Y511964I31964J0D01*
G01X2617239Y511964D01*
G01X2576507Y552697D01*
G01X2576463Y553448D01*
G01X2576508Y558951D01*
G01X2576508Y697800D01*
G03X2501537Y725934I-42764J0D01*
G01X2500885Y726924D01*
G01X2500561Y727507D01*
G03X2491347Y747037I-31816J-3072D01*
G01X2476818Y761566D01*
G03X2454216Y770928I-22602J-22602D01*
G01X2150661Y770928D01*
G03X2088013Y817925I-45374J4770D01*
G03X2076267Y740493I17275J-42227D01*
G03X2035964Y697800I2461J-42693D01*
G01X2035964Y662607D01*
G03X1990936Y662633I-22536J-39670D01*
G03X1923528Y622142I-21786J-40087D01*
G03X1991642Y582851I45622J404D01*
G03X2035964Y583268I21786J40087D01*
G01X2035964Y558951D01*
G03X2111227Y531156I42764J0D01*
G03X2116674Y525831I32499J27795D01*
G03X2107607Y519475I13534J-28957D01*
G01X2096439Y508308D01*
G03X2087077Y485706I22602J-22602D01*
G01X2087077Y410611D01*
G03X2032316Y408204I-25779J-37643D01*
G03X2019389Y354936I28982J-35236D01*
G01X1938393Y354936D01*
G01X1937472Y355794D01*
G01X1936046Y357113D01*
G03X1860158Y322972I-30212J-34257D01*
G03X1918312Y279149I45676J116D01*
G03X1917632Y273287I24934J-5862D01*
G01X1917632Y25614D01*
G01X1568872Y25614D01*
G01X1568872Y273287D01*
G03X1543258Y298901I-25614J0D01*
G01X1423258Y298901D01*
G03X1397644Y273287I0J-25614D01*
G01X1397644Y25614D01*
G01X1375737Y25614D01*
G01X1375737Y273982D01*
G03X1350123Y299597I-25614J0D01*
G01X1230123Y299597D01*
G03X1210591Y290554I0J-25614D01*
G03X1136524Y258677I-28592J-35554D01*
G03X1204509Y215315I45476J-3677D01*
G01X1204509Y25614D01*
G01X855748Y25614D01*
G01X855748Y273982D01*
G03X830134Y299597I-25614J0D01*
G01X710134Y299597D01*
G03X684520Y273982I0J-25614D01*
G01X684520Y25614D01*
G01X376999Y25614D01*
G02X27614Y374999I1J349386D01*
G01X27614Y2459271D01*
G03X32191Y2458859I4577J25202D01*
G01X274283Y2458859D01*
G01X274283Y2330057D01*
G01X264795Y2320569D01*
G01X208313Y2320569D01*
G03X150954Y2377264I-57452J-762D01*
G01X87454Y2377264D01*
G03X30090Y2319900I0J-57364D01*
G01X30090Y2256400D01*
G03X87454Y2199036I57364J0D01*
G01X150954Y2199036D01*
G03X208318Y2256400I0J57364D01*
G01X208318Y2256654D01*
G01X278035Y2256640D01*
G03X300637Y2266002I0J31964D01*
G01X302593Y2267958D01*
G01X302593Y2140898D01*
G01X293595Y2131900D01*
G01X208318Y2131900D01*
G01X208318Y2136411D01*
G03X150954Y2193775I-57364J0D01*
G01X87454Y2193775D01*
G03X30090Y2136411I0J-57364D01*
G01X30090Y2072911D01*
G03X87454Y2015547I57364J0D01*
G01X150954Y2015547D01*
G03X208105Y2067972I0J57364D01*
G01X296768Y2067972D01*
G01X296768Y1957703D01*
G01X293452Y1954386D01*
G01X208299Y1954386D01*
G03X150954Y2010286I-57345J-1465D01*
G01X87454Y2010286D01*
G03X30090Y1952922I0J-57364D01*
G01X30090Y1889422D01*
G03X87454Y1832058I57364J0D01*
G01X150954Y1832058D01*
G03X208318Y1889422I0J57364D01*
G01X208318Y1890458D01*
G01X306692Y1890458D01*
G03X329294Y1899820I0J31964D01*
G01X351335Y1921861D01*
G03X360697Y1944463I-22602J22602D01*
G01X360697Y1962596D01*
G03X420170Y2006067I13850J43471D01*
G03X360697Y2049538I-45624J0D01*
G01X360697Y2066112D01*
G01X382191Y2087607D01*
G03X389613Y2099242I-22602J22602D01*
G03X394421Y2116102I-27156J16860D01*
G01X394421Y2266329D01*
G03X444227Y2311761I4182J45432D01*
G03X394421Y2357193I-45624J0D01*
G01X394421Y2611037D01*
G03X412196Y2603866I17775J18443D01*
G01X582195Y2603866D01*
G03X607810Y2629480I0J25614D01*
G01X607810Y2679480D01*
G03X587771Y2704480I-25614J0D01*
G03X607125Y2723600I-5575J25000D01*
G01X608478Y2723600D01*
G01X609399Y2722741D01*
G01X610825Y2721422D01*
G03X686713Y2755564I30212J34257D01*
G03X610825Y2789705I-45676J-116D01*
G01X609399Y2788386D01*
G01X608478Y2787528D01*
G01X606512Y2787528D01*
G03X587771Y2804480I-24317J-8048D01*
G03X607810Y2829480I-5575J25000D01*
G01X607810Y2879480D01*
G03X582195Y2905094I-25614J0D01*
G01X482629Y2905094D01*
G01X482802Y2905280D01*
G01X484071Y2906652D01*
G03X449929Y2982540I-34257J30212D01*
G03X415788Y2906652I116J-45676D01*
G01X417107Y2905226D01*
G01X417280Y2905040D01*
G01X412196Y2905094D01*
G03X387025Y2884223I0J-25614D01*
G01X328059Y2884223D01*
G03X305457Y2874861I0J-31964D01*
G01X283645Y2853049D01*
G03X274283Y2830447I22602J-22602D01*
G01X274283Y2630087D01*
G01X32191Y2630087D01*
G03X27614Y2629675I0J-25614D01*
G01X111661Y610485D02*
G03X139975Y691346I-661J45619D01*
G03X109329Y771352I-29985J34387D01*
G03X81015Y690491I661J-45619D01*
G03X111661Y610485I29985J-34387D01*
G01X76386Y3425000D02*
G03X677614Y3425000I300614J0D01*
G03X76386Y3425000I-300614J0D01*
G01X76386Y375000D02*
G03X677614Y375000I300614J0D01*
G03X76386Y375000I-300614J0D01*
G01X94140Y1343011D02*
G03X215370Y1343011I60615J0D01*
G03X94140Y1343011I-60615J0D01*
G01X94140Y1513013D02*
G03X215370Y1513013I60615J0D01*
G03X94140Y1513013I-60615J0D01*
G01X814036Y1714239D02*
G01X808760Y1708964D01*
G01X396208Y1708964D01*
G03X373606Y1699601I0J-31964D01*
G01X313063Y1639058D01*
G03X231645Y1623105I-37057J-26615D01*
G03X296922Y1571896I44361J-10661D01*
G01X296922Y792404D01*
G03X306284Y769802I31964J0D01*
G01X375969Y700116D01*
G03X398571Y690754I22602J22602D01*
G01X904036Y690754D01*
G01X904036Y599601D01*
G01X855116Y599601D01*
G03X829502Y573987I0J-25614D01*
G01X829502Y520964D01*
G01X818611Y520964D01*
G01X817689Y521822D01*
G01X816264Y523141D01*
G03X740376Y489000I-30212J-34257D01*
G03X816264Y454858I45676J116D01*
G01X817689Y456177D01*
G01X818611Y457036D01*
G01X829502Y457036D01*
G01X829502Y403987D01*
G03X855116Y378373I25614J0D01*
G01X905116Y378373D01*
G03X930116Y398412I0J25614D01*
G03X955116Y378373I25000J5575D01*
G01X1005116Y378373D01*
G03X1030116Y398412I0J25614D01*
G03X1055115Y378373I25000J5575D01*
G01X1105115Y378373D01*
G03X1130730Y403987I0J25614D01*
G01X1130730Y501558D01*
G03X1130962Y504999I-25382J3441D01*
G01X1130962Y642359D01*
G03X1105348Y667974I-25614J0D01*
G01X1055456Y667974D01*
G03X1029842Y642359I0J-25614D01*
G01X1029842Y580673D01*
G03X1023689Y591625I-24726J-6686D01*
G03X1017279Y642229I-40735J20548D01*
G03X967964Y655264I-34325J-30056D01*
G01X967964Y710018D01*
G03X958602Y732620I-31964J0D01*
G01X945902Y745320D01*
G03X923300Y754682I-22602J-22602D01*
G01X825735Y754682D01*
G03X830841Y768695I-39788J22433D01*
G03X849000Y763036I18159J26305D01*
G01X1105760Y763036D01*
G01X1165398Y703398D01*
G03X1188000Y694036I22602J22602D01*
G01X1518000Y694036D01*
G03X1540602Y703398I0J31964D01*
G01X1579601Y742398D01*
G03X1588964Y765000I-22602J22602D01*
G01X1588964Y830095D01*
G03X1595755Y827576I6791J7895D01*
G01X1906731Y827576D01*
G03X1917145Y837990I0J10414D01*
G01X1917145Y983509D01*
G03X1906731Y993923I-10414J0D01*
G01X1595755Y993923D01*
G03X1588964Y991404I0J-10414D01*
G01X1588964Y1060760D01*
G01X1615821Y1087617D01*
G01X1889144Y1087617D01*
G01X1890065Y1086758D01*
G01X1891491Y1085440D01*
G03X1967379Y1119581I30212J34257D01*
G01X1967342Y1121295D01*
G03X2007962Y1196909I6670J45134D01*
G03X1928423Y1164644I-33949J-30480D01*
G03X1891491Y1153722I-6721J-45179D01*
G01X1890065Y1152404D01*
G01X1889144Y1151545D01*
G01X1602581Y1151545D01*
G03X1579979Y1142183I0J-31964D01*
G01X1534397Y1096602D01*
G03X1525035Y1074000I22602J-22602D01*
G01X1525035Y778240D01*
G01X1504760Y757964D01*
G01X1201240Y757964D01*
G01X1141602Y817602D01*
G03X1119000Y826964I-22602J-22602D01*
G01X923325Y826964D01*
G03X918114Y868036I-42940J15418D01*
G01X1119000Y868036D01*
G03X1141601Y877397I0J31964D01*
G01X1156602Y892397D01*
G03X1165964Y915000I-22602J22602D01*
G01X1165964Y990760D01*
G03X1192468Y976451I33730J30776D01*
G03X1247008Y902386I54540J-16952D01*
G01X1296045Y902386D01*
G01X1296045Y889614D01*
G01X1247008Y889614D01*
G03X1247008Y775386I0J-57114D01*
G01X1409010Y775386D01*
G03X1409010Y889614I0J57114D01*
G01X1359973Y889614D01*
G01X1359973Y902386D01*
G01X1409010Y902386D01*
G03X1456639Y927981I0J57114D01*
G01X1457083Y928035D01*
G01X1473000Y928035D01*
G03X1495602Y937398I0J31964D01*
G01X1510602Y952398D01*
G03X1519964Y975000I-22602J22602D01*
G01X1519964Y1335000D01*
G03X1510602Y1357602I-31964J0D01*
G01X1483602Y1384602D01*
G03X1477776Y1389208I-22602J-22602D01*
G01X1553700Y1389208D01*
G03X1578253Y1370889I24553J7296D01*
G01X1578752Y1370889D01*
G01X1578752Y1364424D01*
G03X1588115Y1341822I31964J0D01*
G01X1598694Y1331243D01*
G03X1621296Y1321881I22602J22602D01*
G01X1945736Y1321881D01*
G03X1952637Y1322634I0J31964D01*
G01X2176035Y1322634D01*
G01X2176035Y1299424D01*
G01X2175904Y1299182D01*
G01X2175767Y1298968D01*
G03X2111270Y1298696I-32130J-28084D01*
G03X2035964Y1270951I-32542J-27745D01*
G01X2035964Y1132279D01*
G03X1990404Y1058714I-10468J-44407D01*
G03X2071069Y1090029I35091J29157D01*
G03X2111227Y1104307I7659J42073D01*
G03X2176226Y1104307I32499J27795D01*
G03X2251490Y1132102I32499J27795D01*
G01X2251490Y1270951D01*
G03X2247645Y1288673I-42764J0D01*
G01X2247534Y1288913D01*
G03X2244094Y1294989I-38809J-17962D01*
G01X2243773Y1295534D01*
G01X2242927Y1296873D01*
G01X2240174Y1300947D01*
G01X2239964Y1301318D01*
G01X2239964Y1338000D01*
G03X2230601Y1360602I-31964J0D01*
G01X2214003Y1377201D01*
G03X2191400Y1386563I-22602J-22602D01*
G01X2074397Y1386563D01*
G02X2072280Y1399049I35769J12486D01*
G01X2072280Y1441097D01*
G01X2075479Y1441097D01*
G03X2101093Y1466711I0J25614D01*
G01X2101093Y1545721D01*
G03X2075479Y1571335I-25614J0D01*
G01X2021479Y1571335D01*
G03X1995865Y1545721I0J-25614D01*
G01X1995865Y1466711D01*
G03X2008352Y1444717I25614J0D01*
G01X2008352Y1399049D01*
G02X2006235Y1386563I-37886J0D01*
G01X1979816Y1386563D01*
G02X1977700Y1399049I35769J12486D01*
G01X1977700Y1448482D01*
G03X1984614Y1465986I-18700J17504D01*
G01X1984614Y1544996D01*
G03X1959000Y1570610I-25614J0D01*
G01X1904999Y1570610D01*
G03X1879385Y1544996I0J-25614D01*
G01X1879385Y1465986D01*
G03X1904999Y1440372I25614J0D01*
G01X1913771Y1440372D01*
G01X1913771Y1398295D01*
G02X1911655Y1385809I-37886J0D01*
G01X1671527Y1385809D01*
G03X1673867Y1396503I-23275J10695D01*
G01X1673867Y1521504D01*
G03X1648253Y1547119I-25614J0D01*
G01X1578253Y1547119D01*
G03X1552639Y1521504I0J-25614D01*
G01X1552639Y1453136D01*
G01X1445355Y1453136D01*
G03X1405201Y1520369I-40270J21557D01*
G03X1372614Y1506580I116J-45676D01*
G01X1372614Y1544996D01*
G03X1347000Y1570610I-25614J0D01*
G01X1292999Y1570610D01*
G03X1267385Y1544996I0J-25614D01*
G01X1267385Y1465986D01*
G03X1288036Y1440858I25614J0D01*
G01X1288036Y1394611D01*
G01X1286250Y1392694D01*
G03X1284130Y1390097I18742J-17459D01*
G03X1274376Y1362000I35921J-28213D01*
G03X1350264Y1327858I45676J116D01*
G01X1351689Y1329177D01*
G01X1352611Y1330035D01*
G01X1447760Y1330035D01*
G01X1456035Y1321760D01*
G01X1456035Y1245912D01*
G03X1409010Y1270614I-47026J-32413D01*
G01X1247008Y1270614D01*
G03X1195399Y1237964I0J-57114D01*
G01X1158000Y1237964D01*
G03X1135398Y1228602I0J-31964D01*
G01X1111398Y1204602D01*
G03X1102036Y1182000I22602J-22602D01*
G01X1102036Y931964D01*
G01X1034810Y931964D01*
G03X990770Y989504I-44040J11916D01*
G03X946729Y931964I0J-45624D01*
G01X753029Y931964D01*
G03X702991Y1016614I-50038J27536D01*
G01X540990Y1016614D01*
G03X505592Y1004321I0J-57114D01*
G03X496219Y1021014I-43630J-13520D01*
G01X494901Y1022439D01*
G01X494042Y1023361D01*
G01X494054Y1053957D01*
G03X540990Y1029386I46936J32542D01*
G01X702991Y1029386D01*
G03X702991Y1143614I0J57114D01*
G01X540990Y1143614D01*
G03X493360Y1118018I0J-57114D01*
G01X492917Y1117964D01*
G01X477000Y1117964D01*
G03X454398Y1108602I0J-31964D01*
G01X454218Y1108422D01*
G01X454253Y1174471D01*
G03X517311Y1216609I17433J42162D01*
G03X454299Y1258814I-45624J24D01*
G01X454348Y1352087D01*
G01X495478Y1352087D01*
G01X496400Y1351229D01*
G01X497825Y1349910D01*
G03X573714Y1384052I30212J34257D01*
G03X497825Y1418193I-45676J-116D01*
G01X496400Y1416874D01*
G01X495478Y1416016D01*
G01X439829Y1416016D01*
G03X426068Y1412902I0J-31964D01*
G01X426068Y1535340D01*
G01X479997Y1589269D01*
G01X872600Y1589269D01*
G03X895202Y1598631I0J31964D01*
G01X931789Y1635219D01*
G03X941152Y1657821I-22602J22602D01*
G01X941152Y1867559D01*
G01X949464Y1875872D01*
G01X988192Y1875872D01*
G03X978450Y1855768I15872J-20104D01*
G01X978450Y1852532D01*
G03X978054Y1848074I25218J-4488D01*
G01X978054Y1432238D01*
G01X960552Y1414736D01*
G03X951190Y1392134I22602J-22602D01*
G01X951190Y1170206D01*
G03X960552Y1147604I31964J0D01*
G01X978949Y1129207D01*
G01X978994Y1127952D01*
G01X979073Y1125946D01*
G03X1056866Y1096483I45559J2858D01*
G03X1027399Y1174288I-32327J32240D01*
G01X1025409Y1174366D01*
G01X1024153Y1174411D01*
G01X1015118Y1183446D01*
G01X1015118Y1378894D01*
G01X1024434Y1388210D01*
G01X1038689Y1388210D01*
G03X1064303Y1413824I0J25614D01*
G01X1064303Y1707472D01*
G03X1121155Y1741723I12251J43974D01*
G01X1129126Y1741723D01*
G01X1130047Y1740865D01*
G01X1131473Y1739546D01*
G03X1141806Y1732679I30212J34257D01*
G03X1134642Y1727501I23048J-39435D01*
G01X1133217Y1726183D01*
G01X1132243Y1725276D01*
G03X1111398Y1715962I1756J-31916D01*
G01X1088329Y1692894D01*
G03X1078967Y1670292I22602J-22602D01*
G01X1078967Y1491443D01*
G03X1088329Y1468841I31964J0D01*
G01X1103317Y1453853D01*
G03X1125919Y1444491I22602J22602D01*
G01X1180222Y1444491D01*
G01X1182572Y1442141D01*
G01X1182572Y1439597D01*
G01X1181713Y1438676D01*
G01X1180394Y1437250D01*
G03X1214536Y1361362I34257J-30212D01*
G03X1248677Y1437250I-116J45676D01*
G01X1247358Y1438676D01*
G01X1246500Y1439597D01*
G01X1246500Y1455381D01*
G03X1237138Y1477983I-31964J0D01*
G01X1216064Y1499057D01*
G03X1193462Y1508419I-22602J-22602D01*
G01X1184150Y1508419D01*
G03X1190868Y1561274I-33384J31097D01*
G03X1142896Y1584457I-40102J-21757D01*
G01X1142896Y1653424D01*
G03X1210531Y1693360I21959J40052D01*
G03X1184733Y1734368I-45676J-116D01*
G03X1207361Y1773687I-23048J39435D01*
G03X1204790Y1788680I-45676J-116D01*
G01X2674208Y1788680D01*
G01X2654312Y1768784D01*
G01X2653057Y1768739D01*
G01X2651052Y1768660D01*
G03X2610101Y1710272I2858J-45559D01*
G01X2528256Y1710272D01*
G03X2505273Y1695968I0J-25614D01*
G01X2351246Y1695968D01*
G03X2328264Y1710272I-22982J-11309D01*
G01X2138264Y1710272D01*
G03X2112650Y1684658I0J-25614D01*
G01X2112650Y1444659D01*
G03X2138264Y1419045I25614J0D01*
G01X2306758Y1419045D01*
G01X2306758Y1300392D01*
G01X2306582Y1300075D01*
G01X2303951Y1296082D01*
G01X2302877Y1294298D01*
G03X2295958Y1270951I36167J-23417D01*
G01X2295958Y1132102D01*
G03X2371222Y1104307I42764J0D01*
G03X2436233Y1104322I32499J27795D01*
G03X2501244Y1104307I32512J27780D01*
G03X2566243Y1104307I32499J27795D01*
G03X2631242Y1104307I32499J27795D01*
G03X2696240Y1104307I32499J27795D01*
G03X2761239Y1104307I32499J27795D01*
G03X2826237Y1104307I32499J27795D01*
G03X2891236Y1104307I32499J27795D01*
G03X2925578Y1089377I32499J27795D01*
G03X2997668Y1040092I43512J-13720D01*
G03X2965061Y1121103I-28578J35565D01*
G03X2966500Y1132102I-41326J10999D01*
G01X2966500Y1270951D01*
G03X2891236Y1298746I-42764J0D01*
G03X2826237Y1298746I-32499J-27795D01*
G03X2761488Y1299035I-32499J-27795D01*
G01X2760248Y1300874D01*
G01X2760039Y1301241D01*
G01X2760039Y1338407D01*
G03X2750677Y1361009I-31964J0D01*
G01X2733306Y1378380D01*
G03X2710704Y1387742I-22602J-22602D01*
G01X2691462Y1387742D01*
G01X2690541Y1388601D01*
G01X2689115Y1389919D01*
G03X2620409Y1380249I-30212J-34257D01*
G03X2548744Y1396605I-41847J-18176D01*
G03X2485431Y1395481I-31073J-33440D01*
G03X2473110Y1372795I32317J-32240D01*
G03X2436687Y1379466I-25767J-37921D01*
G01X2436687Y1421756D01*
G01X2509206Y1421756D01*
G02X2521110Y1420062I0J-42674D01*
G03X2528256Y1419045I7145J24597D01*
G01X2718255Y1419045D01*
G03X2743869Y1444659I0J25614D01*
G01X2743869Y1684658D01*
G03X2718255Y1710272I-25614J0D01*
G01X2697620Y1710272D01*
G03X2699392Y1720319I-43786J12905D01*
G01X2699472Y1722325D01*
G01X2699516Y1723580D01*
G01X2713037Y1737101D01*
G01X2935813Y1737101D01*
G03X2922588Y1701673I32287J-32235D01*
G03X2940629Y1668439I45512J3192D01*
G03X2934665Y1655246I25387J-19422D01*
G03X2931397Y1651612I32241J-32281D01*
G03X2971205Y1577544I35535J-28633D01*
G03X3010303Y1637047I-4298J45421D01*
G01X3046118Y1637047D01*
G01X3046118Y1295140D01*
G03X3056532Y1284726I10414J0D01*
G01X3466882Y1284726D01*
G01X3466882Y1260844D01*
G03X3444174Y1204039I20078J-40968D01*
G03X3498394Y1175707I42787J15837D01*
G01X3498394Y980836D01*
G03X3524008Y955222I25614J0D01*
G01X3576976Y955222D01*
G03X3602590Y980836I0J25614D01*
G01X3602590Y1810394D01*
G03X3602889Y1814294I-25315J3900D01*
G01X3602889Y1855768D01*
G03X3595486Y1873781I-25614J0D01*
G03X3576976Y1881689I-18509J-17705D01*
G01X3524008Y1881689D01*
G03X3520054Y1881382I0J-25614D01*
G01X2656874Y1881382D01*
G03X2665694Y1887482I-21392J40357D01*
G01X2667224Y1888902D01*
G01X2668646Y1890232D01*
G03X2685225Y1899021I-6023J31392D01*
G01X2706191Y1919987D01*
G03X2715553Y1942589I-22602J22602D01*
G01X2715553Y2426772D01*
G03X2706191Y2449374I-31964J0D01*
G01X2693579Y2461986D01*
G03X2670977Y2471348I-22602J-22602D01*
G01X2607725Y2471348D01*
G01X2607725Y2475679D01*
G03X2630039Y2501079I-3299J25401D01*
G01X2630039Y2555080D01*
G03X2629613Y2559733I-25614J0D01*
G01X2629613Y2573785D01*
G03X2632698Y2573599I3084J25428D01*
G01X2686697Y2573599D01*
G03X2697218Y2575859I0J25614D01*
G01X2771858Y2575859D01*
G03X2797472Y2601473I0J25614D01*
G01X2797472Y2655473D01*
G03X2771858Y2681087I-25614J0D01*
G01X2712312Y2681087D01*
G01X2712312Y2691351D01*
G03X2715113Y2702999I-22813J11648D01*
G01X2715113Y3392300D01*
G01X2851709Y3392300D01*
G03X2877323Y3417914I0J25614D01*
G01X2877323Y3489877D01*
G03X2877709Y3494303I-25229J4426D01*
G01X2877709Y3640289D01*
G03X2877769Y3642922I-57304J2633D01*
G01X2877769Y3706422D01*
G03X2820405Y3763786I-57364J0D01*
G01X2756905Y3763786D01*
G03X2699541Y3706422I0J-57364D01*
G01X2699541Y3642922D01*
G03X2699671Y3639058I57364J0D01*
G01X2699671Y3570231D01*
G01X2697800Y3570231D01*
G03X2689499Y3571613I-8301J-24232D01*
G01X2563812Y3571613D01*
G01X2576323Y3584124D01*
G02X2578661Y3585558I4220J-4259D01*
G01X2639677Y3585558D01*
G03X2697041Y3642922I0J57364D01*
G01X2697041Y3706422D01*
G03X2639677Y3763786I-57364J0D01*
G01X2576177Y3763786D01*
G03X2518813Y3706422I0J-57364D01*
G01X2518813Y3642922D01*
G03X2523058Y3621267I57364J0D01*
G01X2474955Y3573164D01*
G03X2467794Y3562219I22602J-22602D01*
G03X2463415Y3557904I29763J-34580D01*
G03X2458195Y3550667I34257J-30212D01*
G01X2458195Y3585558D01*
G01X2458950Y3585558D01*
G03X2516314Y3642922I0J57364D01*
G01X2516314Y3706422D01*
G03X2458950Y3763786I-57364J0D01*
G01X2395450Y3763786D01*
G03X2338085Y3706422I0J-57364D01*
G01X2338085Y3642922D01*
G03X2394267Y3585570I57364J0D01*
G01X2394267Y3545620D01*
G01X2393408Y3544699D01*
G01X2392089Y3543273D01*
G03X2401164Y3474888I34294J-30244D01*
G03X2467448Y3493445I25067J38121D01*
G03X2497557Y3482015I30225J34246D01*
G03X2522072Y3489226I-116J45676D01*
G01X2522072Y3417914D01*
G03X2522885Y3411513I25614J0D01*
G01X2522885Y3222095D01*
G03X2521686Y3214349I24415J-7745D01*
G01X2521686Y3079348D01*
G03X2522885Y3071603I25614J0D01*
G01X2522885Y3032970D01*
G03X2521686Y3025225I24415J-7745D01*
G01X2521686Y2937741D01*
G01X2416581Y2937741D01*
G03X2407341Y2938514I-9240J-54841D01*
G01X2287341Y2938514D01*
G03X2287341Y2827286I0J-55614D01*
G01X2309547Y2827286D01*
G03X2313179Y2827027I3632J25355D01*
G01X2521686Y2827027D01*
G01X2521686Y2701100D01*
G03X2535528Y2678351I25614J0D01*
G03X2528907Y2673131I12331J-22450D01*
G03X2521385Y2654999I18092J-18132D01*
G01X2521385Y2619070D01*
G03X2456747Y2577597I-19014J-41473D01*
G03X2521385Y2536124I45624J0D01*
G01X2521385Y2522142D01*
G03X2470906Y2463710I-6844J-45108D01*
G03X2545416Y2443445I43635J13324D01*
G03X2553159Y2430888I30345J10046D01*
G01X2567265Y2416782D01*
G03X2589867Y2407420I22602J22602D01*
G01X2651625Y2407420D01*
G01X2651625Y2391192D01*
G03X2588100Y2349227I-17901J-41966D01*
G03X2651625Y2307261I45624J0D01*
G01X2651625Y2167695D01*
G03X2585375Y2126999I-20625J-40696D01*
G03X2651625Y2086303I45624J0D01*
G01X2651625Y1964236D01*
G03X2589806Y1921624I-16143J-42729D01*
G03X2614090Y1881382I45676J116D01*
G01X1068248Y1881382D01*
G03X1076770Y1907836I-37154J26570D01*
G03X1000882Y1941977I-45676J-116D01*
G01X999456Y1940658D01*
G01X998535Y1939800D01*
G01X936224Y1939800D01*
G03X913622Y1930438I0J-31964D01*
G01X908833Y1925649D01*
G01X908833Y1938353D01*
G01X961325Y1990844D01*
G01X1014388Y1990844D01*
G01X1015310Y1989986D01*
G01X1016735Y1988667D01*
G03X1092624Y2022809I30212J34257D01*
G03X1092063Y2029826I-45676J-116D01*
G03X1143624Y2075006I5884J45296D01*
G03X1067735Y2109147I-45676J-116D01*
G01X1066310Y2107829D01*
G01X1065388Y2106970D01*
G01X959006Y2106970D01*
G03X936404Y2097608I0J-31964D01*
G01X823398Y1984601D01*
G03X814036Y1961999I22602J-22602D01*
G01X814036Y1714239D01*
G01X485209Y1851050D02*
G03X576458Y1851050I45624J0D01*
G03X485209Y1851050I-45624J0D01*
G01X686376Y2656702D02*
G03X745162Y2613188I45624J171D01*
G01X745162Y2396821D01*
G01X614520Y2396821D01*
G03X588906Y2371207I0J-25614D01*
G01X588906Y2070217D01*
G03X589322Y2065619I25614J0D01*
G01X589322Y1876341D01*
G03X614936Y1850727I25614J0D01*
G01X707006Y1850727D01*
G03X732620Y1876341I0J25614D01*
G01X732620Y2044603D01*
G01X864519Y2044603D01*
G03X890134Y2070217I0J25614D01*
G01X890134Y2349777D01*
G01X890223Y2351918D01*
G01X890223Y2529966D01*
G01X1046713Y2529966D01*
G01X1039148Y2522401D01*
G03X1029786Y2499799I22602J-22602D01*
G01X1029786Y2225947D01*
G03X1061750Y2147767I31964J-32555D01*
G03X1093714Y2225947I0J45624D01*
G01X1093714Y2486559D01*
G01X1137121Y2529966D01*
G01X1410677Y2529966D01*
G03X1447456Y2511218I36895J26928D01*
G03X1484234Y2529966I-116J45676D01*
G01X1555260Y2529966D01*
G03X1565674Y2540380I0J10414D01*
G01X1565674Y2591539D01*
G01X1582158Y2591539D01*
G01X1583079Y2590680D01*
G01X1584505Y2589361D01*
G03X1659820Y2616406I30212J34257D01*
G03X1674402Y2615709I9442J44636D01*
G01X1674402Y2532632D01*
G03X1686297Y2503913I40614J0D01*
G01X1708157Y2482053D01*
G03X1705385Y2465201I49842J-16852D01*
G01X1705385Y2347235D01*
G01X1659008Y2347235D01*
G03X1633394Y2321620I0J-25614D01*
G01X1633394Y2121621D01*
G03X1659008Y2096007I25614J0D01*
G01X1854538Y2096007D01*
G03X1871054Y2030094I37796J-25555D01*
G03X1934772Y2053702I21280J40358D01*
G03X2015282Y2028942I45412J4390D01*
G03X2101091Y2045244I40440J21123D01*
G03X2020624Y2079215I-45369J4821D01*
G03X1937746Y2074842I-40440J-21123D01*
G03X1883824Y2115275I-45412J-4390D01*
G03X1884622Y2121621I-24816J6346D01*
G01X1884622Y2186362D01*
G03X1955020Y2216873I25379J37914D01*
G03X1986162Y2292972I-2736J45542D01*
G03X1907264Y2269818I-33879J-30558D01*
G03X1884622Y2262191I2736J-45542D01*
G01X1884622Y2321620D01*
G03X1859008Y2347235I-25614J0D01*
G01X1810614Y2347235D01*
G01X1810614Y2443407D01*
G01X1813591Y2446385D01*
G01X2105999Y2446385D01*
G03X2143203Y2461795I0J52614D01*
G01X2174512Y2493105D01*
G03X2189922Y2530308I-37204J37204D01*
G01X2189922Y2550886D01*
G01X2292911Y2550886D01*
G03X2347830Y2489208I41951J-17936D01*
G03X2360260Y2570852I-12968J43742D01*
G01X2384545Y2595137D01*
G03X2399955Y2632341I-37204J37204D01*
G01X2399955Y2700286D01*
G01X2407341Y2700286D01*
G03X2407341Y2811514I0J55614D01*
G01X2287341Y2811514D01*
G03X2287341Y2700286I0J-55614D01*
G01X2294727Y2700286D01*
G01X2294727Y2656114D01*
G01X2206721Y2656114D01*
G03X2173288Y2732783I-33433J31045D01*
G03X2139855Y2656114I0J-45624D01*
G01X2097804Y2656114D01*
G03X2082800Y2651260I0J-25614D01*
G03X2067796Y2656114I-15004J-20760D01*
G01X1988673Y2656114D01*
G01X1846614Y2656114D01*
G01X1846614Y2700286D01*
G01X1852859Y2700286D01*
G03X1852859Y2811514I0J55614D01*
G01X1732859Y2811514D01*
G03X1677846Y2747745I0J-55614D01*
G01X1664065Y2747745D01*
G01X1664065Y3051200D01*
G03X1638451Y3076815I-25614J0D01*
G01X1565674Y3076815D01*
G01X1565674Y3168435D01*
G01X1613940Y3168435D01*
G03X1639555Y3194049I0J25614D01*
G01X1639555Y3240706D01*
G03X1643995Y3240318I4440J25226D01*
G01X1700560Y3240318D01*
G03X1703620Y3240502I0J25614D01*
G01X1738886Y3240502D01*
G01X1738886Y3192514D01*
G01X1732859Y3192514D01*
G03X1732859Y3081286I0J-55614D01*
G01X1852859Y3081286D01*
G03X1852859Y3192514I0J55614D01*
G01X1846465Y3192514D01*
G01X1846465Y3262277D01*
G03X1846728Y3265933I-25352J3655D01*
G01X1846728Y3319933D01*
G03X1821113Y3345547I-25614J0D01*
G01X1764548Y3345547D01*
G03X1760011Y3345142I0J-25614D01*
G01X1705097Y3345142D01*
G03X1700560Y3345547I-4536J-25209D01*
G01X1643995Y3345547D01*
G03X1628996Y3340696I0J-25614D01*
G03X1614770Y3345535I-14999J-20763D01*
G01X1613726Y3345557D01*
G01X869047Y3345557D01*
G03X864609Y3345944I-4438J-25227D01*
G01X770776Y3345944D01*
G03X749350Y3334366I0J-25614D01*
G03X744903Y3319943I21167J-14424D01*
G01X744903Y3265881D01*
G03X745162Y3262249I25614J0D01*
G01X745162Y3055281D01*
G03X744835Y3051200I25287J-4081D01*
G01X744835Y2700654D01*
G03X686376Y2656702I-12835J-43781D01*
G01X670036Y1373872D02*
G01X669177Y1372950D01*
G01X667858Y1371525D01*
G03X702000Y1295636I34257J-30212D01*
G03X736141Y1371525I-116J45676D01*
G01X734822Y1372950D01*
G01X733964Y1373872D01*
G01X734092Y1451194D01*
G03X736679Y1454190I-33203J31291D01*
G03X697497Y1527983I-35868J28254D01*
G03X669572Y1449307I3392J-45498D01*
G01X670036Y1448856D01*
G01X670036Y1373872D01*
G01X657719Y3669449D02*
G03X714070Y3626062I45614J955D01*
G03X768901Y3585558I54830J16860D01*
G01X832401Y3585558D01*
G03X889765Y3642922I0J57364D01*
G01X889765Y3706422D01*
G03X832401Y3763786I-57364J0D01*
G01X768901Y3763786D01*
G03X712206Y3715157I0J-57364D01*
G03X657719Y3669449I-8873J-44753D01*
G01X1037375Y201000D02*
G03X1128624Y201000I45624J0D01*
G03X1037375Y201000I-45624J0D01*
G01X1099310Y2453928D02*
G03X1190559Y2453928I45624J0D01*
G03X1099310Y2453928I-45624J0D01*
G01X1507030Y1679139D02*
G03X1500724Y1679927I-6306J-24826D01*
G01X1446723Y1679927D01*
G03X1423549Y1665224I0J-25614D01*
G03X1420721Y1653525I22786J-11699D01*
G01X1420721Y1575757D01*
G03X1427071Y1558875I25614J0D01*
G03X1446723Y1549690I19652J16428D01*
G01X1500724Y1549690D01*
G03X1505520Y1550143I0J25614D01*
G01X1700845Y1550143D01*
G03X1719805Y1463021I18960J-41498D01*
G03X1738764Y1550143I0J45624D01*
G01X1742558Y1550143D01*
G03X1768172Y1575757I0J25614D01*
G01X1768172Y1590595D01*
G03X1768863Y1596503I-24923J5908D01*
G01X1768863Y1721504D01*
G03X1743249Y1747118I-25614J0D01*
G01X1673249Y1747118D01*
G03X1649271Y1730512I0J-25614D01*
G03X1594244Y1731749I-28331J-35762D01*
G03X1578070Y1679139I26696J-36999D01*
G01X1507030Y1679139D01*
G01X1441407Y2455190D02*
G03X1532655Y2455190I45624J0D01*
G03X1441407Y2455190I-45624J0D01*
G01X1448375Y1972962D02*
G03X1539624Y1972962I45624J0D01*
G03X1448375Y1972962I-45624J0D01*
G01X1541206Y3523795D02*
G03X1632454Y3523795I45624J0D01*
G03X1541206Y3523795I-45624J0D01*
G01X1769014Y334482D02*
G03X1767731Y284556I37530J-25943D01*
G03X1805784Y214329I38421J-24605D01*
G03X1844964Y283933I368J45623D01*
G03X1841474Y337889I-38421J24605D01*
G03X1849717Y343844I-14360J28557D01*
G01X1866370Y360497D01*
G03X1875732Y383099I-22602J22602D01*
G01X1875732Y575611D01*
G03X1890366Y653839I-14708J43235D01*
G03X1834930Y656161I-29234J-35028D01*
G03X1818671Y661983I-16259J-19792D01*
G01X1815732Y661983D01*
G03X1772816Y661983I-21458J-40263D01*
G01X1768780Y661983D01*
G03X1743166Y636369I0J-25614D01*
G01X1743166Y579188D01*
G03X1733331Y593987I-24926J-5896D01*
G03X1694945Y664237I-38503J24574D01*
G03X1655594Y595566I116J-45676D01*
G03X1643240Y578867I12645J-22275D01*
G03X1634265Y593273I-25000J-5575D01*
G03X1600606Y666730I-36100J27899D01*
G03X1559290Y597291I-2441J-45559D01*
G03X1542626Y573291I8950J-24000D01*
G01X1542626Y403292D01*
G03X1560833Y378772I25614J0D01*
G01X1560833Y376340D01*
G03X1570195Y353738I31964J0D01*
G01X1580089Y343844D01*
G03X1602691Y334482I22602J22602D01*
G01X1769014Y334482D01*
G01X1732859Y2827286D02*
G01X1852859Y2827286D01*
G03X1852859Y2938514I0J55614D01*
G01X1732859Y2938514D01*
G03X1732859Y2827286I0J-55614D01*
G01X1732859Y2954286D02*
G01X1852859Y2954286D01*
G03X1852859Y3065514I0J55614D01*
G01X1732859Y3065514D01*
G03X1732859Y2954286I0J-55614D01*
G01X2033779Y3522110D02*
G01X2032920Y3521188D01*
G01X2031601Y3519763D01*
G03X2065743Y3443875I34257J-30212D01*
G03X2099884Y3519763I-116J45676D01*
G01X2098565Y3521188D01*
G01X2097707Y3522110D01*
G01X2097707Y3585558D01*
G03X2154859Y3642922I-212J57364D01*
G01X2154859Y3706422D01*
G03X2097494Y3763786I-57364J0D01*
G01X2033994Y3763786D01*
G03X1976630Y3706422I0J-57364D01*
G01X1976630Y3642922D01*
G03X2033779Y3585558I57364J0D01*
G01X2033779Y3522110D01*
G01X2014612Y2301018D02*
G03X2105860Y2301018I45624J0D01*
G03X2014612Y2301018I-45624J0D01*
G01X2117583Y3206585D02*
G03X2208832Y3206585I45624J0D01*
G03X2117583Y3206585I-45624J0D01*
G01X2230797Y3565858D02*
G01X2229478Y3564432D01*
G03X2263619Y3488544I34257J-30212D01*
G03X2297761Y3564432I-116J45676D01*
G01X2296442Y3565858D01*
G01X2295583Y3566779D01*
G01X2295583Y3588248D01*
G03X2335586Y3642922I-17361J54674D01*
G01X2335586Y3706422D01*
G03X2278222Y3763786I-57364J0D01*
G01X2214722Y3763786D01*
G03X2157358Y3706422I0J-57364D01*
G01X2157358Y3642922D01*
G03X2214722Y3585558I57364J0D01*
G01X2231655Y3585558D01*
G01X2231655Y3566779D01*
G01X2230797Y3565858D01*
G01X2287341Y3081286D02*
G01X2407341Y3081286D01*
G03X2407341Y3192514I0J55614D01*
G01X2287341Y3192514D01*
G03X2287341Y3081286I0J-55614D01*
G01X2914838Y2896043D02*
G03X3002154Y2886112I45046J7239D01*
G03X3074488Y2841084I72334J35587D01*
G01X3164488Y2841084D01*
G03X3164488Y3002313I0J80614D01*
G01X3074488Y3002313D01*
G03X2994647Y2932831I0J-80614D01*
G03X2914838Y2896043I-34762J-29549D01*
G01X3055783Y3206689D02*
G03X3147031Y3206689I45624J0D01*
G03X3055783Y3206689I-45624J0D01*
G01X3110892Y2200212D02*
G03X3232123Y2200212I60615J0D01*
G03X3110892Y2200212I-60615J0D01*
G01X3110892Y2778214D02*
G03X3232123Y2778214I60615J0D01*
G03X3110892Y2778214I-60615J0D01*
G01X3126386Y3425000D02*
G03X3727614Y3425000I300614J0D01*
G03X3126386Y3425000I-300614J0D01*
G01X3126386Y375000D02*
G03X3727614Y375000I300614J0D01*
G03X3126386Y375000I-300614J0D01*
G01X3236375Y1176000D02*
G03X3327623Y1176000I45624J0D01*
G03X3236375Y1176000I-45624J0D01*
G01X3509503Y2836084D02*
G01X3569503Y2836084D01*
G03X3569503Y3007313I0J85614D01*
G01X3509503Y3007313D01*
G03X3509503Y2836084I0J-85614D01*
G01X2967612Y478675D02*
G01X2975337Y470951D01*
G01X2975337Y393165D01*
G03X2951739Y367630I2017J-25535D01*
G01X2951739Y347558D01*
G03X2931814Y354529I-19926J-24993D01*
G01X2927177Y354529D01*
G01X2927177Y389876D01*
G03X2904219Y415352I-25614J0D01*
G01X2904219Y463744D01*
G03X2900517Y478675I-31964J0D01*
G01X2967612Y478675D01*
G04 Copper End*

G04 TearDrop Start*
G36*
G01X2558192Y3602217D02*
G01X2543141Y3605127D01*
G03X2549495Y3625714I-16306J16306D01*
G01X2576177Y3611172D01*
G03X2558192Y3602217I4366J-31307D01*
G37*
G36*
G01X2432581Y3592122D02*
G01X2419881Y3592122D01*
G03X2410356Y3611172I-23813J0D01*
G01X2442106Y3611172D01*
G03X2432581Y3592122I14288J-19050D01*
G37*
G36*
G01X2269969Y3592122D02*
G01X2257269Y3592122D01*
G03X2247744Y3611172I-23813J0D01*
G01X2278222Y3611172D01*
G03X2269969Y3592122I17861J-19050D01*
G37*
G36*
G01X2072093Y3592122D02*
G01X2059393Y3592122D01*
G03X2049868Y3611172I-23813J0D01*
G01X2081618Y3611172D01*
G03X2072093Y3592122I14288J-19050D01*
G37*
G36*
G01X1896502Y3592122D02*
G01X1883802Y3592122D01*
G03X1874277Y3611172I-23813J0D01*
G01X1906027Y3611172D01*
G03X1896502Y3592122I14288J-19050D01*
G37*
G36*
G01X1689907Y3592122D02*
G01X1677207Y3592122D01*
G03X1672539Y3611172I-41207J0D01*
G01X1699432Y3611172D01*
G03X1689907Y3592122I14288J-19050D01*
G37*
G36*
G01X718101Y3668756D02*
G01X718101Y3681456D01*
G03X737151Y3690981I0J23813D01*
G01X737151Y3659231D01*
G03X718101Y3668756I-19050J-14288D01*
G37*
G36*
G01X1213680Y3605712D02*
G01X1200980Y3592122D01*
G03X1193856Y3611172I-29031J0D01*
G01X1219900Y3624762D01*
G03X1213680Y3605712I28424J-19820D01*
G37*
G36*
G01X201754Y2294955D02*
G01X201754Y2282255D01*
G03X182704Y2272730I0J-23813D01*
G01X182704Y2304480D01*
G03X201754Y2294955I19050J14288D01*
G37*
G36*
G01X201754Y2106286D02*
G01X201754Y2093586D01*
G03X182704Y2084061I0J-23813D01*
G01X182704Y2115811D01*
G03X201754Y2106286I19050J14288D01*
G37*
G36*
G01X201754Y1928772D02*
G01X201754Y1916072D01*
G03X182704Y1906547I0J-23813D01*
G01X182704Y1938297D01*
G03X201754Y1928772I19050J14288D01*
G37*
G36*
G01X1617067Y1377453D02*
G01X1604367Y1377453D01*
G03X1594842Y1396503I-23813J0D01*
G01X1626592Y1396503D01*
G03X1617067Y1377453I14288J-19050D01*
G37*
G36*
G01X1559203Y1414822D02*
G01X1559203Y1427522D01*
G03X1578253Y1437047I0J23813D01*
G01X1578253Y1405297D01*
G03X1559203Y1414822I-19050J-14288D01*
G37*
G36*
G01X2669228Y532621D02*
G01X2656528Y534219D01*
G01X2656235Y536718D01*
G01X2655442Y539152D01*
G01X2652885Y543887D01*
G01X2649907Y548550D01*
G01X2647560Y553269D01*
G01X2679269Y551671D01*
G01X2676641Y547267D01*
G01X2673307Y542356D01*
G01X2670444Y537340D01*
G01X2669557Y534918D01*
G01X2669228Y532621D01*
G37*
G36*
G01X2555932Y537048D02*
G01X2538636Y536383D01*
G01X2536216Y538533D01*
G01X2534089Y539946D01*
G01X2530313Y541532D01*
G01X2526509Y543089D01*
G01X2524347Y544467D01*
G01X2521879Y546567D01*
G01X2550894Y558951D01*
G01X2550842Y552810D01*
G01X2551177Y547073D01*
G01X2551718Y544375D01*
G01X2552629Y541800D01*
G01X2554003Y539356D01*
G01X2555932Y537048D01*
G37*
G36*
G01X2462395Y723339D02*
G01X2475095Y723339D01*
G01X2475407Y720953D01*
G01X2476249Y718527D01*
G01X2478965Y713639D01*
G01X2482127Y708838D01*
G01X2484620Y704289D01*
G01X2452870Y704289D01*
G01X2455363Y708838D01*
G01X2458526Y713639D01*
G01X2461242Y718527D01*
G01X2462083Y720953D01*
G01X2462395Y723339D01*
G37*
G36*
G01X2344077Y532501D02*
G01X2331377Y534345D01*
G01X2331086Y536864D01*
G01X2330301Y539300D01*
G01X2327770Y544008D01*
G01X2324821Y548647D01*
G01X2322498Y553395D01*
G01X2354194Y551551D01*
G01X2351546Y547168D01*
G01X2348187Y542241D01*
G01X2345302Y537207D01*
G01X2344408Y534785D01*
G01X2344077Y532501D01*
G37*
G36*
G01X2282073Y535307D02*
G01X2269373Y531605D01*
G01X2269024Y533808D01*
G01X2268082Y536228D01*
G01X2265043Y541388D01*
G01X2261503Y546419D01*
G01X2258714Y550655D01*
G01X2290247Y554357D01*
G01X2288108Y549352D01*
G01X2285394Y544936D01*
G01X2283063Y540468D01*
G01X2282341Y538014D01*
G01X2282073Y535307D01*
G37*
G36*
G01X2213894Y532333D02*
G01X2201194Y534521D01*
G01X2200908Y537070D01*
G01X2200134Y539508D01*
G01X2197638Y544178D01*
G01X2194732Y548781D01*
G01X2192441Y553571D01*
G01X2224116Y551383D01*
G01X2221440Y547029D01*
G01X2218047Y542081D01*
G01X2215132Y537023D01*
G01X2214228Y534602D01*
G01X2213894Y532333D01*
G37*
G36*
G01X2721725Y1295870D02*
G01X2734425Y1297100D01*
G01X2734750Y1294784D01*
G01X2735627Y1292362D01*
G01X2738458Y1287374D01*
G01X2741753Y1282486D01*
G01X2744351Y1278050D01*
G01X2712625Y1276820D01*
G01X2715007Y1281497D01*
G01X2718028Y1286195D01*
G01X2720623Y1290968D01*
G01X2721428Y1293399D01*
G01X2721725Y1295870D01*
G37*
G36*
G01X2642270Y1295655D02*
G01X2662555Y1293330D01*
G01X2666657Y1289899D01*
G01X2670325Y1287586D01*
G01X2673828Y1285131D01*
G01X2677438Y1281272D01*
G01X2646736Y1273180D01*
G01X2647277Y1279252D01*
G01X2647023Y1285274D01*
G01X2646453Y1288148D01*
G01X2645510Y1290867D01*
G01X2644135Y1293385D01*
G01X2642270Y1295655D01*
G37*
G36*
G01X2577131Y1294802D02*
G01X2596496Y1293397D01*
G01X2600917Y1289771D01*
G01X2604467Y1287874D01*
G01X2607892Y1285866D01*
G01X2611941Y1281901D01*
G01X2581652Y1272382D01*
G01X2582061Y1278545D01*
G01X2581848Y1284491D01*
G01X2581319Y1287310D01*
G01X2580406Y1289988D01*
G01X2579036Y1292495D01*
G01X2577131Y1294802D01*
G37*
G36*
G01X2511711Y1298599D02*
G01X2535152Y1293119D01*
G01X2539377Y1289349D01*
G01X2542571Y1286903D01*
G01X2545408Y1284182D01*
G01X2548561Y1279586D01*
G01X2518157Y1278104D01*
G01X2519022Y1280767D01*
G01X2519265Y1283488D01*
G01X2518958Y1286225D01*
G01X2518173Y1288933D01*
G01X2515461Y1294087D01*
G01X2511711Y1298599D01*
G37*
G36*
G01X2398372Y1297406D02*
G01X2411072Y1295552D01*
G01X2411363Y1293032D01*
G01X2412147Y1290596D01*
G01X2414678Y1285889D01*
G01X2417625Y1281251D01*
G01X2419948Y1276502D01*
G01X2388252Y1278356D01*
G01X2390901Y1282738D01*
G01X2394261Y1287665D01*
G01X2397147Y1292700D01*
G01X2398041Y1295122D01*
G01X2398372Y1297406D01*
G37*
G36*
G01X2332373Y1296490D02*
G01X2345073Y1296490D01*
G01X2345384Y1294104D01*
G01X2346226Y1291678D01*
G01X2348942Y1286790D01*
G01X2352105Y1281989D01*
G01X2354598Y1277440D01*
G01X2322848Y1277440D01*
G01X2325340Y1281989D01*
G01X2328503Y1286790D01*
G01X2331219Y1291678D01*
G01X2332061Y1294104D01*
G01X2332373Y1296490D01*
G37*
G36*
G01X2201649Y1295812D02*
G01X2214349Y1297156D01*
G01X2214675Y1294847D01*
G01X2215556Y1292424D01*
G01X2218396Y1287427D01*
G01X2221704Y1282532D01*
G01X2224312Y1278106D01*
G01X2192590Y1276762D01*
G01X2194961Y1281452D01*
G01X2197969Y1286139D01*
G01X2200552Y1290900D01*
G01X2201353Y1293333D01*
G01X2201649Y1295812D01*
G37*
G36*
G01X2269373Y486427D02*
G01X2282073Y486427D01*
G03X2290591Y467377I25561J0D01*
G01X2259848Y467377D01*
G03X2269373Y486427I-14288J19050D01*
G37*
G36*
G01X2462807Y312437D02*
G01X2450107Y312437D01*
G03X2440582Y331487I-23813J0D01*
G01X2472332Y331487D01*
G03X2462807Y312437I14288J-19050D01*
G37*
G36*
G01X2130943Y184010D02*
G01X2130943Y196710D01*
G03X2140591Y206235I0J9649D01*
G01X2140591Y174485D01*
G03X2130943Y184010I-9648J-124D01*
G37*
G36*
G01X2450107Y283227D02*
G01X2462807Y283227D01*
G03X2472332Y264177I23813J0D01*
G01X2440582Y264177D01*
G03X2450107Y283227I-14288J19050D01*
G37*
G36*
G01X1599147Y384242D02*
G01X1586447Y384242D01*
G03X1576922Y403292I-23813J0D01*
G01X1608672Y403292D01*
G03X1599147Y384242I14288J-19050D01*
G37*
G36*
G01X1688595Y592341D02*
G01X1701295Y592341D01*
G03X1710820Y573291I23813J0D01*
G01X1679070Y573291D01*
G03X1688595Y592341I-14288J19050D01*
G37*
G36*
G01X836066Y482650D02*
G01X836066Y495350D01*
G03X855116Y504875I0J23813D01*
G01X855116Y473125D01*
G03X836066Y482650I-19050J-14288D01*
G37*
G36*
G01X948380Y567503D02*
G01X953122Y580722D01*
G03X973327Y573987I20205J26941D01*
G01X955116Y547298D01*
G03X948380Y567503I-33675J0D01*
G37*
G36*
G01X393146Y2845909D02*
G01X393146Y2858609D01*
G03X412196Y2868134I0J23813D01*
G01X412196Y2836384D01*
G03X393146Y2845909I-19050J-14288D01*
G37*
G36*
G01X443579Y2898530D02*
G01X456279Y2898530D01*
G03X465804Y2879480I23813J0D01*
G01X434054Y2879480D01*
G03X443579Y2898530I-14288J19050D01*
G37*
G36*
G01X393146Y2743934D02*
G01X393146Y2756634D01*
G03X412196Y2766159I0J23813D01*
G01X412196Y2734409D01*
G03X393146Y2743934I-19050J-14288D01*
G37*
G36*
G01X601245Y2761914D02*
G01X601245Y2749214D01*
G03X582195Y2739689I0J-23813D01*
G01X582195Y2771439D01*
G03X601245Y2761914I19050J14288D01*
G37*
G36*
G01X393146Y2643122D02*
G01X393146Y2655822D01*
G03X412196Y2665347I0J23813D01*
G01X412196Y2633597D01*
G03X393146Y2643122I-19050J-14288D01*
G37*
G36*
G01X2334999Y1448963D02*
G01X2328078Y1437923D01*
G03X2307872Y1444659I-20206J-26941D01*
G01X2328264Y1469169D01*
G03X2334999Y1448963I33676J0D01*
G37*
G36*
G01X2509206Y1447370D02*
G01X2509206Y1460070D01*
G03X2528256Y1469595I0J23813D01*
G01X2528256Y1444659D01*
G03X2509206Y1447370I-19050J-65577D01*
G37*
G36*
G01X749248Y838850D02*
G01X749248Y826150D01*
G01X743904Y825481D01*
G01X738468Y823572D01*
G01X733660Y820571D01*
G01X731716Y818707D01*
G01X730198Y816625D01*
G01X730198Y848375D01*
G01X731716Y846292D01*
G01X733660Y844428D01*
G01X738468Y841427D01*
G01X743904Y839519D01*
G01X749248Y838850D01*
G37*
G36*
G01X500969Y943418D02*
G01X491160Y956118D01*
G01X497440Y956534D01*
G01X500419Y957134D01*
G01X503174Y958066D01*
G01X505617Y959385D01*
G01X507663Y961143D01*
G01X509223Y963395D01*
G01X510210Y966193D01*
G01X520019Y935996D01*
G01X516071Y938721D01*
G01X511024Y941098D01*
G01X505712Y942780D01*
G01X500969Y943418D01*
G37*
G36*
G01X494989Y1079650D02*
G01X494484Y1092350D01*
G01X499871Y1093011D01*
G01X505315Y1094913D01*
G01X510106Y1097932D01*
G01X512035Y1099820D01*
G01X513534Y1101941D01*
G01X514039Y1070195D01*
G01X512503Y1072238D01*
G01X510544Y1074078D01*
G01X505719Y1077061D01*
G01X500292Y1078974D01*
G01X494989Y1079650D01*
G37*
G36*
G01X1321659Y883050D02*
G01X1334359Y883050D01*
G01X1334508Y876055D01*
G01X1334861Y872836D01*
G01X1335549Y869953D01*
G01X1336684Y867516D01*
G01X1338377Y865637D01*
G01X1340740Y864428D01*
G01X1343884Y864000D01*
G01X1312134Y864000D01*
G01X1315278Y864428D01*
G01X1317640Y865637D01*
G01X1319333Y867516D01*
G01X1320468Y869953D01*
G01X1321156Y872836D01*
G01X1321510Y876055D01*
G01X1321659Y883050D01*
G37*
G36*
G01X1334359Y908950D02*
G01X1321659Y908950D01*
G01X1321510Y915945D01*
G01X1321156Y919163D01*
G01X1320468Y922047D01*
G01X1319333Y924484D01*
G01X1317640Y926363D01*
G01X1315278Y927572D01*
G01X1312134Y928000D01*
G01X1343884Y928000D01*
G01X1340740Y927572D01*
G01X1338377Y926363D01*
G01X1336684Y924484D01*
G01X1335550Y922047D01*
G01X1334861Y919163D01*
G01X1334508Y915945D01*
G01X1334359Y908950D01*
G37*
G36*
G01X1455011Y966350D02*
G01X1455515Y953650D01*
G01X1450129Y952988D01*
G01X1444685Y951086D01*
G01X1439893Y948068D01*
G01X1437965Y946179D01*
G01X1436465Y944059D01*
G01X1435961Y975805D01*
G01X1437497Y973761D01*
G01X1439456Y971921D01*
G01X1444281Y968939D01*
G01X1449708Y967025D01*
G01X1455011Y966350D01*
G37*
G36*
G01X1212500Y1080150D02*
G01X1212500Y1092850D01*
G01X1214283Y1093064D01*
G01X1215576Y1093668D01*
G01X1216500Y1094608D01*
G01X1217176Y1095826D01*
G01X1218264Y1098877D01*
G01X1219801Y1102375D01*
G01X1219801Y1070625D01*
G01X1218264Y1074122D01*
G01X1217176Y1077173D01*
G01X1216500Y1078392D01*
G01X1215576Y1079331D01*
G01X1214283Y1079936D01*
G01X1212500Y1080150D01*
G37*
G36*
G01X1205314Y1199650D02*
G01X1197754Y1212350D01*
G01X1203798Y1212843D01*
G01X1206710Y1213512D01*
G01X1209436Y1214507D01*
G01X1211892Y1215863D01*
G01X1213995Y1217615D01*
G01X1215661Y1219795D01*
G01X1216804Y1222440D01*
G01X1224364Y1191603D01*
G01X1220527Y1194569D01*
G01X1215483Y1197145D01*
G01X1210117Y1198962D01*
G01X1205314Y1199650D01*
G37*
G36*
G01X1441106Y2584084D02*
G01X1453806Y2584084D01*
G01X1454000Y2581805D01*
G01X1454550Y2579825D01*
G01X1456511Y2576467D01*
G01X1462463Y2570077D01*
G01X1432448Y2570077D01*
G01X1438400Y2576467D01*
G01X1440362Y2579825D01*
G01X1440911Y2581805D01*
G01X1441106Y2584084D01*
G37*
G36*
G01X455728Y1017992D02*
G01X468428Y1017992D01*
G01X468623Y1015712D01*
G01X469172Y1013733D01*
G01X471133Y1010375D01*
G01X477086Y1003985D01*
G01X447070Y1003985D01*
G01X453023Y1010375D01*
G01X454984Y1013733D01*
G01X455534Y1015712D01*
G01X455728Y1017992D01*
G37*
G36*
G01X1000858Y1143522D02*
G01X1009838Y1152503D01*
G01X1011587Y1151028D01*
G01X1013376Y1150017D01*
G01X1017137Y1149030D01*
G01X1025864Y1148720D01*
G01X1004640Y1127496D01*
G01X1004330Y1136224D01*
G01X1003343Y1139985D01*
G01X1002332Y1141773D01*
G01X1000858Y1143522D01*
G37*
G36*
G01X2959666Y1649017D02*
G01X2972366Y1649017D01*
G01X2972567Y1646835D01*
G01X2973135Y1645051D01*
G01X2975161Y1642259D01*
G01X2978026Y1639806D01*
G01X2981310Y1636855D01*
G01X2951325Y1635520D01*
G01X2957060Y1641717D01*
G01X2958950Y1644831D01*
G01X2959479Y1646741D01*
G01X2959666Y1649017D01*
G37*
G36*
G01X1411551Y1447502D02*
G01X1398851Y1447502D01*
G01X1398657Y1449782D01*
G01X1398107Y1451761D01*
G01X1396146Y1455119D01*
G01X1390194Y1461509D01*
G01X1420209Y1461509D01*
G01X1414257Y1455119D01*
G01X1412295Y1451761D01*
G01X1411746Y1449782D01*
G01X1411551Y1447502D01*
G37*
G36*
G01X1933024Y329322D02*
G01X1933024Y316622D01*
G01X1930745Y316427D01*
G01X1928765Y315878D01*
G01X1925407Y313917D01*
G01X1919017Y307964D01*
G01X1919017Y337980D01*
G01X1925407Y332027D01*
G01X1928765Y330066D01*
G01X1930745Y329516D01*
G01X1933024Y329322D01*
G37*
G36*
G01X2331377Y526423D02*
G01X2344077Y528674D01*
G01X2344282Y526425D01*
G01X2344861Y524423D01*
G01X2346927Y520949D01*
G01X2349850Y517837D01*
G01X2353200Y514667D01*
G01X2323269Y512416D01*
G01X2328843Y518910D01*
G01X2330680Y522154D01*
G01X2331194Y524112D01*
G01X2331377Y526423D01*
G37*
G36*
G01X2668628Y1746876D02*
G01X2677608Y1737895D01*
G01X2676134Y1736146D01*
G01X2675122Y1734357D01*
G01X2674135Y1730596D01*
G01X2673825Y1721869D01*
G01X2652602Y1743093D01*
G01X2661328Y1743403D01*
G01X2665090Y1744390D01*
G01X2666878Y1745401D01*
G01X2668628Y1746876D01*
G37*
G36*
G01X3492496Y1253614D02*
G01X3505196Y1235616D01*
G01X3505887Y1228605D01*
G01X3506895Y1221609D01*
G01X3483632Y1239607D01*
G01X3485784Y1240251D01*
G01X3487619Y1241355D01*
G01X3489147Y1242847D01*
G01X3490377Y1244655D01*
G01X3491979Y1248932D01*
G01X3492496Y1253614D01*
G37*
G36*
G01X1701295Y591371D02*
G01X1688595Y591371D01*
G01X1688400Y593650D01*
G01X1687851Y595630D01*
G01X1685889Y598988D01*
G01X1679937Y605378D01*
G01X1709952Y605378D01*
G01X1704000Y598988D01*
G01X1702039Y595630D01*
G01X1701489Y593650D01*
G01X1701295Y591371D01*
G37*
G36*
G01X1848258Y596077D02*
G01X1839277Y605057D01*
G01X1840663Y606724D01*
G01X1841470Y608326D01*
G01X1841845Y611541D01*
G01X1841400Y615110D01*
G01X1841132Y619444D01*
G01X1863005Y598889D01*
G01X1858580Y598847D01*
G01X1854916Y599005D01*
G01X1851609Y598403D01*
G01X1849964Y597516D01*
G01X1848258Y596077D01*
G37*
G36*
G01X1894513Y1113231D02*
G01X1894513Y1125931D01*
G01X1896792Y1126126D01*
G01X1898772Y1126675D01*
G01X1902130Y1128636D01*
G01X1908519Y1134589D01*
G01X1908519Y1104573D01*
G01X1902130Y1110526D01*
G01X1898772Y1112487D01*
G01X1896792Y1113036D01*
G01X1894513Y1113231D01*
G37*
G36*
G01X1137664Y1687010D02*
G01X1137664Y1699710D01*
G01X1139944Y1699905D01*
G01X1141923Y1700454D01*
G01X1145281Y1702415D01*
G01X1151671Y1708368D01*
G01X1151671Y1678352D01*
G01X1145281Y1684305D01*
G01X1141923Y1686266D01*
G01X1139944Y1686816D01*
G01X1137664Y1687010D01*
G37*
G36*
G01X1208186Y1434228D02*
G01X1220886Y1434228D01*
G01X1221080Y1431949D01*
G01X1221630Y1429969D01*
G01X1223591Y1426611D01*
G01X1229543Y1420221D01*
G01X1199528Y1420221D01*
G01X1205480Y1426611D01*
G01X1207442Y1429969D01*
G01X1207991Y1431949D01*
G01X1208186Y1434228D01*
G37*
G36*
G01X726678Y3681456D02*
G01X733731Y3668756D01*
G01X731548Y3668535D01*
G01X729495Y3667911D01*
G01X725768Y3665685D01*
G01X722521Y3662536D01*
G01X719724Y3658927D01*
G01X712671Y3688102D01*
G01X716515Y3685661D01*
G01X719366Y3683533D01*
G01X722371Y3682027D01*
G01X726678Y3681456D01*
G37*
G36*
G01X1200980Y3496929D02*
G01X1213680Y3496929D01*
G01X1213875Y3494650D01*
G01X1214424Y3492670D01*
G01X1216386Y3489312D01*
G01X1222338Y3482922D01*
G01X1192323Y3482922D01*
G01X1198275Y3489312D01*
G01X1200236Y3492670D01*
G01X1200786Y3494650D01*
G01X1200980Y3496929D01*
G37*
G36*
G01X1724494Y3451826D02*
G01X1724494Y3464526D01*
G01X1726773Y3464721D01*
G01X1728753Y3465270D01*
G01X1732111Y3467232D01*
G01X1738501Y3473184D01*
G01X1738501Y3443169D01*
G01X1732111Y3449121D01*
G01X1728753Y3451083D01*
G01X1726773Y3451632D01*
G01X1724494Y3451826D01*
G37*
G36*
G01X1867323Y3407649D02*
G01X1859428Y3420349D01*
G01X1861599Y3420572D01*
G01X1863660Y3421201D01*
G01X1867433Y3423446D01*
G01X1870705Y3426621D01*
G01X1873435Y3430260D01*
G01X1881330Y3401302D01*
G01X1877428Y3403633D01*
G01X1874603Y3405666D01*
G01X1871640Y3407104D01*
G01X1867323Y3407649D01*
G37*
G36*
G01X1883802Y3446505D02*
G01X1896502Y3446505D01*
G01X1896696Y3444225D01*
G01X1897246Y3442246D01*
G01X1899207Y3438888D01*
G01X1905159Y3432498D01*
G01X1875144Y3432498D01*
G01X1881096Y3438888D01*
G01X1883058Y3442246D01*
G01X1883607Y3444225D01*
G01X1883802Y3446505D01*
G37*
G36*
G01X2059393Y3516741D02*
G01X2072093Y3516741D01*
G01X2072287Y3514462D01*
G01X2072837Y3512482D01*
G01X2074798Y3509124D01*
G01X2080750Y3502734D01*
G01X2050735Y3502734D01*
G01X2056687Y3509124D01*
G01X2058649Y3512482D01*
G01X2059198Y3514462D01*
G01X2059393Y3516741D01*
G37*
G36*
G01X2257269Y3561410D02*
G01X2269969Y3561410D01*
G01X2270164Y3559131D01*
G01X2270713Y3557151D01*
G01X2272675Y3553793D01*
G01X2278627Y3547403D01*
G01X2248612Y3547403D01*
G01X2254564Y3553793D01*
G01X2256525Y3557151D01*
G01X2257075Y3559131D01*
G01X2257269Y3561410D01*
G37*
G36*
G01X2419881Y3540251D02*
G01X2432581Y3540251D01*
G01X2432775Y3537972D01*
G01X2433325Y3535992D01*
G01X2435286Y3532634D01*
G01X2441238Y3526244D01*
G01X2411223Y3526244D01*
G01X2417176Y3532634D01*
G01X2419137Y3535992D01*
G01X2419686Y3537972D01*
G01X2419881Y3540251D01*
G37*
G36*
G01X2491207Y3550562D02*
G01X2503907Y3550562D01*
G01X2504190Y3549307D01*
G01X2504955Y3548013D01*
G01X2507424Y3545412D01*
G01X2512564Y3540875D01*
G01X2482549Y3540875D01*
G01X2487689Y3545412D01*
G01X2490158Y3548013D01*
G01X2490923Y3549307D01*
G01X2491207Y3550562D01*
G37*
G36*
G01X613847Y2749214D02*
G01X613847Y2761914D01*
G01X616126Y2762108D01*
G01X618106Y2762658D01*
G01X621464Y2764619D01*
G01X627853Y2770571D01*
G01X627853Y2740556D01*
G01X621464Y2746508D01*
G01X618106Y2748470D01*
G01X616126Y2749019D01*
G01X613847Y2749214D01*
G37*
G36*
G01X2662623Y1927974D02*
G01X2662623Y1915274D01*
G01X2660346Y1915079D01*
G01X2658372Y1914530D01*
G01X2655031Y1912568D01*
G01X2648665Y1906616D01*
G01X2648665Y1936631D01*
G01X2655031Y1930679D01*
G01X2658372Y1928718D01*
G01X2660346Y1928168D01*
G01X2662623Y1927974D01*
G37*
G36*
G01X2985802Y2119220D02*
G01X2976822Y2110240D01*
G01X2975073Y2111714D01*
G01X2973284Y2112726D01*
G01X2969523Y2113713D01*
G01X2960796Y2114022D01*
G01X2982019Y2135246D01*
G01X2982329Y2126519D01*
G01X2983316Y2122758D01*
G01X2984328Y2120969D01*
G01X2985802Y2119220D01*
G37*
G36*
G01X3091378Y558404D02*
G01X3104078Y558404D01*
G01X3104272Y556125D01*
G01X3104822Y554145D01*
G01X3106783Y550787D01*
G01X3112735Y544397D01*
G01X3082720Y544397D01*
G01X3088672Y550787D01*
G01X3090634Y554145D01*
G01X3091183Y556125D01*
G01X3091378Y558404D01*
G37*
G36*
G01X371361Y2305411D02*
G01X371361Y2318111D01*
G01X373640Y2318306D01*
G01X375620Y2318855D01*
G01X378978Y2320817D01*
G01X385368Y2326769D01*
G01X385368Y2296754D01*
G01X378978Y2302706D01*
G01X375620Y2304667D01*
G01X373640Y2305217D01*
G01X371361Y2305411D01*
G37*
G36*
G01X2474646Y1341468D02*
G01X2474646Y1328768D01*
G01X2472367Y1328574D01*
G01X2470387Y1328025D01*
G01X2467029Y1326063D01*
G01X2460639Y1320111D01*
G01X2460639Y1350126D01*
G01X2467029Y1344174D01*
G01X2470387Y1342212D01*
G01X2472367Y1341663D01*
G01X2474646Y1341468D01*
G37*
G36*
G01X2541446Y1348447D02*
G01X2532466Y1339467D01*
G01X2530716Y1340941D01*
G01X2528928Y1341953D01*
G01X2525166Y1342940D01*
G01X2516439Y1343250D01*
G01X2537663Y1364473D01*
G01X2537973Y1355746D01*
G01X2538960Y1351985D01*
G01X2539972Y1350196D01*
G01X2541446Y1348447D01*
G37*
G36*
G01X2602867Y1353018D02*
G01X2598588Y1339336D01*
G01X2596885Y1340729D01*
G01X2594998Y1341738D01*
G01X2590810Y1342790D01*
G01X2586305Y1342862D01*
G01X2581764Y1342321D01*
G01X2597759Y1367720D01*
G01X2598696Y1363260D01*
G01X2599184Y1359699D01*
G01X2600236Y1356473D01*
G01X2602867Y1353018D01*
G37*
G36*
G01X2686093Y1362128D02*
G01X2686093Y1349428D01*
G01X2683814Y1349234D01*
G01X2681834Y1348684D01*
G01X2678476Y1346723D01*
G01X2672087Y1340770D01*
G01X2672087Y1370786D01*
G01X2678476Y1364833D01*
G01X2681834Y1362872D01*
G01X2683814Y1362323D01*
G01X2686093Y1362128D01*
G37*
G36*
G01X1070757Y2068656D02*
G01X1070757Y2081356D01*
G01X1073037Y2081551D01*
G01X1075016Y2082100D01*
G01X1078374Y2084061D01*
G01X1084764Y2090014D01*
G01X1084764Y2059998D01*
G01X1078374Y2065951D01*
G01X1075016Y2067912D01*
G01X1073037Y2068461D01*
G01X1070757Y2068656D01*
G37*
G36*
G01X1019757Y2016459D02*
G01X1019757Y2029159D01*
G01X1022037Y2029353D01*
G01X1024016Y2029902D01*
G01X1027374Y2031864D01*
G01X1033764Y2037816D01*
G01X1033764Y2007801D01*
G01X1027374Y2013753D01*
G01X1024016Y2015715D01*
G01X1022037Y2016264D01*
G01X1019757Y2016459D01*
G37*
G36*
G01X758757Y770650D02*
G01X758757Y783350D01*
G01X761037Y783544D01*
G01X763017Y784094D01*
G01X766374Y786055D01*
G01X772764Y792007D01*
G01X772764Y761992D01*
G01X766374Y767944D01*
G01X763017Y769906D01*
G01X761037Y770455D01*
G01X758757Y770650D01*
G37*
G36*
G01X813242Y495350D02*
G01X813242Y482650D01*
G01X810963Y482455D01*
G01X808983Y481906D01*
G01X805625Y479944D01*
G01X799235Y473992D01*
G01X799235Y504007D01*
G01X805625Y498055D01*
G01X808983Y496094D01*
G01X810963Y495544D01*
G01X813242Y495350D01*
G37*
G36*
G01X1140242Y3420349D02*
G01X1140242Y3407649D01*
G01X1137962Y3407454D01*
G01X1135983Y3406905D01*
G01X1132625Y3404944D01*
G01X1126235Y3398991D01*
G01X1126235Y3429007D01*
G01X1132625Y3423054D01*
G01X1135983Y3421093D01*
G01X1137962Y3420544D01*
G01X1140242Y3420349D01*
G37*
G36*
G01X2125688Y748605D02*
G01X2104780Y751552D01*
G01X2102144Y753778D01*
G01X2099129Y755828D01*
G01X2093183Y759764D01*
G01X2122061Y764787D01*
G01X2121091Y762808D01*
G01X2120629Y760717D01*
G01X2120625Y758563D01*
G01X2121026Y756398D01*
G01X2122847Y752227D01*
G01X2125688Y748605D01*
G37*
G36*
G01X1193650Y1049032D02*
G01X1206350Y1048451D01*
G01X1206541Y1046163D01*
G01X1207082Y1044189D01*
G01X1209013Y1040861D01*
G01X1214873Y1034444D01*
G01X1184864Y1035025D01*
G01X1190904Y1041388D01*
G01X1192894Y1044775D01*
G01X1193452Y1046761D01*
G01X1193650Y1049032D01*
G37*
G36*
G01X1003904Y1901486D02*
G01X1003904Y1914186D01*
G01X1006183Y1914380D01*
G01X1008163Y1914930D01*
G01X1011521Y1916891D01*
G01X1017911Y1922844D01*
G01X1017911Y1892828D01*
G01X1011521Y1898781D01*
G01X1008163Y1900742D01*
G01X1006183Y1901291D01*
G01X1003904Y1901486D01*
G37*
G36*
G01X500847Y1377702D02*
G01X500847Y1390402D01*
G01X503127Y1390596D01*
G01X505106Y1391146D01*
G01X508464Y1393107D01*
G01X514854Y1399059D01*
G01X514854Y1369044D01*
G01X508464Y1374996D01*
G01X505106Y1376958D01*
G01X503127Y1377507D01*
G01X500847Y1377702D01*
G37*
G36*
G01X456279Y2909674D02*
G01X443579Y2909674D01*
G01X443385Y2911953D01*
G01X442835Y2913933D01*
G01X440874Y2917291D01*
G01X434922Y2923680D01*
G01X464937Y2923680D01*
G01X458985Y2917291D01*
G01X457023Y2913933D01*
G01X456474Y2911953D01*
G01X456279Y2909674D01*
G37*
G36*
G01X1136157Y3155649D02*
G01X1131657Y3168349D01*
G01X1133876Y3168562D01*
G01X1135901Y3169166D01*
G01X1139492Y3171319D01*
G01X1142667Y3174363D01*
G01X1145664Y3177853D01*
G01X1150164Y3148177D01*
G01X1146499Y3150921D01*
G01X1143573Y3153314D01*
G01X1140440Y3155007D01*
G01X1138502Y3155481D01*
G01X1136157Y3155649D01*
G37*
G36*
G01X1189333Y3169844D02*
G01X1187076Y3157144D01*
G01X1184765Y3156962D01*
G01X1182806Y3156448D01*
G01X1179563Y3154611D01*
G01X1173069Y3149039D01*
G01X1175326Y3178969D01*
G01X1178495Y3175618D01*
G01X1181608Y3172696D01*
G01X1185082Y3170628D01*
G01X1187084Y3170049D01*
G01X1189333Y3169844D01*
G37*
G36*
G01X965650Y3135241D02*
G01X978350Y3135241D01*
G01X978544Y3132962D01*
G01X979094Y3130982D01*
G01X981055Y3127624D01*
G01X987007Y3121235D01*
G01X956992Y3121235D01*
G01X962944Y3127624D01*
G01X964906Y3130982D01*
G01X965455Y3132962D01*
G01X965650Y3135241D01*
G37*
G36*
G01X2803441Y200111D02*
G01X2816141Y200111D01*
G01X2816336Y197832D01*
G01X2816885Y195852D01*
G01X2818847Y192494D01*
G01X2824799Y186104D01*
G01X2794784Y186104D01*
G01X2800736Y192494D01*
G01X2802697Y195852D01*
G01X2803247Y197832D01*
G01X2803441Y200111D01*
G37*
G36*
G01X708350Y1456096D02*
G01X695650Y1454430D01*
G01X695447Y1456687D01*
G01X694875Y1458683D01*
G01X692834Y1462126D01*
G01X689948Y1465223D01*
G01X686639Y1468437D01*
G01X716608Y1470103D01*
G01X710931Y1463636D01*
G01X709060Y1460363D01*
G01X708535Y1458399D01*
G01X708350Y1456096D01*
G37*
G36*
G01X695650Y1368503D02*
G01X708350Y1368503D01*
G01X708544Y1366223D01*
G01X709094Y1364244D01*
G01X711055Y1360886D01*
G01X717007Y1354496D01*
G01X686992Y1354496D01*
G01X692945Y1360886D01*
G01X694906Y1364244D01*
G01X695455Y1366223D01*
G01X695650Y1368503D01*
G37*
G36*
G01X3413531Y1662661D02*
G01X3413531Y1675361D01*
G01X3415811Y1675556D01*
G01X3417790Y1676105D01*
G01X3421148Y1678066D01*
G01X3427538Y1684019D01*
G01X3427538Y1654004D01*
G01X3421148Y1659956D01*
G01X3417790Y1661917D01*
G01X3415811Y1662467D01*
G01X3413531Y1662661D01*
G37*
G36*
G01X1491612Y3141239D02*
G01X1500592Y3150219D01*
G01X1502342Y3148745D01*
G01X1504130Y3147734D01*
G01X1507892Y3146746D01*
G01X1516619Y3146437D01*
G01X1495395Y3125213D01*
G01X1495085Y3133940D01*
G01X1494098Y3137701D01*
G01X1493086Y3139490D01*
G01X1491612Y3141239D01*
G37*
G36*
G01X1091348Y1775144D02*
G01X1100328Y1766164D01*
G01X1098854Y1764414D01*
G01X1097842Y1762626D01*
G01X1096855Y1758865D01*
G01X1096545Y1750137D01*
G01X1075321Y1771361D01*
G01X1084049Y1771671D01*
G01X1087810Y1772658D01*
G01X1089598Y1773670D01*
G01X1091348Y1775144D01*
G37*
G36*
G01X1134495Y1767337D02*
G01X1134495Y1780037D01*
G01X1136774Y1780232D01*
G01X1138754Y1780781D01*
G01X1142112Y1782742D01*
G01X1148501Y1788695D01*
G01X1148501Y1758679D01*
G01X1142112Y1764632D01*
G01X1138754Y1766593D01*
G01X1136774Y1767143D01*
G01X1134495Y1767337D01*
G37*
G36*
G01X1347242Y1368350D02*
G01X1347242Y1355650D01*
G01X1344963Y1355455D01*
G01X1342983Y1354906D01*
G01X1339625Y1352944D01*
G01X1333235Y1346992D01*
G01X1333235Y1377007D01*
G01X1339625Y1371055D01*
G01X1342983Y1369094D01*
G01X1344963Y1368544D01*
G01X1347242Y1368350D01*
G37*
G36*
G01X1313650Y1389242D02*
G01X1326350Y1389242D01*
G01X1326544Y1386962D01*
G01X1327094Y1384983D01*
G01X1329055Y1381625D01*
G01X1335007Y1375235D01*
G01X1304992Y1375235D01*
G01X1310944Y1381625D01*
G01X1312906Y1384983D01*
G01X1313455Y1386962D01*
G01X1313650Y1389242D01*
G37*
G36*
G01X1939386Y1398295D02*
G02X1926686Y1360195I-63500J0D01*
G01X1945736Y1354222D01*
G01X1964786Y1360949D01*
G02X1952086Y1399049I50800J38100D01*
G01X1939386Y1398295D01*
G37*
G36*
G01X2500907Y294263D02*
G03X2462807Y281563I0J-63500D01*
G01X2456457Y300613D01*
G01X2462807Y319663D01*
G03X2500907Y306963I38100J50800D01*
G01X2500907Y294263D01*
G37*
G36*
G01X398603Y2305411D02*
G03X368807Y2292711I0J-41303D01*
G01X362457Y2311761D01*
G01X368807Y2330811D01*
G03X398603Y2318111I29796J28603D01*
G01X398603Y2305411D01*
G37*
G36*
G01X2816141Y307125D02*
G02X2828841Y345225I63500J0D01*
G01X2806865Y351575D01*
G01X2790741Y345225D01*
G02X2803441Y307125I-50800J-38100D01*
G01X2816141Y307125D01*
G37*
G36*
G01X2033966Y1399049D02*
G02X2021266Y1360949I-63500J0D01*
G01X2040316Y1354599D01*
G01X2059366Y1360949D01*
G02X2046666Y1399049I50800J38100D01*
G01X2033966Y1399049D01*
G37*
G36*
G01X1587527Y2617153D02*
G01X1587527Y2629853D01*
G01X1589806Y2630047D01*
G01X1591786Y2630597D01*
G01X1595144Y2632558D01*
G01X1601534Y2638510D01*
G01X1601534Y2608495D01*
G01X1595144Y2614447D01*
G01X1591786Y2616409D01*
G01X1589806Y2616958D01*
G01X1587527Y2617153D01*
G37*
G04 TearDrop End*

G04 Pad Start*
G54D11*
G01X377000Y3425000D03*
G01X3427000Y3425000D03*
G01X3427000Y375000D03*
G01X377000Y375000D03*
G54D12*
G01X2788655Y3674672D03*
G01X2969383Y3674672D03*
G01X2607927Y3674672D03*
G01X2427200Y3674672D03*
G01X2246472Y3674672D03*
G01X2065744Y3674672D03*
G01X1885017Y3674672D03*
G01X1704289Y3674672D03*
G01X800651Y3674672D03*
G01X981378Y3674672D03*
G01X1162106Y3674672D03*
G01X1523561Y3674672D03*
G01X1342834Y3674672D03*
G01X119204Y2288150D03*
G01X119204Y2104661D03*
G01X119204Y1921172D03*
G54D13*
G01X2617800Y2957724D03*
G01X2817800Y2957724D03*
G01X2617800Y3146849D03*
G01X2817800Y3146849D03*
G54D14*
G01X739520Y2220712D03*
G01X1378812Y2220712D03*
G54D15*
G01X1517251Y2870200D03*
G01X891649Y2870200D03*
G54D16*
G01X1803245Y1459004D03*
G01X1613253Y1459004D03*
G01X1708249Y1659004D03*
G54D17*
G01X1792859Y2755900D03*
G01X1792859Y2882900D03*
G01X1792859Y3009900D03*
G01X1792859Y3136900D03*
G01X2347341Y2755900D03*
G01X2347341Y2882900D03*
G01X2347341Y3009900D03*
G01X2347341Y3136900D03*
G54D19*
G01X2070100Y2946400D03*
G54D20*
G01X2923735Y628375D03*
G01X2858737Y628375D03*
G01X2793738Y628375D03*
G01X2728740Y628375D03*
G01X2663741Y628375D03*
G01X2598742Y628375D03*
G01X2533744Y628375D03*
G01X2468745Y628375D03*
G01X2403721Y628375D03*
G01X2338723Y628375D03*
G01X2273724Y628375D03*
G01X2208725Y628375D03*
G01X2143727Y628375D03*
G01X2078728Y628375D03*
G01X2923735Y1201526D03*
G01X2858737Y1201526D03*
G01X2793738Y1201526D03*
G01X2728740Y1201526D03*
G01X2663741Y1201526D03*
G01X2598742Y1201526D03*
G01X2533744Y1201526D03*
G01X2468745Y1201526D03*
G01X2403721Y1201526D03*
G01X2338723Y1201526D03*
G01X2273724Y1201526D03*
G01X2208725Y1201526D03*
G01X2143727Y1201526D03*
G01X2078728Y1201526D03*
G54D21*
G01X2501232Y914938D03*
G54D22*
G01X3119488Y2056702D03*
G01X3119488Y2921699D03*
G54D23*
G01X3539503Y2056702D03*
G01X3539503Y2921699D03*
G54D24*
G01X2215591Y399432D03*
G01X2455570Y399432D03*
G01X2215591Y196232D03*
G01X2455570Y196232D03*
G54D25*
G01X1593240Y488292D03*
G01X1893239Y488292D03*
G01X1793239Y488292D03*
G01X1693239Y488292D03*
G54D26*
G01X1483258Y148287D03*
G01X2003246Y148287D03*
G54D25*
G01X880116Y488987D03*
G01X1180115Y488987D03*
G01X1080115Y488987D03*
G01X980116Y488987D03*
G54D26*
G01X770134Y148983D03*
G01X1290123Y148983D03*
G54D27*
G01X157191Y2544473D03*
G54D28*
G01X497196Y2854480D03*
G01X497196Y2754480D03*
G01X497196Y2654480D03*
G54D27*
G01X157191Y2964462D03*
G54D29*
G01X2233264Y1564659D03*
G01X2623255Y1564659D03*
G54D30*
G01X1759008Y2221621D03*
G01X2199012Y2221621D03*
G54D31*
G01X621991Y832500D03*
G01X621991Y959500D03*
G01X621991Y1086500D03*
G01X621991Y1213500D03*
G01X1328009Y832500D03*
G01X1328009Y959500D03*
G01X1328009Y1086500D03*
G01X1328009Y1213500D03*
G54D13*
G01X2617800Y2768600D03*
G01X2817800Y2768600D03*
G54D32*
G01X2137308Y2603500D03*
G01X2028292Y2603500D03*
G01X667258Y1903863D03*
G01X776275Y1903863D03*
G54D33*
G01X1473723Y1614808D03*
G01X1473723Y1505792D03*
G01X1931999Y1505491D03*
G01X1931999Y1614508D03*
G01X2874563Y350371D03*
G01X2874563Y241354D03*
G01X2048479Y1506216D03*
G01X2048479Y1615233D03*
G01X2744772Y350371D03*
G01X2744772Y241354D03*
G01X1320000Y1505491D03*
G01X1320000Y1614508D03*
G54D34*
G01X1585714Y3292933D03*
G01X1672278Y3292933D03*
G01X1792831Y3292933D03*
G01X1879394Y3292933D03*
G54D35*
G01X3004354Y339347D03*
G01X3004354Y252784D03*
G01X2614981Y252784D03*
G01X2614981Y339347D03*
G54D34*
G01X2576142Y2628900D03*
G01X2662706Y2628900D03*
G01X2662706Y2528080D03*
G01X2576142Y2528080D03*
G04 Pad End*

G04 Via Start*
G54D36*
G01X2618979Y3522895D03*
G01X2665216Y3522895D03*
G01X2572351Y3522895D03*
G01X661052Y2000684D03*
G01X661052Y2045353D03*
G01X661052Y1956602D03*
G01X1586664Y1617102D03*
G01X1534354Y1617102D03*
G01X1638974Y1617102D03*
G01X2013428Y622938D03*
G01X1969150Y622546D03*
G01X982954Y612173D03*
G01X1080814Y611863D03*
G01X1598165Y621172D03*
G01X1794274Y621720D03*
G01X2590295Y177616D03*
G01X374546Y2006067D03*
G01X2959884Y2903282D03*
G01X1012828Y3620215D03*
G01X1586830Y3523795D03*
G01X2728340Y2629503D03*
G01X1806544Y308539D03*
G01X1806152Y259951D03*
G01X1614769Y2623503D03*
G01X1447456Y2556842D03*
G01X1144934Y2453928D03*
G01X276006Y1612444D03*
G01X471687Y1216633D03*
G01X462078Y990750D03*
G01X1024611Y1128749D03*
G01X1487031Y2455190D03*
G01X990770Y943880D03*
G01X3550935Y1007011D03*
G01X2633724Y2349227D03*
G01X2966906Y1622965D03*
G01X2969090Y1075657D03*
G01X1405201Y1474745D03*
G01X1905782Y322972D03*
G01X2339227Y500343D03*
G01X2653854Y1723122D03*
G01X3486961Y1219876D03*
G01X1694945Y618613D03*
G01X1861132Y618812D03*
G01X1921755Y1119581D03*
G01X1164906Y1693360D03*
G01X1214536Y1406986D03*
G01X703333Y3670404D03*
G01X1207330Y3469687D03*
G01X1751736Y3458176D03*
G01X1890152Y3419262D03*
G01X2065743Y3489499D03*
G01X2263619Y3534168D03*
G01X2426231Y3513009D03*
G01X2497557Y3527639D03*
G01X1669262Y2661043D03*
G01X1074530Y2586909D03*
G01X641089Y2755564D03*
G01X2025496Y1087872D03*
G01X3025410Y1707093D03*
G01X1974013Y1166429D03*
G01X2635430Y1921624D03*
G01X3101407Y3206689D03*
G01X2163208Y3206585D03*
G01X2962049Y2133993D03*
G01X3097728Y531162D03*
G01X1910001Y2224276D03*
G01X2514541Y2477035D03*
G01X1952284Y2262415D03*
G01X2502371Y2577597D03*
G01X398603Y2311761D03*
G01X2447404Y1335118D03*
G01X2517692Y1363220D03*
G01X2578562Y1362073D03*
G01X2658851Y1355778D03*
G01X2173288Y2687159D03*
G01X2334862Y2532950D03*
G01X2060236Y2301018D03*
G01X2630999Y2126999D03*
G01X1098000Y2075006D03*
G01X1047000Y2022809D03*
G01X786000Y777000D03*
G01X786000Y489000D03*
G01X1061750Y2193391D03*
G01X1143241Y2581290D03*
G01X1113000Y3413999D03*
G01X2105287Y775698D03*
G01X1389276Y2615516D03*
G01X1494000Y1972962D03*
G01X1199612Y1021502D03*
G01X1031146Y1907836D03*
G01X528090Y1384052D03*
G01X1620940Y1694750D03*
G01X449929Y2936916D03*
G01X1892334Y2070452D03*
G01X2061298Y372968D03*
G01X1719805Y1508645D03*
G01X732000Y2656872D03*
G01X2055722Y2050065D03*
G01X1083000Y201000D03*
G01X1980184Y2058092D03*
G01X1182000Y255000D03*
G01X109991Y725733D03*
G01X2945999Y1993739D03*
G01X111000Y656104D03*
G01X2942938Y2053762D03*
G01X1161000Y3164999D03*
G01X972000Y3107999D03*
G01X573000Y2450999D03*
G01X384000Y2078999D03*
G01X582747Y1313167D03*
G01X3316306Y795933D03*
G01X3377999Y1149000D03*
G01X1311000Y321000D03*
G01X2889067Y794748D03*
G01X2792614Y1511582D03*
G01X1035487Y1320558D03*
G01X741925Y1159116D03*
G01X1150447Y1970925D03*
G01X2426152Y2431845D03*
G01X3209999Y2669999D03*
G01X2940677Y365781D03*
G01X2809791Y172869D03*
G01X882049Y3480415D03*
G01X1253481Y2460463D03*
G01X561861Y1795293D03*
G01X70630Y1382021D03*
G01X3553818Y1834256D03*
G01X3428748Y1866990D03*
G01X700889Y1482485D03*
G01X702000Y1341260D03*
G01X3281999Y1176000D03*
G01X3440773Y1669011D03*
G01X880385Y842382D03*
G01X1586885Y3240214D03*
G01X568979Y1540578D03*
G01X994767Y2211040D03*
G01X667220Y606387D03*
G01X1515366Y3126466D03*
G01X1076575Y1751390D03*
G01X1161737Y1773687D03*
G01X1150766Y1539517D03*
G01X530834Y1851050D03*
G01X1320000Y1362000D03*
G01X2968100Y1704866D03*
G01X3154789Y891803D03*
G01X3212781Y891803D03*
G01X3270772Y891803D03*
G01X684700Y2534942D03*
G01X985439Y1966691D03*
G01X762449Y1258384D03*
G01X830945Y1382479D03*
G54D37*
G01X2120087Y2896413D03*
G01X2020087Y2896413D03*
G01X2020087Y2996413D03*
G01X2120087Y2996413D03*
G04 Via End*

G04 Track Start*
G54D38*
G01X1610717Y1364424D02*
G01X1621296Y1353845D01*
G01X1945736Y1494024D02*
G01X1950144Y1498432D01*
G01X1945736Y1353845D02*
G01X1945736Y1354599D01*
G01X1945736Y1494024D01*
G01X1621296Y1353845D02*
G01X1945736Y1353845D01*
G01X1447456Y2603274D02*
G01X1447456Y2556842D01*
G01X1422148Y1421172D02*
G01X1608270Y1421172D01*
G01X1610717Y1423619D01*
G01X1613853Y1426755D01*
G01X1610717Y1423619D02*
G01X1610717Y1364424D01*
G01X1405201Y1474745D02*
G01X1405201Y1438119D01*
G01X1422148Y1421172D01*
G01X2275723Y630293D02*
G01X2275723Y428694D01*
G01X2269258Y422229D01*
G01X2207544Y626766D02*
G01X2207544Y503926D01*
G01X2200491Y496873D01*
G01X2179185Y190360D02*
G01X2183593Y194768D01*
G01X2456457Y214164D02*
G01X2441469Y199177D01*
G01X2456702Y300613D02*
G01X2549175Y300613D01*
G01X2584244Y335682D02*
G01X2619117Y335682D01*
G01X2456457Y395780D02*
G01X2456457Y300613D01*
G01X2456457Y214164D01*
G01X2549175Y300613D02*
G01X2584244Y335682D01*
G01X2200491Y496873D02*
G01X2130209Y496873D01*
G01X2119041Y485706D01*
G01X2119041Y202262D01*
G01X2130943Y190360D01*
G01X2179185Y190360D01*
G01X2631656Y251854D02*
G01X2631656Y105797D01*
G01X2618726Y92867D01*
G01X2110026Y92867D01*
G01X2090336Y112557D01*
G01X2090336Y304751D01*
G01X2337727Y627837D02*
G01X2337727Y506172D01*
G01X2938475Y263398D02*
G01X2947487Y254386D01*
G01X2748575Y353142D02*
G01X2750142Y351575D01*
G01X2090336Y304751D02*
G01X2072116Y322972D01*
G01X1905782Y322972D01*
G01X2653854Y1723122D02*
G01X2699797Y1769065D01*
G01X3041575Y1769065D02*
G01X3072922Y1737718D01*
G01X3482291Y1737718D01*
G01X3498846Y1721163D01*
G01X3498846Y1231761D01*
G01X3486961Y1219876D01*
G01X2699797Y1769065D02*
G01X3041575Y1769065D01*
G01X1694945Y618613D02*
G01X1694945Y537046D01*
G01X1690242Y532344D01*
G01X1860225Y617024D02*
G01X1843767Y600567D01*
G01X1843767Y383099D02*
G01X1827114Y366446D01*
G01X1602691Y366446D01*
G01X1592797Y376340D01*
G01X1592797Y445694D01*
G01X1843767Y600567D02*
G01X1843767Y383099D01*
G01X2662878Y630541D02*
G01X2662878Y520631D01*
G01X2672870Y510640D01*
G01X2980852Y510640D01*
G01X3007301Y484191D02*
G01X3007301Y336665D01*
G01X2980852Y510640D02*
G01X3007301Y484191D01*
G01X1110931Y1491443D02*
G01X1125919Y1476455D01*
G01X1193462Y1476455D01*
G01X121105Y2288605D02*
G01X278035Y2288605D01*
G01X306247Y2316817D01*
G01X436728Y2852259D02*
G01X443781Y2845206D01*
G01X118166Y2099936D02*
G01X306835Y2099936D01*
G01X350622Y2750284D02*
G01X472287Y2750284D01*
G01X480515Y2742055D01*
G01X306247Y2316817D02*
G01X306247Y2830447D01*
G01X328059Y2852259D01*
G01X436728Y2852259D01*
G01X306835Y2099936D02*
G01X334557Y2127658D01*
G01X334557Y2734219D01*
G01X350622Y2750284D01*
G01X306692Y1922422D02*
G01X328732Y1944463D01*
G01X120668Y1922422D02*
G01X306692Y1922422D01*
G01X328732Y1944463D02*
G01X328732Y2079352D01*
G01X359589Y2110209D01*
G01X359589Y2113234D01*
G01X362457Y2116102D01*
G01X362457Y2629124D02*
G01X382806Y2649472D01*
G01X483311Y2649472D01*
G01X703333Y3670404D02*
G01X708035Y3675106D01*
G01X765047Y3675106D01*
G01X1207330Y3469687D02*
G01X1207330Y3630731D01*
G01X1179706Y3658355D01*
G01X1683557Y3469809D02*
G01X1683557Y3669645D01*
G01X1890152Y3419262D02*
G01X1890152Y3643784D01*
G01X1893678Y3647310D01*
G01X2065743Y3489499D02*
G01X2065743Y3643490D01*
G01X2059865Y3649368D01*
G01X2263619Y3534168D02*
G01X2263619Y3649955D01*
G01X2253628Y3659947D01*
G01X2426231Y3513009D02*
G01X2426231Y3640551D01*
G01X2435635Y3649955D01*
G01X2497557Y3527639D02*
G01X2497557Y3550562D01*
G01X2595124Y3648129D01*
G01X641089Y2755564D02*
G01X557236Y2755564D01*
G01X556453Y2754780D01*
G01X2670977Y2439384D02*
G01X2589867Y2439384D01*
G01X2575761Y2453490D01*
G01X2575761Y2517751D01*
G01X2577328Y2519319D01*
G01X2683589Y2426772D02*
G01X2670977Y2439384D01*
G01X3640168Y736281D02*
G01X3615464Y711577D01*
G01X3135417Y711577D01*
G01X3097728Y673888D01*
G01X3097728Y531162D01*
G01X3615923Y1972655D02*
G01X3640168Y1948410D01*
G01X3640168Y736281D01*
G01X398603Y2311761D02*
G01X364971Y2311761D01*
G01X364383Y2312349D01*
G01X2534391Y1239828D02*
G01X2534401Y1284889D01*
G01X2484172Y1335118D01*
G01X2447404Y1335118D01*
G01X2664191Y1201760D02*
G01X2664191Y1282714D01*
G01X2584832Y1362073D01*
G01X2578562Y1362073D01*
G01X2599342Y1235846D02*
G01X2599342Y1281571D01*
G01X2517692Y1363220D01*
G01X2728075Y1210277D02*
G01X2728075Y1338407D01*
G01X2710704Y1355778D02*
G01X2658851Y1355778D01*
G01X2728075Y1338407D02*
G01X2710704Y1355778D01*
G01X846000Y1961999D02*
G01X846000Y1700999D01*
G01X822000Y1676999D01*
G01X936000Y588864D02*
G01X961996Y562868D01*
G01X876869Y1951592D02*
G01X876869Y1685259D01*
G01X842061Y1650451D01*
G01X834908Y1650451D01*
G01X833556Y1649099D01*
G01X923300Y722718D02*
G01X936000Y710018D01*
G01X936000Y588864D01*
G01X398571Y722718D02*
G01X923300Y722718D01*
G01X822000Y1676999D02*
G01X396208Y1676999D01*
G01X786000Y489000D02*
G01X880103Y489000D01*
G01X411000Y756000D02*
G01X708000Y756000D01*
G01X833556Y1649099D02*
G01X425100Y1649099D01*
G01X1098000Y2075006D02*
G01X959006Y2075006D01*
G01X846000Y1961999D01*
G01X1047000Y2022809D02*
G01X948085Y2022809D01*
G01X876869Y1951592D01*
G01X1113000Y3413999D02*
G01X1884888Y3413999D01*
G01X1890152Y3419262D01*
G01X1751736Y3458176D02*
G01X1695189Y3458176D01*
G01X1683557Y3469809D01*
G01X2468745Y628375D02*
G01X2468745Y724435D01*
G01X2454216Y738963D01*
G01X2126349Y738963D01*
G01X2105287Y760025D01*
G01X2105287Y775698D01*
G01X1031146Y1907836D02*
G01X936224Y1907836D01*
G01X909187Y1880799D01*
G01X909187Y1657821D01*
G01X872600Y1621233D01*
G01X466757Y1621233D01*
G01X396208Y1676999D02*
G01X328886Y1609677D01*
G01X328886Y792404D01*
G01X398571Y722718D01*
G01X425100Y1649099D02*
G01X361874Y1585873D01*
G01X361874Y805126D01*
G01X411000Y756000D01*
G01X466757Y1621233D02*
G01X394104Y1548580D01*
G01X441265Y949768D02*
G01X542881Y949768D01*
G01X422392Y968641D02*
G01X441265Y949768D01*
G01X422392Y1366615D02*
G01X422392Y968641D01*
G01X449929Y2936916D02*
G01X449929Y2860949D01*
G01X447725Y2858745D01*
G01X528090Y1384052D02*
G01X439829Y1384052D01*
G01X422392Y1366615D01*
G01X972000Y3107999D02*
G01X972000Y3137999D01*
G01X996000Y3161999D01*
G01X1158000Y3161999D01*
G01X2876565Y347251D02*
G01X2901250Y322565D01*
G01X2931814Y322565D01*
G01X2938475Y315904D01*
G01X2938475Y263398D01*
G01X2750142Y351575D02*
G01X2806865Y351575D01*
G01X2869260Y351575D01*
G01X1193462Y1476455D02*
G01X1214536Y1455381D01*
G01X1214536Y1406986D01*
G01X2806865Y351357D02*
G01X2809791Y348431D01*
G01X2809791Y172869D01*
G01X1110931Y1670292D02*
G01X1110931Y1491443D01*
G01X1164906Y1693360D02*
G01X1134000Y1693360D01*
G01X1110931Y1670292D01*
G01X3459919Y1827540D02*
G01X1056273Y1827540D01*
G01X1050238Y1833574D01*
G01X2040316Y1355565D02*
G01X2040316Y1489573D01*
G01X2046194Y1495450D01*
G01X2191400Y1354599D02*
G01X2207999Y1338000D01*
G01X2207999Y1202252D01*
G01X2208725Y1201526D01*
G01X2338723Y1201526D02*
G01X2338723Y1436259D01*
G01X2304217Y1470765D01*
G01X2404722Y1215092D02*
G01X2404722Y1436087D01*
G01X2422355Y1453720D01*
G01X2548722Y1453720D01*
G01X2549310Y1453132D01*
G01X702000Y1341260D02*
G01X702000Y1481374D01*
G01X700889Y1482485D01*
G01X3059615Y254363D02*
G01X3070782Y265531D01*
G01X3070782Y480648D01*
G01X3041689Y509742D01*
G01X362457Y2116102D02*
G01X362457Y2629124D01*
G01X1160657Y3163494D02*
G01X1478337Y3163494D01*
G01X1515366Y3126466D01*
G01X1160076Y3164075D02*
G01X1161000Y3164999D01*
G01X3013343Y1972655D02*
G01X3615923Y1972655D01*
G01X2635430Y1921624D02*
G01X2662623Y1921624D01*
G01X2683589Y1942589D01*
G01X2683589Y2426772D01*
G01X2987999Y1997999D02*
G01X3013343Y1972655D01*
G01X1945736Y1354599D02*
G01X2191400Y1354599D01*
G01X1018129Y1427109D02*
G01X983154Y1392134D01*
G01X983154Y1170206D01*
G01X1024611Y1128749D01*
G01X477000Y1086000D02*
G01X621491Y1086000D01*
G01X621990Y1086500D01*
G01X1320000Y1505491D02*
G01X1320000Y1362000D01*
G01X1602581Y1119581D02*
G01X1921755Y1119581D01*
G01X1328009Y1086500D02*
G01X1212500Y1086500D01*
G01X1200000Y1074000D01*
G01X1200000Y1021889D01*
G01X1199612Y1021502D01*
G01X394104Y925896D02*
G01X420000Y900000D01*
G01X1119000Y900000D01*
G01X1134000Y915000D01*
G01X1134000Y1182000D01*
G01X1158000Y1206000D01*
G01X1320509Y1206000D01*
G01X1328009Y1213500D01*
G01X394104Y1548580D02*
G01X394104Y925896D01*
G01X708000Y756000D02*
G01X729000Y777000D01*
G01X786000Y777000D01*
G01X621990Y832500D02*
G01X811500Y832500D01*
G01X849000Y795000D01*
G01X1556999Y1074000D02*
G01X1602581Y1119581D01*
G01X1119000Y795000D02*
G01X1188000Y726000D01*
G01X1518000Y726000D01*
G01X849000Y795000D02*
G01X1119000Y795000D01*
G01X1518000Y726000D02*
G01X1556999Y765000D01*
G01X1556999Y1074000D01*
G01X1328009Y959500D02*
G01X1328009Y832500D01*
G01X1320000Y1362000D02*
G01X1461000Y1362000D01*
G01X1488000Y1335000D01*
G01X1488000Y975000D01*
G01X1473000Y960000D01*
G01X1328509Y960000D01*
G01X1328009Y959500D01*
G01X462078Y990750D02*
G01X462078Y1071078D01*
G01X477000Y1086000D01*
G01X1076575Y1751390D02*
G01X1098871Y1773687D01*
G01X1161737Y1773687D01*
G01X3440773Y1669011D02*
G01X2986011Y1669011D01*
G01X2966016Y1649017D01*
G01X2966016Y1624048D01*
G01X2532142Y628784D02*
G01X2532142Y551858D01*
G01X2603998Y480000D01*
G01X2855999Y480000D01*
G01X2872255Y463744D01*
G01X2872255Y352148D01*
G01X2987999Y2108043D02*
G01X2987999Y1997999D01*
G01X2962049Y2133993D02*
G01X2987999Y2108043D01*
G01X2947487Y254386D02*
G01X3059615Y254363D01*
G54D39*
G01X2028292Y2603500D02*
G01X1812499Y2603500D01*
G01X1793999Y2621999D01*
G01X1793999Y2754760D01*
G01X1792859Y2755900D01*
G01X2137308Y2603500D02*
G01X2318500Y2603500D01*
G01X2347341Y2632341D02*
G01X2347341Y2755900D01*
G01X2318500Y2603500D02*
G01X2347341Y2632341D01*
G01X2137308Y2603500D02*
G01X2137308Y2530308D01*
G01X2105999Y2498999D01*
G01X1757999Y2222629D02*
G01X1759008Y2221621D01*
G01X2105999Y2498999D02*
G01X1791798Y2498999D01*
G01X1757999Y2465201D02*
G01X1757999Y2222629D01*
G54D38*
G01X1467684Y2623503D02*
G01X1447456Y2603274D01*
G01X1614769Y2623503D02*
G01X1467684Y2623503D01*
G01X1061750Y2193391D02*
G01X1061750Y2499799D01*
G01X1143241Y2581290D01*
G01X1669262Y2661043D02*
G01X1148664Y2661043D01*
G01X1074530Y2586909D01*
G54D39*
G01X1791798Y2498999D02*
G01X1757999Y2465201D01*
G54D40*
G01X1715016Y2532632D02*
G01X1757304Y2490344D01*
G01X1625093Y2707131D02*
G01X1692657Y2707131D01*
G01X1715016Y2684772D01*
G01X1715016Y2532632D01*
G04 Track End*

M02*

