G04 Layer: TopPasteMaskLayer*
G04 EasyEDA Pro v2.2.43.4, 2025-10-30 23:12:03*
G04 Gerber Generator version 0.3*
G04 Scale: 100 percent, Rotated: No, Reflected: No*
G04 Dimensions in millimeters*
G04 Leading zeros omitted, absolute positions, 4 integers and 5 decimals*
G04 Generated by one-click*
%FSLAX45Y45*%
%MOMM*%
%ADD10R,0.78001X0.5*%
%ADD11R,0.7X1.25001*%
%ADD12R,1.25001X0.7*%
%ADD13R,1.4X0.8*%
%ADD14R,1.2X0.8*%
%ADD15O,2.0X0.3*%
%ADD16O,0.3X2.0*%
%ADD17R,0.5X1.7*%
%ADD18R,1.2X2.49999*%
%ADD19R,2.5025X1.2*%
%ADD20R,2.49999X1.2*%
%ADD21R,1.7X0.5*%
%ADD22R,0.8X1.6*%
%ADD23R,1.0X2.3*%
%ADD24R,0.5X1.5*%
%ADD25R,0.532X1.03749*%
%ADD26R,1.03749X0.532*%
%ADD27R,0.6X0.4*%
G75*


G04 PolygonModel Start*
G36*
G01X2845600Y2351900D02*
G01X2845600Y2397900D01*
G01X2849601Y2401900D01*
G01X2899664Y2401900D01*
G01X2903665Y2397900D01*
G01X2903665Y2351900D01*
G01X2899664Y2347900D01*
G01X2849601Y2347900D01*
G01X2845600Y2351900D01*
G37*
G36*
G01X2818600Y2351900D02*
G01X2818600Y2397900D01*
G01X2814599Y2401900D01*
G01X2764536Y2401900D01*
G01X2760536Y2397900D01*
G01X2760536Y2351900D01*
G01X2764536Y2347900D01*
G01X2814599Y2347900D01*
G01X2818600Y2351900D01*
G37*
G36*
G01X2845600Y2656700D02*
G01X2845600Y2702700D01*
G01X2849601Y2706700D01*
G01X2899664Y2706700D01*
G01X2903665Y2702700D01*
G01X2903665Y2656700D01*
G01X2899664Y2652700D01*
G01X2849601Y2652700D01*
G01X2845600Y2656700D01*
G37*
G36*
G01X2818600Y2656700D02*
G01X2818600Y2702700D01*
G01X2814599Y2706700D01*
G01X2764536Y2706700D01*
G01X2760536Y2702700D01*
G01X2760536Y2656700D01*
G01X2764536Y2652700D01*
G01X2814599Y2652700D01*
G01X2818600Y2656700D01*
G37*
G36*
G01X3119496Y2629207D02*
G01X3009496Y2629207D01*
G01X3009496Y2599205D01*
G01X3119496Y2599205D01*
G01X3119496Y2629207D01*
G37*
G36*
G01X3009496Y2649217D02*
G01X3119496Y2649217D01*
G01X3119496Y2679220D01*
G01X3009496Y2679220D01*
G01X3009496Y2649217D01*
G37*
G36*
G01X3009496Y2139198D02*
G01X3119496Y2139198D01*
G01X3119496Y2199198D01*
G01X3009496Y2199198D01*
G01X3009496Y2139198D01*
G37*
G36*
G01X3119496Y2579195D02*
G01X3009496Y2579195D01*
G01X3009496Y2549192D01*
G01X3119496Y2549192D01*
G01X3119496Y2579195D01*
G37*
G36*
G01X3009496Y2699217D02*
G01X3119496Y2699217D01*
G01X3119496Y2759217D01*
G01X3009496Y2759217D01*
G01X3009496Y2699217D01*
G37*
G36*
G01X3119496Y2839202D02*
G01X3009496Y2839202D01*
G01X3009496Y2779202D01*
G01X3119496Y2779202D01*
G01X3119496Y2839202D01*
G37*
G36*
G01X3119496Y2529208D02*
G01X3009496Y2529208D01*
G01X3009496Y2499205D01*
G01X3119496Y2499205D01*
G01X3119496Y2529208D01*
G37*
G36*
G01X3119496Y2479195D02*
G01X3009496Y2479195D01*
G01X3009496Y2449192D01*
G01X3119496Y2449192D01*
G01X3119496Y2479195D01*
G37*
G36*
G01X3009496Y2219208D02*
G01X3119496Y2219208D01*
G01X3119496Y2279208D01*
G01X3009496Y2279208D01*
G01X3009496Y2219208D01*
G37*
G36*
G01X3119496Y2429208D02*
G01X3009496Y2429208D01*
G01X3009496Y2399205D01*
G01X3119496Y2399205D01*
G01X3119496Y2429208D01*
G37*
G36*
G01X3119496Y2379221D02*
G01X3009496Y2379221D01*
G01X3009496Y2349218D01*
G01X3119496Y2349218D01*
G01X3119496Y2379221D01*
G37*
G36*
G01X3119496Y2329208D02*
G01X3009496Y2329208D01*
G01X3009496Y2299205D01*
G01X3119496Y2299205D01*
G01X3119496Y2329208D01*
G37*
G36*
G01X3019656Y2926182D02*
G01X3019506Y2923195D01*
G01X3019506Y2920202D01*
G01X3019656Y2917215D01*
G01X3019953Y2914239D01*
G01X3020400Y2911279D01*
G01X3020992Y2908348D01*
G01X3021731Y2905448D01*
G01X3022613Y2902590D01*
G01X3023636Y2899778D01*
G01X3024797Y2897022D01*
G01X3026095Y2894325D01*
G01X3027528Y2891699D01*
G01X3029087Y2889146D01*
G01X3030771Y2886674D01*
G01X3032580Y2884289D01*
G01X3034502Y2881998D01*
G01X3036537Y2879804D01*
G01X3038678Y2877716D01*
G01X3040921Y2875735D01*
G01X3043260Y2873870D01*
G01X3045689Y2872125D01*
G01X3048203Y2870502D01*
G01X3050794Y2869006D01*
G01X3053456Y2867640D01*
G01X3056181Y2866410D01*
G01X3058968Y2865318D01*
G01X3061802Y2864363D01*
G01X3064683Y2863553D01*
G01X3067599Y2862887D01*
G01X3070545Y2862369D01*
G01X3073514Y2861996D01*
G01X3076499Y2861772D01*
G01X3079488Y2861699D01*
G01X3159488Y2861699D01*
G01X3162478Y2861772D01*
G01X3165462Y2861996D01*
G01X3168432Y2862369D01*
G01X3171378Y2862887D01*
G01X3174294Y2863553D01*
G01X3177174Y2864363D01*
G01X3180009Y2865318D01*
G01X3182795Y2866410D01*
G01X3185521Y2867640D01*
G01X3188183Y2869006D01*
G01X3190773Y2870502D01*
G01X3193288Y2872125D01*
G01X3195716Y2873870D01*
G01X3198056Y2875735D01*
G01X3200298Y2877716D01*
G01X3202440Y2879804D01*
G01X3204474Y2881998D01*
G01X3206397Y2884289D01*
G01X3208205Y2886674D01*
G01X3209889Y2889146D01*
G01X3211449Y2891699D01*
G01X3212882Y2894325D01*
G01X3214180Y2897022D01*
G01X3215340Y2899778D01*
G01X3216364Y2902590D01*
G01X3217245Y2905448D01*
G01X3217984Y2908348D01*
G01X3218576Y2911279D01*
G01X3219023Y2914239D01*
G01X3219320Y2917215D01*
G01X3219470Y2920202D01*
G01X3219470Y2923195D01*
G01X3219320Y2926182D01*
G01X3219023Y2929158D01*
G01X3218576Y2932118D01*
G01X3217984Y2935049D01*
G01X3217245Y2937949D01*
G01X3216364Y2940807D01*
G01X3215340Y2943619D01*
G01X3214180Y2946375D01*
G01X3212882Y2949072D01*
G01X3211449Y2951698D01*
G01X3209889Y2954251D01*
G01X3208205Y2956723D01*
G01X3206397Y2959108D01*
G01X3204474Y2961399D01*
G01X3202440Y2963593D01*
G01X3200298Y2965681D01*
G01X3198056Y2967662D01*
G01X3195716Y2969527D01*
G01X3193288Y2971272D01*
G01X3190773Y2972895D01*
G01X3188183Y2974391D01*
G01X3185521Y2975757D01*
G01X3182795Y2976987D01*
G01X3180009Y2978079D01*
G01X3177174Y2979034D01*
G01X3174294Y2979844D01*
G01X3171378Y2980510D01*
G01X3168432Y2981028D01*
G01X3165462Y2981401D01*
G01X3162478Y2981625D01*
G01X3159488Y2981698D01*
G01X3079488Y2981698D01*
G01X3076499Y2981625D01*
G01X3073514Y2981401D01*
G01X3070545Y2981028D01*
G01X3067599Y2980510D01*
G01X3064683Y2979844D01*
G01X3061802Y2979034D01*
G01X3058968Y2978079D01*
G01X3056181Y2976987D01*
G01X3053456Y2975757D01*
G01X3050794Y2974391D01*
G01X3048203Y2972895D01*
G01X3045689Y2971272D01*
G01X3043260Y2969527D01*
G01X3040921Y2967662D01*
G01X3038678Y2965681D01*
G01X3036537Y2963593D01*
G01X3034502Y2961399D01*
G01X3032580Y2959108D01*
G01X3030771Y2956723D01*
G01X3029087Y2954251D01*
G01X3027528Y2951698D01*
G01X3026095Y2949072D01*
G01X3024797Y2946375D01*
G01X3023636Y2943619D01*
G01X3022613Y2940807D01*
G01X3021731Y2937949D01*
G01X3020992Y2935049D01*
G01X3020400Y2932118D01*
G01X3019953Y2929158D01*
G01X3019656Y2926182D01*
G37*
G36*
G01X3019506Y2055205D02*
G01X3019656Y2052218D01*
G01X3019953Y2049242D01*
G01X3020400Y2046282D01*
G01X3020992Y2043351D01*
G01X3021731Y2040451D01*
G01X3022613Y2037593D01*
G01X3023636Y2034781D01*
G01X3024797Y2032025D01*
G01X3026095Y2029328D01*
G01X3027528Y2026702D01*
G01X3029087Y2024149D01*
G01X3030771Y2021677D01*
G01X3032580Y2019292D01*
G01X3034502Y2017001D01*
G01X3036537Y2014807D01*
G01X3038678Y2012719D01*
G01X3040921Y2010738D01*
G01X3043260Y2008873D01*
G01X3045689Y2007128D01*
G01X3048203Y2005505D01*
G01X3050794Y2004009D01*
G01X3053456Y2002643D01*
G01X3056181Y2001413D01*
G01X3058968Y2000321D01*
G01X3061802Y1999366D01*
G01X3064683Y1998556D01*
G01X3067599Y1997890D01*
G01X3070545Y1997372D01*
G01X3073514Y1996999D01*
G01X3076499Y1996775D01*
G01X3079488Y1996702D01*
G01X3159488Y1996702D01*
G01X3162478Y1996775D01*
G01X3165462Y1996999D01*
G01X3168432Y1997372D01*
G01X3171378Y1997890D01*
G01X3174294Y1998556D01*
G01X3177174Y1999366D01*
G01X3180009Y2000321D01*
G01X3182795Y2001413D01*
G01X3185521Y2002643D01*
G01X3188183Y2004009D01*
G01X3190773Y2005505D01*
G01X3193288Y2007128D01*
G01X3195716Y2008873D01*
G01X3198056Y2010738D01*
G01X3200298Y2012719D01*
G01X3202440Y2014807D01*
G01X3204474Y2017001D01*
G01X3206397Y2019292D01*
G01X3208205Y2021677D01*
G01X3209889Y2024149D01*
G01X3211449Y2026702D01*
G01X3212882Y2029328D01*
G01X3214180Y2032025D01*
G01X3215340Y2034781D01*
G01X3216364Y2037593D01*
G01X3217245Y2040451D01*
G01X3217984Y2043351D01*
G01X3218576Y2046282D01*
G01X3219023Y2049242D01*
G01X3219320Y2052218D01*
G01X3219470Y2055205D01*
G01X3219470Y2058198D01*
G01X3219320Y2061185D01*
G01X3219023Y2064161D01*
G01X3218576Y2067121D01*
G01X3217984Y2070052D01*
G01X3217245Y2072952D01*
G01X3216364Y2075810D01*
G01X3215340Y2078622D01*
G01X3214180Y2081378D01*
G01X3212882Y2084075D01*
G01X3211449Y2086701D01*
G01X3209889Y2089254D01*
G01X3208205Y2091726D01*
G01X3206397Y2094111D01*
G01X3204474Y2096402D01*
G01X3202440Y2098596D01*
G01X3200298Y2100684D01*
G01X3198056Y2102665D01*
G01X3195716Y2104530D01*
G01X3193288Y2106275D01*
G01X3190773Y2107898D01*
G01X3188183Y2109394D01*
G01X3185521Y2110760D01*
G01X3182795Y2111990D01*
G01X3180009Y2113082D01*
G01X3177174Y2114037D01*
G01X3174294Y2114847D01*
G01X3171378Y2115513D01*
G01X3168432Y2116031D01*
G01X3165462Y2116404D01*
G01X3162478Y2116628D01*
G01X3159488Y2116701D01*
G01X3079488Y2116701D01*
G01X3076499Y2116628D01*
G01X3073514Y2116404D01*
G01X3070545Y2116031D01*
G01X3067599Y2115513D01*
G01X3064683Y2114847D01*
G01X3061802Y2114037D01*
G01X3058968Y2113082D01*
G01X3056181Y2111990D01*
G01X3053456Y2110760D01*
G01X3050794Y2109394D01*
G01X3048203Y2107898D01*
G01X3045689Y2106275D01*
G01X3043260Y2104530D01*
G01X3040921Y2102665D01*
G01X3038678Y2100684D01*
G01X3036537Y2098596D01*
G01X3034502Y2096402D01*
G01X3032580Y2094111D01*
G01X3030771Y2091726D01*
G01X3029087Y2089254D01*
G01X3027528Y2086701D01*
G01X3026095Y2084075D01*
G01X3024797Y2081378D01*
G01X3023636Y2078622D01*
G01X3022613Y2075810D01*
G01X3021731Y2072952D01*
G01X3020992Y2070052D01*
G01X3020400Y2067121D01*
G01X3019953Y2064161D01*
G01X3019656Y2061185D01*
G01X3019506Y2058198D01*
G01X3019506Y2055205D01*
G37*
G36*
G01X3464672Y2061185D02*
G01X3464522Y2058198D01*
G01X3464522Y2055205D01*
G01X3464672Y2052218D01*
G01X3464969Y2049242D01*
G01X3465416Y2046282D01*
G01X3466008Y2043351D01*
G01X3466747Y2040451D01*
G01X3467628Y2037593D01*
G01X3468652Y2034781D01*
G01X3469813Y2032025D01*
G01X3471111Y2029328D01*
G01X3472543Y2026702D01*
G01X3474103Y2024149D01*
G01X3475787Y2021677D01*
G01X3477595Y2019292D01*
G01X3479518Y2017001D01*
G01X3481553Y2014807D01*
G01X3483694Y2012719D01*
G01X3485937Y2010738D01*
G01X3488276Y2008873D01*
G01X3490704Y2007128D01*
G01X3493219Y2005505D01*
G01X3495810Y2004009D01*
G01X3498472Y2002643D01*
G01X3501197Y2001413D01*
G01X3503983Y2000321D01*
G01X3506818Y1999366D01*
G01X3509698Y1998556D01*
G01X3512614Y1997890D01*
G01X3515561Y1997372D01*
G01X3518530Y1996999D01*
G01X3521514Y1996775D01*
G01X3524504Y1996702D01*
G01X3554504Y1996702D01*
G01X3557494Y1996775D01*
G01X3560478Y1996999D01*
G01X3563447Y1997372D01*
G01X3566394Y1997890D01*
G01X3569310Y1998556D01*
G01X3572190Y1999366D01*
G01X3575025Y2000321D01*
G01X3577811Y2001413D01*
G01X3580536Y2002643D01*
G01X3583198Y2004009D01*
G01X3585789Y2005505D01*
G01X3588304Y2007128D01*
G01X3590732Y2008873D01*
G01X3593071Y2010738D01*
G01X3595314Y2012719D01*
G01X3597455Y2014807D01*
G01X3599490Y2017001D01*
G01X3601413Y2019292D01*
G01X3603221Y2021677D01*
G01X3604905Y2024149D01*
G01X3606465Y2026702D01*
G01X3607897Y2029328D01*
G01X3609195Y2032025D01*
G01X3610356Y2034781D01*
G01X3611380Y2037593D01*
G01X3612261Y2040451D01*
G01X3613000Y2043351D01*
G01X3613592Y2046282D01*
G01X3614039Y2049242D01*
G01X3614336Y2052218D01*
G01X3614486Y2055205D01*
G01X3614486Y2058198D01*
G01X3614336Y2061185D01*
G01X3614039Y2064161D01*
G01X3613592Y2067121D01*
G01X3613000Y2070052D01*
G01X3612261Y2072952D01*
G01X3611380Y2075810D01*
G01X3610356Y2078622D01*
G01X3609195Y2081378D01*
G01X3607897Y2084075D01*
G01X3606465Y2086701D01*
G01X3604905Y2089254D01*
G01X3603221Y2091726D01*
G01X3601413Y2094111D01*
G01X3599490Y2096402D01*
G01X3597455Y2098596D01*
G01X3595314Y2100684D01*
G01X3593071Y2102665D01*
G01X3590732Y2104530D01*
G01X3588304Y2106275D01*
G01X3585789Y2107898D01*
G01X3583198Y2109394D01*
G01X3580536Y2110760D01*
G01X3577811Y2111990D01*
G01X3575025Y2113082D01*
G01X3572190Y2114037D01*
G01X3569310Y2114847D01*
G01X3566394Y2115513D01*
G01X3563447Y2116031D01*
G01X3560478Y2116404D01*
G01X3557494Y2116628D01*
G01X3554504Y2116701D01*
G01X3524504Y2116701D01*
G01X3521514Y2116628D01*
G01X3518530Y2116404D01*
G01X3515561Y2116031D01*
G01X3512614Y2115513D01*
G01X3509698Y2114847D01*
G01X3506818Y2114037D01*
G01X3503983Y2113082D01*
G01X3501197Y2111990D01*
G01X3498472Y2110760D01*
G01X3495810Y2109394D01*
G01X3493219Y2107898D01*
G01X3490704Y2106275D01*
G01X3488276Y2104530D01*
G01X3485937Y2102665D01*
G01X3483694Y2100684D01*
G01X3481553Y2098596D01*
G01X3479518Y2096402D01*
G01X3477595Y2094111D01*
G01X3475787Y2091726D01*
G01X3474103Y2089254D01*
G01X3472543Y2086701D01*
G01X3471111Y2084075D01*
G01X3469813Y2081378D01*
G01X3468652Y2078622D01*
G01X3467628Y2075810D01*
G01X3466747Y2072952D01*
G01X3466008Y2070052D01*
G01X3465416Y2067121D01*
G01X3464969Y2064161D01*
G01X3464672Y2061185D01*
G37*
G36*
G01X3464522Y2920202D02*
G01X3464672Y2917215D01*
G01X3464969Y2914239D01*
G01X3465416Y2911279D01*
G01X3466008Y2908348D01*
G01X3466747Y2905448D01*
G01X3467628Y2902590D01*
G01X3468652Y2899778D01*
G01X3469813Y2897022D01*
G01X3471111Y2894325D01*
G01X3472543Y2891699D01*
G01X3474103Y2889146D01*
G01X3475787Y2886674D01*
G01X3477595Y2884289D01*
G01X3479518Y2881998D01*
G01X3481553Y2879804D01*
G01X3483694Y2877716D01*
G01X3485937Y2875735D01*
G01X3488276Y2873870D01*
G01X3490704Y2872125D01*
G01X3493219Y2870502D01*
G01X3495810Y2869006D01*
G01X3498472Y2867640D01*
G01X3501197Y2866410D01*
G01X3503983Y2865318D01*
G01X3506818Y2864363D01*
G01X3509698Y2863553D01*
G01X3512614Y2862887D01*
G01X3515561Y2862369D01*
G01X3518530Y2861996D01*
G01X3521514Y2861772D01*
G01X3524504Y2861699D01*
G01X3554504Y2861699D01*
G01X3557494Y2861772D01*
G01X3560478Y2861996D01*
G01X3563447Y2862369D01*
G01X3566394Y2862887D01*
G01X3569310Y2863553D01*
G01X3572190Y2864363D01*
G01X3575025Y2865318D01*
G01X3577811Y2866410D01*
G01X3580536Y2867640D01*
G01X3583198Y2869006D01*
G01X3585789Y2870502D01*
G01X3588304Y2872125D01*
G01X3590732Y2873870D01*
G01X3593071Y2875735D01*
G01X3595314Y2877716D01*
G01X3597455Y2879804D01*
G01X3599490Y2881998D01*
G01X3601413Y2884289D01*
G01X3603221Y2886674D01*
G01X3604905Y2889146D01*
G01X3606465Y2891699D01*
G01X3607897Y2894325D01*
G01X3609195Y2897022D01*
G01X3610356Y2899778D01*
G01X3611380Y2902590D01*
G01X3612261Y2905448D01*
G01X3613000Y2908348D01*
G01X3613592Y2911279D01*
G01X3614039Y2914239D01*
G01X3614336Y2917215D01*
G01X3614486Y2920202D01*
G01X3614486Y2923195D01*
G01X3614336Y2926182D01*
G01X3614039Y2929158D01*
G01X3613592Y2932118D01*
G01X3613000Y2935049D01*
G01X3612261Y2937949D01*
G01X3611380Y2940807D01*
G01X3610356Y2943619D01*
G01X3609195Y2946375D01*
G01X3607897Y2949072D01*
G01X3606465Y2951698D01*
G01X3604905Y2954251D01*
G01X3603221Y2956723D01*
G01X3601413Y2959108D01*
G01X3599490Y2961399D01*
G01X3597455Y2963593D01*
G01X3595314Y2965681D01*
G01X3593071Y2967662D01*
G01X3590732Y2969527D01*
G01X3588304Y2971272D01*
G01X3585789Y2972895D01*
G01X3583198Y2974391D01*
G01X3580536Y2975757D01*
G01X3577811Y2976987D01*
G01X3575025Y2978079D01*
G01X3572190Y2979034D01*
G01X3569310Y2979844D01*
G01X3566394Y2980510D01*
G01X3563447Y2981028D01*
G01X3560478Y2981401D01*
G01X3557494Y2981625D01*
G01X3554504Y2981698D01*
G01X3524504Y2981698D01*
G01X3521514Y2981625D01*
G01X3518530Y2981401D01*
G01X3515561Y2981028D01*
G01X3512614Y2980510D01*
G01X3509698Y2979844D01*
G01X3506818Y2979034D01*
G01X3503983Y2978079D01*
G01X3501197Y2976987D01*
G01X3498472Y2975757D01*
G01X3495810Y2974391D01*
G01X3493219Y2972895D01*
G01X3490704Y2971272D01*
G01X3488276Y2969527D01*
G01X3485937Y2967662D01*
G01X3483694Y2965681D01*
G01X3481553Y2963593D01*
G01X3479518Y2961399D01*
G01X3477595Y2959108D01*
G01X3475787Y2956723D01*
G01X3474103Y2954251D01*
G01X3472543Y2951698D01*
G01X3471111Y2949072D01*
G01X3469813Y2946375D01*
G01X3468652Y2943619D01*
G01X3467628Y2940807D01*
G01X3466747Y2937949D01*
G01X3466008Y2935049D01*
G01X3465416Y2932118D01*
G01X3464969Y2929158D01*
G01X3464672Y2926182D01*
G01X3464522Y2923195D01*
G01X3464522Y2920202D01*
G37*
G36*
G01X2813996Y1762501D02*
G01X2813996Y1717500D01*
G01X2806998Y1712502D01*
G01X2758997Y1712502D01*
G01X2753996Y1717500D01*
G01X2753996Y1762501D01*
G01X2758997Y1767500D01*
G01X2806998Y1767500D01*
G01X2813996Y1762501D01*
G37*
G36*
G01X2909997Y1762501D02*
G01X2909997Y1717500D01*
G01X2904996Y1712502D01*
G01X2856998Y1712502D01*
G01X2849998Y1717500D01*
G01X2849998Y1762501D01*
G01X2856998Y1767500D01*
G01X2904996Y1767500D01*
G01X2909997Y1762501D01*
G37*
G36*
G01X2110497Y890996D02*
G01X2155499Y890996D01*
G01X2160497Y883998D01*
G01X2160497Y835998D01*
G01X2155499Y830996D01*
G01X2110497Y830996D01*
G01X2105499Y835998D01*
G01X2105499Y883998D01*
G01X2110497Y890996D01*
G37*
G36*
G01X2110497Y986998D02*
G01X2155499Y986998D01*
G01X2160497Y981997D01*
G01X2160497Y933998D01*
G01X2155499Y926998D01*
G01X2110497Y926998D01*
G01X2105499Y933998D01*
G01X2105499Y981997D01*
G01X2110497Y986998D01*
G37*
G36*
G01X1486498Y887996D02*
G01X1531499Y887996D01*
G01X1536498Y880998D01*
G01X1536498Y832998D01*
G01X1531499Y827996D01*
G01X1486498Y827996D01*
G01X1481499Y832998D01*
G01X1481499Y880998D01*
G01X1486498Y887996D01*
G37*
G36*
G01X1486498Y983998D02*
G01X1531499Y983998D01*
G01X1536498Y978997D01*
G01X1536498Y930998D01*
G01X1531499Y923998D01*
G01X1486498Y923998D01*
G01X1481499Y930998D01*
G01X1481499Y978997D01*
G01X1486498Y983998D01*
G37*
G36*
G01X1363498Y884996D02*
G01X1408499Y884996D01*
G01X1413498Y877998D01*
G01X1413498Y829998D01*
G01X1408499Y824996D01*
G01X1363498Y824996D01*
G01X1358499Y829998D01*
G01X1358499Y877998D01*
G01X1363498Y884996D01*
G37*
G36*
G01X1363498Y980998D02*
G01X1408499Y980998D01*
G01X1413498Y975997D01*
G01X1413498Y927998D01*
G01X1408499Y920998D01*
G01X1363498Y920998D01*
G01X1358499Y927998D01*
G01X1358499Y975997D01*
G01X1363498Y980998D01*
G37*
G36*
G01X1533802Y2874481D02*
G01X1488801Y2874481D01*
G01X1483802Y2881479D01*
G01X1483802Y2929480D01*
G01X1488801Y2934481D01*
G01X1533802Y2934481D01*
G01X1538801Y2929480D01*
G01X1538801Y2881479D01*
G01X1533802Y2874481D01*
G37*
G36*
G01X1533802Y2778480D02*
G01X1488801Y2778480D01*
G01X1483802Y2783481D01*
G01X1483802Y2831479D01*
G01X1488801Y2838479D01*
G01X1533802Y2838479D01*
G01X1538801Y2831479D01*
G01X1538801Y2783481D01*
G01X1533802Y2778480D01*
G37*
G36*
G01X2851151Y2252785D02*
G01X2851151Y2297786D01*
G01X2858149Y2302785D01*
G01X2906150Y2302785D01*
G01X2911151Y2297786D01*
G01X2911151Y2252785D01*
G01X2906150Y2247786D01*
G01X2858149Y2247786D01*
G01X2851151Y2252785D01*
G37*
G36*
G01X2755149Y2252785D02*
G01X2755149Y2297786D01*
G01X2760150Y2302785D01*
G01X2808149Y2302785D01*
G01X2815149Y2297786D01*
G01X2815149Y2252785D01*
G01X2808149Y2247786D01*
G01X2760150Y2247786D01*
G01X2755149Y2252785D01*
G37*
G36*
G01X2850003Y1603498D02*
G01X2850003Y1648499D01*
G01X2857000Y1653498D01*
G01X2905001Y1653498D01*
G01X2910003Y1648499D01*
G01X2910003Y1603498D01*
G01X2905001Y1598499D01*
G01X2857000Y1598499D01*
G01X2850003Y1603498D01*
G37*
G36*
G01X2754001Y1603498D02*
G01X2754001Y1648499D01*
G01X2759002Y1653498D01*
G01X2807000Y1653498D01*
G01X2814001Y1648499D01*
G01X2814001Y1603498D01*
G01X2807000Y1598499D01*
G01X2759002Y1598499D01*
G01X2754001Y1603498D01*
G37*
G36*
G01X3093503Y1550550D02*
G01X3144003Y1550550D01*
G01X3144003Y1570550D01*
G01X3093503Y1570550D01*
G01X3093503Y1550550D01*
G37*
G36*
G01X3144003Y1410555D02*
G01X3093503Y1410555D01*
G01X3093503Y1390556D01*
G01X3134054Y1390556D01*
G01X3144054Y1400555D01*
G01X3144003Y1410555D01*
G37*
G36*
G01X3144003Y1450560D02*
G01X3093503Y1450560D01*
G01X3093503Y1430561D01*
G01X3144003Y1430561D01*
G01X3144003Y1450560D01*
G37*
G36*
G01X3093503Y1510545D02*
G01X3144003Y1510545D01*
G01X3144003Y1530545D01*
G01X3093503Y1530545D01*
G01X3093503Y1510545D01*
G37*
G36*
G01X3144003Y1490565D02*
G01X3093503Y1490565D01*
G01X3093503Y1470566D01*
G01X3144003Y1470566D01*
G01X3144003Y1490565D01*
G37*
G36*
G01X3134059Y1610560D02*
G01X3093508Y1610560D01*
G01X3093508Y1590560D01*
G01X3144010Y1590560D01*
G01X3144064Y1600560D01*
G01X3134059Y1610560D01*
G37*
G36*
G01X3151501Y1332557D02*
G01X3171501Y1332557D01*
G01X3171501Y1383057D01*
G01X3161501Y1383108D01*
G01X3151501Y1373108D01*
G01X3151501Y1332557D01*
G37*
G36*
G01X3151514Y1628000D02*
G01X3161511Y1617997D01*
G01X3171506Y1618051D01*
G01X3171506Y1668551D01*
G01X3151514Y1668551D01*
G01X3151514Y1628000D01*
G37*
G36*
G01X3191506Y1332557D02*
G01X3211506Y1332557D01*
G01X3211506Y1383057D01*
G01X3191506Y1383057D01*
G01X3191506Y1332557D01*
G37*
G36*
G01X3211506Y1668553D02*
G01X3191506Y1668553D01*
G01X3191506Y1618053D01*
G01X3211506Y1618053D01*
G01X3211506Y1668553D01*
G37*
G36*
G01X3231511Y1332557D02*
G01X3251511Y1332557D01*
G01X3251511Y1383057D01*
G01X3231511Y1383057D01*
G01X3231511Y1332557D01*
G37*
G36*
G01X3251511Y1668553D02*
G01X3231511Y1668553D01*
G01X3231511Y1618053D01*
G01X3251511Y1618053D01*
G01X3251511Y1668553D01*
G37*
G36*
G01X3271491Y1332557D02*
G01X3291490Y1332557D01*
G01X3291490Y1383057D01*
G01X3271491Y1383057D01*
G01X3271491Y1332557D01*
G37*
G36*
G01X3291490Y1668553D02*
G01X3271491Y1668553D01*
G01X3271491Y1618053D01*
G01X3291490Y1618053D01*
G01X3291490Y1668553D01*
G37*
G36*
G01X3311496Y1332557D02*
G01X3331495Y1332557D01*
G01X3331495Y1383057D01*
G01X3311496Y1383057D01*
G01X3311496Y1332557D01*
G37*
G36*
G01X3331495Y1668553D02*
G01X3311496Y1668553D01*
G01X3311496Y1618053D01*
G01X3331495Y1618053D01*
G01X3331495Y1668553D01*
G37*
G36*
G01X3351508Y1332557D02*
G01X3371500Y1332557D01*
G01X3371500Y1373108D01*
G01X3361508Y1383108D01*
G01X3351508Y1383057D01*
G01X3351508Y1332557D01*
G37*
G36*
G01X3371508Y1668559D02*
G01X3351511Y1668559D01*
G01X3351511Y1618058D01*
G01X3361508Y1618010D01*
G01X3371508Y1628007D01*
G01X3371508Y1668559D01*
G37*
G36*
G01X3379009Y1410568D02*
G01X3378950Y1400571D01*
G01X3388960Y1390571D01*
G01X3429512Y1390571D01*
G01X3429512Y1410568D01*
G01X3379009Y1410568D01*
G37*
G36*
G01X3378953Y1600560D02*
G01X3379004Y1590560D01*
G01X3429501Y1590560D01*
G01X3429501Y1610560D01*
G01X3388953Y1610560D01*
G01X3378953Y1600560D01*
G37*
G36*
G01X3429499Y1570550D02*
G01X3378999Y1570550D01*
G01X3378999Y1550550D01*
G01X3429499Y1550550D01*
G01X3429499Y1570550D01*
G37*
G36*
G01X3378999Y1430561D02*
G01X3429499Y1430561D01*
G01X3429499Y1450560D01*
G01X3378999Y1450560D01*
G01X3378999Y1430561D01*
G37*
G36*
G01X3429499Y1530545D02*
G01X3378999Y1530545D01*
G01X3378999Y1510545D01*
G01X3429499Y1510545D01*
G01X3429499Y1530545D01*
G37*
G36*
G01X3429499Y1490565D02*
G01X3378999Y1490565D01*
G01X3378999Y1470566D01*
G01X3429499Y1470566D01*
G01X3429499Y1490565D01*
G37*
G36*
G01X3189502Y1428564D02*
G01X3189502Y1572564D01*
G01X3333507Y1572564D01*
G01X3333507Y1428564D01*
G01X3189502Y1428564D01*
G37*
G36*
G01X2813996Y1879501D02*
G01X2813996Y1834500D01*
G01X2806998Y1829501D01*
G01X2758997Y1829501D01*
G01X2753996Y1834500D01*
G01X2753996Y1879501D01*
G01X2758997Y1884500D01*
G01X2806998Y1884500D01*
G01X2813996Y1879501D01*
G37*
G36*
G01X2909997Y1879501D02*
G01X2909997Y1834500D01*
G01X2904996Y1829501D01*
G01X2856998Y1829501D01*
G01X2849998Y1834500D01*
G01X2849998Y1879501D01*
G01X2856998Y1884500D01*
G01X2904996Y1884500D01*
G01X2909997Y1879501D01*
G37*
G36*
G01X2813996Y1534501D02*
G01X2813996Y1489500D01*
G01X2806998Y1484501D01*
G01X2758997Y1484501D01*
G01X2753996Y1489500D01*
G01X2753996Y1534501D01*
G01X2758997Y1539500D01*
G01X2806998Y1539500D01*
G01X2813996Y1534501D01*
G37*
G36*
G01X2909997Y1534501D02*
G01X2909997Y1489500D01*
G01X2904996Y1484501D01*
G01X2856998Y1484501D01*
G01X2849998Y1489500D01*
G01X2849998Y1534501D01*
G01X2856998Y1539500D01*
G01X2904996Y1539500D01*
G01X2909997Y1534501D01*
G37*
G36*
G01X2309035Y925410D02*
G01X2264034Y925410D01*
G01X2259035Y932408D01*
G01X2259035Y980409D01*
G01X2264034Y985410D01*
G01X2309035Y985410D01*
G01X2314034Y980409D01*
G01X2314034Y932408D01*
G01X2309035Y925410D01*
G37*
G36*
G01X2309035Y829408D02*
G01X2264034Y829408D01*
G01X2259035Y834410D01*
G01X2259035Y882408D01*
G01X2264034Y889408D01*
G01X2309035Y889408D01*
G01X2314034Y882408D01*
G01X2314034Y834410D01*
G01X2309035Y829408D01*
G37*
G36*
G01X2725497Y887996D02*
G01X2770498Y887996D01*
G01X2775497Y880998D01*
G01X2775497Y832998D01*
G01X2770498Y827996D01*
G01X2725497Y827996D01*
G01X2720498Y832998D01*
G01X2720498Y880998D01*
G01X2725497Y887996D01*
G37*
G36*
G01X2725497Y983998D02*
G01X2770498Y983998D01*
G01X2775497Y978997D01*
G01X2775497Y930998D01*
G01X2770498Y923998D01*
G01X2725497Y923998D01*
G01X2720498Y930998D01*
G01X2720498Y978997D01*
G01X2725497Y983998D01*
G37*
G36*
G01X879003Y2062498D02*
G01X879003Y2107499D01*
G01X886001Y2112497D01*
G01X934002Y2112497D01*
G01X939003Y2107499D01*
G01X939003Y2062498D01*
G01X934002Y2057499D01*
G01X886001Y2057499D01*
G01X879003Y2062498D01*
G37*
G36*
G01X783001Y2062498D02*
G01X783001Y2107499D01*
G01X788003Y2112497D01*
G01X836001Y2112497D01*
G01X843001Y2107499D01*
G01X843001Y2062498D01*
G01X836001Y2057499D01*
G01X788003Y2057499D01*
G01X783001Y2062498D01*
G37*
G36*
G01X842996Y2557501D02*
G01X842996Y2512500D01*
G01X835999Y2507501D01*
G01X787998Y2507501D01*
G01X782996Y2512500D01*
G01X782996Y2557501D01*
G01X787998Y2562500D01*
G01X835999Y2562500D01*
G01X842996Y2557501D01*
G37*
G36*
G01X938998Y2557501D02*
G01X938998Y2512500D01*
G01X933997Y2507501D01*
G01X885998Y2507501D01*
G01X878998Y2512500D01*
G01X878998Y2557501D01*
G01X885998Y2562500D01*
G01X933997Y2562500D01*
G01X938998Y2557501D01*
G37*
G36*
G01X879003Y1831497D02*
G01X879003Y1876499D01*
G01X886001Y1881497D01*
G01X934002Y1881497D01*
G01X939003Y1876499D01*
G01X939003Y1831497D01*
G01X934002Y1826499D01*
G01X886001Y1826499D01*
G01X879003Y1831497D01*
G37*
G36*
G01X783001Y1831497D02*
G01X783001Y1876499D01*
G01X788003Y1881497D01*
G01X836001Y1881497D01*
G01X843001Y1876499D01*
G01X843001Y1831497D01*
G01X836001Y1826499D01*
G01X788003Y1826499D01*
G01X783001Y1831497D01*
G37*
G36*
G01X879003Y1945498D02*
G01X879003Y1990499D01*
G01X886001Y1995497D01*
G01X934002Y1995497D01*
G01X939003Y1990499D01*
G01X939003Y1945498D01*
G01X934002Y1940499D01*
G01X886001Y1940499D01*
G01X879003Y1945498D01*
G37*
G36*
G01X783001Y1945498D02*
G01X783001Y1990499D01*
G01X788003Y1995497D01*
G01X836001Y1995497D01*
G01X843001Y1990499D01*
G01X843001Y1945498D01*
G01X836001Y1940499D01*
G01X788003Y1940499D01*
G01X783001Y1945498D01*
G37*
G36*
G01X1410739Y2871748D02*
G01X1365737Y2871748D01*
G01X1360739Y2878746D01*
G01X1360739Y2926747D01*
G01X1365737Y2931748D01*
G01X1410739Y2931748D01*
G01X1415737Y2926747D01*
G01X1415737Y2878746D01*
G01X1410739Y2871748D01*
G37*
G36*
G01X1410739Y2775746D02*
G01X1365737Y2775746D01*
G01X1360739Y2780748D01*
G01X1360739Y2828746D01*
G01X1365737Y2835746D01*
G01X1410739Y2835746D01*
G01X1415737Y2828746D01*
G01X1415737Y2780748D01*
G01X1410739Y2775746D01*
G37*
G36*
G01X2814614Y2198145D02*
G01X2814614Y2153144D01*
G01X2807616Y2148145D01*
G01X2759616Y2148145D01*
G01X2754614Y2153144D01*
G01X2754614Y2198145D01*
G01X2759616Y2203144D01*
G01X2807616Y2203144D01*
G01X2814614Y2198145D01*
G37*
G36*
G01X2910616Y2198145D02*
G01X2910616Y2153144D01*
G01X2905615Y2148145D01*
G01X2857616Y2148145D01*
G01X2850616Y2153144D01*
G01X2850616Y2198145D01*
G01X2857616Y2203144D01*
G01X2905615Y2203144D01*
G01X2910616Y2198145D01*
G37*
G36*
G01X1611060Y2838474D02*
G01X1656061Y2838474D01*
G01X1661060Y2831477D01*
G01X1661060Y2783476D01*
G01X1656061Y2778475D01*
G01X1611060Y2778475D01*
G01X1606061Y2783476D01*
G01X1606061Y2831477D01*
G01X1611060Y2838474D01*
G37*
G36*
G01X1611060Y2934476D02*
G01X1656061Y2934476D01*
G01X1661060Y2929475D01*
G01X1661060Y2881477D01*
G01X1656061Y2874476D01*
G01X1611060Y2874476D01*
G01X1606061Y2881477D01*
G01X1606061Y2929475D01*
G01X1611060Y2934476D01*
G37*
G36*
G01X3315234Y891405D02*
G01X3361234Y891405D01*
G01X3365234Y887405D01*
G01X3365234Y837341D01*
G01X3361234Y833341D01*
G01X3315234Y833341D01*
G01X3311234Y837341D01*
G01X3311234Y887405D01*
G01X3315234Y891405D01*
G37*
G36*
G01X3315234Y918405D02*
G01X3361234Y918405D01*
G01X3365234Y922406D01*
G01X3365234Y972469D01*
G01X3361234Y976470D01*
G01X3315234Y976470D01*
G01X3311234Y972469D01*
G01X3311234Y922406D01*
G01X3315234Y918405D01*
G37*
G36*
G01X2836088Y893309D02*
G01X2882088Y893309D01*
G01X2886088Y889309D01*
G01X2886088Y839245D01*
G01X2882088Y835245D01*
G01X2836088Y835245D01*
G01X2832088Y839245D01*
G01X2832088Y889309D01*
G01X2836088Y893309D01*
G37*
G36*
G01X2836088Y920310D02*
G01X2882088Y920310D01*
G01X2886088Y924310D01*
G01X2886088Y974373D01*
G01X2882088Y978374D01*
G01X2836088Y978374D01*
G01X2832088Y974373D01*
G01X2832088Y924310D01*
G01X2836088Y920310D01*
G37*
G36*
G01X1242581Y2843787D02*
G01X1288580Y2843787D01*
G01X1292581Y2839786D01*
G01X1292581Y2789723D01*
G01X1288580Y2785722D01*
G01X1242581Y2785722D01*
G01X1238580Y2789723D01*
G01X1238580Y2839786D01*
G01X1242581Y2843787D01*
G37*
G36*
G01X1242581Y2870787D02*
G01X1288580Y2870787D01*
G01X1292581Y2874787D01*
G01X1292581Y2924851D01*
G01X1288580Y2928851D01*
G01X1242581Y2928851D01*
G01X1238580Y2924851D01*
G01X1238580Y2874787D01*
G01X1242581Y2870787D01*
G37*
G36*
G01X2845600Y2555100D02*
G01X2845600Y2601100D01*
G01X2849601Y2605100D01*
G01X2899664Y2605100D01*
G01X2903665Y2601100D01*
G01X2903665Y2555100D01*
G01X2899664Y2551100D01*
G01X2849601Y2551100D01*
G01X2845600Y2555100D01*
G37*
G36*
G01X2818600Y2555100D02*
G01X2818600Y2601100D01*
G01X2814599Y2605100D01*
G01X2764536Y2605100D01*
G01X2760536Y2601100D01*
G01X2760536Y2555100D01*
G01X2764536Y2551100D01*
G01X2814599Y2551100D01*
G01X2818600Y2555100D01*
G37*
G36*
G01X2818600Y2499500D02*
G01X2818600Y2453500D01*
G01X2814599Y2449500D01*
G01X2764536Y2449500D01*
G01X2760536Y2453500D01*
G01X2760536Y2499500D01*
G01X2764536Y2503500D01*
G01X2814599Y2503500D01*
G01X2818600Y2499500D01*
G37*
G36*
G01X2845600Y2499500D02*
G01X2845600Y2453500D01*
G01X2849601Y2449500D01*
G01X2899664Y2449500D01*
G01X2903665Y2453500D01*
G01X2903665Y2499500D01*
G01X2899664Y2503500D01*
G01X2849601Y2503500D01*
G01X2845600Y2499500D01*
G37*
G36*
G01X2839822Y2954001D02*
G01X2839822Y3000001D01*
G01X2843822Y3004001D01*
G01X2893886Y3004001D01*
G01X2897886Y3000001D01*
G01X2897886Y2954001D01*
G01X2893886Y2950001D01*
G01X2843822Y2950001D01*
G01X2839822Y2954001D01*
G37*
G36*
G01X2812821Y2954001D02*
G01X2812821Y3000001D01*
G01X2808821Y3004001D01*
G01X2758758Y3004001D01*
G01X2754757Y3000001D01*
G01X2754757Y2954001D01*
G01X2758758Y2950001D01*
G01X2808821Y2950001D01*
G01X2812821Y2954001D01*
G37*
G36*
G01X2813844Y3083963D02*
G01X2813844Y3037963D01*
G01X2809844Y3033963D01*
G01X2759780Y3033963D01*
G01X2755780Y3037963D01*
G01X2755780Y3083963D01*
G01X2759780Y3087963D01*
G01X2809844Y3087963D01*
G01X2813844Y3083963D01*
G37*
G36*
G01X2840844Y3083963D02*
G01X2840844Y3037963D01*
G01X2844845Y3033963D01*
G01X2894908Y3033963D01*
G01X2898909Y3037963D01*
G01X2898909Y3083963D01*
G01X2894908Y3087963D01*
G01X2844845Y3087963D01*
G01X2840844Y3083963D01*
G37*
G36*
G01X2818951Y2098407D02*
G01X2818951Y2052407D01*
G01X2814950Y2048407D01*
G01X2764887Y2048407D01*
G01X2760887Y2052407D01*
G01X2760887Y2098407D01*
G01X2764887Y2102407D01*
G01X2814950Y2102407D01*
G01X2818951Y2098407D01*
G37*
G36*
G01X2845951Y2098407D02*
G01X2845951Y2052407D01*
G01X2849952Y2048407D01*
G01X2900015Y2048407D01*
G01X2904016Y2052407D01*
G01X2904016Y2098407D01*
G01X2900015Y2102407D01*
G01X2849952Y2102407D01*
G01X2845951Y2098407D01*
G37*
G36*
G01X874500Y928000D02*
G01X874500Y973999D01*
G01X878500Y978000D01*
G01X928564Y978000D01*
G01X932564Y973999D01*
G01X932564Y928000D01*
G01X928564Y923999D01*
G01X878500Y923999D01*
G01X874500Y928000D01*
G37*
G36*
G01X847500Y928000D02*
G01X847500Y973999D01*
G01X843499Y978000D01*
G01X793436Y978000D01*
G01X789435Y973999D01*
G01X789435Y928000D01*
G01X793436Y923999D01*
G01X843499Y923999D01*
G01X847500Y928000D01*
G37*
G36*
G01X2014999Y922500D02*
G01X1969000Y922500D01*
G01X1964999Y926500D01*
G01X1964999Y976564D01*
G01X1969000Y980564D01*
G01X2014999Y980564D01*
G01X2019000Y976564D01*
G01X2019000Y926500D01*
G01X2014999Y922500D01*
G37*
G36*
G01X2014999Y895500D02*
G01X1969000Y895500D01*
G01X1964999Y891499D01*
G01X1964999Y841436D01*
G01X1969000Y837435D01*
G01X2014999Y837435D01*
G01X2019000Y841436D01*
G01X2019000Y891499D01*
G01X2014999Y895500D01*
G37*
G36*
G01X874500Y1166665D02*
G01X874500Y1212664D01*
G01X878500Y1216665D01*
G01X928564Y1216665D01*
G01X932564Y1212664D01*
G01X932564Y1166665D01*
G01X928564Y1162664D01*
G01X878500Y1162664D01*
G01X874500Y1166665D01*
G37*
G36*
G01X847500Y1166665D02*
G01X847500Y1212664D01*
G01X843499Y1216665D01*
G01X793436Y1216665D01*
G01X789435Y1212664D01*
G01X789435Y1166665D01*
G01X793436Y1162664D01*
G01X843499Y1162664D01*
G01X847500Y1166665D01*
G37*
G36*
G01X847769Y2680417D02*
G01X847769Y2634417D01*
G01X843769Y2630417D01*
G01X793705Y2630417D01*
G01X789705Y2634417D01*
G01X789705Y2680417D01*
G01X793705Y2684417D01*
G01X843769Y2684417D01*
G01X847769Y2680417D01*
G37*
G36*
G01X874769Y2680417D02*
G01X874769Y2634417D01*
G01X878770Y2630417D01*
G01X928833Y2630417D01*
G01X932834Y2634417D01*
G01X932834Y2680417D01*
G01X928833Y2684417D01*
G01X878770Y2684417D01*
G01X874769Y2680417D01*
G37*
G36*
G01X432895Y761390D02*
G01X432895Y807390D01*
G01X436895Y811390D01*
G01X486959Y811390D01*
G01X490959Y807390D01*
G01X490959Y761390D01*
G01X486959Y757390D01*
G01X436895Y757390D01*
G01X432895Y761390D01*
G37*
G36*
G01X405895Y761390D02*
G01X405895Y807390D01*
G01X401894Y811390D01*
G01X351831Y811390D01*
G01X347830Y807390D01*
G01X347830Y761390D01*
G01X351831Y757390D01*
G01X401894Y757390D01*
G01X405895Y761390D01*
G37*
G36*
G01X433500Y895000D02*
G01X433500Y940999D01*
G01X437501Y945000D01*
G01X487564Y945000D01*
G01X491564Y940999D01*
G01X491564Y895000D01*
G01X487564Y890999D01*
G01X437501Y890999D01*
G01X433500Y895000D01*
G37*
G36*
G01X406500Y895000D02*
G01X406500Y940999D01*
G01X402499Y945000D01*
G01X352436Y945000D01*
G01X348435Y940999D01*
G01X348435Y895000D01*
G01X352436Y890999D01*
G01X402499Y890999D01*
G01X406500Y895000D01*
G37*
G36*
G01X433500Y1030000D02*
G01X433500Y1075999D01*
G01X437501Y1080000D01*
G01X487564Y1080000D01*
G01X491564Y1075999D01*
G01X491564Y1030000D01*
G01X487564Y1025999D01*
G01X437501Y1025999D01*
G01X433500Y1030000D01*
G37*
G36*
G01X406500Y1030000D02*
G01X406500Y1075999D01*
G01X402499Y1080000D01*
G01X352436Y1080000D01*
G01X348435Y1075999D01*
G01X348435Y1030000D01*
G01X352436Y1025999D01*
G01X402499Y1025999D01*
G01X406500Y1030000D01*
G37*
G36*
G01X874500Y1717000D02*
G01X874500Y1762999D01*
G01X878500Y1767000D01*
G01X928564Y1767000D01*
G01X932564Y1762999D01*
G01X932564Y1717000D01*
G01X928564Y1712999D01*
G01X878500Y1712999D01*
G01X874500Y1717000D01*
G37*
G36*
G01X847500Y1717000D02*
G01X847500Y1762999D01*
G01X843499Y1767000D01*
G01X793436Y1767000D01*
G01X789435Y1762999D01*
G01X789435Y1717000D01*
G01X793436Y1712999D01*
G01X843499Y1712999D01*
G01X847500Y1717000D01*
G37*
G36*
G01X874500Y1291000D02*
G01X874500Y1336999D01*
G01X878500Y1341000D01*
G01X928564Y1341000D01*
G01X932564Y1336999D01*
G01X932564Y1291000D01*
G01X928564Y1286999D01*
G01X878500Y1286999D01*
G01X874500Y1291000D01*
G37*
G36*
G01X847500Y1291000D02*
G01X847500Y1336999D01*
G01X843499Y1341000D01*
G01X793436Y1341000D01*
G01X789435Y1336999D01*
G01X789435Y1291000D01*
G01X793436Y1286999D01*
G01X843499Y1286999D01*
G01X847500Y1291000D01*
G37*
G36*
G01X875382Y1043690D02*
G01X875382Y1089690D01*
G01X879382Y1093690D01*
G01X929445Y1093690D01*
G01X933446Y1089690D01*
G01X933446Y1043690D01*
G01X929445Y1039690D01*
G01X879382Y1039690D01*
G01X875382Y1043690D01*
G37*
G36*
G01X848381Y1043690D02*
G01X848381Y1089690D01*
G01X844381Y1093690D01*
G01X794317Y1093690D01*
G01X790317Y1089690D01*
G01X790317Y1043690D01*
G01X794317Y1039690D01*
G01X844381Y1039690D01*
G01X848381Y1043690D01*
G37*
G36*
G01X184903Y893227D02*
G01X184903Y939227D01*
G01X188903Y943227D01*
G01X246752Y943227D01*
G01X250752Y939227D01*
G01X250752Y893227D01*
G01X246752Y889227D01*
G01X188903Y889227D01*
G01X184903Y893227D01*
G37*
G36*
G01X145304Y893227D02*
G01X145304Y939227D01*
G01X141304Y943227D01*
G01X83455Y943227D01*
G01X79455Y939227D01*
G01X79455Y893227D01*
G01X83455Y889227D01*
G01X141304Y889227D01*
G01X145304Y893227D01*
G37*
G36*
G01X184192Y1030407D02*
G01X184192Y1076407D01*
G01X188192Y1080407D01*
G01X246041Y1080407D01*
G01X250041Y1076407D01*
G01X250041Y1030407D01*
G01X246041Y1026407D01*
G01X188192Y1026407D01*
G01X184192Y1030407D01*
G37*
G36*
G01X144593Y1030407D02*
G01X144593Y1076407D01*
G01X140593Y1080407D01*
G01X82744Y1080407D01*
G01X78744Y1076407D01*
G01X78744Y1030407D01*
G01X82744Y1026407D01*
G01X140593Y1026407D01*
G01X144593Y1030407D01*
G37*
G36*
G01X184972Y760958D02*
G01X184972Y806957D01*
G01X188972Y810958D01*
G01X246821Y810958D01*
G01X250821Y806957D01*
G01X250821Y760958D01*
G01X246821Y756957D01*
G01X188972Y756957D01*
G01X184972Y760958D01*
G37*
G36*
G01X145373Y760958D02*
G01X145373Y806957D01*
G01X141373Y810958D01*
G01X83524Y810958D01*
G01X79524Y806957D01*
G01X79524Y760958D01*
G01X83524Y756957D01*
G01X141373Y756957D01*
G01X145373Y760958D01*
G37*

G04 Pad Start*
G54D10*
G01X2923388Y2832100D03*
G01X2715412Y2832100D03*
G54D11*
G01X2617995Y1003000D03*
G01X2428003Y1003000D03*
G01X2522999Y803000D03*
G54D12*
G01X958000Y2215003D03*
G01X958000Y2404995D03*
G01X758000Y2309999D03*
G54D13*
G01X274745Y1260512D03*
G01X274745Y1595513D03*
G54D14*
G01X91255Y1203006D03*
G01X91255Y1652993D03*
G54D15*
G01X1325020Y1524994D03*
G01X1325020Y1575007D03*
G01X1325020Y1624994D03*
G01X1325020Y1675007D03*
G01X1325020Y1724994D03*
G01X1325020Y1775007D03*
G01X1325020Y1824994D03*
G01X1325020Y1875006D03*
G01X1325020Y1924994D03*
G01X1325020Y1975006D03*
G01X1325020Y2024993D03*
G01X1325020Y2075006D03*
G01X1325020Y2124993D03*
G01X1325020Y2175006D03*
G01X1325020Y2224993D03*
G01X1325020Y2275006D03*
G54D16*
G01X1524994Y2474980D03*
G01X1575007Y2474980D03*
G01X1624994Y2474980D03*
G01X1675007Y2474980D03*
G01X1724994Y2474980D03*
G01X1775007Y2474980D03*
G01X1824994Y2474980D03*
G01X1875006Y2474980D03*
G01X1924994Y2474980D03*
G01X1975006Y2474980D03*
G01X2024993Y2474980D03*
G01X2075006Y2474980D03*
G01X2124993Y2474980D03*
G01X2175006Y2474980D03*
G01X2224993Y2474980D03*
G01X2275006Y2474980D03*
G54D15*
G01X2474980Y2275006D03*
G01X2474980Y2224993D03*
G01X2474980Y2175006D03*
G01X2474980Y2124993D03*
G01X2474980Y2075006D03*
G01X2474980Y2024993D03*
G01X2474980Y1975006D03*
G01X2474980Y1924994D03*
G01X2474980Y1875006D03*
G01X2474980Y1824994D03*
G01X2474980Y1775007D03*
G01X2474980Y1724994D03*
G01X2474980Y1675007D03*
G01X2474980Y1624994D03*
G01X2474980Y1575007D03*
G01X2474980Y1524994D03*
G54D16*
G01X2275006Y1325020D03*
G01X2224993Y1325020D03*
G01X2175006Y1325020D03*
G01X2124993Y1325020D03*
G01X2075006Y1325020D03*
G01X2024993Y1325020D03*
G01X1975006Y1325020D03*
G01X1924994Y1325020D03*
G01X1875006Y1325020D03*
G01X1824994Y1325020D03*
G01X1775007Y1325020D03*
G01X1724994Y1325020D03*
G01X1675007Y1325020D03*
G01X1624994Y1325020D03*
G01X1575007Y1325020D03*
G01X1524994Y1325020D03*
G54D17*
G01X2160029Y3332893D03*
G01X2260029Y3332893D03*
G01X2360029Y3332893D03*
G01X2460029Y3332893D03*
G01X2560028Y3332893D03*
G01X2860028Y3332893D03*
G01X2760028Y3332893D03*
G01X2660028Y3332893D03*
G54D18*
G01X2050022Y3672897D03*
G01X2970035Y3672897D03*
G54D20*
G01X153972Y2216756D03*
G54D21*
G01X493976Y1906749D03*
G01X493976Y2006748D03*
G01X493976Y2106748D03*
G54D20*
G01X153972Y1796767D03*
G54D22*
G01X1015213Y3287103D03*
G01X915213Y3287103D03*
G54D23*
G01X800202Y3647097D03*
G01X1130198Y3647097D03*
G54D18*
G01X1796817Y3672897D03*
G54D17*
G01X1486810Y3332893D03*
G01X1586809Y3332893D03*
G01X1686809Y3332893D03*
G54D18*
G01X1376828Y3672897D03*
G54D17*
G01X1182490Y488002D03*
G01X882490Y488002D03*
G01X982490Y488002D03*
G01X1082490Y488002D03*
G54D18*
G01X1292472Y147998D03*
G01X772483Y147998D03*
G54D21*
G01X493976Y2549245D03*
G01X493976Y2849244D03*
G01X493976Y2749244D03*
G01X493976Y2649245D03*
G54D20*
G01X153972Y2439263D03*
G01X153972Y2959252D03*
G54D17*
G01X2003566Y488002D03*
G01X1903566Y488002D03*
G01X1603567Y488002D03*
G01X1703567Y488002D03*
G01X1803566Y488002D03*
G54D18*
G01X2113548Y147998D03*
G01X1493559Y147998D03*
G01X2314633Y147998D03*
G01X3034621Y147998D03*
G54D17*
G01X2624640Y488002D03*
G01X2524640Y488002D03*
G01X2424640Y488002D03*
G01X2724639Y488002D03*
G01X2824639Y488002D03*
G01X2924639Y488002D03*
G54D24*
G01X1871076Y909794D03*
G01X1751086Y909794D03*
G01X1631096Y909794D03*
G54D25*
G01X3008310Y796929D03*
G01X3198302Y796929D03*
G01X3103306Y1017197D03*
G54D26*
G01X968134Y2791003D03*
G01X968134Y2980995D03*
G01X747865Y2885999D03*
G54D27*
G01X785508Y1438489D03*
G01X785508Y1503513D03*
G01X785508Y1568486D03*
G01X785508Y1633510D03*
G01X930491Y1438489D03*
G01X930491Y1503513D03*
G01X930491Y1568486D03*
G01X930491Y1633510D03*
G04 Pad End*

M02*

