G04 Layer: BottomSolderMaskLayer*
G04 EasyEDA Pro v2.2.43.4, 2025-10-30 23:12:03*
G04 Gerber Generator version 0.3*
G04 Scale: 100 percent, Rotated: No, Reflected: No*
G04 Dimensions in millimeters*
G04 Leading zeros omitted, absolute positions, 4 integers and 5 decimals*
G04 Generated by one-click*
%FSLAX45Y45*%
%MOMM*%
%AMRoundRect*1,1,$1,$2,$3*1,1,$1,$4,$5*1,1,$1,0-$2,0-$3*1,1,$1,0-$4,0-$5*20,1,$1,$2,$3,$4,$5,0*20,1,$1,$4,$5,0-$2,0-$3,0*20,1,$1,0-$2,0-$3,0-$4,0-$5,0*20,1,$1,0-$4,0-$5,$2,$3,0*4,1,4,$2,$3,$4,$5,0-$2,0-$3,0-$4,0-$5,$2,$3,0*%
%ADD10C,5.602*%
%ADD11RoundRect,0.73347X-0.31926X0.31926X0.31926X0.31926*%
%ADD12RoundRect,0.09495X-0.70833X0.67833X0.70833X0.67833*%
%ADD13RoundRect,0.09815X-1.25192X1.50687X1.25192X1.50687*%
%ADD14RoundRect,0.09804X-1.21398X1.81198X1.21398X1.81198*%
%ADD15RoundRect,0.09017X-0.35571X-0.63072X-0.35571X0.63072*%
%ADD16O,1.902X0.702*%
%ADD17RoundRect,0.09783X-1.14708X-1.14708X-1.14708X1.14708*%
%ADD18O,0.4458X1.83309*%
%ADD19O,0.4446X1.83309*%
%ADD20RoundRect,0.0968X-3.35162X1.45161X3.35162X1.45161*%
%ADD21O,2.10002X1.20002*%
%ADD22O,1.90002X1.30002*%
%ADD23RoundRect,0.09534X-0.75333X0.68278X0.75333X0.68278*%
%ADD24RoundRect,0.08573X-0.25715X0.85714X0.25715X0.85714*%
%ADD25RoundRect,0.09288X-0.60357X1.25357X0.60357X1.25357*%
%ADD26RoundRect,0.09288X-1.25357X-0.60357X-1.25357X0.60357*%
%ADD27RoundRect,0.08573X-0.85714X-0.25715X-0.85714X0.25715*%
%ADD28RoundRect,0.09706X-0.95247X1.20247X0.95247X1.20247*%
%ADD29RoundRect,0.09728X-1.00236X1.00236X1.00236X1.00236*%
%ADD30O,2.35201X0.732*%
%ADD31RoundRect,0.08771X-0.40199X0.27695X0.40199X0.27695*%
%ADD32RoundRect,0.08771X-0.27695X-0.40199X-0.27695X0.40199*%
%ADD33RoundRect,0.08771X-0.28977X0.27695X0.28977X0.27695*%
%ADD34RoundRect,0.08771X-0.27695X-0.28977X-0.27695X0.28977*%
G75*


G04 Pad Start*
G54D10*
G01X377000Y3425000D03*
G01X3427000Y3425000D03*
G01X3427000Y375000D03*
G01X377000Y375000D03*
G54D11*
G01X2788655Y3674672D03*
G01X2969383Y3674672D03*
G01X2607927Y3674672D03*
G01X2427200Y3674672D03*
G01X2246472Y3674672D03*
G01X2065744Y3674672D03*
G01X1885017Y3674672D03*
G01X1704289Y3674672D03*
G01X800651Y3674672D03*
G01X981378Y3674672D03*
G01X1162106Y3674672D03*
G01X1523561Y3674672D03*
G01X1342834Y3674672D03*
G01X119204Y2288150D03*
G01X119204Y2104661D03*
G01X119204Y1921172D03*
G54D12*
G01X2617800Y2957724D03*
G01X2817800Y2957724D03*
G01X2617800Y3146849D03*
G01X2817800Y3146849D03*
G54D13*
G01X739520Y2220712D03*
G01X1378812Y2220712D03*
G54D14*
G01X1517251Y2870200D03*
G01X891649Y2870200D03*
G54D15*
G01X1803245Y1459004D03*
G01X1613253Y1459004D03*
G01X1708249Y1659004D03*
G54D16*
G01X1792859Y2755900D03*
G01X1792859Y2882900D03*
G01X1792859Y3009900D03*
G01X1792859Y3136900D03*
G01X2347341Y2755900D03*
G01X2347341Y2882900D03*
G01X2347341Y3009900D03*
G01X2347341Y3136900D03*
G54D17*
G01X2070100Y2946400D03*
G54D19*
G01X2923735Y628375D03*
G01X2858737Y628375D03*
G01X2793738Y628375D03*
G01X2728740Y628375D03*
G01X2663741Y628375D03*
G01X2598742Y628375D03*
G01X2533744Y628375D03*
G01X2468745Y628375D03*
G01X2403721Y628375D03*
G01X2338723Y628375D03*
G01X2273724Y628375D03*
G01X2208725Y628375D03*
G01X2143727Y628375D03*
G01X2078728Y628375D03*
G01X2923735Y1201526D03*
G01X2858737Y1201526D03*
G01X2793738Y1201526D03*
G01X2728740Y1201526D03*
G01X2663741Y1201526D03*
G01X2598742Y1201526D03*
G01X2533744Y1201526D03*
G01X2468745Y1201526D03*
G01X2403721Y1201526D03*
G01X2338723Y1201526D03*
G01X2273724Y1201526D03*
G01X2208725Y1201526D03*
G01X2143727Y1201526D03*
G01X2078728Y1201526D03*
G54D20*
G01X2501232Y914938D03*
G54D21*
G01X3119488Y2056702D03*
G01X3119488Y2921699D03*
G54D22*
G01X3539503Y2056702D03*
G01X3539503Y2921699D03*
G54D23*
G01X2215591Y399432D03*
G01X2455570Y399432D03*
G01X2215591Y196232D03*
G01X2455570Y196232D03*
G54D24*
G01X1593240Y488292D03*
G01X1893239Y488292D03*
G01X1793239Y488292D03*
G01X1693239Y488292D03*
G54D25*
G01X1483258Y148287D03*
G01X2003246Y148287D03*
G54D24*
G01X880116Y488987D03*
G01X1180115Y488987D03*
G01X1080115Y488987D03*
G01X980116Y488987D03*
G54D25*
G01X770134Y148983D03*
G01X1290123Y148983D03*
G54D26*
G01X157191Y2544473D03*
G54D27*
G01X497196Y2854480D03*
G01X497196Y2754480D03*
G01X497196Y2654480D03*
G54D26*
G01X157191Y2964462D03*
G54D28*
G01X2233264Y1564659D03*
G01X2623255Y1564659D03*
G54D29*
G01X1759008Y2221621D03*
G01X2199012Y2221621D03*
G54D30*
G01X621991Y832500D03*
G01X621991Y959500D03*
G01X621991Y1086500D03*
G01X621991Y1213500D03*
G01X1328009Y832500D03*
G01X1328009Y959500D03*
G01X1328009Y1086500D03*
G01X1328009Y1213500D03*
G54D12*
G01X2617800Y2768600D03*
G01X2817800Y2768600D03*
G54D31*
G01X2137308Y2603500D03*
G01X2028292Y2603500D03*
G01X667258Y1903863D03*
G01X776275Y1903863D03*
G54D32*
G01X1473723Y1614808D03*
G01X1473723Y1505792D03*
G01X1931999Y1505491D03*
G01X1931999Y1614508D03*
G01X2874563Y350371D03*
G01X2874563Y241354D03*
G01X2048479Y1506216D03*
G01X2048479Y1615233D03*
G01X2744772Y350371D03*
G01X2744772Y241354D03*
G01X1320000Y1505491D03*
G01X1320000Y1614508D03*
G54D33*
G01X1585714Y3292933D03*
G01X1672278Y3292933D03*
G01X1792831Y3292933D03*
G01X1879394Y3292933D03*
G54D34*
G01X3004354Y339347D03*
G01X3004354Y252784D03*
G01X2614981Y252784D03*
G01X2614981Y339347D03*
G54D33*
G01X2576142Y2628900D03*
G01X2662706Y2628900D03*
G01X2662706Y2528080D03*
G01X2576142Y2528080D03*
G04 Pad End*

M02*

